<?xml version="1.0" standalone="no"?>
<!DOCTYPE svg PUBLIC "-//W3C//DTD SVG 1.1//EN" "http://www.w3.org/Graphics/SVG/1.1/DTD/svg11.dtd">
<svg width="100%" height="100%" viewBox="0 0 1248 879" version="1.1" xmlns="http://www.w3.org/2000/svg" xmlns:xlink="http://www.w3.org/1999/xlink" xml:space="preserve" style="fill-rule:evenodd;clip-rule:evenodd;stroke-miterlimit:1.41421;">
    <g>
        <path d="M435.063,727.422L420.683,736.503L420.229,735.784L434.609,726.703L435.063,727.422Z" style="fill:none;stroke-width:1px;stroke:rgb(0,0,255);"/>
        <path d="M89.65,203.944L102.114,192.372L102.693,192.995L90.229,204.567L89.65,203.944Z" style="fill:none;stroke-width:1px;stroke:rgb(0,0,255);"/>
        <path d="M351.125,288.289L367.548,283.866L367.769,284.688L351.347,289.11L351.125,288.289Z" style="fill:none;stroke-width:1px;stroke:rgb(0,0,255);"/>
        <path d="M188.102,534.513L178.099,520.758L178.787,520.258L188.79,534.013L188.102,534.513Z" style="fill:none;stroke-width:1px;stroke:rgb(0,0,255);"/>
        <path d="M352.231,292.395L368.654,287.972L368.875,288.793L352.452,293.216L352.231,292.395Z" style="fill:none;stroke-width:1px;stroke:rgb(0,0,255);"/>
        <path d="M500.113,621.45L502.144,638.336L501.299,638.437L499.269,621.551L500.113,621.45Z" style="fill:none;stroke-width:1px;stroke:rgb(0,0,255);"/>
        <path d="M12.929,311.422L12.772,294.415L13.623,294.407L13.78,311.414L12.929,311.422Z" style="fill:none;stroke-width:1px;stroke:rgb(0,0,255);"/>
        <path d="M1149.34,487.175L1145.03,503.627L1144.21,503.412L1148.52,486.96L1149.34,487.175Z" style="fill:none;stroke-width:1px;stroke:rgb(0,0,255);"/>
        <path d="M69.913,384.738L57.611,372.993L58.199,372.378L70.501,384.123L69.913,384.738Z" style="fill:none;stroke-width:1px;stroke:rgb(0,0,255);"/>
        <path d="M307.543,657.088L293.781,647.095L294.28,646.407L308.043,656.4L307.543,657.088Z" style="fill:none;stroke-width:1px;stroke:rgb(0,0,255);"/>
        <path d="M1093.31,242.735L1110.32,242.901L1110.31,243.751L1093.3,243.586L1093.31,242.735Z" style="fill:none;stroke-width:1px;stroke:rgb(0,0,255);"/>
        <path d="M86.757,200.828L99.221,189.256L99.8,189.879L87.336,201.451L86.757,200.828Z" style="fill:none;stroke-width:1px;stroke:rgb(0,0,255);"/>
        <path d="M504.335,620.942L506.365,637.828L505.521,637.93L503.49,621.043L504.335,620.942Z" style="fill:none;stroke-width:1px;stroke:rgb(0,0,255);"/>
        <path d="M8.678,311.461L8.52,294.454L9.371,294.446L9.528,311.453L8.678,311.461Z" style="fill:none;stroke-width:1px;stroke:rgb(0,0,255);"/>
        <path d="M192.415,153.206L200.036,168.411L199.276,168.792L191.655,153.587L192.415,153.206Z" style="fill:none;stroke-width:1px;stroke:rgb(0,0,255);"/>
        <path d="M975.946,320.089L983.736,304.97L984.492,305.36L976.702,320.478L975.946,320.089Z" style="fill:none;stroke-width:1px;stroke:rgb(0,0,255);"/>
        <path d="M1093.27,246.987L1110.27,247.153L1110.27,248.003L1093.26,247.837L1093.27,246.987Z" style="fill:none;stroke-width:1px;stroke:rgb(0,0,255);"/>
        <path d="M305.045,660.529L291.282,650.536L291.782,649.848L305.545,659.841L305.045,660.529Z" style="fill:none;stroke-width:1px;stroke:rgb(0,0,255);"/>
        <path d="M191.541,532.012L181.538,518.257L182.225,517.757L192.229,531.512L191.541,532.012Z" style="fill:none;stroke-width:1px;stroke:rgb(0,0,255);"/>
        <path d="M66.977,387.813L54.675,376.069L55.263,375.454L67.565,387.198L66.977,387.813Z" style="fill:none;stroke-width:1px;stroke:rgb(0,0,255);"/>
        <path d="M1170.41,331.829L1168.35,348.71L1167.5,348.607L1169.57,331.725L1170.41,331.829Z" style="fill:none;stroke-width:1px;stroke:rgb(0,0,255);"/>
        <path d="M462.148,527.181L472.151,540.936L471.463,541.436L461.46,527.681L462.148,527.181Z" style="fill:none;stroke-width:1px;stroke:rgb(0,0,255);"/>
        <path d="M432.793,723.827L418.413,732.908L417.958,732.189L432.339,723.108L432.793,723.827Z" style="fill:none;stroke-width:1px;stroke:rgb(0,0,255);"/>
        <path d="M188.614,155.111L196.235,170.316L195.475,170.697L187.854,155.492L188.614,155.111Z" style="fill:none;stroke-width:1px;stroke:rgb(0,0,255);"/>
        <path d="M1174.63,332.346L1172.57,349.227L1171.72,349.124L1173.79,332.242L1174.63,332.346Z" style="fill:none;stroke-width:1px;stroke:rgb(0,0,255);"/>
        <path d="M458.709,529.682L468.712,543.437L468.025,543.937L458.021,530.182L458.709,529.682Z" style="fill:none;stroke-width:1px;stroke:rgb(0,0,255);"/>
        <path d="M347.702,749.508L347.478,732.502L348.328,732.491L348.552,749.497L347.702,749.508Z" style="fill:none;stroke-width:1px;stroke:rgb(0,0,255);"/>
        <path d="M351.954,749.452L351.729,732.446L352.579,732.435L352.804,749.441L351.954,749.452Z" style="fill:none;stroke-width:1px;stroke:rgb(0,0,255);"/>
        <path d="M979.725,322.037L987.516,306.918L988.272,307.307L980.481,322.426L979.725,322.037Z" style="fill:none;stroke-width:1px;stroke:rgb(0,0,255);"/>
        <path d="M1145.23,486.097L1140.92,502.549L1140.09,502.333L1144.41,485.881L1145.23,486.097Z" style="fill:none;stroke-width:1px;stroke:rgb(0,0,255);"/>
        <path d="M76.669,326.696L76.327,323.882L90.171,322.195L90.514,325.009L76.669,326.696Z" style="fill:none;stroke-width:1px;stroke:rgb(0,0,255);"/>
        <path d="M764.764,520.595L765.45,517.845L778.983,521.217L778.298,523.968L764.764,520.595Z" style="fill:none;stroke-width:1px;stroke:rgb(0,0,255);"/>
        <path d="M560.896,243.452L563.728,243.33L564.329,257.264L561.497,257.386L560.896,243.452Z" style="fill:none;stroke-width:1px;stroke:rgb(0,0,255);"/>
        <path d="M504.635,327.898L507.397,327.259L510.542,340.847L507.781,341.486L504.635,327.898Z" style="fill:none;stroke-width:1px;stroke:rgb(0,0,255);"/>
        <path d="M215.118,309.829L214.775,307.015L228.62,305.328L228.963,308.142L215.118,309.829Z" style="fill:none;stroke-width:1px;stroke:rgb(0,0,255);"/>
        <path d="M640.6,277.798L639.062,275.417L650.779,267.851L652.316,270.232L640.6,277.798Z" style="fill:none;stroke-width:1px;stroke:rgb(0,0,255);"/>
        <path d="M832.431,537.457L833.117,534.706L846.65,538.078L845.965,540.829L832.431,537.457Z" style="fill:none;stroke-width:1px;stroke:rgb(0,0,255);"/>
        <path d="M238.775,340.973L240.442,343.265L229.162,351.469L227.495,349.176L238.775,340.973Z" style="fill:none;stroke-width:1px;stroke:rgb(0,0,255);"/>
        <path d="M775.757,582.16L775.442,579.343L789.303,577.792L789.618,580.609L775.757,582.16Z" style="fill:none;stroke-width:1px;stroke:rgb(0,0,255);"/>
        <path d="M845.061,574.406L844.746,571.589L858.606,570.038L858.922,572.855L845.061,574.406Z" style="fill:none;stroke-width:1px;stroke:rgb(0,0,255);"/>
        <path d="M310.158,581.406L308.49,579.114L319.77,570.91L321.437,573.203L310.158,581.406Z" style="fill:none;stroke-width:1px;stroke:rgb(0,0,255);"/>
        <path d="M366.556,540.39L364.889,538.098L376.169,529.894L377.836,532.187L366.556,540.39Z" style="fill:none;stroke-width:1px;stroke:rgb(0,0,255);"/>
        <path d="M699.18,365.825L696.396,365.289L699.033,351.593L701.817,352.129L699.18,365.825Z" style="fill:none;stroke-width:1px;stroke:rgb(0,0,255);"/>
        <path d="M747.383,502.019L747.551,499.189L761.474,500.013L761.306,502.842L747.383,502.019Z" style="fill:none;stroke-width:1px;stroke:rgb(0,0,255);"/>
        <path d="M467.033,339.864L469.338,338.214L477.454,349.557L475.148,351.207L467.033,339.864Z" style="fill:none;stroke-width:1px;stroke:rgb(0,0,255);"/>
        <path d="M488.907,259.959L491.669,259.319L494.815,272.907L492.053,273.546L488.907,259.959Z" style="fill:none;stroke-width:1px;stroke:rgb(0,0,255);"/>
        <path d="M422.419,688.94L422.227,686.112L436.142,685.165L436.335,687.994L422.419,688.94Z" style="fill:none;stroke-width:1px;stroke:rgb(0,0,255);"/>
        <path d="M78.694,292.295L77.256,289.852L89.276,282.777L90.714,285.22L78.694,292.295Z" style="fill:none;stroke-width:1px;stroke:rgb(0,0,255);"/>
        <path d="M756.617,626.167L758.022,623.705L770.135,630.619L768.73,633.081L756.617,626.167Z" style="fill:none;stroke-width:1px;stroke:rgb(0,0,255);"/>
        <path d="M334.921,609.613L334.398,606.827L348.106,604.255L348.629,607.041L334.921,609.613Z" style="fill:none;stroke-width:1px;stroke:rgb(0,0,255);"/>
        <path d="M513.639,246.173L516.021,244.636L523.583,256.355L521.201,257.892L513.639,246.173Z" style="fill:none;stroke-width:1px;stroke:rgb(0,0,255);"/>
        <path d="M74.119,252.352L73.296,249.639L86.643,245.59L87.465,248.303L74.119,252.352Z" style="fill:none;stroke-width:1px;stroke:rgb(0,0,255);"/>
        <path d="M817.182,660.735L818.587,658.273L830.7,665.187L829.295,667.649L817.182,660.735Z" style="fill:none;stroke-width:1px;stroke:rgb(0,0,255);"/>
        <path d="M834.677,446.254L836.599,444.17L846.85,453.628L844.928,455.711L834.677,446.254Z" style="fill:none;stroke-width:1px;stroke:rgb(0,0,255);"/>
        <path d="M140.852,232.108L140.029,229.396L153.376,225.347L154.199,228.06L140.852,232.108Z" style="fill:none;stroke-width:1px;stroke:rgb(0,0,255);"/>
        <path d="M138.792,256.92L137.354,254.477L149.374,247.403L150.812,249.846L138.792,256.92Z" style="fill:none;stroke-width:1px;stroke:rgb(0,0,255);"/>
        <path d="M1011.15,403.798L1011.87,401.056L1025.37,404.593L1024.65,407.335L1011.15,403.798Z" style="fill:none;stroke-width:1px;stroke:rgb(0,0,255);"/>
        <path d="M557.893,173.78L560.725,173.658L561.325,187.592L558.493,187.714L557.893,173.78Z" style="fill:none;stroke-width:1px;stroke:rgb(0,0,255);"/>
        <path d="M428.297,404.745L431.119,404.474L432.453,418.357L429.632,418.629L428.297,404.745Z" style="fill:none;stroke-width:1px;stroke:rgb(0,0,255);"/>
        <path d="M998.546,350.972L997.138,348.512L1009.24,341.583L1010.65,344.043L998.546,350.972Z" style="fill:none;stroke-width:1px;stroke:rgb(0,0,255);"/>
        <path d="M685.996,434.304L683.213,433.768L685.849,420.072L688.633,420.608L685.996,434.304Z" style="fill:none;stroke-width:1px;stroke:rgb(0,0,255);"/>
        <path d="M394.683,425.498L392.39,427.165L384.187,415.886L386.48,414.218L394.683,425.498Z" style="fill:none;stroke-width:1px;stroke:rgb(0,0,255);"/>
        <path d="M403.461,596.754L402.938,593.968L416.646,591.396L417.169,594.182L403.461,596.754Z" style="fill:none;stroke-width:1px;stroke:rgb(0,0,255);"/>
        <path d="M418.192,640.035L416.524,637.744L427.801,629.537L429.469,631.829L418.192,640.035Z" style="fill:none;stroke-width:1px;stroke:rgb(0,0,255);"/>
        <path d="M1059.07,316.328L1057.66,313.868L1069.77,306.94L1071.17,309.4L1059.07,316.328Z" style="fill:none;stroke-width:1px;stroke:rgb(0,0,255);"/>
        <path d="M353.667,369.099L351.374,370.767L343.171,359.487L345.464,357.82L353.667,369.099Z" style="fill:none;stroke-width:1px;stroke:rgb(0,0,255);"/>
        <path d="M182.376,381.989L184.044,384.281L172.764,392.485L171.097,390.192L182.376,381.989Z" style="fill:none;stroke-width:1px;stroke:rgb(0,0,255);"/>
        <path d="M145.894,318.262L145.551,315.448L159.396,313.762L159.738,316.576L145.894,318.262Z" style="fill:none;stroke-width:1px;stroke:rgb(0,0,255);"/>
        <path d="M712.364,297.347L709.58,296.811L712.217,283.115L715.001,283.651L712.364,297.347Z" style="fill:none;stroke-width:1px;stroke:rgb(0,0,255);"/>
        <path d="M1119.59,281.685L1118.18,279.225L1130.29,272.296L1131.69,274.757L1119.59,281.685Z" style="fill:none;stroke-width:1px;stroke:rgb(0,0,255);"/>
        <path d="M1078.61,421.482L1079.33,418.74L1092.82,422.276L1092.1,425.018L1078.61,421.482Z" style="fill:none;stroke-width:1px;stroke:rgb(0,0,255);"/>
        <path d="M816.998,506.136L817.165,503.306L831.088,504.129L830.921,506.959L816.998,506.136Z" style="fill:none;stroke-width:1px;stroke:rgb(0,0,255);"/>
        <path d="M421.624,335.329L424.445,335.058L425.78,348.941L422.959,349.213L421.624,335.329Z" style="fill:none;stroke-width:1px;stroke:rgb(0,0,255);"/>
        <path d="M728.005,437.053L730.04,439.026L720.33,449.039L718.295,447.065L728.005,437.053Z" style="fill:none;stroke-width:1px;stroke:rgb(0,0,255);"/>
        <path d="M256.164,245.345L223.997,206.886L223.582,207.012L198.89,221.546L197.452,219.103L212.051,210.51L207.585,211.865L206.762,209.152L222.364,204.419L176.285,112.482L6.855,269.794L19.909,265.834L20.732,268.547L4.5,273.471L5.044,332.357L29.178,318.151L30.616,320.594L11.641,331.763L20.947,330.629L21.29,333.443L6.385,335.259L110.267,434.431L125.978,423.005L127.645,425.297L112.142,436.572L247.78,623.078L248.127,623.013L263.372,611.927L265.039,614.219L254.622,621.794L279.566,617.115L280.089,619.901L250.281,625.493L341.922,692.035L342.348,691.725L342.336,691.544L342.624,691.524L371.416,670.571L373.084,672.863L347.938,691.163L366.567,689.896L366.759,692.724L343.632,694.297L343.398,694.467L343.291,694.32L343.147,694.33L344.399,789.201L512.913,682.787L491.995,684.209L491.803,681.381L515.264,679.786L503.059,578.274L474.577,599.001L472.909,596.709L496.95,579.214L472.001,583.894L471.479,581.108L501.942,575.393L438.458,488.1L422.955,499.374L421.288,497.081L435.644,486.641L425.203,472.284L427.496,470.617L435.716,481.92L434.97,474.162L437.792,473.89L438.957,486.006L475.897,459.747L483.288,470.144L497.15,460.29L489.76,449.893L526.784,423.575L526.716,423.282L507.61,396.578L509.916,394.929L525.049,416.08L520.363,395.837L523.124,395.198L528.941,420.325L543.868,381.487L555.775,386.063L561.877,370.187L549.97,365.611L565.381,325.514L564.992,325.764L564.602,325.16L564.419,325.168L564.406,324.855L551.447,304.77L553.829,303.234L564.164,319.252L563.9,313.123L566.732,313.001L567.115,321.877L592.195,305.681L593.733,308.063L566.554,325.614L614.731,403.074L603.9,409.811L612.882,424.253L623.714,417.516L671.538,494.407L672.665,488.551L675.449,489.086L674.93,491.782L679.457,487.115L681.491,489.088L675.81,494.947L691.859,495.896L691.692,498.726L687.797,498.495L711.316,504.356L710.631,507.106L673.022,497.735L682.088,534.683L669.7,537.723L673.753,554.24L686.141,551.2L695.249,588.316L695.601,588.276L695.686,588.127L695.891,588.244L719.999,585.547L720.314,588.364L700.069,590.629L709.569,596.051L708.164,598.513L695.288,591.164L695.087,591.186L679.591,636.909L667.51,632.814L662.051,648.922L674.132,653.016L658.133,700.221L766.426,700.884L766.348,713.639L783.356,713.743L783.434,700.988L888.837,701.633L877.748,695.303L879.153,692.841L892.19,700.282L912.527,640.128L924.611,644.214L930.058,628.102L917.974,624.016L938.273,563.977L914.365,566.652L914.049,563.835L930.779,561.963L900.098,554.318L900.784,551.567L937.688,560.763L926.821,543.436L937.628,536.659L928.591,522.25L917.784,529.027L906.47,510.987L906.444,511.425L905.489,511.368L905.383,511.484L905.243,511.354L886.612,510.252L886.78,507.423L901.954,508.32L885.933,493.54L887.855,491.456L905.059,507.328L913.974,473.317L916.716,474.036L907.233,510.212L1012.94,528.573L1010.76,541.141L1027.52,544.051L1029.7,531.484L1136.81,550.088L1164.61,444.026L1146.07,439.165L1146.79,436.423L1165.14,441.236L1189.61,241.605L1180.11,247.042L1178.7,244.582L1187.02,239.822L1013.87,238.134L940.2,381.103L948.72,376.226L950.128,378.686L942.719,382.927L957.908,386.909L957.189,389.651L940.018,385.15L930.863,420.071L928.121,419.352L937.526,383.478L865.848,386.328L865.341,373.582L848.347,374.258L848.854,387.004L777.699,389.833L795.594,406.342L793.672,408.425L775.75,391.891L768.879,398.977L766.844,397.004L775.163,388.425L775.29,388.548L753.056,313.727L765.284,310.094L760.439,293.791L748.212,297.424L726.449,224.187L725.548,228.868L722.764,228.332L723.554,224.23L699.183,239.968L697.645,237.587L724.296,220.377L724.296,220.374L648.035,168.706L655.19,158.146L641.109,148.606L633.954,159.167L557.878,107.624L558.322,117.921L555.49,118.043L555.047,107.785L520.425,136.902L512.215,127.14L499.198,138.087L507.408,147.849L472.591,177.13L472.64,177.119L472.741,177.557L485.775,197.758L483.393,199.294L474.629,185.711L479.087,204.968L476.325,205.607L470.357,179.826L448.417,215.199L437.577,208.475L428.612,222.929L439.452,229.652L417.263,265.429L417.615,265.921L417.797,265.904L417.828,266.219L436.876,292.842L434.571,294.492L418.369,271.846L419.107,279.525L416.285,279.797L415.079,267.248L414.992,267.127L301.696,297.637L312.651,312.701L310.358,314.368L299.918,300.012L285.561,310.452L283.894,308.16L294.977,300.1L284.342,301.395L283.999,298.581L299.146,296.736L267.075,258.391L276.86,250.208L265.948,237.162L256.164,245.345Z" style="fill:none;stroke-width:1px;stroke:rgb(0,0,255);"/>
    </g>
</svg>
