<?xml version="1.0" encoding="UTF-8" standalone="no"?>
<!-- Created with Inkscape (http://www.inkscape.org/) -->

<svg
   xmlns:dc="http://purl.org/dc/elements/1.1/"
   xmlns:cc="http://creativecommons.org/ns#"
   xmlns:rdf="http://www.w3.org/1999/02/22-rdf-syntax-ns#"
   xmlns:svg="http://www.w3.org/2000/svg"
   xmlns="http://www.w3.org/2000/svg"
   xmlns:sodipodi="http://sodipodi.sourceforge.net/DTD/sodipodi-0.dtd"
   xmlns:inkscape="http://www.inkscape.org/namespaces/inkscape"
   width="210mm"
   height="297mm"
   viewBox="0 0 744.09448819 1052.3622047"
   id="svg2"
   version="1.1"
   inkscape:version="0.91 r13725"
   sodipodi:docname="form2.ink.svg">
  <defs
     id="defs4" />
  <sodipodi:namedview
     id="base"
     pagecolor="#ffffff"
     bordercolor="#666666"
     borderopacity="1.0"
     inkscape:pageopacity="0.0"
     inkscape:pageshadow="2"
     inkscape:zoom="0.35"
     inkscape:cx="375"
     inkscape:cy="520"
     inkscape:document-units="px"
     inkscape:current-layer="layer1"
     showgrid="false"
     inkscape:window-width="1440"
     inkscape:window-height="855"
     inkscape:window-x="2584"
     inkscape:window-y="0"
     inkscape:window-maximized="0" />
  <metadata
     id="metadata7">
    <rdf:RDF>
      <cc:Work
         rdf:about="">
        <dc:format>image/svg+xml</dc:format>
        <dc:type
           rdf:resource="http://purl.org/dc/dcmitype/StillImage" />
        <dc:title></dc:title>
      </cc:Work>
    </rdf:RDF>
  </metadata>
  <g
     inkscape:label="Ebene 1"
     inkscape:groupmode="layer"
     id="layer1">
    <g
       transform="matrix(1.25,0,0,-1.25,-357.23393,1069.5727)"
       inkscape:label="ink_ext_XXXXXX"
       id="g3676">
      <g
         transform="scale(0.1,0.1)"
         id="g3678">
        <path
           inkscape:connector-curvature="0"
           id="path3680"
           style="fill:none;stroke:#0000ff;stroke-width:8;stroke-linecap:butt;stroke-linejoin:miter;stroke-miterlimit:10;stroke-dasharray:none;stroke-opacity:1"
           d="m 3583.14,5989.89 2.81,-0.03 -1.25,-107.29 -2.81,0.04 1.25,107.28" />
        <path
           inkscape:connector-curvature="0"
           id="path3682"
           style="fill:none;stroke:#0000ff;stroke-width:8;stroke-linecap:butt;stroke-linejoin:miter;stroke-miterlimit:10;stroke-dasharray:none;stroke-opacity:1"
           d="m 2523.48,3493.54 1.53,2.35 89.91,-58.54 -1.53,-2.35 -89.91,58.54" />
        <path
           inkscape:connector-curvature="0"
           id="path3684"
           style="fill:none;stroke:#0000ff;stroke-width:8;stroke-linecap:butt;stroke-linejoin:miter;stroke-miterlimit:10;stroke-dasharray:none;stroke-opacity:1"
           d="m 1790.07,1844.89 -1.25,2.52 95.99,47.9 1.26,-2.51 -96,-47.91" />
        <path
           inkscape:connector-curvature="0"
           id="path3686"
           style="fill:none;stroke:#0000ff;stroke-width:8;stroke-linecap:butt;stroke-linejoin:miter;stroke-miterlimit:10;stroke-dasharray:none;stroke-opacity:1"
           d="m 1298.32,1915.11 -0.63,2.73 104.58,23.97 0.62,-2.74 -104.57,-23.96" />
        <path
           inkscape:connector-curvature="0"
           id="path3688"
           style="fill:none;stroke:#0000ff;stroke-width:8;stroke-linecap:butt;stroke-linejoin:miter;stroke-miterlimit:10;stroke-dasharray:none;stroke-opacity:1"
           d="m 7296.72,3901.72 1.84,2.12 80.94,-70.43 -1.85,-2.11 -80.93,70.42" />
        <path
           inkscape:connector-curvature="0"
           id="path3690"
           style="fill:none;stroke:#0000ff;stroke-width:8;stroke-linecap:butt;stroke-linejoin:miter;stroke-miterlimit:10;stroke-dasharray:none;stroke-opacity:1"
           d="m 3714.32,1158.66 -1.52,2.36 90.29,57.95 1.52,-2.36 -90.29,-57.95" />
        <path
           inkscape:connector-curvature="0"
           id="path3692"
           style="fill:none;stroke:#0000ff;stroke-width:8;stroke-linecap:butt;stroke-linejoin:miter;stroke-miterlimit:10;stroke-dasharray:none;stroke-opacity:1"
           d="m 3036.21,4663.18 1.53,2.36 90.1,-58.24 -1.52,-2.36 -90.11,58.24" />
        <path
           inkscape:connector-curvature="0"
           id="path3694"
           style="fill:none;stroke:#0000ff;stroke-width:8;stroke-linecap:butt;stroke-linejoin:miter;stroke-miterlimit:10;stroke-dasharray:none;stroke-opacity:1"
           d="m 4165.75,1448.43 -1.51,2.36 90.28,57.96 1.52,-2.37 -90.29,-57.95" />
        <path
           inkscape:connector-curvature="0"
           id="path3696"
           style="fill:none;stroke:#0000ff;stroke-width:8;stroke-linecap:butt;stroke-linejoin:miter;stroke-miterlimit:10;stroke-dasharray:none;stroke-opacity:1"
           d="m 2774.05,2894.4 0.13,2.81 107.17,-5.07 -0.13,-2.8 -107.17,5.06" />
        <path
           inkscape:connector-curvature="0"
           id="path3698"
           style="fill:none;stroke:#0000ff;stroke-width:8;stroke-linecap:butt;stroke-linejoin:miter;stroke-miterlimit:10;stroke-dasharray:none;stroke-opacity:1"
           d="m 2585.71,4954.39 1.52,2.35 90.1,-58.24 -1.52,-2.36 -90.1,58.25" />
        <path
           inkscape:connector-curvature="0"
           id="path3700"
           style="fill:none;stroke:#0000ff;stroke-width:8;stroke-linecap:butt;stroke-linejoin:miter;stroke-miterlimit:10;stroke-dasharray:none;stroke-opacity:1"
           d="m 6134.99,3075.49 -1.29,-2.49 -95.27,49.35 1.3,2.49 95.26,-49.35" />
        <path
           inkscape:connector-curvature="0"
           id="path3702"
           style="fill:none;stroke:#0000ff;stroke-width:8;stroke-linecap:butt;stroke-linejoin:miter;stroke-miterlimit:10;stroke-dasharray:none;stroke-opacity:1"
           d="m 6762.87,3108.44 2.35,1.54 58.82,-89.73 -2.35,-1.54 -58.82,89.73" />
        <path
           inkscape:connector-curvature="0"
           id="path3704"
           style="fill:none;stroke:#0000ff;stroke-width:8;stroke-linecap:butt;stroke-linejoin:miter;stroke-miterlimit:10;stroke-dasharray:none;stroke-opacity:1"
           d="m 4563.26,2658.71 1.7,-2.24 -85.44,-64.88 -1.7,2.23 85.44,64.89" />
        <path
           inkscape:connector-curvature="0"
           id="path3706"
           style="fill:none;stroke:#0000ff;stroke-width:8;stroke-linecap:butt;stroke-linejoin:miter;stroke-miterlimit:10;stroke-dasharray:none;stroke-opacity:1"
           d="m 6836.5,4442.95 1.42,2.42 92.51,-54.33 -1.42,-2.42 -92.51,54.33" />
        <path
           inkscape:connector-curvature="0"
           id="path3708"
           style="fill:none;stroke:#0000ff;stroke-width:8;stroke-linecap:butt;stroke-linejoin:miter;stroke-miterlimit:10;stroke-dasharray:none;stroke-opacity:1"
           d="m 1279.99,1343.46 -0.15,2.81 107.14,5.58 0.15,-2.8 -107.14,-5.59" />
        <path
           inkscape:connector-curvature="0"
           id="path3710"
           style="fill:none;stroke:#0000ff;stroke-width:8;stroke-linecap:butt;stroke-linejoin:miter;stroke-miterlimit:10;stroke-dasharray:none;stroke-opacity:1"
           d="m 2778.39,4029.81 -0.97,2.64 100.59,37.3 0.98,-2.64 -100.6,-37.3" />
        <path
           inkscape:connector-curvature="0"
           id="path3712"
           style="fill:none;stroke:#0000ff;stroke-width:8;stroke-linecap:butt;stroke-linejoin:miter;stroke-miterlimit:10;stroke-dasharray:none;stroke-opacity:1"
           d="m 1310.07,1605.39 -1.25,2.52 96,47.89 1.25,-2.51 -96,-47.9" />
        <path
           inkscape:connector-curvature="0"
           id="path3714"
           style="fill:none;stroke:#0000ff;stroke-width:8;stroke-linecap:butt;stroke-linejoin:miter;stroke-miterlimit:10;stroke-dasharray:none;stroke-opacity:1"
           d="m 1821.19,2034.96 -0.63,2.74 104.58,23.97 0.62,-2.73 -104.57,-23.98" />
        <path
           inkscape:connector-curvature="0"
           id="path3716"
           style="fill:none;stroke:#0000ff;stroke-width:8;stroke-linecap:butt;stroke-linejoin:miter;stroke-miterlimit:10;stroke-dasharray:none;stroke-opacity:1"
           d="m 3576.86,5453.49 2.81,-0.03 -1.26,-107.28 -2.8,0.03 1.25,107.28" />
        <path
           inkscape:connector-curvature="0"
           id="path3718"
           style="fill:none;stroke:#0000ff;stroke-width:8;stroke-linecap:butt;stroke-linejoin:miter;stroke-miterlimit:10;stroke-dasharray:none;stroke-opacity:1"
           d="m 2135.2,5245.59 1.52,2.36 90.1,-58.24 -1.52,-2.36 -90.1,58.24" />
        <path
           inkscape:connector-curvature="0"
           id="path3720"
           style="fill:none;stroke:#0000ff;stroke-width:8;stroke-linecap:butt;stroke-linejoin:miter;stroke-miterlimit:10;stroke-dasharray:none;stroke-opacity:1"
           d="m 5013.85,2401.22 2.49,-1.29 -49.35,-95.26 -2.49,1.29 49.35,95.26" />
        <path
           inkscape:connector-curvature="0"
           id="path3722"
           style="fill:none;stroke:#0000ff;stroke-width:8;stroke-linecap:butt;stroke-linejoin:miter;stroke-miterlimit:10;stroke-dasharray:none;stroke-opacity:1"
           d="m 3285.55,4879.98 -2.5,-1.27 -48.34,95.79 2.51,1.26 48.33,-95.78" />
        <path
           inkscape:connector-curvature="0"
           id="path3724"
           style="fill:none;stroke:#0000ff;stroke-width:8;stroke-linecap:butt;stroke-linejoin:miter;stroke-miterlimit:10;stroke-dasharray:none;stroke-opacity:1"
           d="m 2380.27,5532.13 0,-2.81 -107.29,-0.14 0,2.81 107.29,0.14" />
        <path
           inkscape:connector-curvature="0"
           id="path3726"
           style="fill:none;stroke:#0000ff;stroke-width:8;stroke-linecap:butt;stroke-linejoin:miter;stroke-miterlimit:10;stroke-dasharray:none;stroke-opacity:1"
           d="m 4315.63,2908.93 2.49,-1.29 -49.33,-95.28 -2.49,1.3 49.33,95.27" />
        <path
           inkscape:connector-curvature="0"
           id="path3728"
           style="fill:none;stroke:#0000ff;stroke-width:8;stroke-linecap:butt;stroke-linejoin:miter;stroke-miterlimit:10;stroke-dasharray:none;stroke-opacity:1"
           d="m 2351.4,1399.28 -0.15,2.81 107.14,5.58 0.15,-2.81 -107.14,-5.58" />
        <path
           inkscape:connector-curvature="0"
           id="path3730"
           style="fill:none;stroke:#0000ff;stroke-width:8;stroke-linecap:butt;stroke-linejoin:miter;stroke-miterlimit:10;stroke-dasharray:none;stroke-opacity:1"
           d="m 5260.62,2877.52 2.49,-1.29 -49.35,-95.26 -2.49,1.29 49.35,95.26" />
        <path
           inkscape:connector-curvature="0"
           id="path3732"
           style="fill:none;stroke:#0000ff;stroke-width:8;stroke-linecap:butt;stroke-linejoin:miter;stroke-miterlimit:10;stroke-dasharray:none;stroke-opacity:1"
           d="m 6892.05,4253.87 1.84,2.11 80.94,-70.43 -1.85,-2.11 -80.93,70.43" />
        <path
           inkscape:connector-curvature="0"
           id="path3734"
           style="fill:none;stroke:#0000ff;stroke-width:8;stroke-linecap:butt;stroke-linejoin:miter;stroke-miterlimit:10;stroke-dasharray:none;stroke-opacity:1"
           d="m 2752.96,2677.24 1.08,2.6 99.12,-41.06 -1.08,-2.6 -99.12,41.06" />
        <path
           inkscape:connector-curvature="0"
           id="path3736"
           style="fill:none;stroke:#0000ff;stroke-width:8;stroke-linecap:butt;stroke-linejoin:miter;stroke-miterlimit:10;stroke-dasharray:none;stroke-opacity:1"
           d="m 2973.03,3200.86 1.53,2.35 89.91,-58.54 -1.53,-2.35 -89.91,58.54" />
        <path
           inkscape:connector-curvature="0"
           id="path3738"
           style="fill:none;stroke:#0000ff;stroke-width:8;stroke-linecap:butt;stroke-linejoin:miter;stroke-miterlimit:10;stroke-dasharray:none;stroke-opacity:1"
           d="m 6611.29,2828.72 -1.29,-2.49 -95.26,49.35 1.29,2.49 95.26,-49.35" />
        <path
           inkscape:connector-curvature="0"
           id="path3740"
           style="fill:none;stroke:#0000ff;stroke-width:8;stroke-linecap:butt;stroke-linejoin:miter;stroke-miterlimit:10;stroke-dasharray:none;stroke-opacity:1"
           d="m 1815.69,1371.37 -0.14,2.81 107.14,5.58 0.15,-2.81 -107.15,-5.58" />
        <path
           inkscape:connector-curvature="0"
           id="path3742"
           style="fill:none;stroke:#0000ff;stroke-width:8;stroke-linecap:butt;stroke-linejoin:miter;stroke-miterlimit:10;stroke-dasharray:none;stroke-opacity:1"
           d="m 6468.78,3557.06 2.35,1.54 58.82,-89.72 -2.35,-1.54 -58.82,89.72" />
        <path
           inkscape:connector-curvature="0"
           id="path3744"
           style="fill:none;stroke:#0000ff;stroke-width:8;stroke-linecap:butt;stroke-linejoin:miter;stroke-miterlimit:10;stroke-dasharray:none;stroke-opacity:1"
           d="m 4148.93,5860.59 -2.09,-1.89 -71.93,79.6 2.08,1.88 71.94,-79.59" />
        <path
           inkscape:connector-curvature="0"
           id="path3746"
           style="fill:none;stroke:#0000ff;stroke-width:8;stroke-linecap:butt;stroke-linejoin:miter;stroke-miterlimit:10;stroke-dasharray:none;stroke-opacity:1"
           d="m 7251.16,3606.12 0.99,2.63 100.4,-37.84 -1,-2.63 -100.39,37.84" />
        <path
           inkscape:connector-curvature="0"
           id="path3748"
           style="fill:none;stroke:#0000ff;stroke-width:8;stroke-linecap:butt;stroke-linejoin:miter;stroke-miterlimit:10;stroke-dasharray:none;stroke-opacity:1"
           d="m 3570.58,4917.1 2.81,-0.03 -1.26,-107.28 -2.81,0.03 1.26,107.28" />
        <path
           inkscape:connector-curvature="0"
           id="path3750"
           style="fill:none;stroke:#0000ff;stroke-width:8;stroke-linecap:butt;stroke-linejoin:miter;stroke-miterlimit:10;stroke-dasharray:none;stroke-opacity:1"
           d="m 3248.56,2471.95 1.07,2.6 99.12,-41.06 -1.07,-2.6 -99.12,41.06" />
        <path
           inkscape:connector-curvature="0"
           id="path3752"
           style="fill:none;stroke:#0000ff;stroke-width:8;stroke-linecap:butt;stroke-linejoin:miter;stroke-miterlimit:10;stroke-dasharray:none;stroke-opacity:1"
           d="m 7299.07,4171.32 1.43,2.42 92.51,-54.33 -1.42,-2.42 -92.52,54.33" />
        <path
           inkscape:connector-curvature="0"
           id="path3754"
           style="fill:none;stroke:#0000ff;stroke-width:8;stroke-linecap:butt;stroke-linejoin:miter;stroke-miterlimit:10;stroke-dasharray:none;stroke-opacity:1"
           d="m 4990.48,2983.12 1.7,-2.24 -85.44,-64.88 -1.7,2.23 85.44,64.89" />
        <path
           inkscape:connector-curvature="0"
           id="path3756"
           style="fill:none;stroke:#0000ff;stroke-width:8;stroke-linecap:butt;stroke-linejoin:miter;stroke-miterlimit:10;stroke-dasharray:none;stroke-opacity:1"
           d="m 6749.21,3795.33 0.99,2.63 100.39,-37.84 -0.99,-2.63 -100.39,37.84" />
        <path
           inkscape:connector-curvature="0"
           id="path3758"
           style="fill:none;stroke:#0000ff;stroke-width:8;stroke-linecap:butt;stroke-linejoin:miter;stroke-miterlimit:10;stroke-dasharray:none;stroke-opacity:1"
           d="m 3536.03,3734 2.81,-0.14 -13.27,-283.15 -2.8,0.13 13.26,283.16" />
        <path
           inkscape:connector-curvature="0"
           id="path3760"
           style="fill:none;stroke:#0000ff;stroke-width:8;stroke-linecap:butt;stroke-linejoin:miter;stroke-miterlimit:10;stroke-dasharray:none;stroke-opacity:1"
           d="m 1408.8,2802.6 0.45,-2.77 -279.68,-46.12 -0.46,2.77 279.69,46.12" />
        <path
           inkscape:connector-curvature="0"
           id="path3762"
           style="fill:none;stroke:#0000ff;stroke-width:8;stroke-linecap:butt;stroke-linejoin:miter;stroke-miterlimit:10;stroke-dasharray:none;stroke-opacity:1"
           d="m 2655.23,1923.77 2.27,1.65 166.39,-229.49 -2.27,-1.65 -166.39,229.49" />
        <path
           inkscape:connector-curvature="0"
           id="path3764"
           style="fill:none;stroke:#0000ff;stroke-width:8;stroke-linecap:butt;stroke-linejoin:miter;stroke-miterlimit:10;stroke-dasharray:none;stroke-opacity:1"
           d="m 2371.46,6111.16 1.98,1.99 200.8,-200.08 -1.99,-1.99 -200.79,200.08" />
        <path
           inkscape:connector-curvature="0"
           id="path3766"
           style="fill:none;stroke:#0000ff;stroke-width:8;stroke-linecap:butt;stroke-linejoin:miter;stroke-miterlimit:10;stroke-dasharray:none;stroke-opacity:1"
           d="m 1204.32,794.844 -2.07,-1.891 -191.02,209.447 2.08,1.89 191.01,-209.446" />
        <path
           inkscape:connector-curvature="0"
           id="path3768"
           style="fill:none;stroke:#0000ff;stroke-width:8;stroke-linecap:butt;stroke-linejoin:miter;stroke-miterlimit:10;stroke-dasharray:none;stroke-opacity:1"
           d="m 5748.1,3602.08 -1.96,2.01 203.08,197.76 1.96,-2.01 -203.08,-197.76" />
        <path
           inkscape:connector-curvature="0"
           id="path3770"
           style="fill:none;stroke:#0000ff;stroke-width:8;stroke-linecap:butt;stroke-linejoin:miter;stroke-miterlimit:10;stroke-dasharray:none;stroke-opacity:1"
           d="m 1927.09,4515.21 -2.74,-0.62 -62.05,276.59 2.74,0.62 62.05,-276.59" />
        <path
           inkscape:connector-curvature="0"
           id="path3772"
           style="fill:none;stroke:#0000ff;stroke-width:8;stroke-linecap:butt;stroke-linejoin:miter;stroke-miterlimit:10;stroke-dasharray:none;stroke-opacity:1"
           d="m 734.27,1412.54 -2.805,0.17 16.98,282.95 2.801,-0.16 -16.976,-282.96" />
        <path
           inkscape:connector-curvature="0"
           id="path3774"
           style="fill:none;stroke:#0000ff;stroke-width:8;stroke-linecap:butt;stroke-linejoin:miter;stroke-miterlimit:10;stroke-dasharray:none;stroke-opacity:1"
           d="m 4358.43,1118.35 2.51,-1.26 -127.67,-253.09 -2.51,1.262 127.67,253.088" />
        <path
           inkscape:connector-curvature="0"
           id="path3776"
           style="fill:none;stroke:#0000ff;stroke-width:8;stroke-linecap:butt;stroke-linejoin:miter;stroke-miterlimit:10;stroke-dasharray:none;stroke-opacity:1"
           d="m 3194.87,5885.62 -2.33,1.56 158.08,235.3 2.33,-1.57 -158.08,-235.29" />
        <path
           inkscape:connector-curvature="0"
           id="path3778"
           style="fill:none;stroke:#0000ff;stroke-width:8;stroke-linecap:butt;stroke-linejoin:miter;stroke-miterlimit:10;stroke-dasharray:none;stroke-opacity:1"
           d="m 2369.27,1034.55 1.48,-2.38 -240.22,-150.475 -1.49,2.379 240.23,150.476" />
        <path
           inkscape:connector-curvature="0"
           id="path3780"
           style="fill:none;stroke:#0000ff;stroke-width:8;stroke-linecap:butt;stroke-linejoin:miter;stroke-miterlimit:10;stroke-dasharray:none;stroke-opacity:1"
           d="m 1804.39,5875.3 -2.69,0.81 82.37,271.23 2.69,-0.81 -82.37,-271.23" />
        <path
           inkscape:connector-curvature="0"
           id="path3782"
           style="fill:none;stroke:#0000ff;stroke-width:8;stroke-linecap:butt;stroke-linejoin:miter;stroke-miterlimit:10;stroke-dasharray:none;stroke-opacity:1"
           d="m 6223.98,4237.32 -2.73,0.65 64.97,275.92 2.73,-0.65 -64.97,-275.92" />
        <path
           inkscape:connector-curvature="0"
           id="path3784"
           style="fill:none;stroke:#0000ff;stroke-width:8;stroke-linecap:butt;stroke-linejoin:miter;stroke-miterlimit:10;stroke-dasharray:none;stroke-opacity:1"
           d="m 3947.61,3125.46 -1.43,2.43 244.31,143.75 1.42,-2.41 -244.3,-143.77" />
        <path
           inkscape:connector-curvature="0"
           id="path3786"
           style="fill:none;stroke:#0000ff;stroke-width:8;stroke-linecap:butt;stroke-linejoin:miter;stroke-miterlimit:10;stroke-dasharray:none;stroke-opacity:1"
           d="m 3347.08,2186.77 0,-2.81 -283.46,-0.23 0,2.81 283.46,0.23" />
        <path
           inkscape:connector-curvature="0"
           id="path3788"
           style="fill:none;stroke:#0000ff;stroke-width:8;stroke-linecap:butt;stroke-linejoin:miter;stroke-miterlimit:10;stroke-dasharray:none;stroke-opacity:1"
           d="m 6744.7,4874.22 -402.95,-137.5 126.11,-74.05 -1.42,-2.42 -114.11,67.01 217.83,-189.56 -1.84,-2.12 -228.69,199 -19.56,-83.06 -137.95,32.49 -129.95,-551.83 137.96,-32.49 -19.48,-82.72 0.48,-0.73 177.51,-66.91 -1,-2.63 -173.9,65.55 62.11,-94.74 -2.35,-1.54 -64.22,97.96 -0.19,0.07 -117.35,-114.27 -98.88,101.54 -406.16,-395.52 98.88,-101.55 -114.59,-111.59 1.24,-1.64 -2.5,-1.9 128.95,-66.81 -1.29,-2.49 -129.68,67.18 -67.18,-129.68 -2.49,1.3 64.96,125.39 -189.04,-143.55 -1.7,2.23 192.24,145.98 -1.87,0.97 -298.48,49.4 0.46,2.77 20.98,-3.47 -19.27,144 -237.71,39.35 -64.63,-130.11 20.97,-3.48 -0.46,-2.76 -301.5,49.9 -127.58,-246.44 -2.5,1.29 126.35,244.05 -325.9,-191.77 -71.89,122.15 -488.61,-287.52 71.89,-122.16 -325.97,-191.81 3.21,-0.15 -0.13,-2.81 -0.19,0.01 0.16,-0.1 -1.2,-1.85 102.02,-154.49 -2.34,-1.54 -104.52,158.26 -185.91,8.78 0.14,2.8 181.44,-8.57 -68.88,44.85 1.53,2.36 68.84,-44.82 1.84,1.22 1.89,-2.87 20.86,445.14 141.57,-6.63 26.53,566.31 -141.57,6.63 20.71,442.16 -1.22,0.01 0.04,3.32 -282.24,-104.67 -0.98,2.63 281.53,104.41 -75.19,48.6 1.53,2.36 73.2,-47.31 -85.07,168.57 2.51,1.26 84.81,-168.06 0.6,51.91 2.81,-0.03 -0.65,-55.62 1.22,0.46 428.11,400.32 1.91,-2.05 -15.52,-14.52 125.94,-72.43 175.99,164.56 -63.83,130.52 -15.53,-14.52 -1.92,2.05 429.73,401.84 -197.97,219.04 2.09,1.88 196.2,-217.09 -123.27,504.72 2.73,0.67 5.05,-20.65 124.87,74.26 -57.17,234.07 -145.05,8.34 5.05,-20.65 -2.73,-0.67 -123.97,507.6 -224.75,-42.03 -0.52,2.76 20.9,3.91 -67.33,128.74 -236.84,-44.29 -16.26,-144.37 20.89,3.91 0.52,-2.76 -223.13,-41.72 197.37,-218.39 -2.08,-1.88 -195.55,216.36 -0.63,-54.07 -2.81,0.03 0.65,55.52 -158,-235.18 -117.65,79.04 -316.15,-470.59 117.64,-79.04 -158.48,-235.9 4.42,0.01 0.01,-2.81 -3.09,0 86.37,-171.16 -2.51,-1.26 -87,172.41 -144.97,-0.18 0,2.81 143.55,0.18 -0.89,1.75 -278.43,277.44 100.04,100.39 -401.59,400.16 -100.04,-100.39 -281.6,280.58 -63.84,-210.23 -135.62,41.19 -164.75,-542.46 135.62,-41.19 -63.43,-208.83 145.41,0.19 0,-2.81 -141.08,-0.18 73.56,-47.55 -1.53,-2.36 -76.34,49.35 134.19,-598.12 -138.3,-31.03 124.11,-553.17 138.3,31.03 133.44,-594.79 2.16,0.17 0.28,-3.5 282.42,104.74 0.98,-2.64 -281.55,-104.41 70.89,-46.14 -1.53,-2.36 -70.84,46.12 16.56,-209.09 -2.8,-0.22 -16.63,210.08 -3.29,-1.22 -0.98,2.63 0.38,0.14 -749.22,-59.34 -0.23,2.8 21.2,1.68 -53.36,135.13 -240.19,-19.02 -31.42,-141.85 21.19,1.68 0.22,-2.8 -754.356,-59.75 28.535,-360.31 -2.796,-0.22 -1.68,21.19 -135.133,-53.36 19.023,-240.19 141.848,-31.42 -1.68,21.2 2.801,0.22 28.539,-360.32 609.961,100.59 23.058,-139.84 559.38,92.24 -23.06,139.85 604.55,99.69 0.07,1.59 -0.15,0.06 0.18,0.43 0.02,0.47 0.17,0 0.7,1.7 1.82,-0.76 -0.76,1.82 1.55,0.65 -16.37,206.75 2.8,0.23 16.68,-210.7 185.39,-8.76 -0.14,-2.8 -178.58,8.44 190.76,-79.02 -1.07,-2.6 -195.05,80.8 70.52,-168.97 -2.58,-1.07 -69.85,167.31 -1.67,-0.13 -0.33,4.11 -0.34,0.02 -589.67,-476.01 -1.77,2.18 16.55,13.36 -120.35,81.39 -187.48,-151.34 54.18,-134.81 16.54,13.35 1.76,-2.18 -588.817,-475.33 121.265,27.8 0.625,-2.74 -129.296,-29.64 -0.629,2.74 5.629,1.29 2.609,43.46 -141.477,8.49 -33.961,-565.91 141.477,-8.49 2.602,43.3 -4.079,-2.04 -0.984,1.98 -0.125,-0.01 -0.016,0.29 -0.128,0.26 0.113,0.05 -0.117,2.21 5.066,0.26 198.113,98.85 1.254,-2.51 -192.344,-95.97 117.547,6.12 0.149,-2.8 -123.129,-6.42 188.469,-206.65 -104.723,-95.51 382.027,-418.888 104.72,95.504 189.69,-208 521.19,326.469 75.24,-120.114 480.45,300.953 -75.23,120.116 518.73,324.93 -121.76,-6.34 -0.14,2.8 123.37,6.43 -104.37,143.94 114.74,83.2 -332.79,458.98 -114.75,-83.2 -102.11,140.83 -2.46,-1.03 -1.49,3.57 -197.03,-98.31 -1.26,2.51 187.85,93.73 -112.6,-25.82 -0.63,2.74 122.45,28.07 -71.2,170.57 2.59,1.08 71.26,-170.72 3.46,1.73 0.56,-1.13 0.18,0.04 0.17,-0.74 0.34,-0.69 -0.17,-0.08 0.25,-1.05 448.57,0.37 0.11,-141.73 566.93,0.47 -0.12,141.73 450.41,0.38 -195.06,80.8 1.07,2.6 193.33,-80.08 0.2,0.38 -101.96,154.39 2.34,1.54 103.6,-156.86 126.27,243.92 2.49,-1.29 -124.5,-240.51 189.04,143.55 1.7,-2.24 -192.06,-145.84 2.7,-1.11 -0.17,-0.42 183.61,-95.13 -1.3,-2.49 -183.52,95.08 -2.33,-1.54 -1.64,2.48 -1.36,-2.64 -1.24,0.64 -270,-525.09 -2.5,1.29 9.73,18.91 -143,25.71 -110.18,-214.28 104.11,-101.34 9.72,18.91 2.49,-1.29 -271.17,-527.363 82.03,52.652 1.52,-2.359 -83.87,-53.84 215.12,-236.605 -2.08,-1.887 -14.3,15.73 -74.19,-124.918 162.09,-178.277 131.39,61.996 -14.3,15.731 2.08,1.89 216.08,-237.66 276.98,549.086 126.55,-63.832 255.33,506.176 -126.54,63.83 274.56,544.3 -1.29,0.67 0.05,0.1 -79.65,-51.13 -1.52,2.37 82.03,52.65 -186.13,96.43 1.29,2.49 187.04,-96.9 67.18,129.68 2.49,-1.29 -65.41,-126.26 0.09,0.06 1.52,-2.36 -2.47,-1.59 2.61,-1.35 -0.65,-1.25 667.14,-345.64 -1.29,-2.49 -18.88,9.78 -26.15,-142.92 213.94,-110.83 101.66,103.79 -18.88,9.78 1.29,2.49 671.9,-348.106 348.11,671.906 2.49,-1.3 -9.77,-18.88 142.91,-26.15 110.84,213.94 -103.8,101.66 -9.77,-18.87 -2.5,1.28 347.37,670.48 -0.23,0.35 -130.6,67.66 1.29,2.49 126.17,-65.36 -61.54,93.87 2.35,1.54 64.27,-98.05 0.09,-0.04 301.94,294.47 1.96,-2.01 -15.22,-14.84 127.44,-69.77 172.5,168.23 -66.56,129.14 -15.22,-14.84 -1.96,2.01 301.89,294.42 -177.32,66.84 0.99,2.63 170.62,-64.32 -223.35,194.36 1.85,2.12 228.14,-198.53 -8.35,94.34 2.8,0.25 1.88,-21.18 134.63,54.6 -21.24,240.01 -142.13,30.11 1.87,-21.18 -2.79,-0.25 -8.38,94.64 -128.01,75.17 1.42,2.43 125.67,-73.8 -186.04,503.78 2.63,0.97 7.37,-19.94 115.59,88.02 -83.47,226.02 -145.06,-8.24 7.37,-19.94 -2.63,-0.98 -186.82,505.86 -404.7,-138.09 -0.91,2.66 20.12,6.86 -85.11,117.75 -228.03,-77.81 4.62,-145.21 20.12,6.86 0.91,-2.66" />
        <path
           inkscape:connector-curvature="0"
           id="path3790"
           style="fill:none;stroke:#ff0000;stroke-width:10;stroke-linecap:butt;stroke-linejoin:miter;stroke-miterlimit:10;stroke-dasharray:none;stroke-opacity:1"
           d="m 5688.05,2286.21 306.75,522.39 -184.35,-47.97" />
        <path
           inkscape:connector-curvature="0"
           id="path3792"
           style="fill:none;stroke:#ff0000;stroke-width:10;stroke-linecap:butt;stroke-linejoin:miter;stroke-miterlimit:10;stroke-dasharray:none;stroke-opacity:1"
           d="m 6501.15,4312.37 0,0 1.18,1.76 0.82,1.89 0.48,1.97 0.13,2.01 -0.21,2.01 -0.53,1.94 -0.88,1.84 -1.19,1.69 -1.52,1.48 0,0 -6.71,4.95 -7.11,4.2 -7.46,3.44 -7.74,2.66 -7.96,1.88 -8.12,1.07 -8.22,0.25 -8.25,-0.58 -8.23,-1.43 0,0 -0.85,-0.22 -0.83,-0.29 -0.8,-0.35 -0.78,-0.41 -0.74,-0.46 -0.7,-0.51 -0.67,-0.56 -0.61,-0.61 -0.57,-0.65 0,0 -1.19,-1.77 -0.84,-1.89 -0.48,-1.98 -0.14,-2.02 0.2,-2.01 0.54,-1.95 0.87,-1.84 1.2,-1.69 1.53,-1.48 0,0 6.71,-4.93 7.12,-4.19 7.45,-3.43 7.75,-2.66 7.96,-1.88 8.12,-1.07 8.21,-0.26 8.25,0.57 8.23,1.41 0,0 0.84,0.23 0.83,0.28 0.8,0.35 0.77,0.41 0.74,0.45 0.71,0.52 0.67,0.57 0.63,0.62 0.59,0.67" />
        <path
           inkscape:connector-curvature="0"
           id="path3794"
           style="fill:none;stroke:#ff0000;stroke-width:10;stroke-linecap:butt;stroke-linejoin:miter;stroke-miterlimit:10;stroke-dasharray:none;stroke-opacity:1"
           d="m 6022.17,3516.4 0,0 1.93,0.85 1.71,1.15 1.46,1.41 1.2,1.63 0.91,1.8 0.58,1.93 0.26,2.02 -0.1,2.06 -0.48,2.07 0,0 -3,7.78 -3.75,7.36 -4.44,6.91 -5.09,6.41 -5.71,5.86 -6.27,5.26 -6.79,4.63 -7.27,3.95 -7.71,3.22 0,0 -0.84,0.26 -0.86,0.2 -0.86,0.14 -0.87,0.08 -0.88,0.01 -0.87,-0.06 -0.86,-0.12 -0.84,-0.17 -0.83,-0.25 0,0 -1.95,-0.85 -1.73,-1.15 -1.47,-1.41 -1.2,-1.63 -0.91,-1.8 -0.6,-1.93 -0.25,-2.02 0.1,-2.07 0.49,-2.07 0,0 3.01,-7.77 3.75,-7.36 4.45,-6.9 5.1,-6.4 5.7,-5.86 6.27,-5.27 6.79,-4.64 7.26,-3.95 7.7,-3.23 0,0 0.84,-0.27 0.85,-0.19 0.86,-0.14 0.87,-0.08 0.87,-0.01 0.87,0.06 0.88,0.12 0.86,0.18 0.86,0.25" />
        <path
           inkscape:connector-curvature="0"
           id="path3796"
           style="fill:none;stroke:#ff0000;stroke-width:10;stroke-linecap:butt;stroke-linejoin:miter;stroke-miterlimit:10;stroke-dasharray:none;stroke-opacity:1"
           d="m 5072.48,3422.14 0,0 1.83,-1.05 1.94,-0.7 2,-0.34 2.02,0 1.98,0.34 1.91,0.67 1.78,0.99 1.6,1.31 1.38,1.61 0,0 4.49,7.03 3.71,7.38 2.93,7.67 2.14,7.9 1.33,8.07 0.52,8.18 -0.3,8.21 -1.13,8.2 -1.98,8.11 0,0 -0.28,0.83 -0.35,0.81 -0.4,0.78 -0.46,0.75 -0.5,0.7 -0.56,0.67 -0.61,0.63 -0.64,0.57 -0.69,0.52 0,0 -1.84,1.07 -1.95,0.71 -2.01,0.35 -2.02,0 -1.99,-0.33 -1.91,-0.67 -1.78,-0.99 -1.6,-1.32 -1.38,-1.62 0,0 -4.47,-7.03 -3.7,-7.38 -2.92,-7.67 -2.14,-7.9 -1.34,-8.07 -0.52,-8.17 0.29,-8.22 1.12,-8.19 1.97,-8.12 0,0 0.28,-0.83 0.34,-0.8 0.4,-0.78 0.45,-0.74 0.51,-0.71 0.57,-0.67 0.61,-0.63 0.66,-0.59 0.71,-0.54" />
        <path
           inkscape:connector-curvature="0"
           id="path3798"
           style="fill:none;stroke:#ff0000;stroke-width:10;stroke-linecap:butt;stroke-linejoin:miter;stroke-miterlimit:10;stroke-dasharray:none;stroke-opacity:1"
           d="m 4193.43,2977.04 0,0 2.07,0.36 1.94,0.71 1.76,1.02 1.54,1.3 1.31,1.53 1.03,1.74 0.73,1.9 0.4,2.03 0.02,2.12 0,0 -1.07,8.27 -1.88,8.04 -2.67,7.77 -3.42,7.44 -4.15,7.04 -4.84,6.61 -5.5,6.11 -6.12,5.56 -6.72,4.96 0,0 -0.75,0.46 -0.79,0.4 -0.8,0.34 -0.83,0.28 -0.85,0.22 -0.86,0.15 -0.86,0.1 -0.86,0.02 -0.86,-0.04 0,0 -2.1,-0.36 -1.95,-0.71 -1.77,-1.02 -1.56,-1.29 -1.31,-1.53 -1.03,-1.74 -0.73,-1.9 -0.39,-2.04 -0.02,-2.12 0,0 1.08,-8.27 1.89,-8.03 2.68,-7.77 3.42,-7.43 4.15,-7.05 4.84,-6.61 5.49,-6.11 6.11,-5.57 6.71,-4.97 0,0 0.75,-0.46 0.78,-0.39 0.8,-0.34 0.83,-0.28 0.84,-0.22 0.86,-0.15 0.88,-0.09 0.88,-0.03 0.9,0.04" />
        <path
           inkscape:connector-curvature="0"
           id="path3800"
           style="fill:none;stroke:#ff0000;stroke-width:10;stroke-linecap:butt;stroke-linejoin:miter;stroke-miterlimit:10;stroke-dasharray:none;stroke-opacity:1"
           d="m 3277.32,3609.39 0,0 -0.83,-1.94 -0.46,-2.01 -0.1,-2.03 0.23,-2 0.57,-1.94 0.89,-1.81 1.19,-1.65 1.48,-1.44 1.76,-1.18 0,0 7.51,-3.63 7.77,-2.83 7.96,-2.01 8.1,-1.2 8.16,-0.38 8.18,0.44 8.13,1.26 8,2.08 7.83,2.91 0,0 0.79,0.38 0.77,0.44 0.72,0.49 0.69,0.54 0.64,0.59 0.61,0.63 0.54,0.67 0.5,0.71 0.43,0.75 0,0 0.85,1.95 0.48,2.02 0.11,2.04 -0.23,2.01 -0.57,1.93 -0.88,1.82 -1.2,1.65 -1.49,1.44 -1.77,1.18 0,0 -7.5,3.62 -7.77,2.81 -7.96,2 -8.1,1.2 -8.17,0.38 -8.18,-0.43 -8.12,-1.25 -8.01,-2.08 -7.82,-2.89 0,0 -0.8,-0.38 -0.75,-0.43 -0.73,-0.49 -0.68,-0.54 -0.64,-0.59 -0.61,-0.64 -0.55,-0.68 -0.51,-0.72 -0.46,-0.77" />
        <path
           inkscape:connector-curvature="0"
           id="path3802"
           style="fill:none;stroke:#ff0000;stroke-width:10;stroke-linecap:butt;stroke-linejoin:miter;stroke-miterlimit:10;stroke-dasharray:none;stroke-opacity:1"
           d="m 4074.8,4856.39 0,0 -1.95,-0.81 -1.73,-1.12 -1.49,-1.38 -1.23,-1.6 -0.94,-1.78 -0.64,-1.92 -0.29,-2.01 0.06,-2.07 0.44,-2.07 0,0 2.84,-7.84 3.59,-7.44 4.31,-7 4.96,-6.51 5.59,-5.97 6.16,-5.39 6.7,-4.77 7.19,-4.09 7.64,-3.37 0,0 0.83,-0.29 0.85,-0.21 0.86,-0.16 0.88,-0.09 0.87,-0.03 0.87,0.03 0.86,0.11 0.85,0.16 0.83,0.23 0,0 1.97,0.8 1.75,1.12 1.5,1.38 1.24,1.6 0.94,1.78 0.64,1.92 0.29,2.02 -0.06,2.07 -0.45,2.08 0,0 -2.85,7.83 -3.61,7.43 -4.3,6.99 -4.97,6.51 -5.58,5.97 -6.17,5.39 -6.69,4.77 -7.18,4.11 -7.63,3.38 0,0 -0.83,0.28 -0.84,0.22 -0.86,0.16 -0.87,0.09 -0.87,0.03 -0.87,-0.04 -0.88,-0.1 -0.87,-0.17 -0.86,-0.23" />
        <path
           inkscape:connector-curvature="0"
           id="path3804"
           style="fill:none;stroke:#ff0000;stroke-width:10;stroke-linecap:butt;stroke-linejoin:miter;stroke-miterlimit:10;stroke-dasharray:none;stroke-opacity:1"
           d="m 4434.55,5962.7 0,0 -0.25,-2.09 0.13,-2.06 0.47,-1.98 0.79,-1.85 1.09,-1.7 1.36,-1.48 1.61,-1.25 1.83,-0.96 2.03,-0.64 0,0 8.23,-1.36 8.24,-0.52 8.21,0.32 8.1,1.14 7.95,1.94 7.72,2.73 7.44,3.5 7.09,4.26 6.68,5.01 0,0 0.66,0.58 0.61,0.64 0.55,0.68 0.51,0.71 0.45,0.75 0.4,0.77 0.34,0.8 0.27,0.82 0.21,0.84 0,0 0.26,2.11 -0.12,2.07 -0.46,1.99 -0.79,1.86 -1.09,1.7 -1.36,1.49 -1.62,1.25 -1.83,0.96 -2.04,0.63 0,0 -8.22,1.35 -8.24,0.5 -8.21,-0.32 -8.1,-1.14 -7.94,-1.95 -7.72,-2.72 -7.45,-3.49 -7.09,-4.25 -6.69,-5 0,0 -0.65,-0.58 -0.61,-0.63 -0.55,-0.67 -0.51,-0.71 -0.45,-0.75 -0.4,-0.78 -0.34,-0.81 -0.28,-0.84 -0.22,-0.87" />
        <path
           inkscape:connector-curvature="0"
           id="path3806"
           style="fill:none;stroke:#ff0000;stroke-width:10;stroke-linecap:butt;stroke-linejoin:miter;stroke-miterlimit:10;stroke-dasharray:none;stroke-opacity:1"
           d="m 3956.86,6503.08 0,0 2.08,-0.36 2.06,0.01 2,0.36 1.9,0.7 1.75,0.99 1.56,1.28 1.33,1.54 1.06,1.78 0.75,1.98 0,0 1.81,8.14 0.96,8.21 0.13,8.21 -0.69,8.15 -1.5,8.04 -2.31,7.86 -3.09,7.62 -3.86,7.31 -4.63,6.95 0,0 -0.56,0.69 -0.59,0.64 -0.65,0.59 -0.69,0.55 -0.72,0.49 -0.75,0.44 -0.78,0.38 -0.8,0.32 -0.83,0.25 0,0 -2.09,0.38 -2.08,-0.01 -2,-0.35 -1.91,-0.69 -1.76,-0.99 -1.56,-1.28 -1.33,-1.55 -1.06,-1.78 -0.74,-1.99 0,0 -1.8,-8.14 -0.95,-8.2 -0.13,-8.21 0.7,-8.16 1.5,-8.03 2.3,-7.86 3.09,-7.62 3.85,-7.32 4.62,-6.95 0,0 0.55,-0.69 0.59,-0.63 0.64,-0.59 0.69,-0.55 0.72,-0.49 0.75,-0.44 0.8,-0.38 0.82,-0.33 0.85,-0.27" />
        <path
           inkscape:connector-curvature="0"
           id="path3808"
           style="fill:none;stroke:#ff0000;stroke-width:10;stroke-linecap:butt;stroke-linejoin:miter;stroke-miterlimit:10;stroke-dasharray:none;stroke-opacity:1"
           d="m 3480.7,5858.13 0,0 1.72,1.23 1.44,1.47 1.14,1.68 0.83,1.84 0.52,1.95 0.18,2.01 -0.17,2.03 -0.52,2 -0.89,1.92 0,0 -4.54,6.99 -5.18,6.45 -5.77,5.84 -6.3,5.22 -6.79,4.56 -7.22,3.87 -7.6,3.13 -7.92,2.37 -8.21,1.56 0,0 -0.88,0.09 -0.88,0.02 -0.87,-0.04 -0.87,-0.11 -0.86,-0.17 -0.84,-0.23 -0.81,-0.29 -0.79,-0.35 -0.76,-0.41 0,0 -1.74,-1.23 -1.45,-1.48 -1.15,-1.69 -0.85,-1.84 -0.52,-1.95 -0.18,-2.01 0.17,-2.03 0.52,-2 0.91,-1.93 0,0 4.54,-6.98 5.19,-6.43 5.77,-5.84 6.31,-5.22 6.78,-4.56 7.22,-3.87 7.6,-3.14 7.92,-2.37 8.19,-1.58 0,0 0.88,-0.09 0.87,-0.02 0.87,0.04 0.86,0.11 0.86,0.17 0.84,0.23 0.84,0.3 0.8,0.36 0.79,0.42" />
        <path
           inkscape:connector-curvature="0"
           id="path3810"
           style="fill:none;stroke:#ff0000;stroke-width:10;stroke-linecap:butt;stroke-linejoin:miter;stroke-miterlimit:10;stroke-dasharray:none;stroke-opacity:1"
           d="m 2289.92,5835.83 0,0 0.88,-1.92 1.17,-1.69 1.44,-1.44 1.64,-1.17 1.81,-0.88 1.94,-0.56 2.02,-0.23 2.07,0.13 2.06,0.51 0,0 7.73,3.12 7.31,3.86 6.84,4.54 6.33,5.19 5.77,5.8 5.17,6.35 4.53,6.86 3.83,7.33 3.1,7.75 0,0 0.26,0.85 0.18,0.86 0.13,0.86 0.06,0.87 0,0.88 -0.07,0.87 -0.13,0.86 -0.19,0.84 -0.26,0.82 0,0 -0.88,1.94 -1.17,1.71 -1.44,1.45 -1.64,1.18 -1.81,0.88 -1.94,0.57 -2.03,0.22 -2.07,-0.13 -2.06,-0.52 0,0 -7.72,-3.13 -7.3,-3.87 -6.84,-4.55 -6.32,-5.19 -5.77,-5.79 -5.18,-6.35 -4.53,-6.86 -3.84,-7.32 -3.12,-7.74 0,0 -0.25,-0.84 -0.19,-0.86 -0.12,-0.86 -0.07,-0.87 0.01,-0.87 0.06,-0.87 0.14,-0.87 0.2,-0.87 0.26,-0.85" />
        <path
           inkscape:connector-curvature="0"
           id="path3812"
           style="fill:none;stroke:#ff0000;stroke-width:10;stroke-linecap:butt;stroke-linejoin:miter;stroke-miterlimit:10;stroke-dasharray:none;stroke-opacity:1"
           d="m 2085.77,5932.58 0,0 1.28,1.67 0.94,1.84 0.6,1.94 0.26,2 -0.07,2.01 -0.42,1.98 -0.75,1.89 -1.08,1.76 -1.42,1.58 0,0 -6.39,5.36 -6.83,4.64 -7.23,3.91 -7.55,3.15 -7.82,2.38 -8.04,1.58 -8.18,0.78 -8.28,-0.06 -8.3,-0.9 0,0 -0.86,-0.18 -0.85,-0.23 -0.82,-0.3 -0.8,-0.35 -0.77,-0.42 -0.74,-0.46 -0.7,-0.52 -0.65,-0.57 -0.6,-0.61 0,0 -1.31,-1.68 -0.95,-1.85 -0.61,-1.94 -0.27,-2.01 0.07,-2.01 0.42,-1.98 0.75,-1.89 1.09,-1.77 1.43,-1.58 0,0 6.38,-5.35 6.84,-4.62 7.23,-3.9 7.55,-3.15 7.83,-2.38 8.03,-1.59 8.19,-0.78 8.27,0.05 8.29,0.88 0,0 0.87,0.17 0.84,0.24 0.82,0.3 0.79,0.35 0.77,0.41 0.74,0.47 0.7,0.53 0.68,0.58 0.63,0.63" />
        <path
           inkscape:connector-curvature="0"
           id="path3814"
           style="fill:none;stroke:#ff0000;stroke-width:10;stroke-linecap:butt;stroke-linejoin:miter;stroke-miterlimit:10;stroke-dasharray:none;stroke-opacity:1"
           d="m 2143.66,4703.77 0,0 0.29,2.09 -0.09,2.06 -0.43,1.98 -0.77,1.87 -1.05,1.72 -1.34,1.51 -1.58,1.28 -1.81,0.99 -2.02,0.68 0,0 -8.2,1.51 -8.23,0.68 -8.22,-0.17 -8.12,-0.98 -7.98,-1.79 -7.77,-2.59 -7.5,-3.36 -7.17,-4.12 -6.78,-4.88 0,0 -0.67,-0.58 -0.61,-0.62 -0.58,-0.67 -0.52,-0.7 -0.46,-0.74 -0.41,-0.76 -0.35,-0.8 -0.29,-0.81 -0.23,-0.84 0,0 -0.3,-2.1 0.08,-2.08 0.42,-1.99 0.76,-1.88 1.06,-1.72 1.33,-1.51 1.59,-1.28 1.82,-0.99 2.02,-0.68 0,0 8.19,-1.5 8.24,-0.66 8.2,0.18 8.13,0.98 7.98,1.79 7.77,2.58 7.51,3.35 7.17,4.12 6.78,4.86 0,0 0.67,0.58 0.61,0.61 0.57,0.67 0.52,0.7 0.47,0.74 0.41,0.77 0.35,0.8 0.3,0.84 0.24,0.86" />
        <path
           inkscape:connector-curvature="0"
           id="path3816"
           style="fill:none;stroke:#ff0000;stroke-width:10;stroke-linecap:butt;stroke-linejoin:miter;stroke-miterlimit:10;stroke-dasharray:none;stroke-opacity:1"
           d="m 1193.86,3663.91 0,0 2.03,-0.57 2.05,-0.21 2.02,0.15 1.96,0.49 1.85,0.8 1.69,1.11 1.48,1.39 1.24,1.65 0.96,1.9 0,0 2.66,7.9 1.82,8.06 1,8.15 0.17,8.19 -0.64,8.15 -1.46,8.06 -2.27,7.9 -3.08,7.68 -3.87,7.4 0,0 -0.47,0.74 -0.53,0.7 -0.58,0.66 -0.62,0.61 -0.67,0.57 -0.7,0.52 -0.74,0.46 -0.76,0.4 -0.79,0.34 0,0 -2.05,0.59 -2.06,0.22 -2.04,-0.14 -1.96,-0.49 -1.85,-0.8 -1.69,-1.11 -1.49,-1.39 -1.24,-1.66 -0.95,-1.9 0,0 -2.65,-7.91 -1.81,-8.05 -0.99,-8.15 -0.17,-8.19 0.64,-8.15 1.46,-8.06 2.26,-7.9 3.06,-7.68 3.86,-7.4 0,0 0.47,-0.74 0.53,-0.7 0.58,-0.66 0.62,-0.61 0.66,-0.56 0.71,-0.52 0.74,-0.46 0.79,-0.42 0.82,-0.36" />
        <path
           inkscape:connector-curvature="0"
           id="path3818"
           style="fill:none;stroke:#ff0000;stroke-width:10;stroke-linecap:butt;stroke-linejoin:miter;stroke-miterlimit:10;stroke-dasharray:none;stroke-opacity:1"
           d="m 381.477,3131.18 0,0 0.582,2.03 0.203,2.05 -0.149,2.03 -0.488,1.95 -0.805,1.85 -1.109,1.69 -1.387,1.49 -1.652,1.24 -1.899,0.95 0,0 -7.902,2.66 -8.058,1.83 -8.153,0.99 -8.183,0.17 -8.153,-0.64 -8.058,-1.46 -7.903,-2.27 -7.679,-3.07 -7.399,-3.87 0,0 -0.742,-0.48 -0.699,-0.53 -0.66,-0.58 -0.614,-0.62 -0.566,-0.67 -0.516,-0.7 -0.461,-0.74 -0.402,-0.76 -0.336,-0.79 0,0 -0.598,-2.05 -0.214,-2.06 0.14,-2.03 0.481,-1.97 0.804,-1.85 1.11,-1.69 1.39,-1.49 1.661,-1.24 1.906,-0.95 0,0 7.898,-2.64 8.059,-1.82 8.148,-0.99 8.184,-0.17 8.152,0.65 8.059,1.45 7.902,2.26 7.684,3.07 7.402,3.85 0,0 0.738,0.48 0.7,0.52 0.656,0.58 0.609,0.62 0.567,0.66 0.515,0.71 0.465,0.74 0.414,0.79 0.356,0.82" />
        <path
           inkscape:connector-curvature="0"
           id="path3820"
           style="fill:none;stroke:#ff0000;stroke-width:10;stroke-linecap:butt;stroke-linejoin:miter;stroke-miterlimit:10;stroke-dasharray:none;stroke-opacity:1"
           d="m 1232.93,3029.61 0,0 -2.07,0.4 -2.06,0.03 -2,-0.32 -1.91,-0.65 -1.77,-0.96 -1.59,-1.24 -1.37,-1.51 -1.09,-1.75 -0.79,-1.97 0,0 -1.99,-8.1 -1.14,-8.18 -0.3,-8.21 0.51,-8.17 1.34,-8.07 2.13,-7.91 2.92,-7.68 3.71,-7.39 4.49,-7.05 0,0 0.53,-0.7 0.59,-0.65 0.63,-0.61 0.68,-0.56 0.71,-0.51 0.74,-0.45 0.77,-0.4 0.8,-0.33 0.81,-0.28 0,0 2.09,-0.42 2.08,-0.04 2.01,0.31 1.92,0.65 1.78,0.96 1.59,1.24 1.36,1.52 1.1,1.75 0.79,1.98 0,0 1.96,8.1 1.13,8.18 0.3,8.2 -0.52,8.17 -1.33,8.07 -2.13,7.91 -2.92,7.68 -3.7,7.4 -4.46,7.05 0,0 -0.54,0.7 -0.58,0.65 -0.63,0.6 -0.67,0.56 -0.71,0.51 -0.75,0.45 -0.78,0.4 -0.82,0.35 -0.85,0.29" />
        <path
           inkscape:connector-curvature="0"
           id="path3822"
           style="fill:none;stroke:#ff0000;stroke-width:10;stroke-linecap:butt;stroke-linejoin:miter;stroke-miterlimit:10;stroke-dasharray:none;stroke-opacity:1"
           d="m 1479.23,2323.05 0,0 2,0.67 1.81,0.99 1.59,1.27 1.34,1.51 1.07,1.71 0.76,1.86 0.45,1.99 0.09,2.06 -0.29,2.1 0,0 -2.26,8.03 -3.05,7.68 -3.78,7.29 -4.48,6.86 -5.14,6.36 -5.75,5.82 -6.34,5.24 -6.87,4.61 -7.37,3.92 0,0 -0.81,0.34 -0.84,0.28 -0.84,0.22 -0.87,0.15 -0.86,0.1 -0.88,0.02 -0.86,-0.04 -0.86,-0.1 -0.85,-0.16 0,0 -2.02,-0.67 -1.83,-0.98 -1.6,-1.27 -1.34,-1.51 -1.08,-1.7 -0.77,-1.87 -0.44,-1.99 -0.08,-2.07 0.29,-2.11 0,0 2.28,-8.02 3.05,-7.67 3.79,-7.29 4.48,-6.84 5.13,-6.37 5.75,-5.83 6.34,-5.24 6.86,-4.61 7.36,-3.93 0,0 0.81,-0.34 0.83,-0.29 0.84,-0.21 0.86,-0.15 0.87,-0.1 0.87,-0.02 0.88,0.04 0.88,0.1 0.88,0.16" />
        <path
           inkscape:connector-curvature="0"
           id="path3824"
           style="fill:none;stroke:#ff0000;stroke-width:10;stroke-linecap:butt;stroke-linejoin:miter;stroke-miterlimit:10;stroke-dasharray:none;stroke-opacity:1"
           d="m 994.59,1533.75 0,0 0.855,1.93 0.489,2 0.129,2.02 -0.211,2.01 -0.543,1.94 -0.864,1.83 -1.168,1.66 -1.464,1.46 -1.747,1.2 0,0 -7.457,3.74 -7.73,2.92 -7.934,2.12 -8.082,1.3 -8.164,0.49 -8.183,-0.33 -8.137,-1.15 -8.035,-1.98 -7.864,-2.81 0,0 -0.796,-0.37 -0.77,-0.43 -0.734,-0.48 -0.696,-0.53 -0.652,-0.58 -0.605,-0.62 -0.559,-0.67 -0.504,-0.7 -0.445,-0.74 0,0 -0.871,-1.94 -0.504,-2.01 -0.141,-2.04 0.207,-2.01 0.539,-1.94 0.864,-1.83 1.171,-1.67 1.473,-1.46 1.758,-1.2 0,0 7.453,-3.72 7.73,-2.91 7.934,-2.11 8.082,-1.3 8.164,-0.49 8.18,0.33 8.14,1.14 8.036,1.97 7.863,2.79 0,0 0.797,0.37 0.765,0.42 0.727,0.48 0.691,0.53 0.653,0.58 0.609,0.63 0.563,0.68 0.519,0.71 0.469,0.77" />
        <path
           inkscape:connector-curvature="0"
           id="path3826"
           style="fill:none;stroke:#ff0000;stroke-width:10;stroke-linecap:butt;stroke-linejoin:miter;stroke-miterlimit:10;stroke-dasharray:none;stroke-opacity:1"
           d="m 1298.92,1065.97 0,0 -0.79,1.96 -1.09,1.74 -1.36,1.51 -1.59,1.25 -1.77,0.96 -1.91,0.66 -2.01,0.32 -2.06,-0.03 -2.09,-0.42 0,0 -7.87,-2.74 -7.48,-3.5 -7.05,-4.22 -6.57,-4.88 -6.05,-5.51 -5.46,-6.1 -4.85,-6.63 -4.18,-7.14 -3.47,-7.6 0,0 -0.29,-0.83 -0.23,-0.85 -0.17,-0.86 -0.1,-0.87 -0.04,-0.87 0.02,-0.87 0.09,-0.87 0.15,-0.85 0.22,-0.83 0,0 0.79,-1.98 1.09,-1.76 1.36,-1.52 1.59,-1.26 1.77,-0.97 1.91,-0.65 2.01,-0.32 2.07,0.03 2.09,0.42 0,0 7.86,2.76 7.48,3.51 7.04,4.22 6.57,4.88 6.04,5.51 5.47,6.1 4.85,6.63 4.2,7.13 3.48,7.58 0,0 0.29,0.83 0.23,0.85 0.16,0.85 0.11,0.87 0.03,0.87 -0.02,0.88 -0.09,0.87 -0.16,0.87 -0.22,0.87" />
        <path
           inkscape:connector-curvature="0"
           id="path3828"
           style="fill:none;stroke:#ff0000;stroke-width:10;stroke-linecap:butt;stroke-linejoin:miter;stroke-miterlimit:10;stroke-dasharray:none;stroke-opacity:1"
           d="m 2119.43,1176.11 0,0 -2.07,-0.42 -1.91,-0.77 -1.73,-1.07 -1.51,-1.33 -1.26,-1.57 -0.99,-1.77 -0.67,-1.91 -0.34,-2.04 0.03,-2.13 0,0 1.3,-8.23 2.1,-7.99 2.89,-7.69 3.62,-7.34 4.35,-6.93 5.02,-6.47 5.66,-5.96 6.28,-5.39 6.85,-4.77 0,0 0.76,-0.44 0.8,-0.37 0.82,-0.32 0.83,-0.26 0.85,-0.19 0.87,-0.14 0.86,-0.06 0.86,0 0.86,0.06 0,0 2.09,0.42 1.93,0.76 1.74,1.07 1.52,1.33 1.27,1.57 0.98,1.76 0.68,1.93 0.34,2.04 -0.04,2.13 0,0 -1.31,8.23 -2.12,7.98 -2.89,7.69 -3.63,7.33 -4.34,6.93 -5.02,6.47 -5.65,5.96 -6.27,5.4 -6.84,4.78 0,0 -0.77,0.44 -0.78,0.38 -0.82,0.31 -0.83,0.26 -0.85,0.19 -0.86,0.13 -0.88,0.07 -0.89,0 -0.89,-0.06" />
        <path
           inkscape:connector-curvature="0"
           id="path3830"
           style="fill:none;stroke:#ff0000;stroke-width:10;stroke-linecap:butt;stroke-linejoin:miter;stroke-miterlimit:10;stroke-dasharray:none;stroke-opacity:1"
           d="m 2530.91,1664.92 0,0 0.56,-2.03 0.89,-1.86 1.19,-1.65 1.43,-1.42 1.65,-1.15 1.83,-0.86 1.96,-0.55 2.06,-0.2 2.11,0.18 0,0 8.13,1.85 7.83,2.64 7.48,3.4 7.07,4.12 6.62,4.8 6.12,5.44 5.56,6.06 4.95,6.63 4.3,7.16 0,0 0.38,0.79 0.33,0.82 0.26,0.83 0.2,0.86 0.13,0.86 0.08,0.87 0.01,0.87 -0.06,0.85 -0.12,0.86 0,0 -0.56,2.05 -0.89,1.88 -1.19,1.66 -1.43,1.43 -1.65,1.16 -1.83,0.86 -1.96,0.55 -2.06,0.19 -2.13,-0.18 0,0 -8.12,-1.87 -7.82,-2.64 -7.47,-3.41 -7.07,-4.12 -6.62,-4.8 -6.12,-5.44 -5.56,-6.05 -4.97,-6.62 -4.3,-7.15 0,0 -0.39,-0.79 -0.32,-0.81 -0.26,-0.83 -0.2,-0.85 -0.13,-0.86 -0.08,-0.88 0,-0.87 0.06,-0.89 0.12,-0.89" />
        <path
           inkscape:connector-curvature="0"
           id="path3832"
           style="fill:none;stroke:#ff0000;stroke-width:10;stroke-linecap:butt;stroke-linejoin:miter;stroke-miterlimit:10;stroke-dasharray:none;stroke-opacity:1"
           d="m 3210.29,2439.25 0,0 -1.98,0.74 -2.02,0.36 -2.04,0.01 -1.99,-0.33 -1.9,-0.66 -1.77,-0.98 -1.59,-1.26 -1.37,-1.55 -1.09,-1.82 0,0 -3.27,-7.67 -2.45,-7.89 -1.64,-8.05 -0.81,-8.15 0.01,-8.18 0.83,-8.14 1.64,-8.05 2.46,-7.9 3.28,-7.68 0,0 0.42,-0.78 0.47,-0.74 0.53,-0.7 0.57,-0.66 0.62,-0.62 0.66,-0.57 0.7,-0.52 0.73,-0.45 0.76,-0.4 0,0 2,-0.75 2.04,-0.38 2.04,-0.02 2,0.33 1.9,0.65 1.77,0.97 1.59,1.28 1.37,1.55 1.1,1.83 0,0 3.25,7.67 2.44,7.89 1.62,8.05 0.81,8.14 -0.01,8.18 -0.82,8.15 -1.63,8.05 -2.46,7.9 -3.26,7.68 0,0 -0.42,0.77 -0.47,0.74 -0.52,0.7 -0.57,0.66 -0.62,0.62 -0.66,0.57 -0.71,0.52 -0.75,0.47 -0.79,0.42" />
        <path
           inkscape:connector-curvature="0"
           id="path3834"
           style="fill:none;stroke:#ff0000;stroke-width:10;stroke-linecap:butt;stroke-linejoin:miter;stroke-miterlimit:10;stroke-dasharray:none;stroke-opacity:1"
           d="m 3640.08,1506.45 0,0 1.56,1.42 1.25,1.63 0.94,1.8 0.62,1.93 0.28,1.99 -0.05,2.02 -0.4,1.99 -0.75,1.93 -1.12,1.8 0,0 -5.32,6.43 -5.89,5.79 -6.41,5.14 -6.87,4.45 -7.27,3.74 -7.62,2.99 -7.91,2.23 -8.15,1.43 -8.33,0.6 0,0 -0.88,-0.02 -0.88,-0.08 -0.86,-0.14 -0.85,-0.21 -0.83,-0.27 -0.81,-0.33 -0.78,-0.38 -0.74,-0.44 -0.71,-0.49 0,0 -1.58,-1.43 -1.27,-1.64 -0.95,-1.8 -0.62,-1.93 -0.29,-1.99 0.05,-2.02 0.4,-2 0.76,-1.93 1.12,-1.81 0,0 5.33,-6.41 5.89,-5.78 6.41,-5.13 6.88,-4.45 7.27,-3.74 7.62,-3 7.91,-2.23 8.14,-1.44 8.33,-0.62 0,0 0.87,0.02 0.87,0.08 0.86,0.14 0.85,0.21 0.83,0.27 0.81,0.33 0.79,0.39 0.76,0.45 0.74,0.51" />
        <path
           inkscape:connector-curvature="0"
           id="path3836"
           style="fill:none;stroke:#ff0000;stroke-width:10;stroke-linecap:butt;stroke-linejoin:miter;stroke-miterlimit:10;stroke-dasharray:none;stroke-opacity:1"
           d="m 3613.87,555.566 0,0 -0.78,1.957 -1.09,1.747 -1.36,1.511 -1.59,1.25 -1.76,0.965 -1.91,0.656 -2.01,0.328 -2.07,-0.031 -2.09,-0.41 0,0 -7.87,-2.734 -7.49,-3.489 -7.06,-4.203 -6.58,-4.871 -6.05,-5.504 -5.47,-6.086 -4.86,-6.629 -4.19,-7.132 -3.48,-7.594 0,0 -0.3,-0.828 -0.23,-0.848 -0.17,-0.863 -0.1,-0.867 -0.04,-0.875 0.02,-0.868 0.09,-0.863 0.15,-0.851 0.22,-0.836 0,0 0.78,-1.981 1.09,-1.765 1.36,-1.52 1.58,-1.258 1.77,-0.972 1.91,-0.657 2.01,-0.324 2.08,0.031 2.08,0.418 0,0 7.87,2.746 7.48,3.497 7.05,4.207 6.57,4.875 6.05,5.503 5.48,6.082 4.87,6.625 4.2,7.125 3.49,7.583 0,0 0.3,0.828 0.23,0.839 0.16,0.856 0.11,0.867 0.04,0.871 -0.03,0.875 -0.09,0.875 -0.15,0.871 -0.22,0.871" />
        <path
           inkscape:connector-curvature="0"
           id="path3838"
           style="fill:none;stroke:#ff0000;stroke-width:10;stroke-linecap:butt;stroke-linejoin:miter;stroke-miterlimit:10;stroke-dasharray:none;stroke-opacity:1"
           d="m 4071.39,1110.17 0,0 -1.55,-1.43 -1.24,-1.65 -0.92,-1.8 -0.6,-1.93 -0.27,-2 0.07,-2.02 0.41,-1.99 0.77,-1.92 1.12,-1.8 0,0 5.37,-6.38 5.94,-5.74 6.45,-5.09 6.9,-4.4 7.3,-3.68 7.65,-2.94 7.93,-2.17 8.16,-1.36 8.33,-0.53 0,0 0.88,0.02 0.87,0.09 0.87,0.15 0.85,0.21 0.83,0.27 0.8,0.34 0.78,0.39 0.74,0.44 0.7,0.5 0,0 1.57,1.44 1.26,1.65 0.94,1.82 0.6,1.92 0.28,2 -0.07,2.02 -0.42,2 -0.77,1.92 -1.13,1.8 0,0 -5.38,6.36 -5.95,5.74 -6.44,5.08 -6.91,4.39 -7.3,3.69 -7.64,2.94 -7.93,2.18 -8.16,1.37 -8.32,0.55 0,0 -0.88,-0.02 -0.87,-0.09 -0.86,-0.15 -0.85,-0.21 -0.82,-0.27 -0.81,-0.34 -0.79,-0.4 -0.75,-0.46 -0.74,-0.51" />
        <path
           inkscape:connector-curvature="0"
           id="path3840"
           style="fill:none;stroke:#ff0000;stroke-width:10;stroke-linecap:butt;stroke-linejoin:miter;stroke-miterlimit:10;stroke-dasharray:none;stroke-opacity:1"
           d="m 5521.86,1414.43 0,0 -1.41,1.56 -1.63,1.26 -1.8,0.95 -1.92,0.62 -1.99,0.29 -2.02,-0.05 -2,-0.39 -1.93,-0.75 -1.81,-1.1 0,0 -6.43,-5.31 -5.81,-5.87 -5.16,-6.39 -4.47,-6.86 -3.77,-7.26 -3.02,-7.61 -2.25,-7.91 -1.45,-8.14 -0.63,-8.33 0,0 0.02,-0.88 0.07,-0.87 0.15,-0.87 0.2,-0.85 0.27,-0.83 0.32,-0.81 0.38,-0.78 0.44,-0.75 0.49,-0.7 0,0 1.43,-1.59 1.63,-1.28 1.8,-0.95 1.92,-0.63 2,-0.3 2.02,0.05 2,0.4 1.93,0.75 1.82,1.11 0,0 6.41,5.31 5.8,5.88 5.15,6.4 4.48,6.85 3.76,7.26 3.02,7.61 2.26,7.91 1.46,8.13 0.64,8.33 0,0 -0.01,0.88 -0.08,0.87 -0.14,0.86 -0.2,0.84 -0.26,0.83 -0.33,0.82 -0.39,0.79 -0.45,0.76 -0.51,0.74" />
        <path
           inkscape:connector-curvature="0"
           id="path3842"
           style="fill:none;stroke:#ff0000;stroke-width:10;stroke-linecap:butt;stroke-linejoin:miter;stroke-miterlimit:10;stroke-dasharray:none;stroke-opacity:1"
           d="m 6674.91,1788.1 0,0 -1.56,-1.42 -1.26,-1.63 -0.94,-1.8 -0.62,-1.92 -0.3,-1.99 0.05,-2.02 0.4,-2 0.74,-1.92 1.11,-1.81 0,0 5.3,-6.44 5.87,-5.81 6.4,-5.16 6.85,-4.47 7.26,-3.76 7.61,-3.02 7.91,-2.25 8.15,-1.46 8.32,-0.62 0,0 0.88,0.01 0.88,0.08 0.86,0.14 0.86,0.21 0.83,0.26 0.81,0.33 0.77,0.37 0.75,0.45 0.71,0.49 0,0 1.58,1.42 1.28,1.63 0.95,1.81 0.63,1.92 0.3,1.99 -0.05,2.02 -0.39,2 -0.76,1.93 -1.11,1.82 0,0 -5.31,6.42 -5.88,5.8 -6.4,5.15 -6.85,4.47 -7.26,3.76 -7.61,3.03 -7.9,2.25 -8.14,1.47 -8.33,0.64 0,0 -0.87,-0.01 -0.88,-0.08 -0.85,-0.14 -0.85,-0.2 -0.83,-0.27 -0.81,-0.33 -0.79,-0.39 -0.77,-0.44 -0.74,-0.51" />
        <path
           inkscape:connector-curvature="0"
           id="path3844"
           style="fill:none;stroke:#ff0000;stroke-width:10;stroke-linecap:butt;stroke-linejoin:miter;stroke-miterlimit:10;stroke-dasharray:none;stroke-opacity:1"
           d="m 7501.86,2989.93 0,0 -1.93,-0.86 -1.7,-1.15 -1.46,-1.41 -1.2,-1.63 -0.9,-1.8 -0.59,-1.93 -0.26,-2.02 0.1,-2.06 0.49,-2.07 0,0 3,-7.77 3.75,-7.37 4.45,-6.9 5.1,-6.41 5.71,-5.85 6.28,-5.26 6.79,-4.63 7.28,-3.93 7.71,-3.22 0,0 0.83,-0.26 0.86,-0.2 0.87,-0.14 0.87,-0.08 0.87,0 0.87,0.05 0.86,0.11 0.85,0.19 0.82,0.24 0,0 1.96,0.85 1.72,1.15 1.48,1.41 1.2,1.63 0.91,1.8 0.59,1.94 0.25,2.02 -0.11,2.07 -0.49,2.07 0,0 -3.01,7.76 -3.76,7.36 -4.46,6.9 -5.1,6.4 -5.71,5.85 -6.27,5.27 -6.79,4.63 -7.27,3.95 -7.69,3.22 0,0 -0.84,0.26 -0.85,0.21 -0.87,0.13 -0.86,0.07 -0.87,0.02 -0.88,-0.06 -0.87,-0.12 -0.87,-0.18 -0.86,-0.25" />
        <path
           inkscape:connector-curvature="0"
           id="path3846"
           style="fill:none;stroke:#ff0000;stroke-width:10;stroke-linecap:butt;stroke-linejoin:miter;stroke-miterlimit:10;stroke-dasharray:none;stroke-opacity:1"
           d="m 7868.84,3590.18 0,0 -0.56,-2.04 -0.19,-2.05 0.17,-2.02 0.51,-1.96 0.82,-1.84 1.12,-1.68 1.4,-1.47 1.67,-1.23 1.9,-0.93 0,0 7.93,-2.59 8.07,-1.75 8.17,-0.92 8.18,-0.1 8.15,0.72 8.04,1.54 7.88,2.34 7.65,3.14 7.37,3.94 0,0 0.73,0.49 0.7,0.53 0.65,0.58 0.61,0.63 0.56,0.67 0.51,0.71 0.45,0.74 0.4,0.77 0.33,0.8 0,0 0.58,2.05 0.19,2.06 -0.16,2.03 -0.5,1.96 -0.82,1.85 -1.12,1.68 -1.41,1.47 -1.67,1.23 -1.91,0.93 0,0 -7.93,2.57 -8.07,1.74 -8.16,0.92 -8.18,0.09 -8.15,-0.72 -8.04,-1.53 -7.89,-2.33 -7.65,-3.14 -7.37,-3.92 0,0 -0.73,-0.48 -0.69,-0.53 -0.65,-0.58 -0.61,-0.63 -0.56,-0.67 -0.51,-0.71 -0.46,-0.75 -0.4,-0.79 -0.35,-0.82" />
        <path
           inkscape:connector-curvature="0"
           id="path3848"
           style="fill:none;stroke:#ff0000;stroke-width:10;stroke-linecap:butt;stroke-linejoin:miter;stroke-miterlimit:10;stroke-dasharray:none;stroke-opacity:1"
           d="m 7612.98,4455.54 0,0 -0.01,-2.11 0.35,-2.03 0.7,-1.91 1,-1.75 1.28,-1.56 1.52,-1.32 1.74,-1.06 1.93,-0.75 2.08,-0.4 0,0 8.33,-0.42 8.25,0.43 8.12,1.26 7.92,2.05 7.67,2.83 7.36,3.59 6.99,4.33 6.56,5.04 6.07,5.74 0,0 0.59,0.66 0.53,0.7 0.48,0.73 0.42,0.77 0.36,0.79 0.31,0.81 0.24,0.84 0.18,0.84 0.11,0.86 0,0 0.02,2.13 -0.35,2.05 -0.69,1.91 -1,1.77 -1.27,1.56 -1.53,1.32 -1.74,1.06 -1.93,0.74 -2.1,0.4 0,0 -8.32,0.4 -8.24,-0.44 -8.12,-1.26 -7.92,-2.05 -7.67,-2.84 -7.36,-3.58 -7,-4.32 -6.56,-5.03 -6.08,-5.72 0,0 -0.58,-0.66 -0.53,-0.7 -0.48,-0.73 -0.41,-0.76 -0.37,-0.79 -0.3,-0.82 -0.25,-0.85 -0.18,-0.86 -0.12,-0.89" />
        <path
           inkscape:connector-curvature="0"
           id="path3850"
           style="fill:none;stroke:#ff0000;stroke-width:10;stroke-linecap:butt;stroke-linejoin:miter;stroke-miterlimit:10;stroke-dasharray:none;stroke-opacity:1"
           d="m 6887.33,4879.15 0,0 2.11,-0.06 2.04,0.31 1.93,0.64 1.77,0.96 1.59,1.24 1.36,1.49 1.1,1.71 0.8,1.91 0.45,2.08 0,0 0.62,8.31 -0.22,8.26 -1.05,8.14 -1.85,7.98 -2.65,7.74 -3.4,7.44 -4.15,7.1 -4.88,6.68 -5.58,6.21 0,0 -0.64,0.6 -0.69,0.55 -0.72,0.5 -0.76,0.44 -0.79,0.39 -0.8,0.32 -0.83,0.26 -0.84,0.2 -0.85,0.13 0,0 -2.13,0.08 -2.06,-0.3 -1.93,-0.64 -1.79,-0.96 -1.59,-1.23 -1.36,-1.49 -1.1,-1.72 -0.79,-1.92 -0.45,-2.08 0,0 -0.61,-8.31 0.23,-8.25 1.06,-8.15 1.86,-7.96 2.64,-7.74 3.4,-7.45 4.15,-7.1 4.86,-6.69 5.57,-6.22 0,0 0.64,-0.6 0.68,-0.54 0.72,-0.5 0.75,-0.43 0.79,-0.39 0.81,-0.32 0.84,-0.27 0.86,-0.21 0.88,-0.14" />
        <path
           inkscape:connector-curvature="0"
           id="path3852"
           style="fill:none;stroke:#0000ff;stroke-width:8;stroke-linecap:butt;stroke-linejoin:miter;stroke-miterlimit:10;stroke-dasharray:none;stroke-opacity:1"
           d="m 0,0 11338.6,0 0,8503.94 L 0,8503.94 0,0" />
      </g>
    </g>
  </g>
</svg>
