<?xml version="1.0" standalone="no"?><!DOCTYPE svg PUBLIC "-//W3C//DTD SVG 1.1//EN" "http://www.w3.org/Graphics/SVG/1.1/DTD/svg11.dtd"><svg width="100%" height="100%" viewBox="0 0 4725 3544" version="1.1" xmlns="http://www.w3.org/2000/svg" xmlns:xlink="http://www.w3.org/1999/xlink" xml:space="preserve" style="fill-rule:evenodd;clip-rule:evenodd;stroke-miterlimit:1.41421;"><g><path d="M1673.14,739.61l1.32,0.014l-0.592,50.395l-1.32,-0.014l0.592,-50.395Z" style="fill:none;stroke-width:2.08px;stroke:#00f;"/><path d="M1175.36,1912.26l0.719,-1.104l42.235,27.494l-0.719,1.109l-42.235,-27.499Z" style="fill:none;stroke-width:2.08px;stroke:#00f;"/><path d="M830.844,2686.71l-0.587,-1.179l45.095,-22.501l0.587,1.179l-45.095,22.501Z" style="fill:none;stroke-width:2.08px;stroke:#00f;"/><path d="M599.845,2653.73l-0.291,-1.287l49.122,-11.26l0.296,1.287l-49.127,11.26Z" style="fill:none;stroke-width:2.08px;stroke:#00f;"/><path d="M3417.58,1720.52l0.869,-0.996l38.017,33.084l-0.865,0.996l-38.021,-33.084Z" style="fill:none;stroke-width:2.08px;stroke:#00f;"/><path d="M1734.76,3009.07l-0.714,-1.109l42.413,-27.226l0.71,1.108l-42.409,27.227Z" style="fill:none;stroke-width:2.08px;stroke:#00f;"/><path d="M1416.22,1362.83l0.714,-1.109l42.329,27.358l-0.718,1.109l-42.325,-27.358Z" style="fill:none;stroke-width:2.08px;stroke:#00f;"/><path d="M1946.82,2872.95l-0.714,-1.113l42.413,-27.222l0.714,1.109l-42.413,27.226Z" style="fill:none;stroke-width:2.08px;stroke:#00f;"/><path d="M1293.07,2193.7l0.061,-1.315l50.339,2.376l-0.062,1.32l-50.338,-2.381Z" style="fill:none;stroke-width:2.08px;stroke:#00f;"/><path d="M1204.59,1226.03l0.719,-1.109l42.324,27.358l-0.718,1.109l-42.325,-27.358Z" style="fill:none;stroke-width:2.08px;stroke:#00f;"/><path d="M2871.86,2108.64l-0.606,1.175l-44.748,-23.187l0.606,-1.17l44.748,23.182Z" style="fill:none;stroke-width:2.08px;stroke:#00f;"/><path d="M3166.81,2093.16l1.099,-0.724l27.631,42.151l-1.104,0.723l-27.626,-42.15Z" style="fill:none;stroke-width:2.08px;stroke:#00f;"/><path d="M2133.55,2304.42l0.799,1.048l-40.14,30.482l-0.799,-1.053l40.14,-30.477Z" style="fill:none;stroke-width:2.08px;stroke:#00f;"/><path d="M3201.39,1466.28l0.667,-1.137l43.461,25.517l-0.667,1.142l-43.461,-25.522Z" style="fill:none;stroke-width:2.08px;stroke:#00f;"/><path d="M591.235,2922.25l-0.066,-1.316l50.329,-2.625l0.066,1.32l-50.329,2.621Z" style="fill:none;stroke-width:2.08px;stroke:#00f;"/><path d="M1295.11,1660.35l-0.46,-1.236l47.256,-17.521l0.456,1.235l-47.252,17.522Z" style="fill:none;stroke-width:2.08px;stroke:#00f;"/><path d="M605.37,2799.21l-0.592,-1.179l45.096,-22.501l0.591,1.179l-45.095,22.501Z" style="fill:none;stroke-width:2.08px;stroke:#00f;"/><path d="M845.462,2597.42l-0.291,-1.287l49.122,-11.26l0.295,1.288l-49.126,11.259Z" style="fill:none;stroke-width:2.08px;stroke:#00f;"/><path d="M1670.19,991.578l1.32,0.019l-0.592,50.39l-1.32,-0.015l0.592,-50.394Z" style="fill:none;stroke-width:2.08px;stroke:#00f;"/><path d="M992.968,1089.24l0.718,-1.104l42.325,27.358l-0.719,1.108l-42.324,-27.362Z" style="fill:none;stroke-width:2.08px;stroke:#00f;"/><path d="M2345.21,2425.37l1.17,0.61l-23.182,44.749l-1.174,-0.611l23.186,-44.748Z" style="fill:none;stroke-width:2.08px;stroke:#00f;"/><path d="M1533.35,1260.99l-1.179,0.591l-22.703,-44.992l1.179,-0.597l22.703,44.998Z" style="fill:none;stroke-width:2.08px;stroke:#00f;"/><path d="M1108.09,954.642l0,1.32l-50.395,0.061l-0.005,-1.315l50.4,-0.066Z" style="fill:none;stroke-width:2.08px;stroke:#00f;"/><path d="M2017.22,2186.88l1.17,0.606l-23.168,44.758l-1.17,-0.606l23.168,-44.758Z" style="fill:none;stroke-width:2.08px;stroke:#00f;"/><path d="M1094.53,2896.03l-0.066,-1.315l50.329,-2.621l0.066,1.315l-50.329,2.621Z" style="fill:none;stroke-width:2.08px;stroke:#00f;"/><path d="M2461.13,2201.63l1.17,0.606l-23.182,44.748l-1.175,-0.606l23.187,-44.748Z" style="fill:none;stroke-width:2.08px;stroke:#00f;"/><path d="M3227.49,1555.1l0.864,-0.996l38.017,33.084l-0.864,0.996l-38.017,-33.084Z" style="fill:none;stroke-width:2.08px;stroke:#00f;"/><path d="M1283.16,2295.71l0.503,-1.216l46.561,19.287l-0.502,1.217l-46.562,-19.288Z" style="fill:none;stroke-width:2.08px;stroke:#00f;"/><path d="M1386.54,2049.75l0.719,-1.104l42.235,27.494l-0.719,1.109l-42.235,-27.499Z" style="fill:none;stroke-width:2.08px;stroke:#00f;"/><path d="M3095.6,2224.56l-0.606,1.174l-44.748,-23.187l0.606,-1.169l44.748,23.182Z" style="fill:none;stroke-width:2.08px;stroke:#00f;"/><path d="M842.883,2909.14l-0.07,-1.315l50.329,-2.621l0.07,1.315l-50.329,2.621Z" style="fill:none;stroke-width:2.08px;stroke:#00f;"/><path d="M3028.66,1882.42l1.104,-0.723l27.631,42.15l-1.104,0.723l-27.631,-42.15Z" style="fill:none;stroke-width:2.08px;stroke:#00f;"/><path d="M1938.91,800.348l-0.977,0.884l-33.794,-37.388l0.977,-0.887l33.794,37.391Z" style="fill:none;stroke-width:2.08px;stroke:#00f;"/><path d="M3396.18,1859.38l0.465,-1.231l47.158,17.776l-0.465,1.235l-47.158,-17.78Z" style="fill:none;stroke-width:2.08px;stroke:#00f;"/><path d="M1667.24,1243.55l1.32,0.014l-0.592,50.394l-1.32,-0.014l0.592,-50.394Z" style="fill:none;stroke-width:2.08px;stroke:#00f;"/><path d="M1515.96,2392.15l0.508,-1.217l46.561,19.288l-0.507,1.216l-46.562,-19.287Z" style="fill:none;stroke-width:2.08px;stroke:#00f;"/><path d="M3418.69,1593.88l0.667,-1.137l43.456,25.517l-0.667,1.141l-43.456,-25.521Z" style="fill:none;stroke-width:2.08px;stroke:#00f;"/><path d="M2334.23,2152.03l0.798,1.047l-40.14,30.482l-0.798,-1.052l40.14,-30.477Z" style="fill:none;stroke-width:2.08px;stroke:#00f;"/><path d="M3160.39,1770.49l0.465,-1.23l47.162,17.775l-0.469,1.235l-47.158,-17.78Z" style="fill:none;stroke-width:2.08px;stroke:#00f;"/><path d="M1651,1799.31l1.32,0.061l-6.234,133.009l-1.315,-0.061l6.229,-133.009Z" style="fill:none;stroke-width:2.08px;stroke:#00f;"/><path d="M651.743,2236.83l0.216,1.301l-131.383,21.669l-0.217,-1.301l131.384,-21.669Z" style="fill:none;stroke-width:2.08px;stroke:#00f;"/><path d="M1237.25,2649.66l1.071,-0.771l78.162,107.798l-1.067,0.775l-78.166,-107.802Z" style="fill:none;stroke-width:2.08px;stroke:#00f;"/><path d="M1103.95,682.639l0.93,-0.93l94.325,93.987l-0.93,0.935l-94.325,-93.992Z" style="fill:none;stroke-width:2.08px;stroke:#00f;"/><path d="M555.694,3179.97l-0.977,0.887l-89.727,-98.384l0.973,-0.887l89.731,98.384Z" style="fill:none;stroke-width:2.08px;stroke:#00f;"/><path d="M2690.12,1861.28l-0.921,-0.945l95.401,-92.902l0.921,0.949l-95.401,92.898Z" style="fill:none;stroke-width:2.08px;stroke:#00f;"/><path d="M895.208,1432.34l-1.287,0.287l-29.147,-129.928l1.287,-0.286l29.147,129.927Z" style="fill:none;stroke-width:2.08px;stroke:#00f;"/><path d="M334.884,2889.8l-1.315,-0.08l7.976,-132.915l1.316,0.08l-7.977,132.915Z" style="fill:none;stroke-width:2.08px;stroke:#00f;"/><path d="M2037.32,3028l1.179,0.596l-59.973,118.888l-1.174,-0.596l59.968,-118.888Z" style="fill:none;stroke-width:2.08px;stroke:#00f;"/><path d="M1490.75,788.591l-1.095,-0.738l74.258,-110.526l1.094,0.732l-74.257,110.532Z" style="fill:none;stroke-width:2.08px;stroke:#00f;"/><path d="M1102.92,3067.37l0.7,1.113l-112.847,70.688l-0.7,-1.118l112.847,-70.683Z" style="fill:none;stroke-width:2.08px;stroke:#00f;"/><path d="M837.57,793.438l-1.258,-0.385l38.693,-127.409l1.263,0.385l-38.698,127.409Z" style="fill:none;stroke-width:2.08px;stroke:#00f;"/><path d="M2913.67,1562.87l-1.287,-0.301l30.524,-129.613l1.282,0.301l-30.519,129.613Z" style="fill:none;stroke-width:2.08px;stroke:#00f;"/><path d="M1844.34,2085.16l-0.667,-1.137l114.764,-67.531l0.667,1.137l-114.764,67.531Z" style="fill:none;stroke-width:2.08px;stroke:#00f;"/><path d="M1562.25,2526.11l0,1.32l-133.16,0.113l0,-1.32l133.16,-0.113Z" style="fill:none;stroke-width:2.08px;stroke:#00f;"/><path id="outline" d="M3158.27,1263.69l-189.285,64.59l59.235,34.785l-0.667,1.141l-53.603,-31.478l102.33,89.046l-0.869,0.996l-107.422,-93.485l-9.188,39.017l-64.806,-15.257l-61.044,259.221l64.806,15.262l-9.15,38.857l0.225,0.343l83.385,31.431l-0.465,1.235l-81.689,-30.796l29.176,44.508l-1.104,0.724l-30.167,-46.021l-0.089,-0.033l-55.125,53.682l-46.449,-47.698l-190.797,185.795l46.448,47.698l-53.828,52.419l0.587,0.77l-1.174,0.898l60.574,31.383l-0.606,1.17l-60.917,-31.562l-31.563,60.917l-1.169,-0.606l30.519,-58.902l-88.805,67.432l-0.799,-1.052l90.304,-68.569l-0.878,-0.456l-140.206,-23.21l0.216,-1.301l9.851,1.63l-9.047,-67.644l-111.664,-18.484l-30.364,61.123l9.855,1.63l-0.216,1.301l-141.634,-23.445l-59.93,115.77l-1.17,-0.606l59.348,-114.647l-153.09,90.088l-33.766,-57.379l-229.523,135.061l33.765,57.38l-153.123,90.107l1.512,0.07l-0.061,1.316l-0.089,-0.005l0.07,0.052l-0.563,0.864l47.928,72.571l-1.104,0.728l-49.098,-74.342l-87.326,-4.129l0.061,-1.315l85.236,4.026l-32.361,-21.069l0.723,-1.104l32.333,21.05l0.864,-0.569l0.888,1.349l9.799,-209.104l66.507,3.115l12.462,-266.023l-66.506,-3.114l9.728,-207.704l-0.568,-0.009l0.018,-1.56l-132.586,49.169l-0.46,-1.236l132.253,-49.046l-35.321,-22.83l0.714,-1.108l34.386,22.228l-39.957,-79.185l1.174,-0.597l39.84,78.946l0.286,-24.385l1.316,0.019l-0.306,26.123l0.578,-0.216l201.099,-188.045l0.902,0.963l-7.295,6.821l59.159,34.024l82.671,-77.307l-29.984,-61.307l-7.295,6.821l-0.897,-0.963l201.86,-188.768l-92.991,-102.893l0.977,-0.883l92.169,101.982l-57.906,-237.096l1.282,-0.31l2.368,9.701l58.657,-34.889l-26.855,-109.949l-68.132,-3.922l2.367,9.705l-1.277,0.31l-58.24,-238.439l-105.575,19.739l-0.24,-1.297l9.813,-1.832l-31.628,-60.48l-111.255,20.805l-7.638,67.818l9.818,-1.837l0.244,1.297l-104.82,19.602l92.719,102.584l-0.982,0.887l-91.859,-101.639l-0.296,25.404l-1.32,-0.019l0.306,-26.076l-74.216,110.471l-55.265,-37.124l-148.516,221.058l55.266,37.125l-74.446,110.813l2.077,0l0,1.315l-1.452,0.005l40.572,80.397l-1.174,0.597l-40.873,-80.994l-68.094,0.089l0,-1.32l67.427,-0.084l-0.413,-0.823l-130.792,-130.326l46.994,-47.163l-188.651,-187.974l-46.993,47.163l-132.277,-131.807l-29.993,98.755l-63.702,-19.344l-77.391,254.819l63.702,19.349l-29.791,98.093l68.301,-0.085l0,1.32l-66.272,0.08l34.555,22.337l-0.714,1.108l-35.866,-23.182l63.036,280.965l-64.962,14.577l58.301,259.855l64.961,-14.577l62.688,279.401l1.015,-0.08l0.131,1.64l132.666,-49.197l0.456,1.236l-132.253,49.046l33.296,21.679l-0.719,1.104l-33.272,-21.66l7.779,98.214l-1.315,0.104l-7.817,-98.68l-1.545,0.573l-0.461,-1.24l0.183,-0.066l-351.948,27.875l-0.104,-1.315l9.954,-0.785l-25.061,-63.481l-112.833,8.939l-14.755,66.629l9.954,-0.789l0.103,1.315l-354.358,28.067l13.406,169.26l-1.315,0.103l-0.789,-9.954l-63.477,25.061l8.935,112.829l66.633,14.759l-0.789,-9.954l1.315,-0.103l13.407,169.255l286.527,-47.252l10.832,65.694l262.763,-43.334l-10.832,-65.69l283.985,-46.834l0.038,-0.742l-0.075,-0.033l0.084,-0.202l0.01,-0.22l0.08,0.004l0.333,-0.798l0.85,0.352l-0.357,-0.85l0.733,-0.306l-7.694,-97.125l1.315,-0.103l7.84,98.971l87.082,4.115l-0.061,1.32l-83.888,-3.965l89.609,37.12l-0.507,1.217l-91.624,-37.951l33.131,79.368l-1.217,0.507l-32.807,-78.598l-0.789,0.066l-0.155,-1.935l-0.16,-0.005l-276.996,223.6l-0.826,-1.024l7.769,-6.271l-56.529,-38.233l-88.073,71.091l25.451,63.327l7.769,-6.276l0.832,1.029l-276.597,223.28l56.962,-13.059l0.296,1.287l-60.739,13.924l-0.295,-1.287l2.644,-0.606l1.226,-20.411l-66.46,-3.988l-15.952,265.835l66.46,3.988l1.221,-20.34l-1.917,0.953l-0.46,-0.93l-0.061,0.005l-0.005,-0.136l-0.061,-0.118l0.052,-0.028l-0.052,-1.033l2.377,-0.127l93.062,-46.435l0.592,1.179l-90.356,45.087l55.219,-2.88l0.07,1.32l-57.84,3.011l88.533,97.078l-49.192,44.866l179.453,196.768l49.192,-44.861l89.111,97.707l244.823,-153.358l35.344,56.421l225.695,-141.37l-35.344,-56.422l243.677,-152.639l-57.197,2.982l-0.07,-1.32l57.953,-3.02l-49.028,-67.615l53.904,-39.083l-156.332,-215.6l-53.899,39.083l-47.971,-66.16l-1.155,0.484l-0.7,-1.672l-92.555,46.181l-0.587,-1.179l88.238,-44.03l-52.894,12.125l-0.291,-1.288l57.516,-13.185l-33.442,-80.121l1.217,-0.507l33.474,80.191l1.621,-0.808l0.263,0.526l0.084,-0.019l0.08,0.352l0.165,0.32l-0.08,0.037l0.113,0.498l210.714,-0.178l0.057,66.577l266.313,-0.221l-0.056,-66.577l211.579,-0.174l-91.634,-37.96l0.503,-1.217l90.816,37.618l0.099,-0.184l-47.896,-72.519l1.1,-0.728l48.661,73.684l59.315,-114.576l1.174,0.606l-58.488,112.979l88.806,-67.432l0.798,1.048l-90.219,68.507l1.263,0.527l-0.08,0.197l86.251,44.687l-0.606,1.17l-86.213,-44.669l-1.09,0.724l-0.77,-1.165l-0.644,1.24l-0.578,-0.301l-126.831,246.66l-1.175,-0.601l4.566,-8.883l-67.169,-12.077l-51.757,100.652l48.901,47.604l4.566,-8.878l1.174,0.601l-127.381,247.731l38.533,-24.737l0.709,1.114l-39.397,25.286l101.052,111.147l-0.973,0.888l-6.722,-7.389l-34.845,58.681l76.141,83.741l61.72,-29.124l-6.717,-7.389l0.972,-0.883l101.503,111.635l130.115,-257.929l59.442,29.984l119.945,-237.772l-59.446,-29.988l128.978,-255.679l-0.61,-0.32l0.023,-0.042l-37.415,24.014l-0.714,-1.109l38.533,-24.732l-87.434,-45.303l0.606,-1.169l87.862,45.518l31.562,-60.912l1.17,0.606l-30.727,59.31l0.043,-0.028l0.714,1.109l-1.165,0.747l1.226,0.634l-0.301,0.582l313.388,162.364l-0.611,1.174l-8.864,-4.594l-12.289,67.132l100.498,52.066l47.754,-48.755l-8.868,-4.594l0.61,-1.174l315.624,163.524l163.523,-315.624l1.17,0.606l-4.594,8.869l67.131,12.284l52.067,-100.493l-48.755,-47.759l-4.594,8.869l-1.17,-0.606l163.172,-314.952l-0.108,-0.169l-61.349,-31.783l0.61,-1.17l59.264,30.708l-28.904,-44.095l1.104,-0.724l30.191,46.054l0.037,0.019l141.84,-138.327l0.921,0.945l-7.149,6.971l59.859,32.774l81.032,-79.021l-31.267,-60.668l-7.149,6.976l-0.921,-0.944l141.812,-138.308l-83.295,-31.398l0.465,-1.231l80.153,30.21l-104.918,-91.3l0.864,-0.996l107.173,93.259l-3.922,-44.316l1.31,-0.113l0.883,9.945l63.242,-25.649l-9.973,-112.739l-66.769,-14.144l0.883,9.944l-1.316,0.118l-3.931,-44.457l-60.137,-35.311l0.667,-1.137l59.037,34.668l-87.396,-236.654l1.235,-0.456l3.463,9.367l54.298,-41.343l-39.21,-106.172l-68.137,3.871l3.457,9.366l-1.235,0.456l-87.754,-237.626l-190.111,64.872l-0.428,-1.25l9.457,-3.222l-39.981,-55.313l-107.121,36.551l2.175,68.212l9.451,-3.227l0.428,1.25Z" style="fill:none;stroke-width:2.08px;stroke:#00f;"/></g><g id="numbering"><path d="M2661.91,2479.4l144.1,-245.396l-86.598,22.539" style="fill:none;stroke-width:2.08px;stroke:#f00;"/><path d="M3043.87,1527.62l0.549,-0.822l0.386,-0.888l0.225,-0.93l0.061,-0.944l-0.094,-0.94l-0.254,-0.916l-0.408,-0.864l-0.559,-0.794l-0.714,-0.695l-3.152,-2.325l-3.345,-1.973l-3.504,-1.616l-3.636,-1.25l-3.739,-0.878l-3.815,-0.503l-3.856,-0.122l-3.876,0.273l-3.866,0.671l-0.399,0.108l-0.39,0.137l-0.38,0.164l-0.362,0.188l-0.352,0.216l-0.329,0.244l-0.31,0.263l-0.291,0.282l-0.263,0.305l-0.559,0.832l-0.395,0.892l-0.23,0.931l-0.066,0.948l0.094,0.94l0.254,0.916l0.408,0.864l0.564,0.794l0.719,0.7l3.152,2.316l3.344,1.968l3.505,1.611l3.636,1.25l3.739,0.878l3.814,0.508l3.857,0.122l3.88,-0.268l3.861,-0.662l0.399,-0.108l0.39,-0.137l0.376,-0.159l0.362,-0.193l0.347,-0.216l0.329,-0.239l0.32,-0.268l0.296,-0.291l0.277,-0.32Z" style="fill:none;stroke-width:2.08px;stroke:#f00;"/><path d="M2818.87,1901.53l0.907,-0.4l0.803,-0.545l0.686,-0.662l0.559,-0.761l0.427,-0.846l0.278,-0.906l0.122,-0.949l-0.047,-0.972l-0.226,-0.968l-1.414,-3.655l-1.757,-3.462l-2.085,-3.246l-2.396,-3.006l-2.678,-2.753l-2.945,-2.475l-3.194,-2.175l-3.415,-1.851l-3.617,-1.513l-0.395,-0.122l-0.404,-0.098l-0.408,-0.061l-0.409,-0.038l-0.409,-0.005l-0.408,0.024l-0.404,0.056l-0.4,0.085l-0.385,0.117l-0.921,0.395l-0.808,0.54l-0.695,0.662l-0.564,0.766l-0.427,0.845l-0.277,0.907l-0.122,0.954l0.051,0.967l0.231,0.977l1.413,3.646l1.762,3.457l2.09,3.241l2.391,3.011l2.683,2.753l2.945,2.471l3.189,2.179l3.411,1.856l3.617,1.517l0.39,0.127l0.399,0.094l0.404,0.066l0.409,0.033l0.408,0.004l0.414,-0.023l0.408,-0.056l0.409,-0.09l0.404,-0.112Z" style="fill:none;stroke-width:2.08px;stroke:#f00;"/><path d="M2372.75,1945.8l0.855,0.493l0.911,0.324l0.944,0.16l0.944,0l0.935,-0.16l0.897,-0.31l0.832,-0.465l0.756,-0.615l0.648,-0.756l2.105,-3.303l1.743,-3.466l1.376,-3.608l1.005,-3.711l0.63,-3.791l0.244,-3.838l-0.141,-3.856l-0.531,-3.852l-0.93,-3.81l-0.136,-0.39l-0.16,-0.38l-0.188,-0.367l-0.216,-0.352l-0.239,-0.334l-0.263,-0.314l-0.282,-0.292l-0.305,-0.267l-0.325,-0.245l-0.864,-0.502l-0.916,-0.334l-0.944,-0.164l-0.949,-0.005l-0.935,0.16l-0.897,0.31l-0.836,0.47l-0.752,0.615l-0.648,0.761l-2.1,3.302l-1.738,3.467l-1.372,3.608l-1,3.711l-0.63,3.79l-0.249,3.838l0.141,3.857l0.526,3.852l0.921,3.81l0.132,0.39l0.159,0.38l0.188,0.362l0.216,0.347l0.24,0.334l0.263,0.315l0.287,0.295l0.31,0.278l0.338,0.258Z" style="fill:none;stroke-width:2.08px;stroke:#f00;"/><path d="M1959.82,2154.89l0.977,-0.174l0.906,-0.334l0.827,-0.479l0.728,-0.606l0.611,-0.723l0.488,-0.813l0.343,-0.893l0.184,-0.953l0.014,-0.996l-0.503,-3.885l-0.883,-3.781l-1.254,-3.645l-1.612,-3.495l-1.949,-3.312l-2.269,-3.101l-2.584,-2.874l-2.879,-2.612l-3.152,-2.33l-0.357,-0.216l-0.366,-0.183l-0.381,-0.16l-0.39,-0.136l-0.394,-0.099l-0.404,-0.075l-0.404,-0.042l-0.409,-0.014l-0.404,0.023l-0.987,0.169l-0.915,0.329l-0.832,0.479l-0.728,0.606l-0.615,0.723l-0.489,0.813l-0.343,0.893l-0.183,0.958l-0.009,1.001l0.507,3.88l0.892,3.776l1.254,3.646l1.612,3.49l1.949,3.312l2.269,3.105l2.579,2.875l2.875,2.616l3.147,2.335l0.352,0.211l0.367,0.188l0.376,0.16l0.39,0.131l0.394,0.099l0.409,0.075l0.409,0.042l0.418,0.014l0.418,-0.018Z" style="fill:none;stroke-width:2.08px;stroke:#f00;"/><path d="M1529.48,1857.84l-0.39,0.911l-0.22,0.944l-0.048,0.954l0.113,0.939l0.268,0.907l0.413,0.855l0.559,0.775l0.7,0.676l0.827,0.555l3.528,1.705l3.645,1.325l3.739,0.944l3.805,0.564l3.838,0.183l3.843,-0.207l3.814,-0.592l3.763,-0.977l3.673,-1.372l0.376,-0.178l0.357,-0.202l0.343,-0.23l0.324,-0.259l0.301,-0.272l0.281,-0.301l0.259,-0.314l0.23,-0.334l0.207,-0.348l0.399,-0.92l0.221,-0.949l0.056,-0.954l-0.113,-0.944l-0.263,-0.911l-0.418,-0.85l-0.559,-0.776l-0.7,-0.676l-0.836,-0.559l-3.523,-1.696l-3.65,-1.32l-3.739,-0.944l-3.805,-0.559l-3.833,-0.183l-3.843,0.207l-3.819,0.587l-3.758,0.972l-3.678,1.362l-0.371,0.179l-0.357,0.202l-0.338,0.23l-0.324,0.254l-0.301,0.272l-0.282,0.301l-0.263,0.319l-0.239,0.343l-0.212,0.362Z" style="fill:none;stroke-width:2.08px;stroke:#f00;"/><path d="M1904.09,1272.07l-0.916,0.38l-0.813,0.522l-0.7,0.648l-0.578,0.752l-0.441,0.84l-0.296,0.898l-0.141,0.949l0.028,0.967l0.207,0.977l1.334,3.683l1.691,3.495l2.02,3.284l2.33,3.058l2.626,2.809l2.893,2.532l3.147,2.236l3.378,1.926l3.589,1.583l0.39,0.131l0.404,0.104l0.404,0.07l0.408,0.047l0.409,0.014l0.409,-0.019l0.404,-0.047l0.399,-0.075l0.39,-0.108l0.93,-0.38l0.817,-0.526l0.71,-0.644l0.577,-0.756l0.447,-0.836l0.296,-0.902l0.141,-0.945l-0.033,-0.972l-0.207,-0.982l-1.344,-3.673l-1.691,-3.495l-2.024,-3.284l-2.33,-3.053l-2.626,-2.804l-2.894,-2.537l-3.142,-2.241l-3.373,-1.926l-3.584,-1.592l-0.39,-0.132l-0.399,-0.103l-0.404,-0.07l-0.404,-0.043l-0.414,-0.014l-0.408,0.019l-0.409,0.047l-0.413,0.075l-0.404,0.113Z" style="fill:none;stroke-width:2.08px;stroke:#f00;"/><path d="M2073.08,752.378l-0.113,0.986l0.057,0.968l0.221,0.925l0.375,0.874l0.512,0.794l0.639,0.7l0.756,0.587l0.86,0.451l0.949,0.296l3.866,0.644l3.876,0.239l3.852,-0.15l3.809,-0.531l3.73,-0.911l3.626,-1.283l3.495,-1.644l3.331,-2.005l3.142,-2.349l0.306,-0.277l0.286,-0.296l0.263,-0.32l0.24,-0.333l0.211,-0.353l0.188,-0.366l0.155,-0.376l0.132,-0.385l0.094,-0.39l0.122,-0.996l-0.052,-0.972l-0.221,-0.93l-0.371,-0.879l-0.512,-0.794l-0.639,-0.699l-0.756,-0.588l-0.864,-0.451l-0.954,-0.295l-3.861,-0.635l-3.871,-0.239l-3.857,0.155l-3.804,0.535l-3.735,0.911l-3.626,1.283l-3.495,1.639l-3.336,1.997l-3.142,2.344l-0.306,0.277l-0.281,0.296l-0.263,0.315l-0.235,0.333l-0.216,0.353l-0.183,0.366l-0.16,0.381l-0.132,0.394l-0.108,0.404Z" style="fill:none;stroke-width:2.08px;stroke:#f00;"/><path d="M1848.69,498.536l0.977,0.174l0.968,-0.005l0.94,-0.174l0.887,-0.324l0.822,-0.47l0.733,-0.601l0.63,-0.719l0.498,-0.836l0.347,-0.935l0.851,-3.819l0.455,-3.856l0.061,-3.857l-0.324,-3.833l-0.709,-3.777l-1.081,-3.692l-1.451,-3.575l-1.818,-3.438l-2.175,-3.265l-0.258,-0.32l-0.282,-0.3l-0.306,-0.282l-0.319,-0.254l-0.338,-0.235l-0.353,-0.206l-0.366,-0.174l-0.38,-0.15l-0.386,-0.123l-0.986,-0.173l-0.972,0l-0.945,0.169l-0.892,0.319l-0.827,0.47l-0.733,0.601l-0.629,0.724l-0.493,0.836l-0.353,0.939l-0.841,3.819l-0.451,3.852l-0.056,3.857l0.329,3.833l0.705,3.777l1.08,3.692l1.447,3.58l1.813,3.433l2.165,3.27l0.259,0.319l0.282,0.301l0.3,0.277l0.32,0.254l0.338,0.235l0.357,0.202l0.371,0.183l0.39,0.155l0.399,0.122Z" style="fill:none;stroke-width:2.08px;stroke:#f00;"/><path d="M1625.02,801.504l0.808,-0.578l0.672,-0.695l0.536,-0.789l0.394,-0.864l0.24,-0.912l0.084,-0.944l-0.075,-0.953l-0.244,-0.94l-0.423,-0.907l-2.133,-3.283l-2.428,-3.025l-2.711,-2.748l-2.964,-2.452l-3.185,-2.142l-3.391,-1.814l-3.57,-1.475l-3.725,-1.108l-3.852,-0.738l-0.414,-0.037l-0.413,-0.01l-0.413,0.019l-0.404,0.047l-0.404,0.08l-0.395,0.108l-0.385,0.141l-0.371,0.164l-0.357,0.188l-0.813,0.583l-0.686,0.695l-0.54,0.789l-0.394,0.864l-0.245,0.916l-0.089,0.944l0.08,0.954l0.249,0.944l0.423,0.907l2.137,3.279l2.433,3.016l2.711,2.748l2.964,2.447l3.189,2.142l3.392,1.818l3.565,1.475l3.721,1.118l3.852,0.742l0.408,0.038l0.414,0.014l0.408,-0.024l0.404,-0.047l0.404,-0.08l0.395,-0.112l0.39,-0.136l0.38,-0.17l0.371,-0.197Z" style="fill:none;stroke-width:2.08px;stroke:#f00;"/><path d="M1065.65,811.979l0.413,0.902l0.555,0.794l0.671,0.677l0.771,0.549l0.855,0.414l0.911,0.263l0.949,0.103l0.968,-0.061l0.967,-0.24l3.631,-1.465l3.434,-1.809l3.213,-2.137l2.974,-2.438l2.71,-2.72l2.433,-2.983l2.124,-3.222l1.804,-3.444l1.456,-3.645l0.117,-0.394l0.089,-0.404l0.057,-0.409l0.033,-0.409l-0.005,-0.408l-0.028,-0.409l-0.061,-0.404l-0.094,-0.395l-0.118,-0.39l-0.413,-0.911l-0.554,-0.798l-0.672,-0.686l-0.77,-0.554l-0.855,-0.414l-0.912,-0.263l-0.949,-0.108l-0.972,0.066l-0.972,0.244l-3.627,1.471l-3.429,1.813l-3.208,2.137l-2.974,2.438l-2.71,2.725l-2.429,2.978l-2.132,3.222l-1.804,3.439l-1.461,3.64l-0.122,0.395l-0.09,0.399l-0.056,0.404l-0.028,0.409l0,0.413l0.033,0.409l0.061,0.409l0.094,0.404l0.122,0.403Z" style="fill:none;stroke-width:2.08px;stroke:#f00;"/><path d="M969.748,766.531l0.606,-0.789l0.442,-0.859l0.281,-0.912l0.123,-0.944l-0.038,-0.944l-0.193,-0.925l-0.352,-0.893l-0.512,-0.827l-0.667,-0.737l-2.997,-2.523l-3.213,-2.18l-3.392,-1.836l-3.551,-1.48l-3.673,-1.113l-3.777,-0.747l-3.843,-0.362l-3.885,0.024l-3.898,0.427l-0.409,0.08l-0.395,0.113l-0.39,0.136l-0.375,0.169l-0.362,0.193l-0.343,0.221l-0.329,0.239l-0.305,0.268l-0.287,0.286l-0.61,0.794l-0.451,0.864l-0.287,0.917l-0.127,0.939l0.038,0.949l0.192,0.93l0.353,0.888l0.512,0.827l0.672,0.742l3.001,2.513l3.213,2.175l3.392,1.832l3.551,1.48l3.674,1.113l3.776,0.747l3.843,0.366l3.885,-0.018l3.899,-0.419l0.404,-0.08l0.394,-0.108l0.385,-0.14l0.376,-0.165l0.362,-0.197l0.347,-0.221l0.329,-0.244l0.315,-0.273l0.296,-0.296Z" style="fill:none;stroke-width:2.08px;stroke:#f00;"/><path d="M996.942,1343.76l0.136,-0.982l-0.042,-0.963l-0.202,-0.935l-0.357,-0.878l-0.498,-0.803l-0.625,-0.714l-0.747,-0.597l-0.85,-0.47l-0.944,-0.314l-3.852,-0.714l-3.871,-0.315l-3.857,0.075l-3.814,0.465l-3.749,0.841l-3.654,1.212l-3.523,1.578l-3.368,1.94l-3.185,2.293l-0.31,0.267l-0.292,0.292l-0.267,0.314l-0.245,0.329l-0.22,0.348l-0.193,0.362l-0.164,0.371l-0.137,0.385l-0.103,0.39l-0.141,0.991l0.033,0.972l0.202,0.94l0.352,0.878l0.498,0.808l0.63,0.714l0.747,0.602l0.85,0.465l0.949,0.314l3.852,0.705l3.866,0.31l3.856,-0.08l3.815,-0.465l3.748,-0.841l3.655,-1.212l3.523,-1.573l3.368,-1.931l3.19,-2.288l0.31,-0.267l0.291,-0.292l0.268,-0.31l0.239,-0.329l0.221,-0.347l0.193,-0.362l0.169,-0.38l0.136,-0.39l0.113,-0.409Z" style="fill:none;stroke-width:2.08px;stroke:#f00;"/><path d="M550.776,1832.23l0.953,0.273l0.963,0.099l0.954,-0.071l0.921,-0.23l0.864,-0.381l0.794,-0.521l0.7,-0.653l0.582,-0.775l0.446,-0.893l1.25,-3.711l0.86,-3.786l0.465,-3.828l0.084,-3.843l-0.305,-3.828l-0.686,-3.786l-1.066,-3.711l-1.442,-3.608l-1.818,-3.476l-0.226,-0.348l-0.249,-0.333l-0.272,-0.306l-0.292,-0.291l-0.31,-0.268l-0.333,-0.239l-0.343,-0.216l-0.362,-0.188l-0.371,-0.16l-0.963,-0.282l-0.967,-0.098l-0.954,0.066l-0.925,0.225l-0.869,0.376l-0.794,0.521l-0.7,0.658l-0.583,0.775l-0.446,0.897l-1.24,3.711l-0.855,3.786l-0.465,3.829l-0.075,3.842l0.3,3.829l0.686,3.786l1.062,3.711l1.437,3.612l1.809,3.476l0.225,0.348l0.249,0.329l0.268,0.305l0.291,0.287l0.31,0.267l0.334,0.24l0.352,0.221l0.366,0.192l0.386,0.169Z" style="fill:none;stroke-width:2.08px;stroke:#f00;"/><path d="M169.162,2082.48l0.273,-0.949l0.098,-0.963l-0.07,-0.954l-0.23,-0.92l-0.381,-0.864l-0.516,-0.794l-0.653,-0.7l-0.776,-0.583l-0.892,-0.446l-3.711,-1.25l-3.786,-0.859l-3.833,-0.47l-3.843,-0.08l-3.828,0.305l-3.786,0.686l-3.711,1.062l-3.608,1.447l-3.476,1.818l-0.348,0.225l-0.329,0.249l-0.31,0.268l-0.291,0.296l-0.263,0.31l-0.244,0.329l-0.216,0.347l-0.188,0.362l-0.16,0.371l-0.277,0.958l-0.104,0.973l0.066,0.953l0.226,0.926l0.38,0.869l0.522,0.794l0.653,0.695l0.779,0.582l0.893,0.447l3.711,1.245l3.786,0.85l3.829,0.465l3.842,0.08l3.833,-0.301l3.782,-0.686l3.715,-1.061l3.608,-1.438l3.476,-1.813l0.348,-0.221l0.329,-0.249l0.305,-0.268l0.291,-0.291l0.263,-0.315l0.244,-0.328l0.217,-0.353l0.192,-0.371l0.169,-0.385Z" style="fill:none;stroke-width:2.08px;stroke:#f00;"/><path d="M569.133,2130.19l-0.972,-0.193l-0.968,-0.014l-0.944,0.151l-0.897,0.305l-0.832,0.451l-0.746,0.587l-0.639,0.709l-0.517,0.822l-0.371,0.926l-0.93,3.805l-0.536,3.842l-0.145,3.857l0.244,3.838l0.625,3.791l1,3.711l1.377,3.607l1.742,3.476l2.105,3.312l0.253,0.324l0.273,0.31l0.301,0.287l0.314,0.263l0.334,0.235l0.347,0.216l0.367,0.183l0.371,0.16l0.385,0.127l0.982,0.197l0.972,0.019l0.949,-0.146l0.902,-0.305l0.832,-0.447l0.746,-0.587l0.644,-0.709l0.512,-0.827l0.371,-0.93l0.926,-3.8l0.53,-3.843l0.141,-3.856l-0.244,-3.838l-0.629,-3.791l-1.001,-3.711l-1.367,-3.612l-1.738,-3.477l-2.1,-3.311l-0.249,-0.324l-0.277,-0.306l-0.291,-0.286l-0.315,-0.263l-0.333,-0.235l-0.353,-0.216l-0.371,-0.188l-0.38,-0.16l-0.4,-0.136Z" style="fill:none;stroke-width:2.08px;stroke:#f00;"/><path d="M684.832,2462.09l0.94,-0.315l0.85,-0.465l0.742,-0.592l0.63,-0.709l0.502,-0.803l0.362,-0.879l0.207,-0.93l0.042,-0.972l-0.132,-0.987l-1.066,-3.772l-1.428,-3.607l-1.776,-3.425l-2.104,-3.218l-2.415,-2.987l-2.701,-2.739l-2.978,-2.461l-3.227,-2.161l-3.467,-1.842l-0.38,-0.159l-0.39,-0.132l-0.399,-0.103l-0.404,-0.075l-0.409,-0.043l-0.409,-0.014l-0.408,0.019l-0.404,0.047l-0.395,0.08l-0.954,0.31l-0.855,0.465l-0.751,0.592l-0.634,0.709l-0.503,0.803l-0.362,0.879l-0.206,0.935l-0.043,0.972l0.137,0.991l1.071,3.763l1.432,3.603l1.781,3.424l2.104,3.218l2.415,2.988l2.701,2.738l2.973,2.462l3.223,2.17l3.462,1.846l0.38,0.16l0.385,0.131l0.4,0.104l0.399,0.07l0.409,0.042l0.413,0.015l0.413,-0.019l0.414,-0.047l0.413,-0.08Z" style="fill:none;stroke-width:2.08px;stroke:#f00;"/><path d="M457.169,2832.87l0.404,-0.906l0.23,-0.94l0.061,-0.953l-0.098,-0.945l-0.259,-0.911l-0.404,-0.855l-0.549,-0.784l-0.686,-0.686l-0.822,-0.564l-3.505,-1.752l-3.631,-1.372l-3.725,-0.996l-3.795,-0.615l-3.833,-0.23l-3.848,0.155l-3.823,0.545l-3.772,0.925l-3.693,1.32l-0.375,0.174l-0.362,0.202l-0.343,0.225l-0.329,0.249l-0.305,0.273l-0.287,0.296l-0.263,0.31l-0.235,0.333l-0.211,0.343l-0.409,0.916l-0.235,0.944l-0.065,0.954l0.094,0.949l0.253,0.911l0.409,0.86l0.549,0.78l0.691,0.685l0.827,0.569l3.499,1.743l3.631,1.367l3.73,0.991l3.796,0.615l3.833,0.23l3.843,-0.155l3.823,-0.535l3.777,-0.926l3.692,-1.315l0.376,-0.169l0.357,-0.202l0.343,-0.225l0.324,-0.245l0.305,-0.277l0.287,-0.291l0.268,-0.32l0.244,-0.338l0.216,-0.357Z" style="fill:none;stroke-width:2.08px;stroke:#f00;"/><path d="M600.132,3052.61l-0.371,-0.921l-0.517,-0.822l-0.639,-0.709l-0.742,-0.583l-0.831,-0.456l-0.898,-0.305l-0.944,-0.15l-0.972,0.014l-0.977,0.192l-3.697,1.292l-3.519,1.644l-3.311,1.978l-3.086,2.297l-2.838,2.588l-2.569,2.861l-2.279,3.119l-1.963,3.354l-1.63,3.57l-0.136,0.39l-0.108,0.395l-0.076,0.408l-0.051,0.409l-0.019,0.409l0.014,0.409l0.042,0.403l0.071,0.4l0.103,0.394l0.367,0.93l0.512,0.827l0.638,0.714l0.747,0.587l0.832,0.456l0.897,0.31l0.944,0.15l0.977,-0.018l0.977,-0.198l3.697,-1.291l3.509,-1.649l3.312,-1.983l3.082,-2.297l2.837,-2.588l2.574,-2.861l2.278,-3.114l1.969,-3.354l1.634,-3.561l0.137,-0.39l0.108,-0.394l0.079,-0.404l0.047,-0.404l0.019,-0.409l-0.014,-0.413l-0.042,-0.409l-0.071,-0.413l-0.103,-0.404Z" style="fill:none;stroke-width:2.08px;stroke:#f00;"/><path d="M985.56,3000.87l-0.968,0.197l-0.902,0.357l-0.808,0.503l-0.709,0.629l-0.597,0.738l-0.46,0.826l-0.32,0.902l-0.159,0.959l0.019,0.995l0.605,3.871l0.992,3.753l1.353,3.613l1.705,3.448l2.038,3.255l2.359,3.039l2.663,2.795l2.945,2.532l3.218,2.246l0.362,0.202l0.371,0.178l0.385,0.15l0.395,0.118l0.399,0.094l0.404,0.061l0.404,0.033l0.409,0l0.404,-0.033l0.981,-0.193l0.907,-0.357l0.817,-0.502l0.714,-0.63l0.592,-0.733l0.465,-0.831l0.32,-0.902l0.155,-0.963l-0.019,-1.001l-0.615,-3.861l-0.992,-3.753l-1.357,-3.608l-1.705,-3.448l-2.044,-3.255l-2.353,-3.039l-2.659,-2.8l-2.945,-2.537l-3.213,-2.245l-0.357,-0.202l-0.371,-0.179l-0.381,-0.15l-0.39,-0.117l-0.399,-0.094l-0.409,-0.061l-0.413,-0.029l-0.414,-0.004l-0.422,0.033Z" style="fill:none;stroke-width:2.08px;stroke:#f00;"/><path d="M1178.85,2771.25l0.263,0.958l0.423,0.869l0.554,0.775l0.677,0.667l0.775,0.54l0.855,0.409l0.921,0.254l0.967,0.094l0.996,-0.085l3.819,-0.864l3.678,-1.245l3.509,-1.592l3.326,-1.936l3.11,-2.255l2.87,-2.56l2.612,-2.842l2.33,-3.114l2.015,-3.364l0.183,-0.371l0.151,-0.385l0.122,-0.394l0.094,-0.4l0.065,-0.404l0.033,-0.408l0.005,-0.409l-0.028,-0.404l-0.057,-0.399l-0.263,-0.968l-0.418,-0.878l-0.554,-0.785l-0.676,-0.667l-0.776,-0.545l-0.854,-0.409l-0.926,-0.253l-0.968,-0.089l-0.995,0.084l-3.815,0.874l-3.673,1.245l-3.514,1.597l-3.321,1.94l-3.11,2.255l-2.875,2.555l-2.611,2.842l-2.33,3.11l-2.025,3.354l-0.178,0.371l-0.151,0.385l-0.122,0.39l-0.094,0.399l-0.066,0.404l-0.033,0.409l-0.004,0.413l0.028,0.418l0.056,0.414Z" style="fill:none;stroke-width:2.08px;stroke:#f00;"/><path d="M1497.99,2407.51l-0.925,-0.348l-0.954,-0.173l-0.953,-0.005l-0.935,0.16l-0.893,0.31l-0.831,0.455l-0.752,0.597l-0.638,0.728l-0.517,0.855l-1.536,3.603l-1.151,3.706l-0.766,3.782l-0.38,3.823l0,3.843l0.389,3.828l0.771,3.782l1.16,3.711l1.541,3.607l0.197,0.362l0.221,0.348l0.249,0.333l0.268,0.31l0.291,0.287l0.31,0.268l0.329,0.244l0.343,0.216l0.357,0.188l0.935,0.352l0.958,0.179l0.958,0.009l0.94,-0.155l0.897,-0.31l0.831,-0.456l0.747,-0.596l0.644,-0.733l0.512,-0.86l1.531,-3.598l1.142,-3.706l0.765,-3.782l0.381,-3.828l-0.005,-3.843l-0.385,-3.823l-0.771,-3.787l-1.15,-3.711l-1.536,-3.607l-0.193,-0.362l-0.221,-0.348l-0.244,-0.328l-0.268,-0.306l-0.291,-0.291l-0.315,-0.268l-0.333,-0.244l-0.353,-0.221l-0.371,-0.197Z" style="fill:none;stroke-width:2.08px;stroke:#f00;"/><path d="M1699.88,2845.69l0.733,-0.667l0.592,-0.77l0.437,-0.846l0.291,-0.902l0.136,-0.934l-0.028,-0.949l-0.188,-0.94l-0.352,-0.902l-0.522,-0.85l-2.499,-3.016l-2.771,-2.72l-3.007,-2.414l-3.227,-2.09l-3.42,-1.757l-3.579,-1.41l-3.716,-1.047l-3.828,-0.667l-3.913,-0.282l-0.414,0.005l-0.408,0.037l-0.409,0.071l-0.399,0.094l-0.39,0.127l-0.381,0.155l-0.361,0.178l-0.353,0.207l-0.329,0.235l-0.746,0.667l-0.597,0.77l-0.446,0.85l-0.292,0.902l-0.136,0.94l0.024,0.949l0.192,0.939l0.353,0.907l0.526,0.85l2.504,3.006l2.771,2.716l3.011,2.409l3.227,2.091l3.415,1.757l3.58,1.409l3.715,1.052l3.829,0.676l3.908,0.287l0.414,-0.005l0.408,-0.037l0.404,-0.071l0.395,-0.094l0.39,-0.127l0.38,-0.155l0.371,-0.183l0.362,-0.211l0.343,-0.24Z" style="fill:none;stroke-width:2.08px;stroke:#f00;"/><path d="M1687.57,3292.37l-0.371,-0.921l-0.513,-0.822l-0.638,-0.709l-0.743,-0.588l-0.831,-0.451l-0.897,-0.31l-0.944,-0.15l-0.973,0.014l-0.977,0.188l-3.701,1.287l-3.514,1.64l-3.317,1.973l-3.091,2.287l-2.842,2.589l-2.574,2.856l-2.283,3.114l-1.968,3.354l-1.635,3.565l-0.136,0.39l-0.108,0.395l-0.08,0.409l-0.047,0.404l-0.023,0.413l0.014,0.409l0.037,0.404l0.076,0.399l0.098,0.394l0.367,0.931l0.516,0.826l0.634,0.714l0.747,0.592l0.832,0.456l0.897,0.31l0.944,0.155l0.973,-0.019l0.981,-0.192l3.693,-1.292l3.518,-1.644l3.312,-1.978l3.086,-2.288l2.842,-2.583l2.574,-2.861l2.288,-3.11l1.973,-3.349l1.639,-3.561l0.136,-0.385l0.109,-0.399l0.079,-0.4l0.047,-0.408l0.019,-0.409l-0.009,-0.409l-0.043,-0.413l-0.075,-0.409l-0.098,-0.408Z" style="fill:none;stroke-width:2.08px;stroke:#f00;"/><path d="M1902.49,3031.85l-0.728,0.672l-0.582,0.77l-0.437,0.85l-0.282,0.907l-0.127,0.935l0.033,0.948l0.198,0.935l0.356,0.902l0.531,0.846l2.523,2.997l2.79,2.701l3.03,2.386l3.241,2.067l3.429,1.733l3.589,1.377l3.725,1.019l3.834,0.644l3.917,0.249l0.414,-0.01l0.408,-0.042l0.409,-0.071l0.395,-0.103l0.389,-0.127l0.381,-0.155l0.362,-0.183l0.347,-0.211l0.334,-0.235l0.737,-0.677l0.587,-0.775l0.442,-0.85l0.287,-0.907l0.126,-0.939l-0.033,-0.949l-0.192,-0.935l-0.366,-0.902l-0.531,-0.85l-2.528,-2.988l-2.79,-2.691l-3.03,-2.387l-3.246,-2.066l-3.429,-1.729l-3.589,-1.386l-3.725,-1.019l-3.828,-0.644l-3.913,-0.258l-0.414,0.009l-0.408,0.038l-0.4,0.07l-0.399,0.104l-0.39,0.127l-0.38,0.159l-0.367,0.183l-0.357,0.216l-0.343,0.245Z" style="fill:none;stroke-width:2.08px;stroke:#f00;"/><path d="M2583.85,2888.92l-0.667,-0.737l-0.766,-0.592l-0.845,-0.441l-0.902,-0.292l-0.935,-0.136l-0.949,0.019l-0.935,0.188l-0.907,0.347l-0.85,0.522l-3.025,2.489l-2.729,2.763l-2.424,3.001l-2.1,3.218l-1.766,3.41l-1.419,3.58l-1.057,3.711l-0.685,3.828l-0.292,3.909l0.005,0.413l0.038,0.413l0.065,0.409l0.099,0.399l0.122,0.39l0.15,0.381l0.184,0.366l0.202,0.348l0.235,0.333l0.667,0.747l0.765,0.597l0.851,0.451l0.901,0.296l0.94,0.136l0.949,-0.024l0.939,-0.183l0.907,-0.352l0.85,-0.526l3.016,-2.495l2.724,-2.762l2.42,-3.001l2.1,-3.223l1.766,-3.41l1.423,-3.575l1.062,-3.711l0.685,-3.824l0.301,-3.908l-0.005,-0.413l-0.037,-0.409l-0.066,-0.404l-0.094,-0.399l-0.127,-0.39l-0.155,-0.381l-0.183,-0.371l-0.207,-0.362l-0.239,-0.343Z" style="fill:none;stroke-width:2.08px;stroke:#f00;"/><path d="M3125.49,2713.39l-0.737,0.662l-0.588,0.766l-0.446,0.846l-0.291,0.901l-0.136,0.94l0.023,0.944l0.183,0.94l0.353,0.906l0.516,0.851l2.49,3.02l2.762,2.729l3.002,2.424l3.222,2.105l3.411,1.766l3.574,1.418l3.712,1.057l3.828,0.681l3.913,0.296l0.413,-0.009l0.409,-0.033l0.409,-0.07l0.399,-0.094l0.39,-0.122l0.38,-0.155l0.367,-0.179l0.347,-0.207l0.334,-0.23l0.747,-0.667l0.596,-0.77l0.451,-0.846l0.296,-0.902l0.136,-0.939l-0.018,-0.949l-0.188,-0.939l-0.353,-0.907l-0.526,-0.85l-2.489,-3.016l-2.763,-2.725l-3.006,-2.419l-3.222,-2.1l-3.411,-1.771l-3.575,-1.418l-3.71,-1.062l-3.824,-0.686l-3.908,-0.3l-0.414,0.004l-0.408,0.038l-0.404,0.066l-0.4,0.094l-0.39,0.126l-0.38,0.151l-0.371,0.183l-0.357,0.211l-0.348,0.24Z" style="fill:none;stroke-width:2.08px;stroke:#f00;"/><path d="M3513.95,2148.83l-0.907,0.399l-0.803,0.54l-0.686,0.662l-0.559,0.766l-0.427,0.846l-0.278,0.906l-0.117,0.949l0.047,0.972l0.225,0.968l1.414,3.655l1.762,3.457l2.09,3.246l2.396,3.007l2.682,2.752l2.946,2.471l3.194,2.17l3.415,1.851l3.622,1.508l0.394,0.127l0.404,0.094l0.404,0.065l0.409,0.033l0.413,0.005l0.409,-0.023l0.404,-0.057l0.394,-0.084l0.39,-0.118l0.916,-0.399l0.813,-0.54l0.691,-0.663l0.563,-0.765l0.428,-0.846l0.277,-0.906l0.117,-0.949l-0.047,-0.973l-0.23,-0.977l-1.418,-3.645l-1.767,-3.453l-2.09,-3.241l-2.396,-3.006l-2.682,-2.753l-2.945,-2.471l-3.195,-2.175l-3.41,-1.855l-3.617,-1.518l-0.395,-0.122l-0.399,-0.094l-0.404,-0.065l-0.409,-0.033l-0.408,-0.005l-0.409,0.028l-0.409,0.057l-0.408,0.084l-0.404,0.118Z" style="fill:none;stroke-width:2.08px;stroke:#f00;"/><path d="M3686.33,1866.87l-0.263,0.953l-0.089,0.968l0.079,0.949l0.24,0.916l0.385,0.864l0.531,0.789l0.658,0.695l0.779,0.574l0.898,0.441l3.72,1.212l3.796,0.822l3.833,0.437l3.847,0.042l3.824,-0.338l3.781,-0.719l3.702,-1.099l3.593,-1.479l3.458,-1.851l0.347,-0.226l0.325,-0.249l0.309,-0.277l0.287,-0.296l0.263,-0.315l0.239,-0.333l0.212,-0.348l0.183,-0.361l0.155,-0.372l0.273,-0.962l0.094,-0.973l-0.076,-0.953l-0.234,-0.921l-0.386,-0.865l-0.53,-0.789l-0.658,-0.695l-0.785,-0.573l-0.902,-0.437l-3.72,-1.212l-3.791,-0.817l-3.833,-0.428l-3.847,-0.042l-3.824,0.338l-3.781,0.719l-3.702,1.094l-3.598,1.471l-3.457,1.846l-0.348,0.226l-0.324,0.248l-0.306,0.273l-0.281,0.296l-0.264,0.315l-0.239,0.333l-0.216,0.352l-0.193,0.371l-0.164,0.386Z" style="fill:none;stroke-width:2.08px;stroke:#f00;"/><path d="M3566.14,1460.37l-0.005,0.991l0.17,0.954l0.324,0.897l0.474,0.822l0.597,0.733l0.719,0.62l0.817,0.498l0.902,0.348l0.982,0.187l3.913,0.198l3.875,-0.202l3.81,-0.587l3.725,-0.963l3.603,-1.335l3.457,-1.686l3.284,-2.034l3.081,-2.367l2.852,-2.692l0.272,-0.31l0.249,-0.329l0.225,-0.348l0.202,-0.357l0.169,-0.375l0.141,-0.381l0.118,-0.39l0.084,-0.399l0.052,-0.399l0.009,-1.001l-0.169,-0.963l-0.319,-0.902l-0.47,-0.827l-0.601,-0.732l-0.714,-0.625l-0.822,-0.493l-0.907,-0.353l-0.982,-0.183l-3.908,-0.192l-3.875,0.206l-3.81,0.592l-3.72,0.968l-3.608,1.329l-3.457,1.687l-3.284,2.029l-3.081,2.363l-2.856,2.687l-0.273,0.31l-0.249,0.324l-0.225,0.343l-0.198,0.361l-0.169,0.372l-0.145,0.385l-0.113,0.394l-0.089,0.409l-0.057,0.418Z" style="fill:none;stroke-width:2.08px;stroke:#f00;"/><path d="M3225.27,1261.37l0.991,0.033l0.954,-0.146l0.906,-0.305l0.836,-0.451l0.747,-0.578l0.639,-0.7l0.517,-0.808l0.371,-0.897l0.211,-0.973l0.296,-3.903l-0.108,-3.88l-0.488,-3.829l-0.874,-3.744l-1.24,-3.635l-1.602,-3.5l-1.949,-3.331l-2.293,-3.142l-2.621,-2.917l-0.301,-0.282l-0.324,-0.259l-0.338,-0.23l-0.357,-0.206l-0.367,-0.184l-0.38,-0.15l-0.39,-0.127l-0.394,-0.094l-0.4,-0.061l-1,-0.033l-0.963,0.141l-0.911,0.301l-0.837,0.446l-0.747,0.583l-0.643,0.699l-0.517,0.809l-0.371,0.897l-0.211,0.977l-0.287,3.903l0.113,3.881l0.493,3.823l0.874,3.744l1.24,3.636l1.602,3.5l1.944,3.335l2.288,3.138l2.612,2.922l0.301,0.281l0.324,0.259l0.333,0.23l0.357,0.207l0.367,0.178l0.38,0.155l0.395,0.122l0.404,0.099l0.418,0.066Z" style="fill:none;stroke-width:2.08px;stroke:#f00;"/></g><g id="OuterBounds"><rect x="0" y="0.004" width="4724.41" height="3543.3" style="fill:none;stroke-width:2.08px;stroke:#00f;"/></g></svg>