<?xml version="1.0" standalone="no"?>
<!DOCTYPE svg PUBLIC "-//W3C//DTD SVG 1.1//EN" "http://www.w3.org/Graphics/SVG/1.1/DTD/svg11.dtd">
<svg width="100%" height="100%" viewBox="0 0 1248 879" version="1.1" xmlns="http://www.w3.org/2000/svg" xmlns:xlink="http://www.w3.org/1999/xlink" xml:space="preserve" style="fill-rule:evenodd;clip-rule:evenodd;stroke-miterlimit:1.41421;">
    <g id="grave">
        <path d="M446.422,487.517L433.712,470.041" style="fill:none;stroke-width:1px;stroke:rgb(77,77,77);"/>
        <path d="M423.458,455.941L413.204,441.841" style="fill:none;stroke-width:1px;stroke:rgb(77,77,77);"/>
        <path d="M402.95,427.742L392.696,413.642" style="fill:none;stroke-width:1px;stroke:rgb(77,77,77);"/>
        <path d="M382.442,399.542L372.188,385.443" style="fill:none;stroke-width:1px;stroke:rgb(77,77,77);"/>
        <path d="M361.934,371.343L351.68,357.243" style="fill:none;stroke-width:1px;stroke:rgb(77,77,77);"/>
        <path d="M341.426,343.144L331.172,329.044" style="fill:none;stroke-width:1px;stroke:rgb(77,77,77);"/>
        <path d="M320.918,314.944L308.208,297.468" style="fill:none;stroke-width:1px;stroke:rgb(77,77,77);"/>
        <path d="M309.182,297.622L291.705,310.332" style="fill:none;stroke-width:1px;stroke:rgb(77,77,77);"/>
        <path d="M277.606,320.586L263.506,330.84" style="fill:none;stroke-width:1px;stroke:rgb(77,77,77);"/>
        <path d="M249.406,341.094L235.307,351.348" style="fill:none;stroke-width:1px;stroke:rgb(77,77,77);"/>
        <path d="M221.207,361.602L207.107,371.856" style="fill:none;stroke-width:1px;stroke:rgb(77,77,77);"/>
        <path d="M193.008,382.11L178.908,392.364" style="fill:none;stroke-width:1px;stroke:rgb(77,77,77);"/>
        <path d="M164.808,402.618L150.709,412.872" style="fill:none;stroke-width:1px;stroke:rgb(77,77,77);"/>
        <path d="M136.609,423.126L119.133,435.836" style="fill:none;stroke-width:1px;stroke:rgb(77,77,77);"/>
        <path d="M256.526,624.757L274.003,612.047" style="fill:none;stroke-width:1px;stroke:rgb(77,77,77);"/>
        <path d="M288.103,601.793L302.202,591.539" style="fill:none;stroke-width:1px;stroke:rgb(77,77,77);"/>
        <path d="M316.302,581.285L330.402,571.031" style="fill:none;stroke-width:1px;stroke:rgb(77,77,77);"/>
        <path d="M344.501,560.777L358.601,550.523" style="fill:none;stroke-width:1px;stroke:rgb(77,77,77);"/>
        <path d="M372.701,540.269L386.8,530.015" style="fill:none;stroke-width:1px;stroke:rgb(77,77,77);"/>
        <path d="M400.9,519.761L415,509.507" style="fill:none;stroke-width:1px;stroke:rgb(77,77,77);"/>
        <path d="M429.099,499.253L446.576,486.543" style="fill:none;stroke-width:1px;stroke:rgb(77,77,77);"/>
        <path d="M946.789,383.766L959.325,376.59" style="fill:none;stroke-width:1px;stroke:rgb(77,77,77);"/>
        <path d="M974.456,367.929L989.586,359.268" style="fill:none;stroke-width:1px;stroke:rgb(77,77,77);"/>
        <path d="M1004.72,350.608L1019.85,341.947" style="fill:none;stroke-width:1px;stroke:rgb(77,77,77);"/>
        <path d="M1034.98,333.286L1050.11,324.625" style="fill:none;stroke-width:1px;stroke:rgb(77,77,77);"/>
        <path d="M1065.24,315.964L1080.37,307.304" style="fill:none;stroke-width:1px;stroke:rgb(77,77,77);"/>
        <path d="M1095.5,298.643L1110.63,289.982" style="fill:none;stroke-width:1px;stroke:rgb(77,77,77);"/>
        <path d="M1125.76,281.321L1140.89,272.66" style="fill:none;stroke-width:1px;stroke:rgb(77,77,77);"/>
        <path d="M1156.02,264L1171.15,255.339" style="fill:none;stroke-width:1px;stroke:rgb(77,77,77);"/>
        <path d="M1186.28,246.678L1198.82,239.502" style="fill:none;stroke-width:1px;stroke:rgb(77,77,77);"/>
        <path d="M946.72,383.242L967.623,388.722" style="fill:none;stroke-width:1px;stroke:rgb(77,77,77);"/>
        <path d="M984.487,393.143L1001.35,397.564" style="fill:none;stroke-width:1px;stroke:rgb(77,77,77);"/>
        <path d="M1018.22,401.985L1035.08,406.406" style="fill:none;stroke-width:1px;stroke:rgb(77,77,77);"/>
        <path d="M1051.94,410.827L1068.81,415.248" style="fill:none;stroke-width:1px;stroke:rgb(77,77,77);"/>
        <path d="M1085.67,419.669L1102.54,424.09" style="fill:none;stroke-width:1px;stroke:rgb(77,77,77);"/>
        <path d="M1119.4,428.51L1136.27,432.931" style="fill:none;stroke-width:1px;stroke:rgb(77,77,77);"/>
        <path d="M1153.13,437.352L1174.03,442.832" style="fill:none;stroke-width:1px;stroke:rgb(77,77,77);"/>
        <path d="M564.774,105.937L565.369,119.724" style="fill:none;stroke-width:1px;stroke:rgb(77,77,77);"/>
        <path d="M566.12,137.142L566.871,154.559" style="fill:none;stroke-width:1px;stroke:rgb(77,77,77);"/>
        <path d="M567.621,171.977L568.372,189.395" style="fill:none;stroke-width:1px;stroke:rgb(77,77,77);"/>
        <path d="M569.123,206.813L569.874,224.231" style="fill:none;stroke-width:1px;stroke:rgb(77,77,77);"/>
        <path d="M570.625,241.649L571.376,259.067" style="fill:none;stroke-width:1px;stroke:rgb(77,77,77);"/>
        <path d="M572.127,276.484L572.878,293.902" style="fill:none;stroke-width:1px;stroke:rgb(77,77,77);"/>
        <path d="M573.629,311.32L574.223,325.107" style="fill:none;stroke-width:1px;stroke:rgb(77,77,77);"/>
        <path d="M573.607,324.788L588.171,315.384" style="fill:none;stroke-width:1px;stroke:rgb(77,77,77);"/>
        <path d="M602.817,305.926L617.463,296.469" style="fill:none;stroke-width:1px;stroke:rgb(77,77,77);"/>
        <path d="M632.108,287.011L646.754,277.553" style="fill:none;stroke-width:1px;stroke:rgb(77,77,77);"/>
        <path d="M661.4,268.096L676.046,258.638" style="fill:none;stroke-width:1px;stroke:rgb(77,77,77);"/>
        <path d="M690.691,249.181L705.337,239.723" style="fill:none;stroke-width:1px;stroke:rgb(77,77,77);"/>
        <path d="M719.983,230.265L734.547,220.861" style="fill:none;stroke-width:1px;stroke:rgb(77,77,77);"/>
        <path d="M479.426,177.532L484.465,185.341" style="fill:none;stroke-width:1px;stroke:rgb(77,77,77);"/>
        <path d="M493.917,199.991L503.369,214.64" style="fill:none;stroke-width:1px;stroke:rgb(77,77,77);"/>
        <path d="M512.821,229.29L522.273,243.939" style="fill:none;stroke-width:1px;stroke:rgb(77,77,77);"/>
        <path d="M531.725,258.589L541.177,273.238" style="fill:none;stroke-width:1px;stroke:rgb(77,77,77);"/>
        <path d="M550.629,287.887L560.081,302.537" style="fill:none;stroke-width:1px;stroke:rgb(77,77,77);"/>
        <path d="M569.532,317.186L574.571,324.996" style="fill:none;stroke-width:1px;stroke:rgb(77,77,77);"/>
        <path d="M947.571,382.745L941.859,404.534" style="fill:none;stroke-width:1px;stroke:rgb(77,77,77);"/>
        <path d="M937.438,421.398L933.017,438.262" style="fill:none;stroke-width:1px;stroke:rgb(77,77,77);"/>
        <path d="M928.596,455.126L924.175,471.99" style="fill:none;stroke-width:1px;stroke:rgb(77,77,77);"/>
        <path d="M919.755,488.854L914.043,510.643" style="fill:none;stroke-width:1px;stroke:rgb(77,77,77);"/>
        <path d="M783.571,389.439L791.488,396.744" style="fill:none;stroke-width:1px;stroke:rgb(77,77,77);"/>
        <path d="M804.302,408.565L817.116,420.387" style="fill:none;stroke-width:1px;stroke:rgb(77,77,77);"/>
        <path d="M829.93,432.208L842.744,444.03" style="fill:none;stroke-width:1px;stroke:rgb(77,77,77);"/>
        <path d="M855.558,455.851L868.372,467.673" style="fill:none;stroke-width:1px;stroke:rgb(77,77,77);"/>
        <path d="M881.186,479.494L894,491.316" style="fill:none;stroke-width:1px;stroke:rgb(77,77,77);"/>
        <path d="M906.814,503.137L914.732,510.442" style="fill:none;stroke-width:1px;stroke:rgb(77,77,77);"/>
        <path d="M784.569,389.412L775.036,399.242" style="fill:none;stroke-width:1px;stroke:rgb(77,77,77);"/>
        <path d="M762.898,411.757L750.761,424.273" style="fill:none;stroke-width:1px;stroke:rgb(77,77,77);"/>
        <path d="M738.624,436.788L726.487,449.303" style="fill:none;stroke-width:1px;stroke:rgb(77,77,77);"/>
        <path d="M714.35,461.819L702.213,474.334" style="fill:none;stroke-width:1px;stroke:rgb(77,77,77);"/>
        <path d="M690.076,486.85L680.543,496.68" style="fill:none;stroke-width:1px;stroke:rgb(77,77,77);"/>
        <path d="M680.332,496.138L701.904,497.414" style="fill:none;stroke-width:1px;stroke:rgb(77,77,77);"/>
        <path d="M719.307,498.443L736.711,499.472" style="fill:none;stroke-width:1px;stroke:rgb(77,77,77);"/>
        <path d="M754.115,500.501L771.518,501.53" style="fill:none;stroke-width:1px;stroke:rgb(77,77,77);"/>
        <path d="M788.922,502.56L806.326,503.589" style="fill:none;stroke-width:1px;stroke:rgb(77,77,77);"/>
        <path d="M823.729,504.618L841.133,505.647" style="fill:none;stroke-width:1px;stroke:rgb(77,77,77);"/>
        <path d="M858.536,506.676L875.94,507.705" style="fill:none;stroke-width:1px;stroke:rgb(77,77,77);"/>
        <path d="M893.344,508.734L914.916,510.01" style="fill:none;stroke-width:1px;stroke:rgb(77,77,77);"/>
        <path d="M256.405,624.476L272.794,621.401" style="fill:none;stroke-width:1px;stroke:rgb(77,77,77);"/>
        <path d="M289.929,618.186L307.064,614.971" style="fill:none;stroke-width:1px;stroke:rgb(77,77,77);"/>
        <path d="M324.199,611.756L341.334,608.542" style="fill:none;stroke-width:1px;stroke:rgb(77,77,77);"/>
        <path d="M358.469,605.327L375.604,602.112" style="fill:none;stroke-width:1px;stroke:rgb(77,77,77);"/>
        <path d="M392.739,598.897L409.874,595.682" style="fill:none;stroke-width:1px;stroke:rgb(77,77,77);"/>
        <path d="M427.009,592.467L444.144,589.252" style="fill:none;stroke-width:1px;stroke:rgb(77,77,77);"/>
        <path d="M461.279,586.038L478.414,582.823" style="fill:none;stroke-width:1px;stroke:rgb(77,77,77);"/>
        <path d="M495.549,579.608L511.938,576.533" style="fill:none;stroke-width:1px;stroke:rgb(77,77,77);"/>
        <path d="M350.952,693.321L367.951,680.95" style="fill:none;stroke-width:1px;stroke:rgb(77,77,77);"/>
        <path d="M382.047,670.691L396.143,660.433" style="fill:none;stroke-width:1px;stroke:rgb(77,77,77);"/>
        <path d="M410.24,650.174L424.336,639.915" style="fill:none;stroke-width:1px;stroke:rgb(77,77,77);"/>
        <path d="M438.432,629.657L452.529,619.398" style="fill:none;stroke-width:1px;stroke:rgb(77,77,77);"/>
        <path d="M466.625,609.14L480.721,598.881" style="fill:none;stroke-width:1px;stroke:rgb(77,77,77);"/>
        <path d="M494.818,588.622L511.817,576.251" style="fill:none;stroke-width:1px;stroke:rgb(77,77,77);"/>
        <path d="M479.647,177.438L482.555,190.001" style="fill:none;stroke-width:1px;stroke:rgb(77,77,77);"/>
        <path d="M486.487,206.986L490.419,223.971" style="fill:none;stroke-width:1px;stroke:rgb(77,77,77);"/>
        <path d="M494.351,240.955L498.283,257.94" style="fill:none;stroke-width:1px;stroke:rgb(77,77,77);"/>
        <path d="M502.215,274.925L506.147,291.91" style="fill:none;stroke-width:1px;stroke:rgb(77,77,77);"/>
        <path d="M510.079,308.895L514.011,325.88" style="fill:none;stroke-width:1px;stroke:rgb(77,77,77);"/>
        <path d="M517.943,342.865L521.874,359.849" style="fill:none;stroke-width:1px;stroke:rgb(77,77,77);"/>
        <path d="M525.806,376.834L529.738,393.819" style="fill:none;stroke-width:1px;stroke:rgb(77,77,77);"/>
        <path d="M533.67,410.804L536.578,423.367" style="fill:none;stroke-width:1px;stroke:rgb(77,77,77);"/>
        <path d="M424.435,266.166L434.981,280.906" style="fill:none;stroke-width:1px;stroke:rgb(77,77,77);"/>
        <path d="M445.126,295.085L455.27,309.264" style="fill:none;stroke-width:1px;stroke:rgb(77,77,77);"/>
        <path d="M465.415,323.442L475.559,337.621" style="fill:none;stroke-width:1px;stroke:rgb(77,77,77);"/>
        <path d="M485.703,351.8L495.848,365.978" style="fill:none;stroke-width:1px;stroke:rgb(77,77,77);"/>
        <path d="M505.992,380.157L516.137,394.336" style="fill:none;stroke-width:1px;stroke:rgb(77,77,77);"/>
        <path d="M526.281,408.515L536.827,423.254" style="fill:none;stroke-width:1px;stroke:rgb(77,77,77);"/>
        <path d="M12.206,272.196L30.377,266.684" style="fill:none;stroke-width:1px;stroke:rgb(77,77,77);"/>
        <path d="M47.06,261.623L63.744,256.562" style="fill:none;stroke-width:1px;stroke:rgb(77,77,77);"/>
        <path d="M80.427,251.501L97.11,246.441" style="fill:none;stroke-width:1px;stroke:rgb(77,77,77);"/>
        <path d="M113.793,241.38L130.477,236.319" style="fill:none;stroke-width:1px;stroke:rgb(77,77,77);"/>
        <path d="M147.16,231.258L163.843,226.197" style="fill:none;stroke-width:1px;stroke:rgb(77,77,77);"/>
        <path d="M180.527,221.136L197.21,216.075" style="fill:none;stroke-width:1px;stroke:rgb(77,77,77);"/>
        <path d="M213.893,211.015L232.064,205.503" style="fill:none;stroke-width:1px;stroke:rgb(77,77,77);"/>
        <path d="M12.846,334.346L24.762,327.332" style="fill:none;stroke-width:1px;stroke:rgb(77,77,77);"/>
        <path d="M39.787,318.488L54.811,309.645" style="fill:none;stroke-width:1px;stroke:rgb(77,77,77);"/>
        <path d="M69.836,300.801L84.86,291.958" style="fill:none;stroke-width:1px;stroke:rgb(77,77,77);"/>
        <path d="M99.885,283.114L114.909,274.27" style="fill:none;stroke-width:1px;stroke:rgb(77,77,77);"/>
        <path d="M129.934,265.427L144.959,256.583" style="fill:none;stroke-width:1px;stroke:rgb(77,77,77);"/>
        <path d="M159.983,247.74L175.008,238.896" style="fill:none;stroke-width:1px;stroke:rgb(77,77,77);"/>
        <path d="M190.032,230.052L205.057,221.209" style="fill:none;stroke-width:1px;stroke:rgb(77,77,77);"/>
        <path d="M220.081,212.365L231.998,205.351" style="fill:none;stroke-width:1px;stroke:rgb(77,77,77);"/>
        <path d="M680.351,496.011L704.136,501.937" style="fill:none;stroke-width:1px;stroke:rgb(77,77,77);"/>
        <path d="M721.053,506.153L737.97,510.368" style="fill:none;stroke-width:1px;stroke:rgb(77,77,77);"/>
        <path d="M754.886,514.583L771.803,518.799" style="fill:none;stroke-width:1px;stroke:rgb(77,77,77);"/>
        <path d="M788.72,523.014L805.637,527.229" style="fill:none;stroke-width:1px;stroke:rgb(77,77,77);"/>
        <path d="M822.553,531.445L839.47,535.66" style="fill:none;stroke-width:1px;stroke:rgb(77,77,77);"/>
        <path d="M856.387,539.875L873.304,544.091" style="fill:none;stroke-width:1px;stroke:rgb(77,77,77);"/>
        <path d="M890.22,548.306L907.137,552.521" style="fill:none;stroke-width:1px;stroke:rgb(77,77,77);"/>
        <path d="M924.054,556.736L947.839,562.663" style="fill:none;stroke-width:1px;stroke:rgb(77,77,77);"/>
        <path d="M703.284,589.781L712.951,588.7" style="fill:none;stroke-width:1px;stroke:rgb(77,77,77);"/>
        <path d="M730.277,586.761L747.603,584.823" style="fill:none;stroke-width:1px;stroke:rgb(77,77,77);"/>
        <path d="M764.929,582.884L782.255,580.946" style="fill:none;stroke-width:1px;stroke:rgb(77,77,77);"/>
        <path d="M799.581,579.007L816.907,577.068" style="fill:none;stroke-width:1px;stroke:rgb(77,77,77);"/>
        <path d="M834.233,575.13L851.559,573.191" style="fill:none;stroke-width:1px;stroke:rgb(77,77,77);"/>
        <path d="M868.885,571.253L886.21,569.314" style="fill:none;stroke-width:1px;stroke:rgb(77,77,77);"/>
        <path d="M903.536,567.376L920.862,565.437" style="fill:none;stroke-width:1px;stroke:rgb(77,77,77);"/>
        <path d="M938.188,563.499L947.855,562.417" style="fill:none;stroke-width:1px;stroke:rgb(77,77,77);"/>
        <path d="M680.896,496.864L682.775,487.106" style="fill:none;stroke-width:1px;stroke:rgb(77,77,77);"/>
        <path d="M686.071,469.987L689.367,452.867" style="fill:none;stroke-width:1px;stroke:rgb(77,77,77);"/>
        <path d="M692.663,435.748L695.959,418.628" style="fill:none;stroke-width:1px;stroke:rgb(77,77,77);"/>
        <path d="M699.255,401.508L702.55,384.389" style="fill:none;stroke-width:1px;stroke:rgb(77,77,77);"/>
        <path d="M705.846,367.269L709.142,350.149" style="fill:none;stroke-width:1px;stroke:rgb(77,77,77);"/>
        <path d="M712.438,333.03L715.734,315.91" style="fill:none;stroke-width:1px;stroke:rgb(77,77,77);"/>
        <path d="M719.03,298.79L722.326,281.671" style="fill:none;stroke-width:1px;stroke:rgb(77,77,77);"/>
        <path d="M725.622,264.551L728.918,247.432" style="fill:none;stroke-width:1px;stroke:rgb(77,77,77);"/>
        <path d="M732.214,230.312L734.093,220.554" style="fill:none;stroke-width:1px;stroke:rgb(77,77,77);"/>
        <path d="M350.82,692.958L376.79,691.192" style="fill:none;stroke-width:1px;stroke:rgb(77,77,77);"/>
        <path d="M394.184,690.009L411.578,688.827" style="fill:none;stroke-width:1px;stroke:rgb(77,77,77);"/>
        <path d="M428.972,687.644L446.366,686.461" style="fill:none;stroke-width:1px;stroke:rgb(77,77,77);"/>
        <path d="M463.76,685.279L481.153,684.096" style="fill:none;stroke-width:1px;stroke:rgb(77,77,77);"/>
        <path d="M498.547,682.913L524.518,681.147" style="fill:none;stroke-width:1px;stroke:rgb(77,77,77);"/>
        <path d="M424.774,266.039L426.251,281.396" style="fill:none;stroke-width:1px;stroke:rgb(77,77,77);"/>
        <path d="M427.919,298.75L429.587,316.104" style="fill:none;stroke-width:1px;stroke:rgb(77,77,77);"/>
        <path d="M431.256,333.458L432.924,350.812" style="fill:none;stroke-width:1px;stroke:rgb(77,77,77);"/>
        <path d="M434.592,368.166L436.261,385.52" style="fill:none;stroke-width:1px;stroke:rgb(77,77,77);"/>
        <path d="M437.929,402.874L439.597,420.228" style="fill:none;stroke-width:1px;stroke:rgb(77,77,77);"/>
        <path d="M441.266,437.582L442.934,454.936" style="fill:none;stroke-width:1px;stroke:rgb(77,77,77);"/>
        <path d="M444.602,472.29L446.079,487.647" style="fill:none;stroke-width:1px;stroke:rgb(77,77,77);"/>
        <path d="M12.755,334.077L31.237,331.825" style="fill:none;stroke-width:1px;stroke:rgb(77,77,77);"/>
        <path d="M48.543,329.717L65.849,327.608" style="fill:none;stroke-width:1px;stroke:rgb(77,77,77);"/>
        <path d="M83.155,325.5L100.461,323.391" style="fill:none;stroke-width:1px;stroke:rgb(77,77,77);"/>
        <path d="M117.767,321.283L135.073,319.175" style="fill:none;stroke-width:1px;stroke:rgb(77,77,77);"/>
        <path d="M152.379,317.066L169.686,314.958" style="fill:none;stroke-width:1px;stroke:rgb(77,77,77);"/>
        <path d="M186.992,312.849L204.298,310.741" style="fill:none;stroke-width:1px;stroke:rgb(77,77,77);"/>
        <path d="M221.604,308.633L238.91,306.524" style="fill:none;stroke-width:1px;stroke:rgb(77,77,77);"/>
        <path d="M256.216,304.416L273.522,302.307" style="fill:none;stroke-width:1px;stroke:rgb(77,77,77);"/>
        <path d="M290.828,300.199L309.31,297.947" style="fill:none;stroke-width:1px;stroke:rgb(77,77,77);"/>
        <path d="M703.372,589.358L718.769,598.146" style="fill:none;stroke-width:1px;stroke:rgb(77,77,77);"/>
        <path d="M733.91,606.788L749.052,615.43" style="fill:none;stroke-width:1px;stroke:rgb(77,77,77);"/>
        <path d="M764.193,624.072L779.334,632.714" style="fill:none;stroke-width:1px;stroke:rgb(77,77,77);"/>
        <path d="M794.476,641.356L809.617,649.998" style="fill:none;stroke-width:1px;stroke:rgb(77,77,77);"/>
        <path d="M824.758,658.64L839.9,667.282" style="fill:none;stroke-width:1px;stroke:rgb(77,77,77);"/>
        <path d="M855.041,675.924L870.183,684.566" style="fill:none;stroke-width:1px;stroke:rgb(77,77,77);"/>
        <path d="M885.324,693.208L900.721,701.996" style="fill:none;stroke-width:1px;stroke:rgb(77,77,77);"/>
        <path d="M316.385,433.897L240.922,471.72L266.111,480.085" style="fill:none;stroke-width:1px;stroke:rgb(255,0,0);"/>
        <path d="M194.272,165.646L194.285,165.771L194.32,165.89L194.374,165.999L194.446,166.097L194.532,166.182L194.632,166.25L194.742,166.302L194.862,166.334L194.989,166.344L195.489,166.313L195.978,166.233L196.454,166.104L196.913,165.929L197.351,165.709L197.766,165.446L198.154,165.142L198.512,164.798L198.836,164.416L198.866,164.372L198.893,164.327L198.917,164.28L198.937,164.232L198.954,164.182L198.966,164.131L198.975,164.08L198.98,164.028L198.981,163.977L198.968,163.85L198.934,163.73L198.88,163.62L198.809,163.522L198.722,163.437L198.623,163.368L198.512,163.317L198.391,163.285L198.264,163.275L197.765,163.307L197.276,163.387L196.801,163.516L196.342,163.692L195.903,163.911L195.488,164.174L195.1,164.478L194.742,164.822L194.417,165.203L194.387,165.246L194.36,165.291L194.337,165.338L194.317,165.386L194.3,165.436L194.287,165.487L194.278,165.539L194.273,165.592L194.272,165.646Z" style="fill:none;stroke-width:1px;stroke:rgb(255,0,0);"/>
        <path d="M108.916,203.616L109.033,203.568L109.137,203.501L109.227,203.419L109.301,203.323L109.358,203.216L109.396,203.101L109.414,202.981L109.411,202.857L109.385,202.732L109.216,202.261L109.002,201.814L108.746,201.393L108.449,201.002L108.115,200.642L107.747,200.317L107.346,200.03L106.915,199.783L106.458,199.579L106.408,199.562L106.357,199.548L106.305,199.539L106.253,199.533L106.2,199.531L106.148,199.533L106.096,199.539L106.045,199.549L105.996,199.562L105.877,199.61L105.772,199.677L105.682,199.759L105.607,199.855L105.55,199.962L105.512,200.077L105.493,200.198L105.497,200.322L105.523,200.447L105.693,200.917L105.907,201.364L106.164,201.784L106.461,202.176L106.795,202.535L107.163,202.86L107.564,203.148L107.994,203.395L108.451,203.6L108.501,203.617L108.551,203.631L108.603,203.64L108.655,203.646L108.707,203.648L108.759,203.646L108.812,203.64L108.864,203.63L108.916,203.616Z" style="fill:none;stroke-width:1px;stroke:rgb(255,0,0);"/>
        <path d="M28.402,303.161L28.446,303.042L28.466,302.92L28.466,302.798L28.445,302.679L28.404,302.565L28.345,302.46L28.268,302.365L28.175,302.284L28.065,302.219L27.603,302.026L27.128,301.883L26.645,301.79L26.156,301.745L25.665,301.75L25.176,301.803L24.694,301.906L24.221,302.058L23.762,302.258L23.716,302.284L23.672,302.313L23.63,302.345L23.591,302.379L23.554,302.417L23.52,302.457L23.49,302.499L23.462,302.543L23.439,302.589L23.395,302.709L23.373,302.831L23.373,302.954L23.394,303.073L23.434,303.187L23.493,303.293L23.57,303.388L23.664,303.469L23.775,303.534L24.236,303.726L24.711,303.868L25.195,303.961L25.684,304.006L26.174,304.001L26.663,303.948L27.145,303.845L27.618,303.694L28.077,303.494L28.123,303.469L28.167,303.441L28.209,303.409L28.248,303.374L28.285,303.337L28.319,303.297L28.35,303.254L28.377,303.209L28.402,303.161Z" style="fill:none;stroke-width:1px;stroke:rgb(255,0,0);"/>
        <path d="M77.319,373.899L77.264,373.785L77.191,373.685L77.103,373.601L77.003,373.533L76.893,373.482L76.776,373.451L76.654,373.44L76.531,373.451L76.408,373.484L75.948,373.681L75.515,373.922L75.11,374.203L74.737,374.523L74.398,374.878L74.096,375.265L73.834,375.683L73.613,376.127L73.437,376.596L73.423,376.647L73.413,376.699L73.406,376.751L73.404,376.804L73.405,376.856L73.41,376.908L73.419,376.959L73.431,377.01L73.448,377.059L73.503,377.174L73.576,377.275L73.664,377.36L73.764,377.429L73.874,377.479L73.991,377.511L74.113,377.522L74.236,377.511L74.36,377.477L74.819,377.279L75.252,377.038L75.656,376.757L76.029,376.437L76.368,376.082L76.67,375.695L76.933,375.277L77.154,374.833L77.331,374.365L77.345,374.314L77.355,374.263L77.362,374.211L77.364,374.158L77.363,374.106L77.358,374.054L77.348,374.002L77.336,373.95L77.319,373.899Z" style="fill:none;stroke-width:1px;stroke:rgb(255,0,0);"/>
        <path d="M200.9,521.173L200.866,521.051L200.813,520.94L200.742,520.841L200.655,520.756L200.556,520.687L200.446,520.635L200.329,520.602L200.205,520.591L200.078,520.601L199.591,520.713L199.121,520.872L198.673,521.077L198.249,521.325L197.852,521.613L197.486,521.94L197.152,522.304L196.856,522.702L196.599,523.132L196.576,523.18L196.556,523.229L196.541,523.279L196.529,523.33L196.521,523.382L196.516,523.434L196.516,523.486L196.519,523.538L196.527,523.589L196.561,523.712L196.614,523.825L196.685,523.924L196.771,524.01L196.871,524.079L196.98,524.131L197.098,524.163L197.222,524.175L197.349,524.164L197.836,524.051L198.305,523.892L198.753,523.687L199.177,523.439L199.574,523.15L199.941,522.823L200.274,522.46L200.571,522.062L200.829,521.633L200.852,521.586L200.871,521.537L200.887,521.487L200.899,521.436L200.907,521.384L200.911,521.332L200.911,521.279L200.908,521.226L200.9,521.173Z" style="fill:none;stroke-width:1px;stroke:rgb(255,0,0);"/>
        <path d="M313.507,646.479L313.438,646.373L313.352,646.284L313.254,646.212L313.145,646.158L313.03,646.122L312.91,646.107L312.788,646.113L312.667,646.14L312.549,646.189L312.12,646.446L311.723,646.742L311.359,647.075L311.032,647.442L310.744,647.839L310.497,648.263L310.292,648.712L310.133,649.182L310.021,649.671L310.014,649.723L310.011,649.776L310.012,649.828L310.016,649.881L310.024,649.932L310.036,649.983L310.052,650.033L310.071,650.081L310.094,650.127L310.164,650.234L310.25,650.325L310.348,650.397L310.457,650.452L310.572,650.487L310.693,650.503L310.815,650.497L310.936,650.47L311.054,650.42L311.482,650.163L311.879,649.866L312.242,649.533L312.568,649.166L312.857,648.769L313.104,648.345L313.309,647.896L313.469,647.426L313.582,646.938L313.589,646.886L313.592,646.834L313.591,646.781L313.587,646.729L313.579,646.678L313.567,646.627L313.551,646.576L313.531,646.527L313.507,646.479Z" style="fill:none;stroke-width:1px;stroke:rgb(255,0,0);"/>
        <path d="M367.394,741.164L367.437,741.045L367.457,740.923L367.456,740.801L367.435,740.682L367.393,740.568L367.334,740.462L367.257,740.368L367.163,740.287L367.053,740.223L366.59,740.032L366.115,739.891L365.631,739.799L365.141,739.756L364.651,739.763L364.163,739.818L363.681,739.923L363.209,740.077L362.75,740.279L362.704,740.305L362.66,740.334L362.618,740.366L362.579,740.401L362.543,740.438L362.509,740.478L362.478,740.521L362.451,740.565L362.428,740.611L362.384,740.731L362.363,740.854L362.364,740.976L362.385,741.096L362.426,741.21L362.485,741.315L362.563,741.41L362.657,741.491L362.768,741.555L363.23,741.745L363.705,741.885L364.189,741.976L364.679,742.019L365.169,742.012L365.657,741.957L366.139,741.853L366.612,741.7L367.07,741.498L367.116,741.473L367.16,741.444L367.201,741.412L367.24,741.377L367.277,741.34L367.311,741.3L367.341,741.257L367.369,741.211L367.394,741.164Z" style="fill:none;stroke-width:1px;stroke:rgb(255,0,0);"/>
        <path d="M430.429,722.147L430.305,722.173L430.19,722.219L430.087,722.284L429.996,722.365L429.921,722.459L429.862,722.565L429.822,722.68L429.802,722.803L429.805,722.93L429.884,723.424L430.012,723.903L430.187,724.364L430.406,724.803L430.668,725.218L430.971,725.605L431.312,725.961L431.69,726.283L432.102,726.568L432.148,726.594L432.196,726.617L432.245,726.635L432.295,726.651L432.346,726.662L432.398,726.67L432.45,726.674L432.502,726.674L432.553,726.67L432.678,726.644L432.794,726.598L432.898,726.534L432.989,726.453L433.065,726.359L433.124,726.253L433.164,726.137L433.183,726.014L433.18,725.887L433.1,725.393L432.972,724.915L432.796,724.454L432.577,724.015L432.315,723.6L432.012,723.213L431.672,722.856L431.295,722.534L430.883,722.249L430.837,722.223L430.79,722.2L430.741,722.181L430.691,722.166L430.64,722.155L430.588,722.147L430.535,722.143L430.482,722.143L430.429,722.147Z" style="fill:none;stroke-width:1px;stroke:rgb(255,0,0);"/>
        <path d="M502.37,630.441L502.34,630.564L502.332,630.687L502.346,630.808L502.38,630.924L502.433,631.033L502.504,631.132L502.591,631.217L502.693,631.288L502.809,631.34L503.289,631.48L503.776,631.57L504.268,631.61L504.759,631.601L505.246,631.542L505.725,631.435L506.193,631.28L506.646,631.077L507.081,630.827L507.124,630.796L507.165,630.763L507.203,630.726L507.238,630.688L507.27,630.646L507.3,630.603L507.325,630.558L507.348,630.511L507.366,630.463L507.397,630.338L507.405,630.214L507.391,630.093L507.357,629.976L507.305,629.867L507.234,629.768L507.147,629.683L507.045,629.612L506.928,629.56L506.448,629.421L505.961,629.332L505.47,629.292L504.979,629.302L504.491,629.36L504.012,629.467L503.544,629.622L503.09,629.824L502.656,630.074L502.613,630.104L502.572,630.137L502.534,630.173L502.499,630.212L502.467,630.253L502.438,630.297L502.412,630.343L502.389,630.391L502.37,630.441Z" style="fill:none;stroke-width:1px;stroke:rgb(255,0,0);"/>
        <path d="M466.125,540.521L466.159,540.643L466.213,540.754L466.284,540.853L466.371,540.938L466.47,541.007L466.579,541.059L466.697,541.091L466.82,541.103L466.947,541.092L467.435,540.981L467.904,540.822L468.353,540.617L468.777,540.369L469.174,540.081L469.54,539.753L469.873,539.39L470.17,538.992L470.427,538.562L470.45,538.514L470.469,538.465L470.485,538.415L470.497,538.364L470.505,538.312L470.509,538.26L470.51,538.208L470.506,538.156L470.499,538.105L470.465,537.981L470.412,537.869L470.341,537.769L470.254,537.684L470.155,537.615L470.045,537.563L469.928,537.53L469.804,537.519L469.677,537.53L469.189,537.642L468.72,537.802L468.272,538.007L467.848,538.255L467.452,538.544L467.085,538.871L466.752,539.234L466.455,539.631L466.197,540.061L466.174,540.108L466.155,540.157L466.139,540.207L466.127,540.258L466.119,540.31L466.115,540.362L466.115,540.415L466.118,540.468L466.125,540.521Z" style="fill:none;stroke-width:1px;stroke:rgb(255,0,0);"/>
        <path d="M490.029,452.617L489.907,452.649L489.795,452.702L489.695,452.772L489.61,452.857L489.539,452.956L489.486,453.065L489.453,453.182L489.44,453.305L489.449,453.432L489.555,453.921L489.71,454.392L489.909,454.843L490.152,455.27L490.437,455.67L490.76,456.04L491.12,456.377L491.515,456.678L491.942,456.939L491.989,456.963L492.038,456.983L492.088,456.999L492.139,457.011L492.191,457.02L492.243,457.025L492.295,457.026L492.347,457.023L492.398,457.016L492.522,456.984L492.635,456.931L492.735,456.861L492.821,456.776L492.892,456.678L492.945,456.569L492.979,456.451L492.991,456.327L492.982,456.2L492.875,455.712L492.72,455.241L492.52,454.791L492.277,454.364L491.992,453.964L491.669,453.594L491.309,453.257L490.915,452.955L490.489,452.693L490.442,452.67L490.393,452.65L490.343,452.634L490.292,452.621L490.241,452.613L490.189,452.608L490.136,452.607L490.083,452.61L490.029,452.617Z" style="fill:none;stroke-width:1px;stroke:rgb(255,0,0);"/>
        <path d="M553.1,372.369L553.016,372.464L552.951,372.569L552.907,372.683L552.883,372.802L552.879,372.922L552.895,373.042L552.932,373.159L552.989,373.269L553.067,373.369L553.426,373.718L553.815,374.025L554.23,374.29L554.669,374.512L555.127,374.688L555.601,374.817L556.087,374.899L556.583,374.931L557.083,374.913L557.136,374.906L557.187,374.896L557.238,374.882L557.288,374.864L557.335,374.843L557.381,374.818L557.425,374.79L557.467,374.759L557.506,374.725L557.591,374.629L557.656,374.523L557.701,374.41L557.726,374.291L557.73,374.17L557.714,374.05L557.677,373.933L557.619,373.823L557.541,373.722L557.182,373.375L556.792,373.068L556.377,372.803L555.938,372.582L555.48,372.406L555.006,372.277L554.52,372.195L554.025,372.161L553.524,372.179L553.472,372.185L553.421,372.196L553.37,372.21L553.321,372.227L553.274,372.249L553.227,372.274L553.183,372.302L553.14,372.334L553.1,372.369Z" style="fill:none;stroke-width:1px;stroke:rgb(255,0,0);"/>
        <path d="M629.883,409.245L629.858,409.121L629.813,409.006L629.749,408.902L629.669,408.811L629.575,408.735L629.469,408.676L629.354,408.635L629.232,408.614L629.105,408.616L628.61,408.692L628.13,408.817L627.668,408.988L627.227,409.205L626.811,409.464L626.422,409.764L626.063,410.103L625.739,410.478L625.451,410.888L625.425,410.934L625.402,410.982L625.383,411.031L625.367,411.081L625.355,411.132L625.347,411.184L625.343,411.235L625.343,411.287L625.346,411.339L625.371,411.464L625.416,411.58L625.48,411.685L625.56,411.776L625.654,411.853L625.759,411.912L625.875,411.953L625.997,411.973L626.125,411.972L626.619,411.895L627.098,411.769L627.56,411.597L628.001,411.381L628.417,411.122L628.807,410.822L629.165,410.484L629.491,410.109L629.779,409.699L629.805,409.653L629.828,409.606L629.847,409.557L629.862,409.508L629.874,409.457L629.882,409.405L629.886,409.352L629.887,409.299L629.883,409.245Z" style="fill:none;stroke-width:1px;stroke:rgb(255,0,0);"/>
        <path d="M694.989,542.65L695.003,542.524L694.996,542.401L694.967,542.282L694.92,542.171L694.854,542.069L694.772,541.98L694.676,541.905L694.566,541.848L694.444,541.81L693.951,541.729L693.456,541.698L692.963,541.718L692.477,541.787L692.001,541.904L691.537,542.068L691.091,542.278L690.666,542.535L690.265,542.835L690.226,542.871L690.19,542.909L690.156,542.949L690.126,542.992L690.099,543.037L690.075,543.084L690.055,543.132L690.039,543.181L690.026,543.231L690.011,543.358L690.018,543.482L690.046,543.601L690.093,543.713L690.159,543.815L690.241,543.904L690.338,543.979L690.448,544.036L690.57,544.074L691.063,544.154L691.558,544.184L692.05,544.164L692.536,544.095L693.013,543.978L693.476,543.814L693.922,543.604L694.347,543.349L694.749,543.049L694.788,543.013L694.824,542.976L694.857,542.935L694.887,542.893L694.915,542.848L694.938,542.801L694.959,542.752L694.975,542.702L694.989,542.65Z" style="fill:none;stroke-width:1px;stroke:rgb(255,0,0);"/>
        <path d="M687.502,646.052L687.582,645.954L687.642,645.846L687.682,645.731L687.701,645.612L687.701,645.491L687.68,645.371L687.638,645.256L687.577,645.149L687.495,645.051L687.122,644.718L686.721,644.426L686.295,644.178L685.848,643.975L685.383,643.817L684.905,643.707L684.415,643.645L683.919,643.632L683.42,643.67L683.368,643.679L683.316,643.692L683.266,643.708L683.218,643.728L683.171,643.751L683.126,643.777L683.083,643.807L683.043,643.84L683.005,643.875L682.924,643.974L682.863,644.083L682.823,644.198L682.803,644.318L682.803,644.439L682.824,644.558L682.866,644.673L682.928,644.781L683.01,644.879L683.383,645.212L683.784,645.502L684.21,645.75L684.657,645.953L685.122,646.111L685.601,646.221L686.09,646.284L686.586,646.297L687.085,646.26L687.137,646.251L687.188,646.239L687.238,646.223L687.286,646.203L687.333,646.18L687.378,646.153L687.422,646.123L687.463,646.089L687.502,646.052Z" style="fill:none;stroke-width:1px;stroke:rgb(255,0,0);"/>
        <path d="M783.642,698.454L783.524,698.409L783.402,698.386L783.281,698.384L783.161,698.404L783.047,698.442L782.94,698.5L782.844,698.575L782.761,698.668L782.695,698.776L782.495,699.235L782.345,699.708L782.244,700.19L782.192,700.678L782.189,701.169L782.235,701.658L782.33,702.142L782.475,702.617L782.668,703.079L782.693,703.126L782.721,703.17L782.752,703.213L782.787,703.253L782.823,703.29L782.863,703.324L782.904,703.356L782.948,703.384L782.994,703.408L783.113,703.454L783.235,703.477L783.358,703.479L783.477,703.46L783.592,703.422L783.699,703.364L783.795,703.289L783.878,703.196L783.944,703.087L784.143,702.628L784.292,702.156L784.393,701.673L784.445,701.185L784.448,700.694L784.402,700.205L784.307,699.721L784.163,699.246L783.97,698.784L783.946,698.737L783.918,698.693L783.887,698.651L783.853,698.611L783.816,698.574L783.777,698.54L783.734,698.508L783.689,698.479L783.642,698.454Z" style="fill:none;stroke-width:1px;stroke:rgb(255,0,0);"/>
        <path d="M921.385,630.984L921.305,631.082L921.245,631.19L921.205,631.306L921.186,631.425L921.187,631.546L921.208,631.665L921.249,631.78L921.311,631.888L921.393,631.985L921.766,632.319L922.167,632.61L922.593,632.858L923.04,633.061L923.505,633.218L923.984,633.328L924.473,633.389L924.97,633.402L925.469,633.363L925.521,633.354L925.572,633.342L925.622,633.325L925.671,633.306L925.718,633.282L925.763,633.256L925.806,633.226L925.846,633.193L925.883,633.158L925.965,633.059L926.025,632.95L926.066,632.835L926.086,632.715L926.085,632.594L926.064,632.475L926.022,632.36L925.96,632.252L925.877,632.154L925.504,631.822L925.103,631.531L924.677,631.284L924.23,631.081L923.765,630.924L923.286,630.814L922.797,630.752L922.301,630.739L921.801,630.776L921.749,630.785L921.698,630.798L921.649,630.814L921.6,630.833L921.553,630.857L921.508,630.884L921.465,630.914L921.424,630.947L921.385,630.984Z" style="fill:none;stroke-width:1px;stroke:rgb(255,0,0);"/>
        <path d="M928.422,537.29L928.448,537.414L928.494,537.528L928.558,537.632L928.638,537.723L928.732,537.798L928.838,537.857L928.953,537.898L929.076,537.918L929.203,537.916L929.697,537.838L930.176,537.711L930.638,537.538L931.078,537.32L931.494,537.059L931.882,536.758L932.239,536.418L932.562,536.041L932.848,535.63L932.874,535.584L932.897,535.536L932.916,535.487L932.931,535.437L932.943,535.386L932.951,535.334L932.955,535.282L932.955,535.231L932.951,535.179L932.926,535.054L932.88,534.938L932.816,534.834L932.736,534.743L932.642,534.666L932.536,534.607L932.42,534.567L932.298,534.547L932.17,534.549L931.676,534.628L931.198,534.755L930.737,534.929L930.297,535.147L929.881,535.408L929.493,535.709L929.135,536.049L928.811,536.425L928.525,536.835L928.499,536.881L928.476,536.929L928.457,536.977L928.442,537.027L928.43,537.078L928.423,537.13L928.419,537.183L928.418,537.236L928.422,537.29Z" style="fill:none;stroke-width:1px;stroke:rgb(255,0,0);"/>
        <path d="M1030.44,527.634L1030.33,527.57L1030.21,527.528L1030.09,527.506L1029.97,527.505L1029.85,527.525L1029.74,527.564L1029.63,527.622L1029.53,527.7L1029.45,527.796L1029.18,528.216L1028.95,528.657L1028.77,529.116L1028.64,529.589L1028.56,530.072L1028.52,530.562L1028.53,531.055L1028.6,531.548L1028.71,532.035L1028.73,532.085L1028.75,532.134L1028.77,532.181L1028.8,532.226L1028.83,532.269L1028.86,532.309L1028.9,532.347L1028.94,532.382L1028.98,532.413L1029.09,532.478L1029.21,532.522L1029.33,532.544L1029.45,532.545L1029.57,532.526L1029.68,532.487L1029.79,532.428L1029.89,532.35L1029.97,532.253L1030.24,531.834L1030.47,531.392L1030.64,530.933L1030.78,530.46L1030.86,529.977L1030.9,529.487L1030.88,528.994L1030.82,528.502L1030.71,528.014L1030.69,527.964L1030.67,527.916L1030.64,527.869L1030.62,527.824L1030.59,527.781L1030.56,527.741L1030.52,527.703L1030.48,527.667L1030.44,527.634Z" style="fill:none;stroke-width:1px;stroke:rgb(255,0,0);"/>
        <path d="M1144.61,492.208L1144.54,492.312L1144.49,492.424L1144.46,492.541L1144.44,492.662L1144.45,492.782L1144.48,492.9L1144.53,493.012L1144.6,493.115L1144.69,493.206L1145.09,493.513L1145.51,493.775L1145.95,493.993L1146.41,494.164L1146.88,494.289L1147.37,494.365L1147.86,494.393L1148.36,494.37L1148.85,494.297L1148.9,494.285L1148.95,494.269L1149,494.249L1149.05,494.226L1149.1,494.199L1149.14,494.17L1149.18,494.137L1149.22,494.101L1149.25,494.063L1149.33,493.959L1149.38,493.847L1149.41,493.729L1149.42,493.608L1149.41,493.487L1149.38,493.369L1149.34,493.258L1149.27,493.154L1149.18,493.063L1148.78,492.757L1148.36,492.495L1147.92,492.278L1147.46,492.107L1146.98,491.983L1146.5,491.906L1146.01,491.878L1145.51,491.9L1145.01,491.972L1144.96,491.984L1144.91,492L1144.87,492.02L1144.82,492.043L1144.77,492.069L1144.73,492.099L1144.69,492.132L1144.65,492.169L1144.61,492.208Z" style="fill:none;stroke-width:1px;stroke:rgb(255,0,0);"/>
        <path d="M1170.7,339.091L1170.64,339.204L1170.6,339.322L1170.59,339.443L1170.59,339.564L1170.62,339.682L1170.66,339.794L1170.73,339.898L1170.81,339.991L1170.91,340.07L1171.34,340.321L1171.79,340.525L1172.26,340.681L1172.74,340.789L1173.23,340.849L1173.72,340.86L1174.21,340.821L1174.7,340.732L1175.18,340.593L1175.23,340.574L1175.28,340.551L1175.32,340.525L1175.37,340.496L1175.41,340.464L1175.44,340.428L1175.48,340.391L1175.51,340.351L1175.54,340.308L1175.6,340.195L1175.64,340.076L1175.66,339.955L1175.65,339.834L1175.63,339.715L1175.58,339.603L1175.52,339.498L1175.43,339.406L1175.33,339.327L1174.9,339.077L1174.45,338.874L1173.98,338.718L1173.5,338.61L1173.02,338.55L1172.53,338.539L1172.03,338.577L1171.55,338.665L1171.06,338.803L1171.01,338.823L1170.97,338.845L1170.92,338.871L1170.88,338.9L1170.84,338.932L1170.8,338.968L1170.76,339.006L1170.73,339.047L1170.7,339.091Z" style="fill:none;stroke-width:1px;stroke:rgb(255,0,0);"/>
        <path d="M1109.78,254.228L1109.9,254.273L1110.02,254.296L1110.14,254.298L1110.26,254.279L1110.38,254.241L1110.48,254.184L1110.58,254.109L1110.66,254.016L1110.73,253.908L1110.93,253.45L1111.08,252.978L1111.18,252.496L1111.24,252.008L1111.24,251.517L1111.2,251.028L1111.11,250.544L1110.96,250.068L1110.77,249.606L1110.75,249.559L1110.72,249.514L1110.69,249.472L1110.65,249.432L1110.62,249.394L1110.58,249.36L1110.54,249.328L1110.49,249.3L1110.45,249.276L1110.33,249.229L1110.2,249.205L1110.08,249.203L1109.96,249.221L1109.85,249.26L1109.74,249.317L1109.64,249.392L1109.56,249.485L1109.5,249.593L1109.3,250.051L1109.14,250.523L1109.04,251.005L1108.99,251.493L1108.98,251.984L1109.03,252.473L1109.12,252.958L1109.26,253.433L1109.45,253.896L1109.48,253.943L1109.51,253.987L1109.54,254.029L1109.57,254.069L1109.61,254.107L1109.65,254.141L1109.69,254.173L1109.73,254.202L1109.78,254.228Z" style="fill:none;stroke-width:1px;stroke:rgb(255,0,0);"/>
        <path d="M998.233,318.032L998.326,317.947L998.402,317.849L998.458,317.741L998.495,317.626L998.512,317.506L998.509,317.385L998.485,317.265L998.44,317.15L998.374,317.041L998.055,316.656L997.702,316.308L997.317,315.999L996.905,315.732L996.469,315.507L996.012,315.327L995.538,315.193L995.049,315.107L994.549,315.07L994.496,315.071L994.444,315.076L994.392,315.085L994.341,315.097L994.291,315.113L994.242,315.132L994.196,315.155L994.151,315.182L994.109,315.212L994.014,315.297L993.937,315.395L993.88,315.504L993.843,315.619L993.825,315.739L993.828,315.86L993.852,315.98L993.898,316.096L993.965,316.204L994.284,316.589L994.638,316.936L995.022,317.244L995.434,317.512L995.87,317.736L996.327,317.917L996.802,318.051L997.29,318.138L997.79,318.175L997.842,318.174L997.895,318.17L997.946,318.161L997.997,318.149L998.047,318.133L998.095,318.113L998.143,318.09L998.189,318.063L998.233,318.032Z" style="fill:none;stroke-width:1px;stroke:rgb(255,0,0);"/>
        <path d="M865.529,389.16L865.649,389.199L865.771,389.217L865.893,389.212L866.012,389.188L866.124,389.144L866.228,389.081L866.321,389.002L866.399,388.905L866.46,388.794L866.639,388.326L866.767,387.848L866.846,387.361L866.876,386.871L866.856,386.381L866.788,385.894L866.67,385.415L866.504,384.947L866.289,384.495L866.263,384.449L866.233,384.406L866.199,384.365L866.163,384.327L866.125,384.291L866.084,384.259L866.041,384.229L865.996,384.203L865.949,384.181L865.828,384.141L865.705,384.123L865.583,384.126L865.464,384.151L865.351,384.195L865.247,384.257L865.154,384.337L865.076,384.434L865.015,384.546L864.838,385.013L864.71,385.492L864.631,385.978L864.602,386.468L864.621,386.959L864.69,387.445L864.806,387.924L864.972,388.392L865.186,388.845L865.212,388.89L865.242,388.933L865.275,388.974L865.311,389.012L865.349,389.048L865.391,389.08L865.434,389.11L865.48,389.137L865.529,389.16Z" style="fill:none;stroke-width:1px;stroke:rgb(255,0,0);"/>
        <path d="M756.553,305.987L756.544,306.113L756.558,306.236L756.592,306.353L756.645,306.462L756.715,306.56L756.802,306.645L756.902,306.715L757.014,306.768L757.137,306.8L757.634,306.857L758.13,306.864L758.621,306.82L759.103,306.728L759.574,306.588L760.028,306.402L760.464,306.17L760.876,305.894L761.262,305.574L761.299,305.537L761.334,305.497L761.365,305.455L761.394,305.411L761.419,305.365L761.44,305.317L761.458,305.268L761.472,305.218L761.482,305.167L761.491,305.04L761.478,304.916L761.444,304.798L761.392,304.689L761.321,304.591L761.235,304.505L761.135,304.435L761.022,304.383L760.898,304.351L760.402,304.295L759.906,304.289L759.415,304.333L758.933,304.425L758.463,304.565L758.008,304.751L757.573,304.982L757.16,305.258L756.774,305.577L756.736,305.614L756.702,305.654L756.671,305.695L756.642,305.74L756.618,305.786L756.596,305.833L756.578,305.883L756.564,305.934L756.553,305.987Z" style="fill:none;stroke-width:1px;stroke:rgb(255,0,0);"/>
        <path d="M647.733,165.82L647.807,165.923L647.895,166.009L647.996,166.078L648.106,166.129L648.222,166.16L648.343,166.171L648.465,166.162L648.585,166.131L648.701,166.078L649.121,165.807L649.509,165.498L649.861,165.153L650.176,164.776L650.451,164.37L650.685,163.938L650.874,163.483L651.018,163.007L651.114,162.516L651.119,162.463L651.121,162.41L651.118,162.358L651.112,162.306L651.102,162.254L651.089,162.204L651.071,162.155L651.051,162.107L651.026,162.062L650.953,161.957L650.864,161.87L650.764,161.8L650.653,161.749L650.537,161.717L650.416,161.706L650.294,161.715L650.174,161.747L650.058,161.8L649.638,162.071L649.251,162.381L648.899,162.726L648.584,163.103L648.309,163.509L648.076,163.941L647.885,164.396L647.741,164.871L647.644,165.362L647.639,165.415L647.637,165.467L647.64,165.52L647.646,165.571L647.656,165.623L647.67,165.673L647.687,165.723L647.708,165.772L647.733,165.82Z" style="fill:none;stroke-width:1px;stroke:rgb(255,0,0);"/>
        <path d="M523.666,144.476L523.786,144.433L523.893,144.372L523.987,144.294L524.065,144.202L524.127,144.098L524.171,143.985L524.195,143.865L524.198,143.741L524.179,143.616L524.033,143.137L523.841,142.68L523.605,142.247L523.328,141.841L523.013,141.466L522.66,141.123L522.274,140.817L521.856,140.549L521.409,140.323L521.36,140.303L521.31,140.287L521.259,140.275L521.207,140.267L521.154,140.263L521.102,140.262L521.05,140.265L520.999,140.272L520.948,140.283L520.828,140.326L520.719,140.387L520.625,140.465L520.546,140.557L520.484,140.661L520.44,140.774L520.416,140.894L520.413,141.018L520.433,141.144L520.579,141.622L520.772,142.079L521.008,142.511L521.285,142.916L521.601,143.292L521.953,143.635L522.339,143.942L522.756,144.21L523.202,144.437L523.251,144.457L523.301,144.472L523.352,144.484L523.404,144.492L523.456,144.497L523.508,144.497L523.561,144.494L523.614,144.487L523.666,144.476Z" style="fill:none;stroke-width:1px;stroke:rgb(255,0,0);"/>
        <path d="M454.271,223.997L454.371,223.92L454.454,223.828L454.518,223.725L454.564,223.613L454.591,223.495L454.598,223.374L454.583,223.253L454.548,223.134L454.49,223.021L454.202,222.611L453.878,222.236L453.519,221.898L453.13,221.599L452.713,221.34L452.272,221.125L451.809,220.953L451.328,220.829L450.833,220.753L450.781,220.75L450.728,220.75L450.675,220.755L450.623,220.763L450.572,220.775L450.523,220.791L450.474,220.81L450.428,220.833L450.383,220.859L450.282,220.937L450.198,221.028L450.132,221.132L450.086,221.244L450.059,221.362L450.052,221.483L450.067,221.604L450.103,221.723L450.161,221.837L450.449,222.246L450.774,222.62L451.133,222.958L451.522,223.257L451.939,223.515L452.38,223.731L452.843,223.903L453.323,224.028L453.818,224.105L453.87,224.108L453.923,224.108L453.975,224.103L454.026,224.095L454.077,224.083L454.127,224.067L454.176,224.048L454.224,224.024L454.271,223.997Z" style="fill:none;stroke-width:1px;stroke:rgb(255,0,0);"/>
        <path d="M370.394,297.179L370.52,297.19L370.643,297.18L370.761,297.149L370.871,297.099L370.971,297.031L371.059,296.947L371.131,296.849L371.186,296.738L371.222,296.615L371.292,296.12L371.311,295.625L371.28,295.133L371.201,294.648L371.073,294.174L370.898,293.715L370.678,293.274L370.412,292.855L370.103,292.461L370.066,292.422L370.028,292.387L369.986,292.354L369.943,292.325L369.897,292.299L369.85,292.276L369.802,292.257L369.752,292.242L369.702,292.23L369.574,292.218L369.45,292.227L369.332,292.258L369.221,292.308L369.121,292.376L369.033,292.46L368.961,292.558L368.906,292.67L368.871,292.793L368.802,293.288L368.783,293.783L368.814,294.274L368.894,294.759L369.022,295.233L369.196,295.692L369.416,296.133L369.681,296.553L369.99,296.947L370.026,296.986L370.065,297.021L370.106,297.054L370.149,297.083L370.194,297.109L370.242,297.131L370.291,297.151L370.342,297.166L370.394,297.179Z" style="fill:none;stroke-width:1px;stroke:rgb(255,0,0);"/>
        <path d="M267.904,253.225L267.946,253.344L268.007,253.452L268.085,253.546L268.177,253.624L268.28,253.687L268.393,253.731L268.513,253.755L268.637,253.759L268.762,253.739L269.241,253.595L269.699,253.404L270.133,253.17L270.539,252.894L270.915,252.579L271.259,252.228L271.566,251.842L271.835,251.425L272.063,250.979L272.083,250.93L272.098,250.879L272.111,250.828L272.119,250.776L272.124,250.724L272.124,250.672L272.121,250.62L272.114,250.569L272.103,250.518L272.062,250.397L272,250.289L271.923,250.194L271.831,250.115L271.727,250.052L271.615,250.008L271.495,249.984L271.37,249.981L271.244,250L270.766,250.145L270.309,250.337L269.876,250.571L269.469,250.847L269.093,251.162L268.749,251.513L268.441,251.898L268.172,252.315L267.944,252.761L267.924,252.81L267.908,252.86L267.896,252.911L267.888,252.962L267.883,253.014L267.882,253.067L267.886,253.12L267.893,253.172L267.904,253.225Z" style="fill:none;stroke-width:1px;stroke:rgb(255,0,0);"/>
    </g>
    <g id="cut">
        <path d="M264.551,245.345L231.397,205.705L215.655,174.298L223.258,170.488L208.016,140.078L200.414,143.888L184.673,112.482L111.237,180.665L105.451,174.433L80.523,197.578L86.309,203.81L12.874,271.994L13.003,285.986L4.5,286.064L4.814,320.079L13.318,320L13.447,333.992L54.27,372.965L48.398,379.116L73.002,402.604L78.874,396.453L119.697,435.426L178.39,516.131L171.513,521.133L191.519,548.643L198.397,543.641L257.09,624.347L290.541,648.636L285.544,655.517L313.069,675.503L318.066,668.622L351.516,692.91L351.927,724.049L343.424,724.162L343.873,758.174L352.376,758.062L352.787,789.201L423.924,744.279L428.464,751.469L457.225,733.307L452.685,726.117L523.822,681.195L519.568,645.814L528.011,644.799L523.95,611.027L515.507,612.042L511.253,576.662L488.636,545.562L495.513,540.561L475.506,513.051L468.629,518.052L446.012,486.953L484.285,459.747L485.928,462.058L484.888,462.797L490.252,465.939L502.035,457.564L500.83,451.465L499.79,452.204L498.148,449.893L536.421,422.687L552.256,381.486L554.902,382.503L554.445,383.694L560.652,383.347L565.838,369.852L561.462,365.437L561.004,366.628L558.358,365.611L574.193,324.41L623.119,403.073L620.712,404.571L620.039,403.487L616.572,408.648L624.207,420.924L630.369,420.096L629.695,419.013L632.102,417.516L681.028,496.179L690.476,534.683L687.723,535.358L687.419,534.119L682.521,537.948L685.966,551.988L692.08,553.115L691.776,551.876L694.529,551.2L703.977,589.704L687.979,636.908L685.294,635.999L685.704,634.791L679.515,635.387L674.875,649.079L679.425,653.315L679.835,652.106L682.519,653.016L666.521,700.221L774.814,700.884L774.797,703.718L773.521,703.71L776.038,709.395L790.494,709.484L793.08,703.83L791.804,703.822L791.822,700.988L900.115,701.65L920.915,640.128L923.6,641.036L923.192,642.245L929.379,641.644L934.01,627.948L929.456,623.716L929.048,624.924L926.362,624.016L947.162,562.495L935.209,543.436L937.61,541.93L938.288,543.011L941.736,537.837L934.054,525.59L927.896,526.441L928.574,527.521L926.172,529.027L914.219,509.969L1021.33,528.573L1020.84,531.366L1019.59,531.148L1021.13,537.17L1035.37,539.644L1038.86,534.495L1037.6,534.277L1038.09,531.484L1145.19,550.088L1154.96,512.824L1163.19,514.98L1171.82,482.076L1163.59,479.92L1173.36,442.655L1183.72,358.134L1192.16,359.168L1196.3,325.405L1187.86,324.371L1198.21,239.849L1127.25,239.157L1127.33,230.654L1093.31,230.322L1093.23,238.826L1022.26,238.134L992.618,295.658L985.059,291.763L969.477,322L977.037,325.895L947.394,383.419L874.236,386.328L874.123,383.495L875.398,383.445L872.624,377.881L858.178,378.456L855.854,384.222L857.129,384.171L857.242,387.004L784.083,389.912L761.444,313.727L764.162,312.92L764.525,314.143L769.233,310.082L765.115,296.224L758.954,295.394L759.317,296.617L756.6,297.424L733.961,221.239L656.423,168.706L658.013,166.36L659.069,167.075L660.137,160.951L648.168,152.842L642.876,156.104L643.932,156.82L642.342,159.167L564.804,106.634L528.813,136.902L526.988,134.733L527.964,133.912L522.363,131.215L511.299,140.52L512.995,146.501L513.971,145.68L515.796,147.849L479.804,178.118L456.805,215.199L454.396,213.705L455.068,212.621L448.906,211.801L441.286,224.086L444.759,229.242L445.431,228.158L447.84,229.652L424.841,266.733L383.152,277.96L380.941,269.749L348.096,278.594L350.307,286.805L308.618,298.032L275.463,258.391L277.638,256.573L278.456,257.551L281.168,251.957L271.893,240.868L265.907,242.548L266.726,243.527L264.551,245.345Z" style="fill:none;stroke-width:1px;stroke:rgb(0,0,255);"/>
    </g>
</svg>
