  0
SECTION
  2
HEADER
  9
$ACADVER
  1
AC1014
  9
$HANDSEED
  5
FFFF
  9
$MEASUREMENT
 70
     1
  0
ENDSEC
  0
SECTION
  2
TABLES
  0
TABLE
  2
VPORT
  5
8
330
0
100
AcDbSymbolTable
 70
     4
  0
VPORT
  5
2E
330
8
100
AcDbSymbolTableRecord
100
AcDbViewportTableRecord
  2
*ACTIVE
 70
     0
 10
0.0
 20
0.0
 11
1.0
 21
1.0
 12
210.0
 22
148.5
 13
0.0
 23
0.0
 14
10.0
 24
10.0
 15
10.0
 25
10.0
 16
0.0
 26
0.0
 36
1.0
 17
0.0
 27
0.0
 37
0.0
 40
341.0
 41
1.24
 42
50.0
 43
0.0
 44
0.0
 50
0.0
 51
0.0
 71
     0
 72
   100
 73
     1
 74
     3
 75
     0
 76
     0
 77
     0
 78
     0
  0
ENDTAB
  0
TABLE
  2
LTYPE
  5
5
330
0
100
AcDbSymbolTable
 70
     1
  0
LTYPE
  5
14
330
5
100
AcDbSymbolTableRecord
100
AcDbLinetypeTableRecord
  2
BYBLOCK
 70
     0
  3

 72
    65
 73
     0
 40
0.0
  0
LTYPE
  5
15
330
5
100
AcDbSymbolTableRecord
100
AcDbLinetypeTableRecord
  2
BYLAYER
 70
     0
  3

 72
    65
 73
     0
 40
0.0
  0
LTYPE
  5
16
330
5
100
AcDbSymbolTableRecord
100
AcDbLinetypeTableRecord
  2
CONTINUOUS
 70
     0
  3
Solid line
 72
    65
 73
     0
 40
0.0
  0
ENDTAB
  0
TABLE
  2
LAYER
  5
2
100
AcDbSymbolTable
 70
2
  0
LAYER
  5
50
100
AcDbSymbolTableRecord
100
AcDbLayerTableRecord
  2
0
 70
0
  6
CONTINUOUS
  0
LAYER
  5
51
100
AcDbSymbolTableRecord
100
AcDbLayerTableRecord
  2
Ebene_1
 70
0
  6
CONTINUOUS
  0
ENDTAB
  0
TABLE
  2
STYLE
  5
3
330
0
100
AcDbSymbolTable
 70
     1
  0
STYLE
  5
11
330
3
100
AcDbSymbolTableRecord
100
AcDbTextStyleTableRecord
  2
STANDARD
 70
     0
 40
0.0
 41
1.0
 50
0.0
 71
     0
 42
2.5
  3
txt
  4

  0
ENDTAB
  0
TABLE
  2
VIEW
  5
6
330
0
100
AcDbSymbolTable
 70
     0
  0
ENDTAB
  0
TABLE
  2
UCS
  5
7
330
0
100
AcDbSymbolTable
 70
     0
  0
ENDTAB
  0
TABLE
  2
APPID
  5
9
330
0
100
AcDbSymbolTable
 70
     2
  0
APPID
  5
12
330
9
100
AcDbSymbolTableRecord
100
AcDbRegAppTableRecord
  2
ACAD
 70
     0
  0
ENDTAB
  0
TABLE
  2
DIMSTYLE
  5
A
330
0
100
AcDbSymbolTable
 70
     1
  0
DIMSTYLE
105
27
330
A
100
AcDbSymbolTableRecord
100
AcDbDimStyleTableRecord
  2
ISO-25
 70
     0
  3

  4

  5

  6

  7

 40
1.0
 41
2.5
 42
0.625
 43
3.75
 44
1.25
 45
0.0
 46
0.0
 47
0.0
 48
0.0
140
2.5
141
2.5
142
0.0
143
0.03937007874016
144
1.0
145
0.0
146
1.0
147
0.625
 71
     0
 72
     0
 73
     0
 74
     0
 75
     0
 76
     0
 77
     1
 78
     8
170
     0
171
     3
172
     1
173
     0
174
     0
175
     0
176
     0
177
     0
178
     0
270
     2
271
     2
272
     2
273
     2
274
     3
340
11
275
     0
280
     0
281
     0
282
     0
283
     0
284
     8
285
     0
286
     0
287
     3
288
     0
  0
ENDTAB
  0
TABLE
  2
BLOCK_RECORD
  5
1
330
0
100
AcDbSymbolTable
 70
     1
  0
BLOCK_RECORD
  5
1F
330
1
100
AcDbSymbolTableRecord
100
AcDbBlockTableRecord
  2
*MODEL_SPACE
  0
BLOCK_RECORD
  5
1B
330
1
100
AcDbSymbolTableRecord
100
AcDbBlockTableRecord
  2
*PAPER_SPACE
  0
ENDTAB
  0
ENDSEC
  0
SECTION
  2
BLOCKS
  0
BLOCK
  5
20
330
1F
100
AcDbEntity
  8
0
100
AcDbBlockBegin
  2
*MODEL_SPACE
 70
     0
 10
0.0
 20
0.0
 30
0.0
  3
*MODEL_SPACE
  1

  0
ENDBLK
  5
21
330
1F
100
AcDbEntity
  8
0
100
AcDbBlockEnd
  0
BLOCK
  5
1C
330
1B
100
AcDbEntity
 67
     1
  8
0
100
AcDbBlockBegin
  2
*PAPER_SPACE
  1

  0
ENDBLK
  5
1D
330
1B
100
AcDbEntity
 67
     1
  8
0
100
AcDbBlockEnd
  0
ENDSEC
  0
SECTION
  2
ENTITIES
  0
LWPOLYLINE
  5
100
100
AcDbEntity
  8
Ebene_1
 62
5
100
AcDbPolyline
 90
5
 70
0
 10
25.585863
 20
206.452824
 30
0.0
 10
25.684994
 20
206.451766
 30
0.0
 10
25.640896
 20
202.666813
 30
0.0
 10
25.541766
 20
202.668224
 30
0.0
 10
25.585863
 20
206.452824
 30
0.0
  0
LWPOLYLINE
  5
101
100
AcDbEntity
  8
Ebene_1
 62
5
100
AcDbPolyline
 90
5
 70
0
 10
-11.796587
 20
118.387144
 30
0.0
 10
-11.742612
 20
118.470046
 30
0.0
 10
-8.570787
 20
116.404885
 30
0.0
 10
-8.624762
 20
116.321982
 30
0.0
 10
-11.796587
 20
118.387144
 30
0.0
  0
LWPOLYLINE
  5
102
100
AcDbEntity
  8
Ebene_1
 62
5
100
AcDbPolyline
 90
5
 70
0
 10
-37.669662
 20
60.226435
 30
0.0
 10
-37.713759
 20
60.315335
 30
0.0
 10
-34.327445
 20
62.005141
 30
0.0
 10
-34.282995
 20
61.916594
 30
0.0
 10
-37.669662
 20
60.226435
 30
0.0
  0
LWPOLYLINE
  5
103
100
AcDbEntity
  8
Ebene_1
 62
5
100
AcDbPolyline
 90
5
 70
0
 10
-55.017509
 20
62.703641
 30
0.0
 10
-55.039734
 20
62.799949
 30
0.0
 10
-51.350384
 20
63.645557
 30
0.0
 10
-51.328512
 20
63.548896
 30
0.0
 10
-55.017509
 20
62.703641
 30
0.0
  0
LWPOLYLINE
  5
104
100
AcDbEntity
  8
Ebene_1
 62
5
100
AcDbPolyline
 90
5
 70
0
 10
156.592713
 20
132.786827
 30
0.0
 10
156.657624
 20
132.861616
 30
0.0
 10
159.513008
 20
130.377002
 30
0.0
 10
159.447744
 20
130.302566
 30
0.0
 10
156.592713
 20
132.786827
 30
0.0
  0
LWPOLYLINE
  5
105
100
AcDbEntity
  8
Ebene_1
 62
5
100
AcDbPolyline
 90
5
 70
0
 10
30.213602
 20
36.017766
 30
0.0
 10
30.159980
 20
36.101021
 30
0.0
 10
33.345210
 20
38.145369
 30
0.0
 10
33.398833
 20
38.062113
 30
0.0
 10
30.213602
 20
36.017766
 30
0.0
  0
LWPOLYLINE
  5
106
100
AcDbEntity
  8
Ebene_1
 62
5
100
AcDbPolyline
 90
5
 70
0
 10
6.291388
 20
159.649444
 30
0.0
 10
6.345363
 20
159.732699
 30
0.0
 10
9.523891
 20
157.678121
 30
0.0
 10
9.470269
 20
157.594866
 30
0.0
 10
6.291388
 20
159.649444
 30
0.0
  0
LWPOLYLINE
  5
107
100
AcDbEntity
  8
Ebene_1
 62
5
100
AcDbPolyline
 90
5
 70
0
 10
46.139049
 20
46.240207
 30
0.0
 10
46.085780
 20
46.323463
 30
0.0
 10
49.270658
 20
48.368163
 30
0.0
 10
49.324280
 20
48.284555
 30
0.0
 10
46.139049
 20
46.240207
 30
0.0
  0
LWPOLYLINE
  5
108
100
AcDbEntity
  8
Ebene_1
 62
5
100
AcDbPolyline
 90
5
 70
0
 10
-2.957034
 20
97.250816
 30
0.0
 10
-2.952448
 20
97.349946
 30
0.0
 10
0.828271
 20
97.171088
 30
0.0
 10
0.823685
 20
97.072310
 30
0.0
 10
-2.957034
 20
97.250816
 30
0.0
  0
LWPOLYLINE
  5
109
100
AcDbEntity
  8
Ebene_1
 62
5
100
AcDbPolyline
 90
5
 70
0
 10
-9.601251
 20
169.922685
 30
0.0
 10
-9.547629
 20
170.005588
 30
0.0
 10
-6.369101
 20
167.951010
 30
0.0
 10
-6.422723
 20
167.867755
 30
0.0
 10
-9.601251
 20
169.922685
 30
0.0
  0
LWPOLYLINE
  5
10a
100
AcDbEntity
  8
Ebene_1
 62
5
100
AcDbPolyline
 90
5
 70
0
 10
115.609460
 20
103.639269
 30
0.0
 10
115.563952
 20
103.551427
 30
0.0
 10
112.203038
 20
105.292385
 30
0.0
 10
112.248899
 20
105.380227
 30
0.0
 10
115.609460
 20
103.639269
 30
0.0
  0
LWPOLYLINE
  5
10b
100
AcDbEntity
  8
Ebene_1
 62
5
100
AcDbPolyline
 90
5
 70
0
 10
137.759671
 20
104.801671
 30
0.0
 10
137.842574
 20
104.855999
 30
0.0
 10
139.917613
 20
101.690524
 30
0.0
 10
139.834710
 20
101.636196
 30
0.0
 10
137.759671
 20
104.801671
 30
0.0
  0
LWPOLYLINE
  5
10c
100
AcDbEntity
  8
Ebene_1
 62
5
100
AcDbPolyline
 90
5
 70
0
 10
60.162319
 20
88.936196
 30
0.0
 10
60.222291
 20
88.857174
 30
0.0
 10
57.208158
 20
86.568352
 30
0.0
 10
57.148185
 20
86.647021
 30
0.0
 10
60.162319
 20
88.936196
 30
0.0
  0
LWPOLYLINE
  5
10d
100
AcDbEntity
  8
Ebene_1
 62
5
100
AcDbPolyline
 90
5
 70
0
 10
140.357174
 20
151.880219
 30
0.0
 10
140.407269
 20
151.965591
 30
0.0
 10
143.670816
 20
150.048949
 30
0.0
 10
143.620721
 20
149.963577
 30
0.0
 10
140.357174
 20
151.880219
 30
0.0
  0
LWPOLYLINE
  5
10e
100
AcDbEntity
  8
Ebene_1
 62
5
100
AcDbPolyline
 90
5
 70
0
 10
-55.664151
 20
42.537099
 30
0.0
 10
-55.669442
 20
42.636230
 30
0.0
 10
-51.889781
 20
42.833080
 30
0.0
 10
-51.884490
 20
42.734302
 30
0.0
 10
-55.664151
 20
42.537099
 30
0.0
  0
LWPOLYLINE
  5
10f
100
AcDbEntity
  8
Ebene_1
 62
5
100
AcDbPolyline
 90
5
 70
0
 10
-2.803929
 20
137.305557
 30
0.0
 10
-2.838148
 20
137.398691
 30
0.0
 10
0.710444
 20
138.714552
 30
0.0
 10
0.745016
 20
138.621419
 30
0.0
 10
-2.803929
 20
137.305557
 30
0.0
  0
LWPOLYLINE
  5
110
100
AcDbEntity
  8
Ebene_1
 62
5
100
AcDbPolyline
 90
5
 70
0
 10
-54.602995
 20
51.777407
 30
0.0
 10
-54.647092
 20
51.866307
 30
0.0
 10
-51.260426
 20
53.555760
 30
0.0
 10
-51.216329
 20
53.467213
 30
0.0
 10
-54.602995
 20
51.777407
 30
0.0
  0
LWPOLYLINE
  5
111
100
AcDbEntity
  8
Ebene_1
 62
5
100
AcDbPolyline
 90
5
 70
0
 10
-36.571817
 20
66.931682
 30
0.0
 10
-36.594042
 20
67.028344
 30
0.0
 10
-32.904692
 20
67.873952
 30
0.0
 10
-32.882820
 20
67.777644
 30
0.0
 10
-36.571817
 20
66.931682
 30
0.0
  0
LWPOLYLINE
  5
112
100
AcDbEntity
  8
Ebene_1
 62
5
100
AcDbPolyline
 90
5
 70
0
 10
25.364319
 20
187.529824
 30
0.0
 10
25.463449
 20
187.528766
 30
0.0
 10
25.418999
 20
183.744166
 30
0.0
 10
25.320221
 20
183.745224
 30
0.0
 10
25.364319
 20
187.529824
 30
0.0
  0
LWPOLYLINE
  5
113
100
AcDbEntity
  8
Ebene_1
 62
5
100
AcDbPolyline
 90
5
 70
0
 10
-25.494242
 20
180.195574
 30
0.0
 10
-25.440620
 20
180.278830
 30
0.0
 10
-22.262092
 20
178.224252
 30
0.0
 10
-22.315715
 20
178.140996
 30
0.0
 10
-25.494242
 20
180.195574
 30
0.0
  0
LWPOLYLINE
  5
114
100
AcDbEntity
  8
Ebene_1
 62
5
100
AcDbPolyline
 90
5
 70
0
 10
76.058133
 20
79.852521
 30
0.0
 10
76.145974
 20
79.807013
 30
0.0
 10
74.405016
 20
76.446452
 30
0.0
 10
74.317174
 20
76.491960
 30
0.0
 10
76.058133
 20
79.852521
 30
0.0
  0
LWPOLYLINE
  5
115
100
AcDbEntity
  8
Ebene_1
 62
5
100
AcDbPolyline
 90
5
 70
0
 10
15.087549
 20
167.297666
 30
0.0
 10
14.999355
 20
167.252863
 30
0.0
 10
13.294027
 20
170.632121
 30
0.0
 10
13.382574
 20
170.676571
 30
0.0
 10
15.087549
 20
167.297666
 30
0.0
  0
LWPOLYLINE
  5
116
100
AcDbEntity
  8
Ebene_1
 62
5
100
AcDbPolyline
 90
5
 70
0
 10
-16.848717
 20
190.304069
 30
0.0
 10
-16.848717
 20
190.204938
 30
0.0
 10
-20.633670
 20
190.199999
 30
0.0
 10
-20.633670
 20
190.299130
 30
0.0
 10
-16.848717
 20
190.304069
 30
0.0
  0
LWPOLYLINE
  5
117
100
AcDbEntity
  8
Ebene_1
 62
5
100
AcDbPolyline
 90
5
 70
0
 10
51.426483
 20
97.763402
 30
0.0
 10
51.514324
 20
97.717894
 30
0.0
 10
49.774071
 20
94.356627
 30
0.0
 10
49.686230
 20
94.402488
 30
0.0
 10
51.426483
 20
97.763402
 30
0.0
  0
LWPOLYLINE
  5
118
100
AcDbEntity
  8
Ebene_1
 62
5
100
AcDbPolyline
 90
5
 70
0
 10
-17.867187
 20
44.506305
 30
0.0
 10
-17.872479
 20
44.605435
 30
0.0
 10
-14.092817
 20
44.802285
 30
0.0
 10
-14.087526
 20
44.703155
 30
0.0
 10
-17.867187
 20
44.506305
 30
0.0
  0
LWPOLYLINE
  5
119
100
AcDbEntity
  8
Ebene_1
 62
5
100
AcDbPolyline
 90
5
 70
0
 10
84.763630
 20
96.655327
 30
0.0
 10
84.851471
 20
96.609819
 30
0.0
 10
83.110513
 20
93.249257
 30
0.0
 10
83.022671
 20
93.294766
 30
0.0
 10
84.763630
 20
96.655327
 30
0.0
  0
LWPOLYLINE
  5
11a
100
AcDbEntity
  8
Ebene_1
 62
5
100
AcDbPolyline
 90
5
 70
0
 10
142.316855
 20
145.209896
 30
0.0
 10
142.381766
 20
145.284332
 30
0.0
 10
145.237149
 20
142.799719
 30
0.0
 10
145.171885
 20
142.725282
 30
0.0
 10
142.316855
 20
145.209896
 30
0.0
  0
LWPOLYLINE
  5
11b
100
AcDbEntity
  8
Ebene_1
 62
5
100
AcDbPolyline
 90
5
 70
0
 10
-3.701042
 20
89.589894
 30
0.0
 10
-3.662942
 20
89.681616
 30
0.0
 10
-0.166209
 20
88.233110
 30
0.0
 10
-0.204309
 20
88.141388
 30
0.0
 10
-3.701042
 20
89.589894
 30
0.0
  0
LWPOLYLINE
  5
11c
100
AcDbEntity
  8
Ebene_1
 62
5
100
AcDbPolyline
 90
5
 70
0
 10
4.062538
 20
108.062044
 30
0.0
 10
4.116513
 20
108.144946
 30
0.0
 10
7.288338
 20
106.079785
 30
0.0
 10
7.234363
 20
105.996882
 30
0.0
 10
4.062538
 20
108.062044
 30
0.0
  0
LWPOLYLINE
  5
11d
100
AcDbEntity
  8
Ebene_1
 62
5
100
AcDbPolyline
 90
5
 70
0
 10
132.412266
 20
94.933771
 30
0.0
 10
132.366758
 20
94.845930
 30
0.0
 10
129.006196
 20
96.586888
 30
0.0
 10
129.051705
 20
96.674730
 30
0.0
 10
132.412266
 20
94.933771
 30
0.0
  0
LWPOLYLINE
  5
11e
100
AcDbEntity
  8
Ebene_1
 62
5
100
AcDbPolyline
 90
5
 70
0
 10
-36.765845
 20
43.521702
 30
0.0
 10
-36.770784
 20
43.620832
 30
0.0
 10
-32.991123
 20
43.817682
 30
0.0
 10
-32.985831
 20
43.718552
 30
0.0
 10
-36.765845
 20
43.521702
 30
0.0
  0
LWPOLYLINE
  5
11f
100
AcDbEntity
  8
Ebene_1
 62
5
100
AcDbPolyline
 90
5
 70
0
 10
127.384830
 20
120.627988
 30
0.0
 10
127.467733
 20
120.682316
 30
0.0
 10
129.542771
 20
117.517194
 30
0.0
 10
129.459869
 20
117.462866
 30
0.0
 10
127.384830
 20
120.627988
 30
0.0
  0
LWPOLYLINE
  5
120
100
AcDbEntity
  8
Ebene_1
 62
5
100
AcDbPolyline
 90
5
 70
0
 10
45.545677
 20
201.891407
 30
0.0
 10
45.471946
 20
201.824732
 30
0.0
 10
42.934416
 20
204.632844
 30
0.0
 10
43.007794
 20
204.699166
 30
0.0
 10
45.545677
 20
201.891407
 30
0.0
  0
LWPOLYLINE
  5
121
100
AcDbEntity
  8
Ebene_1
 62
5
100
AcDbPolyline
 90
5
 70
0
 10
154.985458
 20
122.358716
 30
0.0
 10
155.020383
 20
122.451496
 30
0.0
 10
158.562271
 20
121.116585
 30
0.0
 10
158.526994
 20
121.023805
 30
0.0
 10
154.985458
 20
122.358716
 30
0.0
  0
LWPOLYLINE
  5
122
100
AcDbEntity
  8
Ebene_1
 62
5
100
AcDbPolyline
 90
5
 70
0
 10
25.142774
 20
168.607177
 30
0.0
 10
25.241905
 20
168.606119
 30
0.0
 10
25.197455
 20
164.821519
 30
0.0
 10
25.098324
 20
164.822577
 30
0.0
 10
25.142774
 20
168.607177
 30
0.0
  0
LWPOLYLINE
  5
123
100
AcDbEntity
  8
Ebene_1
 62
5
100
AcDbPolyline
 90
5
 70
0
 10
13.782624
 20
82.347719
 30
0.0
 10
13.820371
 20
82.439441
 30
0.0
 10
17.317105
 20
80.990935
 30
0.0
 10
17.279358
 20
80.899213
 30
0.0
 10
13.782624
 20
82.347719
 30
0.0
  0
LWPOLYLINE
  5
124
100
AcDbEntity
  8
Ebene_1
 62
5
100
AcDbPolyline
 90
5
 70
0
 10
156.675616
 20
142.297716
 30
0.0
 10
156.726063
 20
142.383088
 30
0.0
 10
159.989610
 20
140.466446
 30
0.0
 10
159.939516
 20
140.381074
 30
0.0
 10
156.675616
 20
142.297716
 30
0.0
  0
LWPOLYLINE
  5
125
100
AcDbEntity
  8
Ebene_1
 62
5
100
AcDbPolyline
 90
5
 70
0
 10
75.233691
 20
100.380660
 30
0.0
 10
75.293663
 20
100.301638
 30
0.0
 10
72.279530
 20
98.012816
 30
0.0
 10
72.219558
 20
98.091485
 30
0.0
 10
75.233691
 20
100.380660
 30
0.0
  0
LWPOLYLINE
  5
126
100
AcDbEntity
  8
Ebene_1
 62
5
100
AcDbPolyline
 90
5
 70
0
 10
137.277777
 20
129.033624
 30
0.0
 10
137.312702
 20
129.126405
 30
0.0
 10
140.854238
 20
127.791494
 30
0.0
 10
140.819313
 20
127.698713
 30
0.0
 10
137.277777
 20
129.033624
 30
0.0
  0
LWPOLYLINE
  5
127
100
AcDbEntity
  8
Ebene_1
 62
5
100
AcDbPolyline
 90
5
 70
0
 10
23.923927
 20
126.870038
 30
0.0
 10
24.023058
 20
126.865099
 30
0.0
 10
23.554921
 20
116.876196
 30
0.0
 10
23.456144
 20
116.880782
 30
0.0
 10
23.923927
 20
126.870038
 30
0.0
  0
LWPOLYLINE
  5
128
100
AcDbEntity
  8
Ebene_1
 62
5
100
AcDbPolyline
 90
5
 70
0
 10
-51.120020
 20
94.012316
 30
0.0
 10
-51.104145
 20
93.914596
 30
0.0
 10
-60.970634
 20
92.287585
 30
0.0
 10
-60.986862
 20
92.385305
 30
0.0
 10
-51.120020
 20
94.012316
 30
0.0
  0
LWPOLYLINE
  5
129
100
AcDbEntity
  8
Ebene_1
 62
5
100
AcDbPolyline
 90
5
 70
0
 10
-7.148740
 20
63.009146
 30
0.0
 10
-7.068659
 20
63.067355
 30
0.0
 10
-1.198790
 20
54.971457
 30
0.0
 10
-1.278870
 20
54.913249
 30
0.0
 10
-7.148740
 20
63.009146
 30
0.0
  0
LWPOLYLINE
  5
12a
100
AcDbEntity
  8
Ebene_1
 62
5
100
AcDbPolyline
 90
5
 70
0
 10
-17.159515
 20
210.730960
 30
0.0
 10
-17.089665
 20
210.801163
 30
0.0
 10
-10.005887
 20
203.742785
 30
0.0
 10
-10.076090
 20
203.672582
 30
0.0
 10
-17.159515
 20
210.730960
 30
0.0
  0
LWPOLYLINE
  5
12b
100
AcDbEntity
  8
Ebene_1
 62
5
100
AcDbPolyline
 90
5
 70
0
 10
-58.333620
 20
23.183146
 30
0.0
 10
-58.406645
 20
23.116435
 30
0.0
 10
-65.145406
 20
30.505260
 30
0.0
 10
-65.072029
 20
30.571935
 30
0.0
 10
-58.333620
 20
23.183146
 30
0.0
  0
LWPOLYLINE
  5
12c
100
AcDbEntity
  8
Ebene_1
 62
5
100
AcDbPolyline
 90
5
 70
0
 10
101.960841
 20
122.216194
 30
0.0
 10
101.891696
 20
122.287102
 30
0.0
 10
109.055908
 20
129.263635
 30
0.0
 10
109.125052
 20
129.192727
 30
0.0
 10
101.960841
 20
122.216194
 30
0.0
  0
LWPOLYLINE
  5
12d
100
AcDbEntity
  8
Ebene_1
 62
5
100
AcDbPolyline
 90
5
 70
0
 10
-32.835901
 20
154.429391
 30
0.0
 10
-32.932562
 20
154.407519
 30
0.0
 10
-35.121548
 20
164.164999
 30
0.0
 10
-35.024887
 20
164.186871
 30
0.0
 10
-32.835901
 20
154.429391
 30
0.0
  0
LWPOLYLINE
  5
12e
100
AcDbEntity
  8
Ebene_1
 62
5
100
AcDbPolyline
 90
5
 70
0
 10
-74.915940
 20
44.974088
 30
0.0
 10
-75.014894
 20
44.980085
 30
0.0
 10
-74.415877
 20
54.961932
 30
0.0
 10
-74.317064
 20
54.956288
 30
0.0
 10
-74.915940
 20
44.974088
 30
0.0
  0
LWPOLYLINE
  5
12f
100
AcDbEntity
  8
Ebene_1
 62
5
100
AcDbPolyline
 90
5
 70
0
 10
52.936371
 20
34.595719
 30
0.0
 10
53.024919
 20
34.551269
 30
0.0
 10
48.521005
 20
25.622816
 30
0.0
 10
48.432458
 20
25.667336
 30
0.0
 10
52.936371
 20
34.595719
 30
0.0
  0
LWPOLYLINE
  5
130
100
AcDbEntity
  8
Ebene_1
 62
5
100
AcDbPolyline
 90
5
 70
0
 10
11.888560
 20
202.774410
 30
0.0
 10
11.806363
 20
202.829444
 30
0.0
 10
17.383074
 20
211.130305
 30
0.0
 10
17.465271
 20
211.074919
 30
0.0
 10
11.888560
 20
202.774410
 30
0.0
  0
LWPOLYLINE
  5
131
100
AcDbEntity
  8
Ebene_1
 62
5
100
AcDbPolyline
 90
5
 70
0
 10
-17.236773
 20
31.639441
 30
0.0
 10
-17.184562
 20
31.555480
 30
0.0
 10
-25.658990
 20
26.247056
 30
0.0
 10
-25.711554
 20
26.330982
 30
0.0
 10
-17.236773
 20
31.639441
 30
0.0
  0
LWPOLYLINE
  5
132
100
AcDbEntity
  8
Ebene_1
 62
5
100
AcDbPolyline
 90
5
 70
0
 10
-37.164484
 20
202.410344
 30
0.0
 10
-37.259381
 20
202.438919
 30
0.0
 10
-34.353551
 20
212.007310
 30
0.0
 10
-34.258654
 20
211.978735
 30
0.0
 10
-37.164484
 20
202.410344
 30
0.0
  0
LWPOLYLINE
  5
133
100
AcDbEntity
  8
Ebene_1
 62
5
100
AcDbPolyline
 90
5
 70
0
 10
118.748830
 20
144.626049
 30
0.0
 10
118.652521
 20
144.648980
 30
0.0
 10
120.944519
 20
154.382824
 30
0.0
 10
121.040827
 20
154.359894
 30
0.0
 10
118.748830
 20
144.626049
 30
0.0
  0
LWPOLYLINE
  5
134
100
AcDbEntity
  8
Ebene_1
 62
5
100
AcDbPolyline
 90
5
 70
0
 10
38.443555
 20
105.402099
 30
0.0
 10
38.393108
 20
105.487824
 30
0.0
 10
47.011821
 20
110.559005
 30
0.0
 10
47.061916
 20
110.473985
 30
0.0
 10
38.443555
 20
105.402099
 30
0.0
  0
LWPOLYLINE
  5
135
100
AcDbEntity
  8
Ebene_1
 62
5
100
AcDbPolyline
 90
5
 70
0
 10
17.258191
 20
72.287202
 30
0.0
 10
17.258191
 20
72.188071
 30
0.0
 10
7.258352
 20
72.179957
 30
0.0
 10
7.258352
 20
72.279088
 30
0.0
 10
17.258191
 20
72.287202
 30
0.0
  0
LWPOLYLINE
  5
136
100
AcDbEntity
  8
Ebene_1
 62
5
100
AcDbPolyline
 90
432
 70
0
 10
137.118674
 20
167.094466
 30
0.0
 10
122.903494
 20
162.243771
 30
0.0
 10
127.352374
 20
159.631452
 30
0.0
 10
127.302280
 20
159.546080
 30
0.0
 10
123.276733
 20
161.910044
 30
0.0
 10
130.961291
 20
155.222788
 30
0.0
 10
130.896380
 20
155.147999
 30
0.0
 10
122.828705
 20
162.168277
 30
0.0
 10
122.138671
 20
159.238105
 30
0.0
 10
117.272102
 20
160.384280
 30
0.0
 10
112.687755
 20
140.916944
 30
0.0
 10
117.554677
 20
139.770769
 30
0.0
 10
116.867466
 20
136.852591
 30
0.0
 10
116.884399
 20
136.826838
 30
0.0
 10
123.146558
 20
134.466402
 30
0.0
 10
123.111280
 20
134.373621
 30
0.0
 10
116.976474
 20
136.686080
 30
0.0
 10
119.167577
 20
133.343863
 30
0.0
 10
119.084674
 20
133.289535
 30
0.0
 10
116.819135
 20
136.745346
 30
0.0
 10
116.812433
 20
136.747816
 30
0.0
 10
112.672585
 20
132.716624
 30
0.0
 10
109.184319
 20
136.298730
 30
0.0
 10
94.855896
 20
122.345663
 30
0.0
 10
98.344163
 20
118.763205
 30
0.0
 10
94.301683
 20
114.826557
 30
0.0
 10
94.345427
 20
114.768702
 30
0.0
 10
94.257233
 20
114.701674
 30
0.0
 10
98.806302
 20
112.344766
 30
0.0
 10
98.760794
 20
112.256924
 30
0.0
 10
94.185971
 20
114.626885
 30
0.0
 10
91.816010
 20
110.052063
 30
0.0
 10
91.728169
 20
110.097924
 30
0.0
 10
94.019813
 20
114.521405
 30
0.0
 10
87.350902
 20
109.457280
 30
0.0
 10
87.290930
 20
109.535949
 30
0.0
 10
94.072730
 20
114.685799
 30
0.0
 10
94.006760
 20
114.720019
 30
0.0
 10
83.477049
 20
116.462741
 30
0.0
 10
83.493277
 20
116.560460
 30
0.0
 10
84.233405
 20
116.438046
 30
0.0
 10
83.553602
 20
121.518046
 30
0.0
 10
75.167721
 20
122.906227
 30
0.0
 10
72.887719
 20
118.316235
 30
0.0
 10
73.627494
 20
118.193469
 30
0.0
 10
73.611266
 20
118.096102
 30
0.0
 10
62.975016
 20
119.856463
 30
0.0
 10
58.474277
 20
111.162607
 30
0.0
 10
58.386083
 20
111.208116
 30
0.0
 10
62.843430
 20
119.817657
 30
0.0
 10
51.346402
 20
113.052438
 30
0.0
 10
48.810283
 20
117.361619
 30
0.0
 10
31.573208
 20
107.218552
 30
0.0
 10
34.109327
 20
102.909019
 30
0.0
 10
22.609830
 20
96.142388
 30
0.0
 10
22.723071
 20
96.137096
 30
0.0
 10
22.718485
 20
96.037966
 30
0.0
 10
22.711783
 20
96.038319
 30
0.0
 10
22.717427
 20
96.034791
 30
0.0
 10
22.675094
 20
95.969527
 30
0.0
 10
26.274133
 20
90.519463
 30
0.0
 10
26.191583
 20
90.465135
 30
0.0
 10
22.504349
 20
96.048196
 30
0.0
 10
15.945858
 20
96.357935
 30
0.0
 10
15.950796
 20
96.456713
 30
0.0
 10
22.351596
 20
96.154382
 30
0.0
 10
19.921663
 20
97.736591
 30
0.0
 10
19.975638
 20
97.819846
 30
0.0
 10
22.404160
 20
96.238696
 30
0.0
 10
22.469071
 20
96.281735
 30
0.0
 10
22.535746
 20
96.180488
 30
0.0
 10
23.271641
 20
111.884038
 30
0.0
 10
28.265916
 20
111.650146
 30
0.0
 10
29.201835
 20
131.628305
 30
0.0
 10
24.207560
 20
131.862196
 30
0.0
 10
24.938163
 20
147.460619
 30
0.0
 10
24.895124
 20
147.460971
 30
0.0
 10
24.896535
 20
147.578094
 30
0.0
 10
14.939735
 20
143.885569
 30
0.0
 10
14.905163
 20
143.978349
 30
0.0
 10
24.836916
 20
147.661702
 30
0.0
 10
22.184380
 20
149.376202
 30
0.0
 10
22.238355
 20
149.459457
 30
0.0
 10
24.820688
 20
147.790466
 30
0.0
 10
21.819608
 20
153.737241
 30
0.0
 10
21.908155
 20
153.781691
 30
0.0
 10
24.900063
 20
147.852907
 30
0.0
 10
24.921230
 20
149.684177
 30
0.0
 10
25.020360
 20
149.683119
 30
0.0
 10
24.997430
 20
147.720969
 30
0.0
 10
25.040469
 20
147.737196
 30
0.0
 10
40.143238
 20
161.859596
 30
0.0
 10
40.210619
 20
161.787277
 30
0.0
 10
39.663108
 20
161.275044
 30
0.0
 10
44.105991
 20
158.719874
 30
0.0
 10
50.314527
 20
164.525185
 30
0.0
 10
48.062746
 20
169.129641
 30
0.0
 10
47.514883
 20
168.617407
 30
0.0
 10
47.447149
 20
168.689727
 30
0.0
 10
62.607069
 20
182.865749
 30
0.0
 10
55.623127
 20
190.592994
 30
0.0
 10
55.696858
 20
190.659316
 30
0.0
 10
62.618358
 20
183.000863
 30
0.0
 10
58.269666
 20
200.806263
 30
0.0
 10
58.365974
 20
200.829899
 30
0.0
 10
58.544127
 20
200.101413
 30
0.0
 10
62.949263
 20
202.721141
 30
0.0
 10
60.932433
 20
210.978610
 30
0.0
 10
55.815391
 20
211.272827
 30
0.0
 10
55.993544
 20
210.544341
 30
0.0
 10
55.897235
 20
210.520705
 30
0.0
 10
51.523849
 20
228.427705
 30
0.0
 10
43.595169
 20
226.944980
 30
0.0
 10
43.576824
 20
227.042346
 30
0.0
 10
44.314130
 20
227.180282
 30
0.0
 10
41.938877
 20
231.721944
 30
0.0
 10
33.583688
 20
230.159491
 30
0.0
 10
33.010071
 20
225.066438
 30
0.0
 10
33.747024
 20
225.204374
 30
0.0
 10
33.765369
 20
225.107007
 30
0.0
 10
25.893838
 20
223.635219
 30
0.0
 10
32.856613
 20
215.930905
 30
0.0
 10
32.783235
 20
215.864582
 30
0.0
 10
25.884666
 20
223.497282
 30
0.0
 10
25.862441
 20
221.589813
 30
0.0
 10
25.763310
 20
221.590871
 30
0.0
 10
25.786241
 20
223.549494
 30
0.0
 10
20.212352
 20
215.252866
 30
0.0
 10
16.061921
 20
218.041221
 30
0.0
 10
4.908852
 20
201.439852
 30
0.0
 10
9.058930
 20
198.651496
 30
0.0
 10
3.468108
 20
190.329469
 30
0.0
 10
3.624035
 20
190.329821
 30
0.0
 10
3.624388
 20
190.230691
 30
0.0
 10
3.515380
 20
190.230691
 30
0.0
 10
6.562321
 20
184.192546
 30
0.0
 10
6.473774
 20
184.148096
 30
0.0
 10
3.404608
 20
190.230338
 30
0.0
 10
-1.709612
 20
190.223988
 30
0.0
 10
-1.709612
 20
190.323119
 30
0.0
 10
3.354513
 20
190.329469
 30
0.0
 10
3.323116
 20
190.391205
 30
0.0
 10
-6.499276
 20
200.178671
 30
0.0
 10
-2.970087
 20
203.720207
 30
0.0
 10
-17.137290
 20
217.836963
 30
0.0
 10
-20.666479
 20
214.295427
 30
0.0
 10
-30.600701
 20
224.193666
 30
0.0
 10
-32.852834
 20
216.777219
 30
0.0
 10
-37.637206
 20
218.230310
 30
0.0
 10
-43.449220
 20
199.093527
 30
0.0
 10
-38.664848
 20
197.640435
 30
0.0
 10
-40.902517
 20
190.273377
 30
0.0
 10
-35.772776
 20
190.280080
 30
0.0
 10
-35.772776
 20
190.180949
 30
0.0
 10
-40.749765
 20
190.174599
 30
0.0
 10
-38.154731
 20
188.497141
 30
0.0
 10
-38.208706
 20
188.413885
 30
0.0
 10
-40.901812
 20
190.154844
 30
0.0
 10
-36.167887
 20
169.054499
 30
0.0
 10
-41.046804
 20
167.959830
 30
0.0
 10
-36.668479
 20
148.445221
 30
0.0
 10
-31.789562
 20
149.539891
 30
0.0
 10
-27.082095
 20
128.557021
 30
0.0
 10
-27.005895
 20
128.563019
 30
0.0
 10
-26.996017
 20
128.439546
 30
0.0
 10
-17.032867
 20
132.134541
 30
0.0
 10
-16.998295
 20
132.041407
 30
0.0
 10
-26.930754
 20
128.358055
 30
0.0
 10
-24.429912
 20
126.730338
 30
0.0
 10
-24.483887
 20
126.647082
 30
0.0
 10
-26.982965
 20
128.274094
 30
0.0
 10
-26.398765
 20
120.897863
 30
0.0
 10
-26.497542
 20
120.890102
 30
0.0
 10
-27.084212
 20
128.301257
 30
0.0
 10
-27.200276
 20
128.258219
 30
0.0
 10
-27.234848
 20
128.350999
 30
0.0
 10
-27.221442
 20
128.355938
 30
0.0
 10
-53.652259
 20
126.262555
 30
0.0
 10
-53.660373
 20
126.361332
 30
0.0
 10
-52.912484
 20
126.420599
 30
0.0
 10
-54.794906
 20
131.187685
 30
0.0
 10
-63.268276
 20
130.516702
 30
0.0
 10
-64.376704
 20
125.512549
 30
0.0
 10
-63.629167
 20
125.571816
 30
0.0
 10
-63.621406
 20
125.473038
 30
0.0
 10
-90.233410
 20
123.365191
 30
0.0
 10
-89.226758
 20
110.654255
 30
0.0
 10
-89.325395
 20
110.646494
 30
0.0
 10
-89.384662
 20
111.394030
 30
0.0
 10
-94.151854
 20
109.511607
 30
0.0
 10
-93.480764
 20
101.038238
 30
0.0
 10
-88.476682
 20
99.929810
 30
0.0
 10
-88.535949
 20
100.677699
 30
0.0
 10
-88.437136
 20
100.685460
 30
0.0
 10
-87.430343
 20
87.974171
 30
0.0
 10
-65.912275
 20
91.522763
 30
0.0
 10
-65.098840
 20
86.589519
 30
0.0
 10
-45.365156
 20
89.843541
 30
0.0
 10
-46.178662
 20
94.777138
 30
0.0
 10
-24.851481
 20
98.293980
 30
0.0
 10
-24.849012
 20
98.350071
 30
0.0
 10
-24.854304
 20
98.352188
 30
0.0
 10
-24.847954
 20
98.367357
 30
0.0
 10
-24.847248
 20
98.383938
 30
0.0
 10
-24.841251
 20
98.383938
 30
0.0
 10
-24.816556
 20
98.443910
 30
0.0
 10
-24.752351
 20
98.417099
 30
0.0
 10
-24.779162
 20
98.481305
 30
0.0
 10
-24.724481
 20
98.504235
 30
0.0
 10
-25.301979
 20
105.797916
 30
0.0
 10
-25.203201
 20
105.806030
 30
0.0
 10
-24.614767
 20
98.373002
 30
0.0
 10
-18.074620
 20
98.063969
 30
0.0
 10
-18.079559
 20
97.965191
 30
0.0
 10
-24.379465
 20
98.262935
 30
0.0
 10
-17.649876
 20
95.475285
 30
0.0
 10
-17.687623
 20
95.383563
 30
0.0
 10
-24.568554
 20
98.234007
 30
0.0
 10
-22.080765
 20
92.273121
 30
0.0
 10
-22.171781
 20
92.235374
 30
0.0
 10
-24.635934
 20
98.137699
 30
0.0
 10
-24.694848
 20
98.133113
 30
0.0
 10
-24.706490
 20
98.278105
 30
0.0
 10
-24.718484
 20
98.278810
 30
0.0
 10
-45.520731
 20
81.486235
 30
0.0
 10
-45.583173
 20
81.563141
 30
0.0
 10
-44.999326
 20
82.034452
 30
0.0
 10
-49.245006
 20
84.905710
 30
0.0
 10
-55.858884
 20
79.566771
 30
0.0
 10
-53.947534
 20
74.810974
 30
0.0
 10
-53.364040
 20
75.281932
 30
0.0
 10
-53.301951
 20
75.205027
 30
0.0
 10
-74.074106
 20
58.436441
 30
0.0
 10
-69.796146
 20
59.417163
 30
0.0
 10
-69.774098
 20
59.320502
 30
0.0
 10
-74.335373
 20
58.274869
 30
0.0
 10
-74.357563
 20
58.371530
 30
0.0
 10
-74.158984
 20
58.417038
 30
0.0
 10
-74.066945
 20
59.950210
 30
0.0
 10
-79.057939
 20
60.249719
 30
0.0
 10
-80.256007
 20
40.285671
 30
0.0
 10
-75.265013
 20
39.986163
 30
0.0
 10
-75.173221
 20
41.513691
 30
0.0
 10
-75.317119
 20
41.441724
 30
0.0
 10
-75.351832
 20
41.511574
 30
0.0
 10
-75.356242
 20
41.511221
 30
0.0
 10
-75.356806
 20
41.521452
 30
0.0
 10
-75.361322
 20
41.530624
 30
0.0
 10
-75.357335
 20
41.532388
 30
0.0
 10
-75.361463
 20
41.610352
 30
0.0
 10
-75.182746
 20
41.619524
 30
0.0
 10
-68.193759
 20
45.106732
 30
0.0
 10
-68.149521
 20
45.018185
 30
0.0
 10
-74.934990
 20
41.632577
 30
0.0
 10
-70.788193
 20
41.848477
 30
0.0
 10
-70.782936
 20
41.749699
 30
0.0
 10
-75.126654
 20
41.523216
 30
0.0
 10
-68.477886
 20
34.233063
 30
0.0
 10
-72.172281
 20
30.863682
 30
0.0
 10
-58.695217
 20
16.086245
 30
0.0
 10
-55.000929
 20
19.455414
 30
0.0
 10
-48.309087
 20
12.117636
 30
0.0
 10
-29.922662
 20
23.634737
 30
0.0
 10
-27.268362
 20
19.397382
 30
0.0
 10
-10.319154
 20
30.014335
 30
0.0
 10
-12.973101
 20
34.251760
 30
0.0
 10
5.326541
 20
45.714569
 30
0.0
 10
1.031119
 20
45.490907
 30
0.0
 10
1.026180
 20
45.589685
 30
0.0
 10
5.378399
 20
45.816521
 30
0.0
 10
1.696458
 20
50.894405
 30
0.0
 10
5.744230
 20
53.829516
 30
0.0
 10
-5.995862
 20
70.021310
 30
0.0
 10
-10.043987
 20
67.086199
 30
0.0
 10
-13.646201
 20
72.054369
 30
0.0
 10
-13.732984
 20
72.018032
 30
0.0
 10
-13.785548
 20
72.143974
 30
0.0
 10
-20.736329
 20
68.675816
 30
0.0
 10
-20.780779
 20
68.764363
 30
0.0
 10
-14.153848
 20
72.070949
 30
0.0
 10
-18.126126
 20
71.160077
 30
0.0
 10
-18.148351
 20
71.256738
 30
0.0
 10
-13.828587
 20
72.246985
 30
0.0
 10
-16.340365
 20
78.264316
 30
0.0
 10
-16.248995
 20
78.302416
 30
0.0
 10
-13.735101
 20
72.279794
 30
0.0
 10
-13.613040
 20
72.340824
 30
0.0
 10
-13.593284
 20
72.300960
 30
0.0
 10
-13.586934
 20
72.302371
 30
0.0
 10
-13.580937
 20
72.276266
 30
0.0
 10
-13.568942
 20
72.251924
 30
0.0
 10
-13.574940
 20
72.249102
 30
0.0
 10
-13.566120
 20
72.212060
 30
0.0
 10
2.258433
 20
72.225113
 30
0.0
 10
2.262313
 20
67.225194
 30
0.0
 10
22.262344
 20
67.241774
 30
0.0
 10
22.258110
 20
72.241694
 30
0.0
 10
38.147574
 20
72.255099
 30
0.0
 10
31.266291
 20
75.105544
 30
0.0
 10
31.304038
 20
75.197266
 30
0.0
 10
38.124291
 20
72.372221
 30
0.0
 10
38.131346
 20
72.385627
 30
0.0
 10
34.534424
 20
77.832163
 30
0.0
 10
34.616974
 20
77.886491
 30
0.0
 10
38.271752
 20
72.352819
 30
0.0
 10
42.726277
 20
80.957774
 30
0.0
 10
42.814119
 20
80.912266
 30
0.0
 10
38.422035
 20
72.427607
 30
0.0
 10
45.090946
 20
77.491732
 30
0.0
 10
45.150919
 20
77.412710
 30
0.0
 10
38.375469
 20
72.267799
 30
0.0
 10
38.470719
 20
72.228641
 30
0.0
 10
38.464721
 20
72.213824
 30
0.0
 10
44.942074
 20
68.857849
 30
0.0
 10
44.896213
 20
68.770007
 30
0.0
 10
38.422035
 20
72.124219
 30
0.0
 10
38.339838
 20
72.069891
 30
0.0
 10
38.281983
 20
72.157380
 30
0.0
 10
38.234005
 20
72.064246
 30
0.0
 10
38.190260
 20
72.086824
 30
0.0
 10
28.665260
 20
53.562816
 30
0.0
 10
28.577066
 20
53.608324
 30
0.0
 10
28.920319
 20
54.275427
 30
0.0
 10
23.875596
 20
55.182419
 30
0.0
 10
19.988691
 20
47.623096
 30
0.0
 10
23.661460
 20
44.048046
 30
0.0
 10
24.004360
 20
44.715149
 30
0.0
 10
24.092202
 20
44.669641
 30
0.0
 10
14.525927
 20
26.065446
 30
0.0
 10
17.419763
 20
27.922892
 30
0.0
 10
17.473385
 20
27.839671
 30
0.0
 10
14.514638
 20
25.940316
 30
0.0
 10
22.103594
 20
17.593417
 30
0.0
 10
22.030216
 20
17.526848
 30
0.0
 10
21.525744
 20
18.081767
 30
0.0
 10
18.908485
 20
13.674938
 30
0.0
 10
24.626660
 20
7.385722
 30
0.0
 10
29.261808
 20
9.572803
 30
0.0
 10
28.757335
 20
10.127757
 30
0.0
 10
28.830713
 20
10.194432
 30
0.0
 10
36.453535
 20
1.810316
 30
0.0
 10
46.224774
 20
21.180850
 30
0.0
 10
50.689177
 20
18.928999
 30
0.0
 10
59.696652
 20
36.785763
 30
0.0
 10
55.232602
 20
39.037544
 30
0.0
 10
64.918469
 20
58.239238
 30
0.0
 10
64.872960
 20
58.262874
 30
0.0
 10
64.874724
 20
58.266402
 30
0.0
 10
62.064849
 20
56.462649
 30
0.0
 10
62.011227
 20
56.546257
 30
0.0
 10
64.905063
 20
58.403632
 30
0.0
 10
58.338810
 20
61.805469
 30
0.0
 10
58.384319
 20
61.893310
 30
0.0
 10
64.982674
 20
58.474894
 30
0.0
 10
67.352635
 20
63.049716
 30
0.0
 10
67.440477
 20
63.004207
 30
0.0
 10
65.132958
 20
58.550035
 30
0.0
 10
65.136133
 20
58.552152
 30
0.0
 10
65.189755
 20
58.468896
 30
0.0
 10
65.102619
 20
58.412805
 30
0.0
 10
65.194694
 20
58.365180
 30
0.0
 10
65.171763
 20
58.321082
 30
0.0
 10
88.706980
 20
46.127671
 30
0.0
 10
88.661471
 20
46.039830
 30
0.0
 10
87.995427
 20
46.384846
 30
0.0
 10
87.072913
 20
41.342946
 30
0.0
 10
94.620241
 20
37.433110
 30
0.0
 10
98.206580
 20
41.094591
 30
0.0
 10
97.540535
 20
41.439607
 30
0.0
 10
97.586044
 20
41.527449
 30
0.0
 10
121.289183
 20
29.247043
 30
0.0
 10
133.569730
 20
52.950394
 30
0.0
 10
133.657571
 20
52.904532
 30
0.0
 10
133.312908
 20
52.238488
 30
0.0
 10
138.354455
 20
51.315974
 30
0.0
 10
142.264644
 20
58.863302
 30
0.0
 10
138.602810
 20
62.449641
 30
0.0
 10
138.258146
 20
61.783949
 30
0.0
 10
138.169952
 20
61.829105
 30
0.0
 10
150.424394
 20
85.482149
 30
0.0
 10
150.416280
 20
85.494496
 30
0.0
 10
145.809002
 20
87.881391
 30
0.0
 10
145.854510
 20
87.969232
 30
0.0
 10
150.305508
 20
85.663477
 30
0.0
 10
148.134513
 20
88.975002
 30
0.0
 10
148.217416
 20
89.029330
 30
0.0
 10
150.484719
 20
85.570344
 30
0.0
 10
150.487894
 20
85.568932
 30
0.0
 10
161.139666
 20
95.957180
 30
0.0
 10
161.208810
 20
95.886271
 30
0.0
 10
160.671883
 20
95.362749
 30
0.0
 10
165.167683
 20
92.901419
 30
0.0
 10
171.253099
 20
98.836199
 30
0.0
 10
168.905010
 20
103.391971
 30
0.0
 10
168.368083
 20
102.868449
 30
0.0
 10
168.298938
 20
102.939357
 30
0.0
 10
178.948946
 20
113.325841
 30
0.0
 10
172.693491
 20
115.683807
 30
0.0
 10
172.728416
 20
115.776588
 30
0.0
 10
178.747510
 20
113.507521
 30
0.0
 10
170.868219
 20
120.364110
 30
0.0
 10
170.933483
 20
120.438899
 30
0.0
 10
178.981755
 20
113.435202
 30
0.0
 10
178.687185
 20
116.763307
 30
0.0
 10
178.785963
 20
116.772127
 30
0.0
 10
178.852285
 20
116.024944
 30
0.0
 10
183.601733
 20
117.951110
 30
0.0
 10
182.852433
 20
126.418130
 30
0.0
 10
177.838402
 20
127.480344
 30
0.0
 10
177.904371
 20
126.733160
 30
0.0
 10
177.805946
 20
126.724341
 30
0.0
 10
177.510319
 20
130.063030
 30
0.0
 10
172.994410
 20
132.714860
 30
0.0
 10
173.044505
 20
132.800585
 30
0.0
 10
177.477863
 20
130.197085
 30
0.0
 10
170.914785
 20
147.969324
 30
0.0
 10
171.007566
 20
148.003544
 30
0.0
 10
171.267563
 20
147.300105
 30
0.0
 10
175.345321
 20
150.405255
 30
0.0
 10
172.400685
 20
158.378738
 30
0.0
 10
167.283291
 20
158.088049
 30
0.0
 10
167.543288
 20
157.384610
 30
0.0
 10
167.450508
 20
157.350038
 30
0.0
 10
160.859913
 20
175.195655
 30
0.0
 10
146.582996
 20
170.324146
 30
0.0
 10
146.550894
 20
170.417985
 30
0.0
 10
147.260683
 20
170.659991
 30
0.0
 10
144.258191
 20
174.813949
 30
0.0
 10
136.213799
 20
172.068985
 30
0.0
 10
136.376783
 20
166.946299
 30
0.0
 10
137.086571
 20
167.188305
 30
0.0
 10
137.118674
 20
167.094466
 30
0.0
  0
LWPOLYLINE
  5
137
100
AcDbEntity
  8
Ebene_1
 62
1
100
AcDbPolyline
 90
3
 70
0
 10
99.842410
 20
75.795224
 30
0.0
 10
110.663869
 20
94.223982
 30
0.0
 10
104.160410
 20
92.531707
 30
0.0
  0
LWPOLYLINE
  5
138
100
AcDbEntity
  8
Ebene_1
 62
1
100
AcDbPolyline
 90
61
 70
0
 10
128.526771
 20
147.273646
 30
0.0
 10
128.526771
 20
147.273646
 30
0.0
 10
128.568399
 20
147.335735
 30
0.0
 10
128.597327
 20
147.402410
 30
0.0
 10
128.614260
 20
147.471907
 30
0.0
 10
128.618846
 20
147.542816
 30
0.0
 10
128.611438
 20
147.613724
 30
0.0
 10
128.592741
 20
147.682163
 30
0.0
 10
128.561696
 20
147.747074
 30
0.0
 10
128.519716
 20
147.806694
 30
0.0
 10
128.466094
 20
147.858905
 30
0.0
 10
128.466094
 20
147.858905
 30
0.0
 10
128.229380
 20
148.033530
 30
0.0
 10
127.978555
 20
148.181696
 30
0.0
 10
127.715383
 20
148.303052
 30
0.0
 10
127.442333
 20
148.396891
 30
0.0
 10
127.161521
 20
148.463213
 30
0.0
 10
126.875066
 20
148.500960
 30
0.0
 10
126.585083
 20
148.509780
 30
0.0
 10
126.294041
 20
148.489319
 30
0.0
 10
126.003705
 20
148.438871
 30
0.0
 10
126.003705
 20
148.438871
 30
0.0
 10
125.973719
 20
148.431110
 30
0.0
 10
125.944438
 20
148.420880
 30
0.0
 10
125.916216
 20
148.408532
 30
0.0
 10
125.888699
 20
148.394069
 30
0.0
 10
125.862594
 20
148.377841
 30
0.0
 10
125.837899
 20
148.359849
 30
0.0
 10
125.814263
 20
148.340094
 30
0.0
 10
125.792744
 20
148.318574
 30
0.0
 10
125.772635
 20
148.295644
 30
0.0
 10
125.772635
 20
148.295644
 30
0.0
 10
125.730655
 20
148.233202
 30
0.0
 10
125.701021
 20
148.166527
 30
0.0
 10
125.684088
 20
148.096677
 30
0.0
 10
125.679149
 20
148.025416
 30
0.0
 10
125.686205
 20
147.954507
 30
0.0
 10
125.705255
 20
147.885716
 30
0.0
 10
125.735946
 20
147.820805
 30
0.0
 10
125.778280
 20
147.761185
 30
0.0
 10
125.832255
 20
147.708974
 30
0.0
 10
125.832255
 20
147.708974
 30
0.0
 10
126.068969
 20
147.535055
 30
0.0
 10
126.320146
 20
147.387241
 30
0.0
 10
126.582966
 20
147.266238
 30
0.0
 10
126.856369
 20
147.172399
 30
0.0
 10
127.137180
 20
147.106077
 30
0.0
 10
127.423635
 20
147.068330
 30
0.0
 10
127.713266
 20
147.059157
 30
0.0
 10
128.004308
 20
147.079266
 30
0.0
 10
128.294644
 20
147.129007
 30
0.0
 10
128.294644
 20
147.129007
 30
0.0
 10
128.324277
 20
147.137121
 30
0.0
 10
128.353558
 20
147.146999
 30
0.0
 10
128.381780
 20
147.159346
 30
0.0
 10
128.408944
 20
147.173810
 30
0.0
 10
128.435049
 20
147.189685
 30
0.0
 10
128.460096
 20
147.208030
 30
0.0
 10
128.483733
 20
147.228138
 30
0.0
 10
128.505958
 20
147.250010
 30
0.0
 10
128.526771
 20
147.273646
 30
0.0
  0
LWPOLYLINE
  5
139
100
AcDbEntity
  8
Ebene_1
 62
1
100
AcDbPolyline
 90
61
 70
0
 10
111.629421
 20
119.193594
 30
0.0
 10
111.629421
 20
119.193594
 30
0.0
 10
111.697508
 20
119.223580
 30
0.0
 10
111.757833
 20
119.264149
 30
0.0
 10
111.809338
 20
119.313891
 30
0.0
 10
111.851671
 20
119.371394
 30
0.0
 10
111.883774
 20
119.434894
 30
0.0
 10
111.904235
 20
119.502980
 30
0.0
 10
111.913408
 20
119.574241
 30
0.0
 10
111.909880
 20
119.646913
 30
0.0
 10
111.892946
 20
119.719938
 30
0.0
 10
111.892946
 20
119.719938
 30
0.0
 10
111.787113
 20
119.994399
 30
0.0
 10
111.654821
 20
120.254044
 30
0.0
 10
111.498188
 20
120.497813
 30
0.0
 10
111.318624
 20
120.723944
 30
0.0
 10
111.117188
 20
120.930671
 30
0.0
 10
110.895996
 20
121.116232
 30
0.0
 10
110.656460
 20
121.279569
 30
0.0
 10
110.399991
 20
121.418916
 30
0.0
 10
110.127999
 20
121.532510
 30
0.0
 10
110.127999
 20
121.532510
 30
0.0
 10
110.098366
 20
121.541682
 30
0.0
 10
110.068027
 20
121.548738
 30
0.0
 10
110.037688
 20
121.553677
 30
0.0
 10
110.006996
 20
121.556499
 30
0.0
 10
109.975952
 20
121.556852
 30
0.0
 10
109.945260
 20
121.554735
 30
0.0
 10
109.914921
 20
121.550502
 30
0.0
 10
109.885288
 20
121.544505
 30
0.0
 10
109.856008
 20
121.535685
 30
0.0
 10
109.856008
 20
121.535685
 30
0.0
 10
109.787216
 20
121.505699
 30
0.0
 10
109.726185
 20
121.465130
 30
0.0
 10
109.674327
 20
121.415388
 30
0.0
 10
109.631994
 20
121.357885
 30
0.0
 10
109.599891
 20
121.294385
 30
0.0
 10
109.578724
 20
121.226299
 30
0.0
 10
109.569905
 20
121.155038
 30
0.0
 10
109.573433
 20
121.082013
 30
0.0
 10
109.590719
 20
121.008988
 30
0.0
 10
109.590719
 20
121.008988
 30
0.0
 10
109.696905
 20
120.734880
 30
0.0
 10
109.829196
 20
120.475235
 30
0.0
 10
109.986183
 20
120.231819
 30
0.0
 10
110.166099
 20
120.006041
 30
0.0
 10
110.367183
 20
119.799313
 30
0.0
 10
110.588374
 20
119.613399
 30
0.0
 10
110.827910
 20
119.449710
 30
0.0
 10
111.084027
 20
119.310363
 30
0.0
 10
111.355666
 20
119.196416
 30
0.0
 10
111.355666
 20
119.196416
 30
0.0
 10
111.385299
 20
119.186891
 30
0.0
 10
111.415285
 20
119.180188
 30
0.0
 10
111.445624
 20
119.175249
 30
0.0
 10
111.476316
 20
119.172427
 30
0.0
 10
111.507008
 20
119.172074
 30
0.0
 10
111.537699
 20
119.174191
 30
0.0
 10
111.568744
 20
119.178424
 30
0.0
 10
111.599083
 20
119.184774
 30
0.0
 10
111.629421
 20
119.193594
 30
0.0
  0
LWPOLYLINE
  5
13a
100
AcDbEntity
  8
Ebene_1
 62
1
100
AcDbPolyline
 90
61
 70
0
 10
78.126469
 20
115.868310
 30
0.0
 10
78.126469
 20
115.868310
 30
0.0
 10
78.191027
 20
115.831269
 30
0.0
 10
78.259466
 20
115.806574
 30
0.0
 10
78.330021
 20
115.794580
 30
0.0
 10
78.401283
 20
115.794580
 30
0.0
 10
78.471133
 20
115.806574
 30
0.0
 10
78.538513
 20
115.830210
 30
0.0
 10
78.601308
 20
115.865135
 30
0.0
 10
78.657752
 20
115.911349
 30
0.0
 10
78.706435
 20
115.968146
 30
0.0
 10
78.706435
 20
115.968146
 30
0.0
 10
78.864833
 20
116.216149
 30
0.0
 10
78.995713
 20
116.476499
 30
0.0
 10
79.099077
 20
116.747080
 30
0.0
 10
79.174571
 20
117.025774
 30
0.0
 10
79.221491
 20
117.310466
 30
0.0
 10
79.239835
 20
117.599038
 30
0.0
 10
79.229252
 20
117.888669
 30
0.0
 10
79.189388
 20
118.177946
 30
0.0
 10
79.119538
 20
118.464049
 30
0.0
 10
79.119538
 20
118.464049
 30
0.0
 10
79.109660
 20
118.493330
 30
0.0
 10
79.097313
 20
118.521905
 30
0.0
 10
79.083202
 20
118.549421
 30
0.0
 10
79.066974
 20
118.575880
 30
0.0
 10
79.049335
 20
118.600574
 30
0.0
 10
79.029580
 20
118.624210
 30
0.0
 10
79.008060
 20
118.646435
 30
0.0
 10
78.985483
 20
118.666544
 30
0.0
 10
78.961141
 20
118.684888
 30
0.0
 10
78.961141
 20
118.684888
 30
0.0
 10
78.896230
 20
118.722635
 30
0.0
 10
78.827438
 20
118.747682
 30
0.0
 10
78.756530
 20
118.760030
 30
0.0
 10
78.685269
 20
118.760030
 30
0.0
 10
78.615066
 20
118.748388
 30
0.0
 10
78.547685
 20
118.724752
 30
0.0
 10
78.484891
 20
118.689827
 30
0.0
 10
78.428446
 20
118.643260
 30
0.0
 10
78.379763
 20
118.586110
 30
0.0
 10
78.379763
 20
118.586110
 30
0.0
 10
78.222071
 20
118.338107
 30
0.0
 10
78.091544
 20
118.077757
 30
0.0
 10
77.988533
 20
117.807177
 30
0.0
 10
77.913038
 20
117.528482
 30
0.0
 10
77.865766
 20
117.243791
 30
0.0
 10
77.847421
 20
116.955571
 30
0.0
 10
77.857652
 20
116.665588
 30
0.0
 10
77.897163
 20
116.376663
 30
0.0
 10
77.966660
 20
116.090207
 30
0.0
 10
77.966660
 20
116.090207
 30
0.0
 10
77.976538
 20
116.060927
 30
0.0
 10
77.988533
 20
116.032705
 30
0.0
 10
78.002644
 20
116.005188
 30
0.0
 10
78.018519
 20
115.979082
 30
0.0
 10
78.036510
 20
115.954035
 30
0.0
 10
78.056619
 20
115.930399
 30
0.0
 10
78.078138
 20
115.908174
 30
0.0
 10
78.101421
 20
115.887360
 30
0.0
 10
78.126469
 20
115.868310
 30
0.0
  0
LWPOLYLINE
  5
13b
100
AcDbEntity
  8
Ebene_1
 62
1
100
AcDbPolyline
 90
61
 70
0
 10
47.115538
 20
100.166171
 30
0.0
 10
47.115538
 20
100.166171
 30
0.0
 10
47.188563
 20
100.178871
 30
0.0
 10
47.257002
 20
100.203919
 30
0.0
 10
47.319091
 20
100.239902
 30
0.0
 10
47.373419
 20
100.285763
 30
0.0
 10
47.419633
 20
100.339738
 30
0.0
 10
47.455969
 20
100.401121
 30
0.0
 10
47.481721
 20
100.468149
 30
0.0
 10
47.495833
 20
100.539763
 30
0.0
 10
47.496538
 20
100.614552
 30
0.0
 10
47.496538
 20
100.614552
 30
0.0
 10
47.458791
 20
100.906299
 30
0.0
 10
47.392469
 20
101.189932
 30
0.0
 10
47.298277
 20
101.464041
 30
0.0
 10
47.177627
 20
101.726507
 30
0.0
 10
47.031224
 20
101.974863
 30
0.0
 10
46.860480
 20
102.208049
 30
0.0
 10
46.666452
 20
102.423596
 30
0.0
 10
46.450552
 20
102.619741
 30
0.0
 10
46.213485
 20
102.794719
 30
0.0
 10
46.213485
 20
102.794719
 30
0.0
 10
46.187027
 20
102.810946
 30
0.0
 10
46.159158
 20
102.825057
 30
0.0
 10
46.130935
 20
102.837052
 30
0.0
 10
46.101655
 20
102.846930
 30
0.0
 10
46.071669
 20
102.854691
 30
0.0
 10
46.041330
 20
102.859982
 30
0.0
 10
46.010991
 20
102.863510
 30
0.0
 10
45.980652
 20
102.864216
 30
0.0
 10
45.950313
 20
102.862805
 30
0.0
 10
45.950313
 20
102.862805
 30
0.0
 10
45.876230
 20
102.850105
 30
0.0
 10
45.807438
 20
102.825057
 30
0.0
 10
45.744996
 20
102.789074
 30
0.0
 10
45.689963
 20
102.743566
 30
0.0
 10
45.643749
 20
102.689591
 30
0.0
 10
45.607413
 20
102.628207
 30
0.0
 10
45.581660
 20
102.561180
 30
0.0
 10
45.567902
 20
102.489213
 30
0.0
 10
45.567196
 20
102.414424
 30
0.0
 10
45.567196
 20
102.414424
 30
0.0
 10
45.605296
 20
102.122677
 30
0.0
 10
45.671971
 20
101.839396
 30
0.0
 10
45.766516
 20
101.565288
 30
0.0
 10
45.887166
 20
101.303174
 30
0.0
 10
46.033569
 20
101.054466
 30
0.0
 10
46.204313
 20
100.821280
 30
0.0
 10
46.397988
 20
100.605732
 30
0.0
 10
46.613535
 20
100.409235
 30
0.0
 10
46.850249
 20
100.233905
 30
0.0
 10
46.850249
 20
100.233905
 30
0.0
 10
46.876708
 20
100.217677
 30
0.0
 10
46.904224
 20
100.203919
 30
0.0
 10
46.932446
 20
100.191924
 30
0.0
 10
46.961727
 20
100.182046
 30
0.0
 10
46.991360
 20
100.174285
 30
0.0
 10
47.021699
 20
100.168994
 30
0.0
 10
47.052744
 20
100.165819
 30
0.0
 10
47.083788
 20
100.164760
 30
0.0
 10
47.115538
 20
100.166171
 30
0.0
  0
LWPOLYLINE
  5
13c
100
AcDbEntity
  8
Ebene_1
 62
1
100
AcDbPolyline
 90
61
 70
0
 10
14.797213
 20
122.474074
 30
0.0
 10
14.797213
 20
122.474074
 30
0.0
 10
14.767933
 20
122.405635
 30
0.0
 10
14.751705
 20
122.334727
 30
0.0
 10
14.748177
 20
122.263113
 30
0.0
 10
14.756291
 20
122.192557
 30
0.0
 10
14.776399
 20
122.124119
 30
0.0
 10
14.807796
 20
122.060266
 30
0.0
 10
14.849777
 20
122.002057
 30
0.0
 10
14.901988
 20
121.951257
 30
0.0
 10
14.964077
 20
121.909630
 30
0.0
 10
14.964077
 20
121.909630
 30
0.0
 10
15.229013
 20
121.781571
 30
0.0
 10
15.503121
 20
121.681735
 30
0.0
 10
15.783933
 20
121.610827
 30
0.0
 10
16.069683
 20
121.568494
 30
0.0
 10
16.357549
 20
121.555088
 30
0.0
 10
16.646121
 20
121.570610
 30
0.0
 10
16.932930
 20
121.615060
 30
0.0
 10
17.215152
 20
121.688438
 30
0.0
 10
17.491377
 20
121.791096
 30
0.0
 10
17.491377
 20
121.791096
 30
0.0
 10
17.519246
 20
121.804502
 30
0.0
 10
17.546410
 20
121.820024
 30
0.0
 10
17.571810
 20
121.837310
 30
0.0
 10
17.596152
 20
121.856360
 30
0.0
 10
17.618730
 20
121.877174
 30
0.0
 10
17.640249
 20
121.899399
 30
0.0
 10
17.659299
 20
121.923035
 30
0.0
 10
17.676938
 20
121.948082
 30
0.0
 10
17.692108
 20
121.974541
 30
0.0
 10
17.692108
 20
121.974541
 30
0.0
 10
17.722094
 20
122.043332
 30
0.0
 10
17.739027
 20
122.114594
 30
0.0
 10
17.742908
 20
122.186560
 30
0.0
 10
17.734794
 20
122.257469
 30
0.0
 10
17.714685
 20
122.325555
 30
0.0
 10
17.683641
 20
122.389760
 30
0.0
 10
17.641308
 20
122.447969
 30
0.0
 10
17.588744
 20
122.498769
 30
0.0
 10
17.526302
 20
122.540396
 30
0.0
 10
17.526302
 20
122.540396
 30
0.0
 10
17.261719
 20
122.668102
 30
0.0
 10
16.987610
 20
122.767232
 30
0.0
 10
16.706799
 20
122.837788
 30
0.0
 10
16.421049
 20
122.880121
 30
0.0
 10
16.132830
 20
122.893527
 30
0.0
 10
15.844258
 20
122.878357
 30
0.0
 10
15.557802
 20
122.834260
 30
0.0
 10
15.275227
 20
122.760882
 30
0.0
 10
14.999355
 20
122.658930
 30
0.0
 10
14.999355
 20
122.658930
 30
0.0
 10
14.971133
 20
122.645524
 30
0.0
 10
14.944674
 20
122.630355
 30
0.0
 10
14.918921
 20
122.613069
 30
0.0
 10
14.894933
 20
122.594019
 30
0.0
 10
14.872355
 20
122.573205
 30
0.0
 10
14.850835
 20
122.550627
 30
0.0
 10
14.831433
 20
122.526638
 30
0.0
 10
14.813441
 20
122.501238
 30
0.0
 10
14.797213
 20
122.474074
 30
0.0
  0
LWPOLYLINE
  5
13d
100
AcDbEntity
  8
Ebene_1
 62
1
100
AcDbPolyline
 90
61
 70
0
 10
42.930535
 20
166.465463
 30
0.0
 10
42.930535
 20
166.465463
 30
0.0
 10
42.861744
 20
166.436888
 30
0.0
 10
42.800713
 20
166.397377
 30
0.0
 10
42.748149
 20
166.348694
 30
0.0
 10
42.704758
 20
166.292249
 30
0.0
 10
42.671596
 20
166.229455
 30
0.0
 10
42.649019
 20
166.161721
 30
0.0
 10
42.638788
 20
166.090813
 30
0.0
 10
42.640905
 20
166.017788
 30
0.0
 10
42.656427
 20
165.944763
 30
0.0
 10
42.656427
 20
165.944763
 30
0.0
 10
42.756616
 20
165.668185
 30
0.0
 10
42.883263
 20
165.405719
 30
0.0
 10
43.035310
 20
165.158774
 30
0.0
 10
43.210288
 20
164.929116
 30
0.0
 10
43.407491
 20
164.718507
 30
0.0
 10
43.624802
 20
164.528360
 30
0.0
 10
43.861163
 20
164.360085
 30
0.0
 10
44.114810
 20
164.215799
 30
0.0
 10
44.384333
 20
164.096913
 30
0.0
 10
44.384333
 20
164.096913
 30
0.0
 10
44.413613
 20
164.086682
 30
0.0
 10
44.443599
 20
164.079274
 30
0.0
 10
44.473938
 20
164.073630
 30
0.0
 10
44.504983
 20
164.070455
 30
0.0
 10
44.535674
 20
164.069396
 30
0.0
 10
44.566366
 20
164.070455
 30
0.0
 10
44.596705
 20
164.074335
 30
0.0
 10
44.626691
 20
164.079980
 30
0.0
 10
44.655971
 20
164.088094
 30
0.0
 10
44.655971
 20
164.088094
 30
0.0
 10
44.725469
 20
164.116316
 30
0.0
 10
44.787205
 20
164.155827
 30
0.0
 10
44.840121
 20
164.204510
 30
0.0
 10
44.883866
 20
164.260955
 30
0.0
 10
44.917027
 20
164.323749
 30
0.0
 10
44.939605
 20
164.391482
 30
0.0
 10
44.949835
 20
164.462744
 30
0.0
 10
44.947719
 20
164.535769
 30
0.0
 10
44.931844
 20
164.609146
 30
0.0
 10
44.931844
 20
164.609146
 30
0.0
 10
44.831302
 20
164.885371
 30
0.0
 10
44.703949
 20
165.147485
 30
0.0
 10
44.552255
 20
165.394077
 30
0.0
 10
44.376924
 20
165.623735
 30
0.0
 10
44.180074
 20
165.834344
 30
0.0
 10
43.962410
 20
166.024491
 30
0.0
 10
43.726402
 20
166.192766
 30
0.0
 10
43.473108
 20
166.337757
 30
0.0
 10
43.203938
 20
166.456996
 30
0.0
 10
43.203938
 20
166.456996
 30
0.0
 10
43.174658
 20
166.466874
 30
0.0
 10
43.145024
 20
166.474635
 30
0.0
 10
43.114685
 20
166.480280
 30
0.0
 10
43.083994
 20
166.483455
 30
0.0
 10
43.053302
 20
166.484513
 30
0.0
 10
43.022610
 20
166.483102
 30
0.0
 10
42.991566
 20
166.479574
 30
0.0
 10
42.960874
 20
166.473577
 30
0.0
 10
42.930535
 20
166.465463
 30
0.0
  0
LWPOLYLINE
  5
13e
100
AcDbEntity
  8
Ebene_1
 62
1
100
AcDbPolyline
 90
61
 70
0
 10
55.621716
 20
205.493621
 30
0.0
 10
55.621716
 20
205.493621
 30
0.0
 10
55.612896
 20
205.419891
 30
0.0
 10
55.617483
 20
205.347219
 30
0.0
 10
55.634063
 20
205.277369
 30
0.0
 10
55.661933
 20
205.212105
 30
0.0
 10
55.700385
 20
205.152132
 30
0.0
 10
55.748363
 20
205.099921
 30
0.0
 10
55.805160
 20
205.055824
 30
0.0
 10
55.869719
 20
205.021957
 30
0.0
 10
55.941333
 20
204.999380
 30
0.0
 10
55.941333
 20
204.999380
 30
0.0
 10
56.231669
 20
204.951402
 30
0.0
 10
56.522358
 20
204.933057
 30
0.0
 10
56.811988
 20
204.944346
 30
0.0
 10
57.097738
 20
204.984563
 30
0.0
 10
57.378196
 20
205.053002
 30
0.0
 10
57.650541
 20
205.149310
 30
0.0
 10
57.913008
 20
205.272782
 30
0.0
 10
58.163127
 20
205.423066
 30
0.0
 10
58.398783
 20
205.599807
 30
0.0
 10
58.398783
 20
205.599807
 30
0.0
 10
58.422066
 20
205.620269
 30
0.0
 10
58.443585
 20
205.642846
 30
0.0
 10
58.462988
 20
205.666835
 30
0.0
 10
58.480980
 20
205.691882
 30
0.0
 10
58.496855
 20
205.718341
 30
0.0
 10
58.510966
 20
205.745505
 30
0.0
 10
58.522960
 20
205.773727
 30
0.0
 10
58.532485
 20
205.802655
 30
0.0
 10
58.539894
 20
205.832288
 30
0.0
 10
58.539894
 20
205.832288
 30
0.0
 10
58.549066
 20
205.906724
 30
0.0
 10
58.544833
 20
205.979749
 30
0.0
 10
58.528605
 20
206.049952
 30
0.0
 10
58.500735
 20
206.115569
 30
0.0
 10
58.462283
 20
206.175541
 30
0.0
 10
58.414305
 20
206.228105
 30
0.0
 10
58.357155
 20
206.272202
 30
0.0
 10
58.292596
 20
206.306069
 30
0.0
 10
58.220630
 20
206.328294
 30
0.0
 10
58.220630
 20
206.328294
 30
0.0
 10
57.930646
 20
206.375919
 30
0.0
 10
57.639958
 20
206.393557
 30
0.0
 10
57.350327
 20
206.382269
 30
0.0
 10
57.064577
 20
206.342052
 30
0.0
 10
56.784471
 20
206.273260
 30
0.0
 10
56.512127
 20
206.177305
 30
0.0
 10
56.249308
 20
206.054185
 30
0.0
 10
55.999188
 20
205.904255
 30
0.0
 10
55.763180
 20
205.727866
 30
0.0
 10
55.763180
 20
205.727866
 30
0.0
 10
55.740249
 20
205.707405
 30
0.0
 10
55.718730
 20
205.685180
 30
0.0
 10
55.699327
 20
205.661544
 30
0.0
 10
55.681335
 20
205.636496
 30
0.0
 10
55.665460
 20
205.610038
 30
0.0
 10
55.651349
 20
205.582521
 30
0.0
 10
55.639355
 20
205.553946
 30
0.0
 10
55.629477
 20
205.524313
 30
0.0
 10
55.621716
 20
205.493621
 30
0.0
  0
LWPOLYLINE
  5
13f
100
AcDbEntity
  8
Ebene_1
 62
1
100
AcDbPolyline
 90
61
 70
0
 10
38.769874
 20
224.557027
 30
0.0
 10
38.769874
 20
224.557027
 30
0.0
 10
38.843252
 20
224.544327
 30
0.0
 10
38.915924
 20
224.544680
 30
0.0
 10
38.986480
 20
224.557380
 30
0.0
 10
39.053508
 20
224.582074
 30
0.0
 10
39.115244
 20
224.616999
 30
0.0
 10
39.170277
 20
224.662155
 30
0.0
 10
39.217196
 20
224.716482
 30
0.0
 10
39.254591
 20
224.779277
 30
0.0
 10
39.281049
 20
224.849127
 30
0.0
 10
39.281049
 20
224.849127
 30
0.0
 10
39.344902
 20
225.136288
 30
0.0
 10
39.378769
 20
225.425919
 30
0.0
 10
39.383355
 20
225.715549
 30
0.0
 10
39.359013
 20
226.003063
 30
0.0
 10
39.306096
 20
226.286696
 30
0.0
 10
39.224605
 20
226.563980
 30
0.0
 10
39.115596
 20
226.832796
 30
0.0
 10
38.979424
 20
227.090677
 30
0.0
 10
38.816088
 20
227.335857
 30
0.0
 10
38.816088
 20
227.335857
 30
0.0
 10
38.796333
 20
227.360199
 30
0.0
 10
38.775519
 20
227.382777
 30
0.0
 10
38.752588
 20
227.403591
 30
0.0
 10
38.728246
 20
227.422994
 30
0.0
 10
38.702846
 20
227.440280
 30
0.0
 10
38.676388
 20
227.455802
 30
0.0
 10
38.648871
 20
227.469207
 30
0.0
 10
38.620649
 20
227.480496
 30
0.0
 10
38.591369
 20
227.489316
 30
0.0
 10
38.591369
 20
227.489316
 30
0.0
 10
38.517638
 20
227.502721
 30
0.0
 10
38.444260
 20
227.502369
 30
0.0
 10
38.373705
 20
227.490021
 30
0.0
 10
38.306324
 20
227.465680
 30
0.0
 10
38.244235
 20
227.430755
 30
0.0
 10
38.189202
 20
227.385599
 30
0.0
 10
38.142283
 20
227.330919
 30
0.0
 10
38.104888
 20
227.268124
 30
0.0
 10
38.078783
 20
227.197921
 30
0.0
 10
38.078783
 20
227.197921
 30
0.0
 10
38.015283
 20
226.910760
 30
0.0
 10
37.981769
 20
226.621482
 30
0.0
 10
37.977183
 20
226.331852
 30
0.0
 10
38.001877
 20
226.043985
 30
0.0
 10
38.054794
 20
225.760705
 30
0.0
 10
38.135933
 20
225.483421
 30
0.0
 10
38.244941
 20
225.214605
 30
0.0
 10
38.380760
 20
224.956371
 30
0.0
 10
38.543744
 20
224.711191
 30
0.0
 10
38.543744
 20
224.711191
 30
0.0
 10
38.563146
 20
224.686849
 30
0.0
 10
38.583960
 20
224.664624
 30
0.0
 10
38.606538
 20
224.643810
 30
0.0
 10
38.630880
 20
224.624407
 30
0.0
 10
38.656280
 20
224.607121
 30
0.0
 10
38.682738
 20
224.591599
 30
0.0
 10
38.710960
 20
224.578194
 30
0.0
 10
38.739888
 20
224.566552
 30
0.0
 10
38.769874
 20
224.557027
 30
0.0
  0
LWPOLYLINE
  5
140
100
AcDbEntity
  8
Ebene_1
 62
1
100
AcDbPolyline
 90
61
 70
0
 10
21.972008
 20
201.804624
 30
0.0
 10
21.972008
 20
201.804624
 30
0.0
 10
22.032685
 20
201.848016
 30
0.0
 10
22.083485
 20
201.899874
 30
0.0
 10
22.123702
 20
201.959141
 30
0.0
 10
22.152983
 20
202.024052
 30
0.0
 10
22.171327
 20
202.092844
 30
0.0
 10
22.177677
 20
202.163752
 30
0.0
 10
22.171680
 20
202.235366
 30
0.0
 10
22.153335
 20
202.305921
 30
0.0
 10
22.121938
 20
202.373655
 30
0.0
 10
22.121938
 20
202.373655
 30
0.0
 10
21.961777
 20
202.620246
 30
0.0
 10
21.779038
 20
202.847788
 30
0.0
 10
21.575485
 20
203.053810
 30
0.0
 10
21.353235
 20
203.237960
 30
0.0
 10
21.113699
 20
203.398827
 30
0.0
 10
20.858994
 20
203.535352
 30
0.0
 10
20.590883
 20
203.645771
 30
0.0
 10
20.311483
 20
203.729380
 30
0.0
 10
20.021852
 20
203.784413
 30
0.0
 10
20.021852
 20
203.784413
 30
0.0
 10
19.990808
 20
203.787588
 30
0.0
 10
19.959763
 20
203.788294
 30
0.0
 10
19.929071
 20
203.786882
 30
0.0
 10
19.898380
 20
203.783002
 30
0.0
 10
19.868041
 20
203.777005
 30
0.0
 10
19.838408
 20
203.768891
 30
0.0
 10
19.809833
 20
203.758660
 30
0.0
 10
19.781963
 20
203.746313
 30
0.0
 10
19.755152
 20
203.731849
 30
0.0
 10
19.755152
 20
203.731849
 30
0.0
 10
19.693769
 20
203.688457
 30
0.0
 10
19.642616
 20
203.636246
 30
0.0
 10
19.602046
 20
203.576627
 30
0.0
 10
19.572060
 20
203.511716
 30
0.0
 10
19.553716
 20
203.442924
 30
0.0
 10
19.547366
 20
203.372016
 30
0.0
 10
19.553363
 20
203.300402
 30
0.0
 10
19.571708
 20
203.229846
 30
0.0
 10
19.603810
 20
203.161760
 30
0.0
 10
19.603810
 20
203.161760
 30
0.0
 10
19.763971
 20
202.915521
 30
0.0
 10
19.947063
 20
202.688685
 30
0.0
 10
20.150616
 20
202.482663
 30
0.0
 10
20.373219
 20
202.298513
 30
0.0
 10
20.612402
 20
202.137646
 30
0.0
 10
20.867108
 20
202.001121
 30
0.0
 10
21.135219
 20
201.890349
 30
0.0
 10
21.414619
 20
201.806741
 30
0.0
 10
21.703544
 20
201.751002
 30
0.0
 10
21.703544
 20
201.751002
 30
0.0
 10
21.734588
 20
201.747827
 30
0.0
 10
21.765280
 20
201.747121
 30
0.0
 10
21.795971
 20
201.748532
 30
0.0
 10
21.826310
 20
201.752413
 30
0.0
 10
21.856649
 20
201.758410
 30
0.0
 10
21.886283
 20
201.766524
 30
0.0
 10
21.915916
 20
201.777107
 30
0.0
 10
21.944138
 20
201.789807
 30
0.0
 10
21.972008
 20
201.804624
 30
0.0
  0
LWPOLYLINE
  5
141
100
AcDbEntity
  8
Ebene_1
 62
1
100
AcDbPolyline
 90
61
 70
0
 10
-20.036065
 20
201.017930
 30
0.0
 10
-20.036065
 20
201.017930
 30
0.0
 10
-20.005020
 20
200.950196
 30
0.0
 10
-19.963745
 20
200.890577
 30
0.0
 10
-19.912945
 20
200.839777
 30
0.0
 10
-19.855090
 20
200.798502
 30
0.0
 10
-19.791237
 20
200.767457
 30
0.0
 10
-19.722798
 20
200.747702
 30
0.0
 10
-19.651537
 20
200.739588
 30
0.0
 10
-19.578512
 20
200.744174
 30
0.0
 10
-19.505840
 20
200.762166
 30
0.0
 10
-19.505840
 20
200.762166
 30
0.0
 10
-19.233142
 20
200.872232
 30
0.0
 10
-18.975262
 20
201.008405
 30
0.0
 10
-18.733962
 20
201.168566
 30
0.0
 10
-18.510654
 20
201.351657
 30
0.0
 10
-18.307101
 20
201.556269
 30
0.0
 10
-18.124715
 20
201.780282
 30
0.0
 10
-17.964906
 20
202.022288
 30
0.0
 10
-17.829792
 20
202.280874
 30
0.0
 10
-17.720431
 20
202.554277
 30
0.0
 10
-17.720431
 20
202.554277
 30
0.0
 10
-17.711259
 20
202.584263
 30
0.0
 10
-17.704909
 20
202.614602
 30
0.0
 10
-17.700323
 20
202.644941
 30
0.0
 10
-17.698206
 20
202.675632
 30
0.0
 10
-17.698206
 20
202.706677
 30
0.0
 10
-17.700676
 20
202.737369
 30
0.0
 10
-17.705262
 20
202.767707
 30
0.0
 10
-17.711965
 20
202.797341
 30
0.0
 10
-17.721137
 20
202.826269
 30
0.0
 10
-17.721137
 20
202.826269
 30
0.0
 10
-17.752181
 20
202.894707
 30
0.0
 10
-17.793456
 20
202.955032
 30
0.0
 10
-17.844256
 20
203.006185
 30
0.0
 10
-17.902112
 20
203.047813
 30
0.0
 10
-17.965965
 20
203.078857
 30
0.0
 10
-18.034404
 20
203.098966
 30
0.0
 10
-18.106017
 20
203.106727
 30
0.0
 10
-18.179042
 20
203.102141
 30
0.0
 10
-18.251715
 20
203.083796
 30
0.0
 10
-18.251715
 20
203.083796
 30
0.0
 10
-18.524059
 20
202.973377
 30
0.0
 10
-18.781587
 20
202.836852
 30
0.0
 10
-19.022887
 20
202.676338
 30
0.0
 10
-19.245842
 20
202.493246
 30
0.0
 10
-19.449395
 20
202.288988
 30
0.0
 10
-19.632134
 20
202.064974
 30
0.0
 10
-19.791942
 20
201.822969
 30
0.0
 10
-19.927409
 20
201.564735
 30
0.0
 10
-20.037476
 20
201.291685
 30
0.0
 10
-20.037476
 20
201.291685
 30
0.0
 10
-20.046295
 20
201.262052
 30
0.0
 10
-20.052998
 20
201.231713
 30
0.0
 10
-20.057231
 20
201.201374
 30
0.0
 10
-20.059701
 20
201.170682
 30
0.0
 10
-20.059348
 20
201.139991
 30
0.0
 10
-20.057231
 20
201.109299
 30
0.0
 10
-20.052292
 20
201.078607
 30
0.0
 10
-20.045237
 20
201.047916
 30
0.0
 10
-20.036065
 20
201.017930
 30
0.0
  0
LWPOLYLINE
  5
142
100
AcDbEntity
  8
Ebene_1
 62
1
100
AcDbPolyline
 90
61
 70
0
 10
-27.238023
 20
204.431055
 30
0.0
 10
-27.238023
 20
204.431055
 30
0.0
 10
-27.192867
 20
204.489969
 30
0.0
 10
-27.159706
 20
204.554880
 30
0.0
 10
-27.138540
 20
204.623319
 30
0.0
 10
-27.129367
 20
204.693874
 30
0.0
 10
-27.131837
 20
204.764782
 30
0.0
 10
-27.146654
 20
204.834632
 30
0.0
 10
-27.173112
 20
204.901307
 30
0.0
 10
-27.211212
 20
204.963396
 30
0.0
 10
-27.261306
 20
205.019135
 30
0.0
 10
-27.261306
 20
205.019135
 30
0.0
 10
-27.486731
 20
205.208224
 30
0.0
 10
-27.727679
 20
205.371913
 30
0.0
 10
-27.982737
 20
205.509849
 30
0.0
 10
-28.249084
 20
205.620974
 30
0.0
 10
-28.524956
 20
205.704935
 30
0.0
 10
-28.808590
 20
205.760674
 30
0.0
 10
-29.097162
 20
205.788191
 30
0.0
 10
-29.389262
 20
205.786074
 30
0.0
 10
-29.682067
 20
205.754324
 30
0.0
 10
-29.682067
 20
205.754324
 30
0.0
 10
-29.712406
 20
205.747974
 30
0.0
 10
-29.742392
 20
205.739860
 30
0.0
 10
-29.771320
 20
205.729277
 30
0.0
 10
-29.799542
 20
205.716930
 30
0.0
 10
-29.826706
 20
205.702113
 30
0.0
 10
-29.852812
 20
205.685885
 30
0.0
 10
-29.877506
 20
205.667541
 30
0.0
 10
-29.900437
 20
205.647432
 30
0.0
 10
-29.921604
 20
205.625913
 30
0.0
 10
-29.921604
 20
205.625913
 30
0.0
 10
-29.967817
 20
205.566646
 30
0.0
 10
-30.001331
 20
205.501382
 30
0.0
 10
-30.022851
 20
205.432944
 30
0.0
 10
-30.032376
 20
205.362035
 30
0.0
 10
-30.029906
 20
205.291127
 30
0.0
 10
-30.015090
 20
205.221277
 30
0.0
 10
-29.988631
 20
205.154602
 30
0.0
 10
-29.950179
 20
205.092160
 30
0.0
 10
-29.899731
 20
205.036421
 30
0.0
 10
-29.899731
 20
205.036421
 30
0.0
 10
-29.674659
 20
204.847685
 30
0.0
 10
-29.433359
 20
204.684702
 30
0.0
 10
-29.178301
 20
204.547119
 30
0.0
 10
-28.911954
 20
204.435994
 30
0.0
 10
-28.635729
 20
204.352032
 30
0.0
 10
-28.352448
 20
204.295941
 30
0.0
 10
-28.063523
 20
204.268424
 30
0.0
 10
-27.771776
 20
204.270188
 30
0.0
 10
-27.479323
 20
204.301232
 30
0.0
 10
-27.479323
 20
204.301232
 30
0.0
 10
-27.448631
 20
204.307230
 30
0.0
 10
-27.418998
 20
204.315696
 30
0.0
 10
-27.390070
 20
204.326280
 30
0.0
 10
-27.362201
 20
204.338627
 30
0.0
 10
-27.335037
 20
204.353091
 30
0.0
 10
-27.308931
 20
204.369671
 30
0.0
 10
-27.284237
 20
204.388369
 30
0.0
 10
-27.260248
 20
204.408830
 30
0.0
 10
-27.238023
 20
204.431055
 30
0.0
  0
LWPOLYLINE
  5
143
100
AcDbEntity
  8
Ebene_1
 62
1
100
AcDbPolyline
 90
61
 70
0
 10
-25.195792
 20
161.081369
 30
0.0
 10
-25.195792
 20
161.081369
 30
0.0
 10
-25.185562
 20
161.155099
 30
0.0
 10
-25.188737
 20
161.227771
 30
0.0
 10
-25.203906
 20
161.297621
 30
0.0
 10
-25.231070
 20
161.363591
 30
0.0
 10
-25.268112
 20
161.424269
 30
0.0
 10
-25.315384
 20
161.477538
 30
0.0
 10
-25.371123
 20
161.522694
 30
0.0
 10
-25.434976
 20
161.557619
 30
0.0
 10
-25.506237
 20
161.581607
 30
0.0
 10
-25.506237
 20
161.581607
 30
0.0
 10
-25.795515
 20
161.634877
 30
0.0
 10
-26.085851
 20
161.658866
 30
0.0
 10
-26.375834
 20
161.652869
 30
0.0
 10
-26.662290
 20
161.618296
 30
0.0
 10
-26.943806
 20
161.555149
 30
0.0
 10
-27.217915
 20
161.463780
 30
0.0
 10
-27.482498
 20
161.345246
 30
0.0
 10
-27.735440
 20
161.199902
 30
0.0
 10
-27.974623
 20
161.027746
 30
0.0
 10
-27.974623
 20
161.027746
 30
0.0
 10
-27.998259
 20
161.007285
 30
0.0
 10
-28.019779
 20
160.985413
 30
0.0
 10
-28.040240
 20
160.961777
 30
0.0
 10
-28.058584
 20
160.937082
 30
0.0
 10
-28.074812
 20
160.910977
 30
0.0
 10
-28.089276
 20
160.884166
 30
0.0
 10
-28.101623
 20
160.855944
 30
0.0
 10
-28.111854
 20
160.827369
 30
0.0
 10
-28.119967
 20
160.797735
 30
0.0
 10
-28.119967
 20
160.797735
 30
0.0
 10
-28.130551
 20
160.723652
 30
0.0
 10
-28.127729
 20
160.650274
 30
0.0
 10
-28.112912
 20
160.580071
 30
0.0
 10
-28.086101
 20
160.513749
 30
0.0
 10
-28.048706
 20
160.453071
 30
0.0
 10
-28.001787
 20
160.399802
 30
0.0
 10
-27.945695
 20
160.354646
 30
0.0
 10
-27.881490
 20
160.319721
 30
0.0
 10
-27.810229
 20
160.295732
 30
0.0
 10
-27.810229
 20
160.295732
 30
0.0
 10
-27.521304
 20
160.242816
 30
0.0
 10
-27.230615
 20
160.219532
 30
0.0
 10
-26.941337
 20
160.225882
 30
0.0
 10
-26.654529
 20
160.260455
 30
0.0
 10
-26.373012
 20
160.323602
 30
0.0
 10
-26.098904
 20
160.414619
 30
0.0
 10
-25.833967
 20
160.532799
 30
0.0
 10
-25.581026
 20
160.678144
 30
0.0
 10
-25.341842
 20
160.849594
 30
0.0
 10
-25.341842
 20
160.849594
 30
0.0
 10
-25.318206
 20
160.870055
 30
0.0
 10
-25.296687
 20
160.891574
 30
0.0
 10
-25.276579
 20
160.915210
 30
0.0
 10
-25.258234
 20
160.939905
 30
0.0
 10
-25.241654
 20
160.966010
 30
0.0
 10
-25.227190
 20
160.993174
 30
0.0
 10
-25.214842
 20
161.021396
 30
0.0
 10
-25.204259
 20
161.051030
 30
0.0
 10
-25.195792
 20
161.081369
 30
0.0
  0
LWPOLYLINE
  5
144
100
AcDbEntity
  8
Ebene_1
 62
1
100
AcDbPolyline
 90
61
 70
0
 10
-58.702626
 20
124.397419
 30
0.0
 10
-58.702626
 20
124.397419
 30
0.0
 10
-58.631012
 20
124.377310
 30
0.0
 10
-58.558692
 20
124.369902
 30
0.0
 10
-58.487431
 20
124.375194
 30
0.0
 10
-58.418287
 20
124.392480
 30
0.0
 10
-58.353023
 20
124.420702
 30
0.0
 10
-58.293404
 20
124.459860
 30
0.0
 10
-58.241192
 20
124.508896
 30
0.0
 10
-58.197448
 20
124.567105
 30
0.0
 10
-58.163581
 20
124.634132
 30
0.0
 10
-58.163581
 20
124.634132
 30
0.0
 10
-58.069742
 20
124.912827
 30
0.0
 10
-58.005537
 20
125.197166
 30
0.0
 10
-57.970259
 20
125.484680
 30
0.0
 10
-57.964262
 20
125.773605
 30
0.0
 10
-57.986840
 20
126.061119
 30
0.0
 10
-58.038345
 20
126.345457
 30
0.0
 10
-58.118426
 20
126.624152
 30
0.0
 10
-58.227081
 20
126.895085
 30
0.0
 10
-58.363606
 20
127.156141
 30
0.0
 10
-58.363606
 20
127.156141
 30
0.0
 10
-58.380187
 20
127.182246
 30
0.0
 10
-58.398884
 20
127.206941
 30
0.0
 10
-58.419345
 20
127.230224
 30
0.0
 10
-58.441217
 20
127.251744
 30
0.0
 10
-58.464854
 20
127.271852
 30
0.0
 10
-58.489548
 20
127.290196
 30
0.0
 10
-58.515654
 20
127.306424
 30
0.0
 10
-58.542465
 20
127.320535
 30
0.0
 10
-58.570334
 20
127.332530
 30
0.0
 10
-58.570334
 20
127.332530
 30
0.0
 10
-58.642654
 20
127.353344
 30
0.0
 10
-58.715326
 20
127.361105
 30
0.0
 10
-58.787292
 20
127.356166
 30
0.0
 10
-58.856437
 20
127.338880
 30
0.0
 10
-58.921701
 20
127.310657
 30
0.0
 10
-58.981320
 20
127.271499
 30
0.0
 10
-59.033884
 20
127.222463
 30
0.0
 10
-59.077629
 20
127.163902
 30
0.0
 10
-59.111142
 20
127.096874
 30
0.0
 10
-59.111142
 20
127.096874
 30
0.0
 10
-59.204629
 20
126.817827
 30
0.0
 10
-59.268481
 20
126.533841
 30
0.0
 10
-59.303406
 20
126.246327
 30
0.0
 10
-59.309404
 20
125.957402
 30
0.0
 10
-59.286826
 20
125.669888
 30
0.0
 10
-59.235320
 20
125.385549
 30
0.0
 10
-59.155592
 20
125.106855
 30
0.0
 10
-59.047642
 20
124.835921
 30
0.0
 10
-58.911470
 20
124.574866
 30
0.0
 10
-58.911470
 20
124.574866
 30
0.0
 10
-58.894890
 20
124.548760
 30
0.0
 10
-58.876192
 20
124.524066
 30
0.0
 10
-58.855731
 20
124.500782
 30
0.0
 10
-58.833859
 20
124.479263
 30
0.0
 10
-58.810576
 20
124.459507
 30
0.0
 10
-58.785529
 20
124.441163
 30
0.0
 10
-58.759423
 20
124.424935
 30
0.0
 10
-58.731554
 20
124.410119
 30
0.0
 10
-58.702626
 20
124.397419
 30
0.0
  0
LWPOLYLINE
  5
145
100
AcDbEntity
  8
Ebene_1
 62
1
100
AcDbPolyline
 90
61
 70
0
 10
-87.361693
 20
105.603888
 30
0.0
 10
-87.361693
 20
105.603888
 30
0.0
 10
-87.341161
 20
105.675502
 30
0.0
 10
-87.334000
 20
105.747821
 30
0.0
 10
-87.339256
 20
105.819435
 30
0.0
 10
-87.356472
 20
105.888227
 30
0.0
 10
-87.384870
 20
105.953491
 30
0.0
 10
-87.423993
 20
106.013110
 30
0.0
 10
-87.472924
 20
106.065674
 30
0.0
 10
-87.531202
 20
106.109419
 30
0.0
 10
-87.598195
 20
106.142932
 30
0.0
 10
-87.598195
 20
106.142932
 30
0.0
 10
-87.876960
 20
106.236771
 30
0.0
 10
-88.161228
 20
106.301330
 30
0.0
 10
-88.448848
 20
106.336255
 30
0.0
 10
-88.737526
 20
106.342252
 30
0.0
 10
-89.025146
 20
106.319674
 30
0.0
 10
-89.309414
 20
106.268169
 30
0.0
 10
-89.588214
 20
106.188088
 30
0.0
 10
-89.859112
 20
106.079785
 30
0.0
 10
-90.120133
 20
105.943260
 30
0.0
 10
-90.120133
 20
105.943260
 30
0.0
 10
-90.146309
 20
105.926327
 30
0.0
 10
-90.170968
 20
105.907630
 30
0.0
 10
-90.194251
 20
105.887169
 30
0.0
 10
-90.215912
 20
105.865296
 30
0.0
 10
-90.235879
 20
105.841660
 30
0.0
 10
-90.254082
 20
105.816966
 30
0.0
 10
-90.270346
 20
105.790860
 30
0.0
 10
-90.284527
 20
105.764049
 30
0.0
 10
-90.296381
 20
105.736180
 30
0.0
 10
-90.296381
 20
105.736180
 30
0.0
 10
-90.317477
 20
105.663860
 30
0.0
 10
-90.325026
 20
105.591188
 30
0.0
 10
-90.320087
 20
105.519574
 30
0.0
 10
-90.303119
 20
105.450077
 30
0.0
 10
-90.274755
 20
105.384813
 30
0.0
 10
-90.235597
 20
105.325194
 30
0.0
 10
-90.186561
 20
105.272630
 30
0.0
 10
-90.127964
 20
105.228885
 30
0.0
 10
-90.060725
 20
105.195371
 30
0.0
 10
-90.060725
 20
105.195371
 30
0.0
 10
-89.782101
 20
105.102238
 30
0.0
 10
-89.497797
 20
105.038032
 30
0.0
 10
-89.210354
 20
105.003107
 30
0.0
 10
-88.921641
 20
104.997110
 30
0.0
 10
-88.634056
 20
105.020041
 30
0.0
 10
-88.349753
 20
105.071194
 30
0.0
 10
-88.070988
 20
105.150921
 30
0.0
 10
-87.799913
 20
105.259224
 30
0.0
 10
-87.538787
 20
105.395044
 30
0.0
 10
-87.538787
 20
105.395044
 30
0.0
 10
-87.512752
 20
105.411977
 30
0.0
 10
-87.488058
 20
105.430321
 30
0.0
 10
-87.464916
 20
105.450782
 30
0.0
 10
-87.443431
 20
105.472655
 30
0.0
 10
-87.423429
 20
105.495938
 30
0.0
 10
-87.405261
 20
105.520985
 30
0.0
 10
-87.388857
 20
105.547091
 30
0.0
 10
-87.374252
 20
105.574960
 30
0.0
 10
-87.361693
 20
105.603888
 30
0.0
  0
LWPOLYLINE
  5
146
100
AcDbEntity
  8
Ebene_1
 62
1
100
AcDbPolyline
 90
61
 70
0
 10
-57.324323
 20
102.020724
 30
0.0
 10
-57.324323
 20
102.020724
 30
0.0
 10
-57.397348
 20
102.034835
 30
0.0
 10
-57.470020
 20
102.035894
 30
0.0
 10
-57.540576
 20
102.024605
 30
0.0
 10
-57.607956
 20
102.001674
 30
0.0
 10
-57.670398
 20
101.967807
 30
0.0
 10
-57.726490
 20
101.924063
 30
0.0
 10
-57.774820
 20
101.870794
 30
0.0
 10
-57.813273
 20
101.809057
 30
0.0
 10
-57.841142
 20
101.739560
 30
0.0
 10
-57.841142
 20
101.739560
 30
0.0
 10
-57.911345
 20
101.453810
 30
0.0
 10
-57.951562
 20
101.165238
 30
0.0
 10
-57.962145
 20
100.875607
 30
0.0
 10
-57.944154
 20
100.587388
 30
0.0
 10
-57.896881
 20
100.302696
 30
0.0
 10
-57.821740
 20
100.023649
 30
0.0
 10
-57.718729
 20
99.752716
 30
0.0
 10
-57.587848
 20
99.492013
 30
0.0
 10
-57.429451
 20
99.243305
 30
0.0
 10
-57.429451
 20
99.243305
 30
0.0
 10
-57.410754
 20
99.218610
 30
0.0
 10
-57.389940
 20
99.195680
 30
0.0
 10
-57.367715
 20
99.174160
 30
0.0
 10
-57.343726
 20
99.154405
 30
0.0
 10
-57.318679
 20
99.136413
 30
0.0
 10
-57.292573
 20
99.120538
 30
0.0
 10
-57.265409
 20
99.106427
 30
0.0
 10
-57.237187
 20
99.094785
 30
0.0
 10
-57.208612
 20
99.084907
 30
0.0
 10
-57.208612
 20
99.084907
 30
0.0
 10
-57.134881
 20
99.070091
 30
0.0
 10
-57.061504
 20
99.068680
 30
0.0
 10
-56.990595
 20
99.079616
 30
0.0
 10
-56.922862
 20
99.102546
 30
0.0
 10
-56.860067
 20
99.136413
 30
0.0
 10
-56.803976
 20
99.180157
 30
0.0
 10
-56.755998
 20
99.233780
 30
0.0
 10
-56.717192
 20
99.295516
 30
0.0
 10
-56.689323
 20
99.365366
 30
0.0
 10
-56.689323
 20
99.365366
 30
0.0
 10
-56.620179
 20
99.651116
 30
0.0
 10
-56.580315
 20
99.939688
 30
0.0
 10
-56.569731
 20
100.228966
 30
0.0
 10
-56.588076
 20
100.517185
 30
0.0
 10
-56.634995
 20
100.801877
 30
0.0
 10
-56.710137
 20
101.080924
 30
0.0
 10
-56.813148
 20
101.351857
 30
0.0
 10
-56.943676
 20
101.612913
 30
0.0
 10
-57.101015
 20
101.861621
 30
0.0
 10
-57.101015
 20
101.861621
 30
0.0
 10
-57.120065
 20
101.886316
 30
0.0
 10
-57.140526
 20
101.909246
 30
0.0
 10
-57.162751
 20
101.930413
 30
0.0
 10
-57.186387
 20
101.950169
 30
0.0
 10
-57.211434
 20
101.968160
 30
0.0
 10
-57.237892
 20
101.984035
 30
0.0
 10
-57.265409
 20
101.998146
 30
0.0
 10
-57.294337
 20
102.010494
 30
0.0
 10
-57.324323
 20
102.020724
 30
0.0
  0
LWPOLYLINE
  5
147
100
AcDbEntity
  8
Ebene_1
 62
1
100
AcDbPolyline
 90
61
 70
0
 10
-48.635406
 20
77.094857
 30
0.0
 10
-48.635406
 20
77.094857
 30
0.0
 10
-48.564851
 20
77.118494
 30
0.0
 10
-48.500998
 20
77.153419
 30
0.0
 10
-48.444906
 20
77.198221
 30
0.0
 10
-48.397634
 20
77.251491
 30
0.0
 10
-48.359887
 20
77.311816
 30
0.0
 10
-48.333076
 20
77.377432
 30
0.0
 10
-48.317201
 20
77.447635
 30
0.0
 10
-48.314026
 20
77.520307
 30
0.0
 10
-48.324256
 20
77.594391
 30
0.0
 10
-48.324256
 20
77.594391
 30
0.0
 10
-48.403984
 20
77.877671
 30
0.0
 10
-48.511581
 20
78.148605
 30
0.0
 10
-48.644931
 20
78.405780
 30
0.0
 10
-48.802976
 20
78.647785
 30
0.0
 10
-48.984304
 20
78.872152
 30
0.0
 10
-49.187151
 20
79.077469
 30
0.0
 10
-49.410812
 20
79.262324
 30
0.0
 10
-49.653170
 20
79.424955
 30
0.0
 10
-49.913167
 20
79.563244
 30
0.0
 10
-49.913167
 20
79.563244
 30
0.0
 10
-49.941742
 20
79.575238
 30
0.0
 10
-49.971376
 20
79.585116
 30
0.0
 10
-50.001009
 20
79.592877
 30
0.0
 10
-50.031701
 20
79.598169
 30
0.0
 10
-50.062040
 20
79.601696
 30
0.0
 10
-50.093084
 20
79.602402
 30
0.0
 10
-50.123423
 20
79.600991
 30
0.0
 10
-50.153762
 20
79.597463
 30
0.0
 10
-50.183748
 20
79.591819
 30
0.0
 10
-50.183748
 20
79.591819
 30
0.0
 10
-50.255009
 20
79.568182
 30
0.0
 10
-50.319567
 20
79.533610
 30
0.0
 10
-50.376012
 20
79.488807
 30
0.0
 10
-50.423284
 20
79.435538
 30
0.0
 10
-50.461384
 20
79.375566
 30
0.0
 10
-50.488548
 20
79.309596
 30
0.0
 10
-50.504070
 20
79.239394
 30
0.0
 10
-50.506892
 20
79.166369
 30
0.0
 10
-50.496662
 20
79.091932
 30
0.0
 10
-50.496662
 20
79.091932
 30
0.0
 10
-50.416229
 20
78.809005
 30
0.0
 10
-50.308631
 20
78.538424
 30
0.0
 10
-50.174929
 20
78.281249
 30
0.0
 10
-50.016884
 20
78.039949
 30
0.0
 10
-49.835909
 20
77.815230
 30
0.0
 10
-49.633062
 20
77.609560
 30
0.0
 10
-49.409401
 20
77.424705
 30
0.0
 10
-49.167395
 20
77.262074
 30
0.0
 10
-48.907751
 20
77.123432
 30
0.0
 10
-48.907751
 20
77.123432
 30
0.0
 10
-48.879176
 20
77.111438
 30
0.0
 10
-48.849895
 20
77.101207
 30
0.0
 10
-48.820262
 20
77.093799
 30
0.0
 10
-48.789923
 20
77.088507
 30
0.0
 10
-48.759231
 20
77.084980
 30
0.0
 10
-48.728540
 20
77.084274
 30
0.0
 10
-48.697495
 20
77.085685
 30
0.0
 10
-48.666451
 20
77.089213
 30
0.0
 10
-48.635406
 20
77.094857
 30
0.0
  0
LWPOLYLINE
  5
148
100
AcDbEntity
  8
Ebene_1
 62
1
100
AcDbPolyline
 90
61
 70
0
 10
-65.732429
 20
49.250107
 30
0.0
 10
-65.732429
 20
49.250107
 30
0.0
 10
-65.702266
 20
49.318194
 30
0.0
 10
-65.685015
 20
49.388749
 30
0.0
 10
-65.680464
 20
49.460010
 30
0.0
 10
-65.687908
 20
49.530919
 30
0.0
 10
-65.707064
 20
49.599357
 30
0.0
 10
-65.737544
 20
49.663916
 30
0.0
 10
-65.778748
 20
49.722477
 30
0.0
 10
-65.830395
 20
49.773982
 30
0.0
 10
-65.892025
 20
49.816316
 30
0.0
 10
-65.892025
 20
49.816316
 30
0.0
 10
-66.155092
 20
49.948255
 30
0.0
 10
-66.427789
 20
50.051266
 30
0.0
 10
-66.707683
 20
50.126055
 30
0.0
 10
-66.992798
 20
50.171916
 30
0.0
 10
-67.280806
 20
50.189202
 30
0.0
 10
-67.569484
 20
50.177560
 30
0.0
 10
-67.856539
 20
50.136991
 30
0.0
 10
-68.139996
 20
50.067141
 30
0.0
 10
-68.417420
 20
49.968010
 30
0.0
 10
-68.417420
 20
49.968010
 30
0.0
 10
-68.445501
 20
49.954957
 30
0.0
 10
-68.472665
 20
49.939788
 30
0.0
 10
-68.498559
 20
49.922855
 30
0.0
 10
-68.523112
 20
49.904157
 30
0.0
 10
-68.546114
 20
49.883696
 30
0.0
 10
-68.567457
 20
49.861824
 30
0.0
 10
-68.587177
 20
49.838188
 30
0.0
 10
-68.604957
 20
49.813494
 30
0.0
 10
-68.620656
 20
49.787388
 30
0.0
 10
-68.620656
 20
49.787388
 30
0.0
 10
-68.651382
 20
49.718949
 30
0.0
 10
-68.669162
 20
49.648041
 30
0.0
 10
-68.674137
 20
49.576074
 30
0.0
 10
-68.666834
 20
49.505166
 30
0.0
 10
-68.647819
 20
49.436727
 30
0.0
 10
-68.617339
 20
49.372169
 30
0.0
 10
-68.576029
 20
49.313255
 30
0.0
 10
-68.524065
 20
49.261749
 30
0.0
 10
-68.462047
 20
49.219416
 30
0.0
 10
-68.462047
 20
49.219416
 30
0.0
 10
-68.199121
 20
49.088182
 30
0.0
 10
-67.926424
 20
48.985524
 30
0.0
 10
-67.646530
 20
48.911088
 30
0.0
 10
-67.361415
 20
48.865227
 30
0.0
 10
-67.073407
 20
48.847941
 30
0.0
 10
-66.784835
 20
48.859582
 30
0.0
 10
-66.497674
 20
48.899799
 30
0.0
 10
-66.214182
 20
48.969296
 30
0.0
 10
-65.936793
 20
49.067721
 30
0.0
 10
-65.936793
 20
49.067721
 30
0.0
 10
-65.908676
 20
49.080774
 30
0.0
 10
-65.881689
 20
49.095591
 30
0.0
 10
-65.856042
 20
49.112524
 30
0.0
 10
-65.831665
 20
49.131221
 30
0.0
 10
-65.808629
 20
49.151682
 30
0.0
 10
-65.787144
 20
49.173907
 30
0.0
 10
-65.767283
 20
49.197896
 30
0.0
 10
-65.748974
 20
49.222944
 30
0.0
 10
-65.732429
 20
49.250107
 30
0.0
  0
LWPOLYLINE
  5
149
100
AcDbEntity
  8
Ebene_1
 62
1
100
AcDbPolyline
 90
61
 70
0
 10
-54.996342
 20
32.747869
 30
0.0
 10
-54.996342
 20
32.747869
 30
0.0
 10
-55.024212
 20
32.817013
 30
0.0
 10
-55.062665
 20
32.878396
 30
0.0
 10
-55.110642
 20
32.931666
 30
0.0
 10
-55.166734
 20
32.975763
 30
0.0
 10
-55.229176
 20
33.009630
 30
0.0
 10
-55.296556
 20
33.032913
 30
0.0
 10
-55.367465
 20
33.044202
 30
0.0
 10
-55.440137
 20
33.043144
 30
0.0
 10
-55.513867
 20
33.028327
 30
0.0
 10
-55.513867
 20
33.028327
 30
0.0
 10
-55.791504
 20
32.931666
 30
0.0
 10
-56.055381
 20
32.808194
 30
0.0
 10
-56.304090
 20
32.659321
 30
0.0
 10
-56.535865
 20
32.487166
 30
0.0
 10
-56.749295
 20
32.292785
 30
0.0
 10
-56.941912
 20
32.077591
 30
0.0
 10
-57.113009
 20
31.843699
 30
0.0
 10
-57.260470
 20
31.591816
 30
0.0
 10
-57.382884
 20
31.323705
 30
0.0
 10
-57.382884
 20
31.323705
 30
0.0
 10
-57.393115
 20
31.294424
 30
0.0
 10
-57.401229
 20
31.264438
 30
0.0
 10
-57.407226
 20
31.234099
 30
0.0
 10
-57.410754
 20
31.203407
 30
0.0
 10
-57.412165
 20
31.172716
 30
0.0
 10
-57.411459
 20
31.142024
 30
0.0
 10
-57.408284
 20
31.111332
 30
0.0
 10
-57.402992
 20
31.081346
 30
0.0
 10
-57.395231
 20
31.052066
 30
0.0
 10
-57.395231
 20
31.052066
 30
0.0
 10
-57.367362
 20
30.982216
 30
0.0
 10
-57.328909
 20
30.920127
 30
0.0
 10
-57.280931
 20
30.866505
 30
0.0
 10
-57.224840
 20
30.822055
 30
0.0
 10
-57.162398
 20
30.787835
 30
0.0
 10
-57.095017
 20
30.764905
 30
0.0
 10
-57.024109
 20
30.753616
 30
0.0
 10
-56.951084
 20
30.754674
 30
0.0
 10
-56.877354
 20
30.769491
 30
0.0
 10
-56.877354
 20
30.769491
 30
0.0
 10
-56.600070
 20
30.866857
 30
0.0
 10
-56.336192
 20
30.990682
 30
0.0
 10
-56.087837
 20
31.139555
 30
0.0
 10
-55.856062
 20
31.311710
 30
0.0
 10
-55.642984
 20
31.506091
 30
0.0
 10
-55.450015
 20
31.721285
 30
0.0
 10
-55.278917
 20
31.955177
 30
0.0
 10
-55.130751
 20
32.206707
 30
0.0
 10
-55.007984
 20
32.474113
 30
0.0
 10
-55.007984
 20
32.474113
 30
0.0
 10
-54.997754
 20
32.503394
 30
0.0
 10
-54.989640
 20
32.533380
 30
0.0
 10
-54.983995
 20
32.563366
 30
0.0
 10
-54.980115
 20
32.594057
 30
0.0
 10
-54.979056
 20
32.624749
 30
0.0
 10
-54.979762
 20
32.655794
 30
0.0
 10
-54.982937
 20
32.686485
 30
0.0
 10
-54.988581
 20
32.717177
 30
0.0
 10
-54.996342
 20
32.747869
 30
0.0
  0
LWPOLYLINE
  5
14a
100
AcDbEntity
  8
Ebene_1
 62
1
100
AcDbPolyline
 90
61
 70
0
 10
-26.050573
 20
36.633363
 30
0.0
 10
-26.050573
 20
36.633363
 30
0.0
 10
-26.123598
 20
36.618546
 30
0.0
 10
-26.190979
 20
36.591382
 30
0.0
 10
-26.252009
 20
36.553635
 30
0.0
 10
-26.305279
 20
36.506716
 30
0.0
 10
-26.349729
 20
36.451330
 30
0.0
 10
-26.384654
 20
36.388888
 30
0.0
 10
-26.408290
 20
36.321507
 30
0.0
 10
-26.420284
 20
36.249541
 30
0.0
 10
-26.419226
 20
36.174399
 30
0.0
 10
-26.419226
 20
36.174399
 30
0.0
 10
-26.373365
 20
35.884063
 30
0.0
 10
-26.299281
 20
35.602194
 30
0.0
 10
-26.197329
 20
35.330907
 30
0.0
 10
-26.069623
 20
35.071969
 30
0.0
 10
-25.916165
 20
34.827494
 30
0.0
 10
-25.739070
 20
34.599246
 30
0.0
 10
-25.539398
 20
34.388991
 30
0.0
 10
-25.317854
 20
34.198844
 30
0.0
 10
-25.076201
 20
34.030569
 30
0.0
 10
-25.076201
 20
34.030569
 30
0.0
 10
-25.049390
 20
34.015046
 30
0.0
 10
-25.021167
 20
34.001994
 30
0.0
 10
-24.992240
 20
33.990705
 30
0.0
 10
-24.962959
 20
33.981532
 30
0.0
 10
-24.932973
 20
33.974830
 30
0.0
 10
-24.902281
 20
33.969891
 30
0.0
 10
-24.871942
 20
33.967774
 30
0.0
 10
-24.841604
 20
33.967774
 30
0.0
 10
-24.811265
 20
33.969891
 30
0.0
 10
-24.811265
 20
33.969891
 30
0.0
 10
-24.737534
 20
33.984707
 30
0.0
 10
-24.669448
 20
34.011519
 30
0.0
 10
-24.608065
 20
34.049266
 30
0.0
 10
-24.554442
 20
34.096185
 30
0.0
 10
-24.509640
 20
34.151571
 30
0.0
 10
-24.475067
 20
34.213660
 30
0.0
 10
-24.451079
 20
34.281746
 30
0.0
 10
-24.439084
 20
34.353713
 30
0.0
 10
-24.440495
 20
34.428855
 30
0.0
 10
-24.440495
 20
34.428855
 30
0.0
 10
-24.486709
 20
34.719191
 30
0.0
 10
-24.561498
 20
35.000707
 30
0.0
 10
-24.663451
 20
35.271994
 30
0.0
 10
-24.791509
 20
35.530580
 30
0.0
 10
-24.944615
 20
35.775055
 30
0.0
 10
-25.121709
 20
36.003302
 30
0.0
 10
-25.321029
 20
36.213557
 30
0.0
 10
-25.542220
 20
36.404057
 30
0.0
 10
-25.783520
 20
36.572685
 30
0.0
 10
-25.783520
 20
36.572685
 30
0.0
 10
-25.810684
 20
36.588207
 30
0.0
 10
-25.838201
 20
36.601613
 30
0.0
 10
-25.867129
 20
36.612549
 30
0.0
 10
-25.896409
 20
36.621721
 30
0.0
 10
-25.926395
 20
36.628424
 30
0.0
 10
-25.956734
 20
36.633010
 30
0.0
 10
-25.987779
 20
36.635480
 30
0.0
 10
-26.019176
 20
36.635480
 30
0.0
 10
-26.050573
 20
36.633363
 30
0.0
  0
LWPOLYLINE
  5
14b
100
AcDbEntity
  8
Ebene_1
 62
1
100
AcDbPolyline
 90
61
 70
0
 10
-11.534473
 20
53.877494
 30
0.0
 10
-11.534473
 20
53.877494
 30
0.0
 10
-11.514717
 20
53.805880
 30
0.0
 10
-11.483320
 20
53.740263
 30
0.0
 10
-11.441340
 20
53.682055
 30
0.0
 10
-11.390892
 20
53.631960
 30
0.0
 10
-11.332684
 20
53.591391
 30
0.0
 10
-11.268126
 20
53.561052
 30
0.0
 10
-11.198981
 20
53.541649
 30
0.0
 10
-11.126309
 20
53.534594
 30
0.0
 10
-11.051873
 20
53.540944
 30
0.0
 10
-11.051873
 20
53.540944
 30
0.0
 10
-10.765065
 20
53.606207
 30
0.0
 10
-10.488840
 20
53.699341
 30
0.0
 10
-10.224962
 20
53.819285
 30
0.0
 10
-9.975548
 20
53.964630
 30
0.0
 10
-9.742009
 20
54.133963
 30
0.0
 10
-9.526109
 20
54.325874
 30
0.0
 10
-9.329965
 20
54.539657
 30
0.0
 10
-9.155340
 20
54.773549
 30
0.0
 10
-9.003645
 20
55.026138
 30
0.0
 10
-9.003645
 20
55.026138
 30
0.0
 10
-8.990240
 20
55.054007
 30
0.0
 10
-8.978598
 20
55.082935
 30
0.0
 10
-8.969426
 20
55.112216
 30
0.0
 10
-8.962370
 20
55.142555
 30
0.0
 10
-8.957784
 20
55.172894
 30
0.0
 10
-8.954962
 20
55.203585
 30
0.0
 10
-8.954609
 20
55.234277
 30
0.0
 10
-8.956726
 20
55.264263
 30
0.0
 10
-8.960959
 20
55.294602
 30
0.0
 10
-8.960959
 20
55.294602
 30
0.0
 10
-8.980715
 20
55.366921
 30
0.0
 10
-9.012112
 20
55.433244
 30
0.0
 10
-9.054092
 20
55.491805
 30
0.0
 10
-9.104540
 20
55.542252
 30
0.0
 10
-9.162748
 20
55.583174
 30
0.0
 10
-9.227306
 20
55.613513
 30
0.0
 10
-9.296451
 20
55.632916
 30
0.0
 10
-9.369123
 20
55.639619
 30
0.0
 10
-9.444265
 20
55.633269
 30
0.0
 10
-9.444265
 20
55.633269
 30
0.0
 10
-9.730720
 20
55.567299
 30
0.0
 10
-10.006592
 20
55.474166
 30
0.0
 10
-10.270117
 20
55.353869
 30
0.0
 10
-10.519531
 20
55.208524
 30
0.0
 10
-10.753070
 20
55.039191
 30
0.0
 10
-10.968970
 20
54.847280
 30
0.0
 10
-11.165115
 20
54.633849
 30
0.0
 10
-11.340445
 20
54.400310
 30
0.0
 10
-11.492140
 20
54.148074
 30
0.0
 10
-11.492140
 20
54.148074
 30
0.0
 10
-11.505898
 20
54.120205
 30
0.0
 10
-11.517187
 20
54.091630
 30
0.0
 10
-11.526359
 20
54.062349
 30
0.0
 10
-11.533415
 20
54.032363
 30
0.0
 10
-11.538001
 20
54.002024
 30
0.0
 10
-11.540823
 20
53.970980
 30
0.0
 10
-11.540823
 20
53.940288
 30
0.0
 10
-11.538706
 20
53.908891
 30
0.0
 10
-11.534473
 20
53.877494
 30
0.0
  0
LWPOLYLINE
  5
14c
100
AcDbEntity
  8
Ebene_1
 62
1
100
AcDbPolyline
 90
61
 70
0
 10
12.432544
 20
81.194135
 30
0.0
 10
12.432544
 20
81.194135
 30
0.0
 10
12.362694
 20
81.220241
 30
0.0
 10
12.291433
 20
81.232941
 30
0.0
 10
12.219466
 20
81.233294
 30
0.0
 10
12.149263
 20
81.221652
 30
0.0
 10
12.082235
 20
81.198369
 30
0.0
 10
12.019794
 20
81.163796
 30
0.0
 10
11.963702
 20
81.119346
 30
0.0
 10
11.915371
 20
81.064666
 30
0.0
 10
11.876919
 20
81.000460
 30
0.0
 10
11.876919
 20
81.000460
 30
0.0
 10
11.761560
 20
80.729880
 30
0.0
 10
11.675130
 20
80.451538
 30
0.0
 10
11.617274
 20
80.167552
 30
0.0
 10
11.588699
 20
79.880038
 30
0.0
 10
11.589052
 20
79.591466
 30
0.0
 10
11.618333
 20
79.304305
 30
0.0
 10
11.676188
 20
79.020319
 30
0.0
 10
11.762971
 20
78.741624
 30
0.0
 10
11.878683
 20
78.470691
 30
0.0
 10
11.878683
 20
78.470691
 30
0.0
 10
11.893499
 20
78.443174
 30
0.0
 10
11.910080
 20
78.417069
 30
0.0
 10
11.928777
 20
78.392374
 30
0.0
 10
11.948885
 20
78.369091
 30
0.0
 10
11.970758
 20
78.347219
 30
0.0
 10
11.994041
 20
78.327110
 30
0.0
 10
12.018735
 20
78.308766
 30
0.0
 10
12.044488
 20
78.292891
 30
0.0
 10
12.071299
 20
78.278780
 30
0.0
 10
12.071299
 20
78.278780
 30
0.0
 10
12.141855
 20
78.252321
 30
0.0
 10
12.213821
 20
78.238916
 30
0.0
 10
12.285788
 20
78.238210
 30
0.0
 10
12.356344
 20
78.249852
 30
0.0
 10
12.423371
 20
78.272782
 30
0.0
 10
12.485813
 20
78.307002
 30
0.0
 10
12.541905
 20
78.352157
 30
0.0
 10
12.590235
 20
78.406838
 30
0.0
 10
12.629041
 20
78.471396
 30
0.0
 10
12.629041
 20
78.471396
 30
0.0
 10
12.743694
 20
78.741977
 30
0.0
 10
12.829771
 20
79.020319
 30
0.0
 10
12.886921
 20
79.304305
 30
0.0
 10
12.915496
 20
79.591466
 30
0.0
 10
12.915144
 20
79.880038
 30
0.0
 10
12.886216
 20
80.167552
 30
0.0
 10
12.828713
 20
80.451538
 30
0.0
 10
12.741930
 20
80.730232
 30
0.0
 10
12.626924
 20
81.001166
 30
0.0
 10
12.626924
 20
81.001166
 30
0.0
 10
12.612108
 20
81.028330
 30
0.0
 10
12.595527
 20
81.054435
 30
0.0
 10
12.577183
 20
81.079130
 30
0.0
 10
12.557074
 20
81.102413
 30
0.0
 10
12.535202
 20
81.124285
 30
0.0
 10
12.511919
 20
81.144394
 30
0.0
 10
12.486871
 20
81.162738
 30
0.0
 10
12.460413
 20
81.179319
 30
0.0
 10
12.432544
 20
81.194135
 30
0.0
  0
LWPOLYLINE
  5
14d
100
AcDbEntity
  8
Ebene_1
 62
1
100
AcDbPolyline
 90
61
 70
0
 10
27.594580
 20
48.287024
 30
0.0
 10
27.594580
 20
48.287024
 30
0.0
 10
27.649613
 20
48.337119
 30
0.0
 10
27.693710
 20
48.394621
 30
0.0
 10
27.726871
 20
48.458121
 30
0.0
 10
27.748744
 20
48.526207
 30
0.0
 10
27.758621
 20
48.596410
 30
0.0
 10
27.756858
 20
48.667671
 30
0.0
 10
27.742746
 20
48.737874
 30
0.0
 10
27.716288
 20
48.805960
 30
0.0
 10
27.676777
 20
48.869460
 30
0.0
 10
27.676777
 20
48.869460
 30
0.0
 10
27.489099
 20
49.096296
 30
0.0
 10
27.281313
 20
49.300555
 30
0.0
 10
27.055183
 20
49.481882
 30
0.0
 10
26.812824
 20
49.638869
 30
0.0
 10
26.556355
 20
49.770807
 30
0.0
 10
26.287538
 20
49.876288
 30
0.0
 10
26.008491
 20
49.954957
 30
0.0
 10
25.720977
 20
50.005405
 30
0.0
 10
25.427113
 20
50.026571
 30
0.0
 10
25.427113
 20
50.026571
 30
0.0
 10
25.396069
 20
50.025866
 30
0.0
 10
25.365024
 20
50.023044
 30
0.0
 10
25.334685
 20
50.018105
 30
0.0
 10
25.304699
 20
50.010696
 30
0.0
 10
25.275419
 20
50.001171
 30
0.0
 10
25.246844
 20
49.989530
 30
0.0
 10
25.219327
 20
49.976124
 30
0.0
 10
25.193221
 20
49.960602
 30
0.0
 10
25.168174
 20
49.943316
 30
0.0
 10
25.168174
 20
49.943316
 30
0.0
 10
25.112435
 20
49.892869
 30
0.0
 10
25.067633
 20
49.835013
 30
0.0
 10
25.034119
 20
49.771513
 30
0.0
 10
25.012246
 20
49.703427
 30
0.0
 10
25.002016
 20
49.633224
 30
0.0
 10
25.003780
 20
49.561963
 30
0.0
 10
25.017891
 20
49.491407
 30
0.0
 10
25.044702
 20
49.423321
 30
0.0
 10
25.084213
 20
49.359469
 30
0.0
 10
25.084213
 20
49.359469
 30
0.0
 10
25.272244
 20
49.133338
 30
0.0
 10
25.480030
 20
48.929432
 30
0.0
 10
25.706160
 20
48.748457
 30
0.0
 10
25.948871
 20
48.591471
 30
0.0
 10
26.205341
 20
48.459532
 30
0.0
 10
26.474158
 20
48.353699
 30
0.0
 10
26.753205
 20
48.275030
 30
0.0
 10
27.040366
 20
48.224230
 30
0.0
 10
27.334230
 20
48.202357
 30
0.0
 10
27.334230
 20
48.202357
 30
0.0
 10
27.364921
 20
48.203063
 30
0.0
 10
27.395613
 20
48.205885
 30
0.0
 10
27.425952
 20
48.210824
 30
0.0
 10
27.455938
 20
48.218232
 30
0.0
 10
27.485219
 20
48.227757
 30
0.0
 10
27.513794
 20
48.239399
 30
0.0
 10
27.541663
 20
48.253157
 30
0.0
 10
27.568474
 20
48.269032
 30
0.0
 10
27.594580
 20
48.287024
 30
0.0
  0
LWPOLYLINE
  5
14e
100
AcDbEntity
  8
Ebene_1
 62
1
100
AcDbPolyline
 90
61
 70
0
 10
26.669949
 20
14.741950
 30
0.0
 10
26.669949
 20
14.741950
 30
0.0
 10
26.642433
 20
14.810988
 30
0.0
 10
26.603980
 20
14.872619
 30
0.0
 10
26.556002
 20
14.925923
 30
0.0
 10
26.499910
 20
14.970020
 30
0.0
 10
26.437821
 20
15.004064
 30
0.0
 10
26.370441
 20
15.027206
 30
0.0
 10
26.299533
 20
15.038777
 30
0.0
 10
26.226508
 20
15.037683
 30
0.0
 10
26.152777
 20
15.023219
 30
0.0
 10
26.152777
 20
15.023219
 30
0.0
 10
25.875141
 20
14.926770
 30
0.0
 10
25.610910
 20
14.803686
 30
0.0
 10
25.361849
 20
14.655413
 30
0.0
 10
25.129721
 20
14.483575
 30
0.0
 10
24.916291
 20
14.289406
 30
0.0
 10
24.723321
 20
14.074706
 30
0.0
 10
24.551871
 20
13.840849
 30
0.0
 10
24.404058
 20
13.589248
 30
0.0
 10
24.281291
 20
13.321349
 30
0.0
 10
24.281291
 20
13.321349
 30
0.0
 10
24.270708
 20
13.292139
 30
0.0
 10
24.262594
 20
13.262223
 30
0.0
 10
24.256596
 20
13.231779
 30
0.0
 10
24.253069
 20
13.201193
 30
0.0
 10
24.251658
 20
13.170325
 30
0.0
 10
24.252363
 20
13.139704
 30
0.0
 10
24.255538
 20
13.109259
 30
0.0
 10
24.260830
 20
13.079237
 30
0.0
 10
24.268591
 20
13.049745
 30
0.0
 10
24.268591
 20
13.049745
 30
0.0
 10
24.296108
 20
12.979860
 30
0.0
 10
24.334560
 20
12.917595
 30
0.0
 10
24.382538
 20
12.863972
 30
0.0
 10
24.438277
 20
12.819593
 30
0.0
 10
24.500719
 20
12.785303
 30
0.0
 10
24.568099
 20
12.762125
 30
0.0
 10
24.639008
 20
12.750695
 30
0.0
 10
24.712385
 20
12.751789
 30
0.0
 10
24.785763
 20
12.766535
 30
0.0
 10
24.785763
 20
12.766535
 30
0.0
 10
25.063399
 20
12.863408
 30
0.0
 10
25.327277
 20
12.986774
 30
0.0
 10
25.575985
 20
13.135188
 30
0.0
 10
25.807760
 20
13.307167
 30
0.0
 10
26.021191
 20
13.501301
 30
0.0
 10
26.214513
 20
13.715860
 30
0.0
 10
26.386316
 20
13.949575
 30
0.0
 10
26.534483
 20
14.200930
 30
0.0
 10
26.657602
 20
14.468441
 30
0.0
 10
26.657602
 20
14.468441
 30
0.0
 10
26.668185
 20
14.497651
 30
0.0
 10
26.676299
 20
14.527249
 30
0.0
 10
26.681944
 20
14.557447
 30
0.0
 10
26.685824
 20
14.588033
 30
0.0
 10
26.687235
 20
14.618760
 30
0.0
 10
26.686177
 20
14.649628
 30
0.0
 10
26.683002
 20
14.680496
 30
0.0
 10
26.677710
 20
14.711223
 30
0.0
 10
26.669949
 20
14.741950
 30
0.0
  0
LWPOLYLINE
  5
14f
100
AcDbEntity
  8
Ebene_1
 62
1
100
AcDbPolyline
 90
61
 70
0
 10
42.810238
 20
34.307146
 30
0.0
 10
42.810238
 20
34.307146
 30
0.0
 10
42.755558
 20
34.256699
 30
0.0
 10
42.711813
 20
34.198491
 30
0.0
 10
42.679358
 20
34.134991
 30
0.0
 10
42.658191
 20
34.066905
 30
0.0
 10
42.648666
 20
33.996349
 30
0.0
 10
42.651135
 20
33.925088
 30
0.0
 10
42.665599
 20
33.854885
 30
0.0
 10
42.692763
 20
33.787152
 30
0.0
 10
42.732274
 20
33.723652
 30
0.0
 10
42.732274
 20
33.723652
 30
0.0
 10
42.921716
 20
33.498580
 30
0.0
 10
43.131266
 20
33.296085
 30
0.0
 10
43.358808
 20
33.116521
 30
0.0
 10
43.602224
 20
32.961299
 30
0.0
 10
43.859752
 20
32.831477
 30
0.0
 10
44.129627
 20
32.727760
 30
0.0
 10
44.409380
 20
32.651207
 30
0.0
 10
44.697246
 20
32.603230
 30
0.0
 10
44.991110
 20
32.584532
 30
0.0
 10
44.991110
 20
32.584532
 30
0.0
 10
45.022155
 20
32.585238
 30
0.0
 10
45.052846
 20
32.588413
 30
0.0
 10
45.083538
 20
32.593705
 30
0.0
 10
45.113524
 20
32.601113
 30
0.0
 10
45.142805
 20
32.610638
 30
0.0
 10
45.171027
 20
32.622632
 30
0.0
 10
45.198544
 20
32.636391
 30
0.0
 10
45.224649
 20
32.651913
 30
0.0
 10
45.249344
 20
32.669552
 30
0.0
 10
45.249344
 20
32.669552
 30
0.0
 10
45.304730
 20
32.720352
 30
0.0
 10
45.349180
 20
32.778560
 30
0.0
 10
45.382341
 20
32.842766
 30
0.0
 10
45.403508
 20
32.910499
 30
0.0
 10
45.413385
 20
32.981055
 30
0.0
 10
45.410916
 20
33.052316
 30
0.0
 10
45.396099
 20
33.122871
 30
0.0
 10
45.368935
 20
33.190605
 30
0.0
 10
45.329071
 20
33.254105
 30
0.0
 10
45.329071
 20
33.254105
 30
0.0
 10
45.139277
 20
33.478471
 30
0.0
 10
44.929374
 20
33.680966
 30
0.0
 10
44.702185
 20
33.860177
 30
0.0
 10
44.458416
 20
34.015046
 30
0.0
 10
44.200888
 20
34.145221
 30
0.0
 10
43.931366
 20
34.248938
 30
0.0
 10
43.651613
 20
34.325844
 30
0.0
 10
43.363746
 20
34.374174
 30
0.0
 10
43.070235
 20
34.393577
 30
0.0
 10
43.070235
 20
34.393577
 30
0.0
 10
43.039191
 20
34.392871
 30
0.0
 10
43.008499
 20
34.389696
 30
0.0
 10
42.978160
 20
34.384405
 30
0.0
 10
42.948174
 20
34.376996
 30
0.0
 10
42.919246
 20
34.367471
 30
0.0
 10
42.890671
 20
34.355477
 30
0.0
 10
42.862802
 20
34.341366
 30
0.0
 10
42.836344
 20
34.325138
 30
0.0
 10
42.810238
 20
34.307146
 30
0.0
  0
LWPOLYLINE
  5
150
100
AcDbEntity
  8
Ebene_1
 62
1
100
AcDbPolyline
 90
61
 70
0
 10
93.979596
 20
45.040763
 30
0.0
 10
93.979596
 20
45.040763
 30
0.0
 10
93.929855
 20
45.095796
 30
0.0
 10
93.872352
 20
45.140246
 30
0.0
 10
93.808852
 20
45.173760
 30
0.0
 10
93.741119
 20
45.195632
 30
0.0
 10
93.670916
 20
45.205863
 30
0.0
 10
93.599655
 20
45.204099
 30
0.0
 10
93.529099
 20
45.190341
 30
0.0
 10
93.461013
 20
45.163882
 30
0.0
 10
93.397160
 20
45.125077
 30
0.0
 10
93.397160
 20
45.125077
 30
0.0
 10
93.170324
 20
44.937752
 30
0.0
 10
92.965360
 20
44.730671
 30
0.0
 10
92.783327
 20
44.505246
 30
0.0
 10
92.625635
 20
44.263241
 30
0.0
 10
92.492638
 20
44.007124
 30
0.0
 10
92.386099
 20
43.738660
 30
0.0
 10
92.306724
 20
43.459613
 30
0.0
 10
92.255571
 20
43.172452
 30
0.0
 10
92.233346
 20
42.878588
 30
0.0
 10
92.233346
 20
42.878588
 30
0.0
 10
92.234052
 20
42.847544
 30
0.0
 10
92.236521
 20
42.816852
 30
0.0
 10
92.241813
 20
42.786160
 30
0.0
 10
92.248869
 20
42.756174
 30
0.0
 10
92.258394
 20
42.726894
 30
0.0
 10
92.269683
 20
42.698319
 30
0.0
 10
92.283088
 20
42.670802
 30
0.0
 10
92.298610
 20
42.644344
 30
0.0
 10
92.315896
 20
42.619649
 30
0.0
 10
92.315896
 20
42.619649
 30
0.0
 10
92.366344
 20
42.563557
 30
0.0
 10
92.423846
 20
42.518402
 30
0.0
 10
92.487346
 20
42.484888
 30
0.0
 10
92.555080
 20
42.462663
 30
0.0
 10
92.625635
 20
42.452080
 30
0.0
 10
92.696896
 20
42.453844
 30
0.0
 10
92.767452
 20
42.467955
 30
0.0
 10
92.835538
 20
42.494413
 30
0.0
 10
92.899744
 20
42.533571
 30
0.0
 10
92.899744
 20
42.533571
 30
0.0
 10
93.125874
 20
42.720896
 30
0.0
 10
93.330485
 20
42.928330
 30
0.0
 10
93.512166
 20
43.154107
 30
0.0
 10
93.670210
 20
43.395760
 30
0.0
 10
93.802855
 20
43.651877
 30
0.0
 10
93.909394
 20
43.920341
 30
0.0
 10
93.989121
 20
44.199388
 30
0.0
 10
94.040627
 20
44.486196
 30
0.0
 10
94.063205
 20
44.780060
 30
0.0
 10
94.063205
 20
44.780060
 30
0.0
 10
94.062852
 20
44.811105
 30
0.0
 10
94.060030
 20
44.841796
 30
0.0
 10
94.055091
 20
44.872135
 30
0.0
 10
94.048035
 20
44.901769
 30
0.0
 10
94.038863
 20
44.931049
 30
0.0
 10
94.027221
 20
44.959977
 30
0.0
 10
94.013463
 20
44.987846
 30
0.0
 10
93.997588
 20
45.014657
 30
0.0
 10
93.979596
 20
45.040763
 30
0.0
  0
LWPOLYLINE
  5
151
100
AcDbEntity
  8
Ebene_1
 62
1
100
AcDbPolyline
 90
61
 70
0
 10
134.656638
 20
58.223010
 30
0.0
 10
134.656638
 20
58.223010
 30
0.0
 10
134.601605
 20
58.172916
 30
0.0
 10
134.557155
 20
58.115413
 30
0.0
 10
134.523994
 20
58.051913
 30
0.0
 10
134.502121
 20
57.984180
 30
0.0
 10
134.491538
 20
57.913977
 30
0.0
 10
134.493302
 20
57.842716
 30
0.0
 10
134.507413
 20
57.772160
 30
0.0
 10
134.533519
 20
57.704427
 30
0.0
 10
134.572677
 20
57.640574
 30
0.0
 10
134.572677
 20
57.640574
 30
0.0
 10
134.759649
 20
57.413385
 30
0.0
 10
134.966730
 20
57.208421
 30
0.0
 10
135.192508
 20
57.026388
 30
0.0
 10
135.434160
 20
56.868696
 30
0.0
 10
135.690277
 20
56.736052
 30
0.0
 10
135.958741
 20
56.629513
 30
0.0
 10
136.237788
 20
56.550138
 30
0.0
 10
136.525302
 20
56.498632
 30
0.0
 10
136.818813
 20
56.476760
 30
0.0
 10
136.818813
 20
56.476760
 30
0.0
 10
136.849858
 20
56.477113
 30
0.0
 10
136.880902
 20
56.479935
 30
0.0
 10
136.911241
 20
56.484874
 30
0.0
 10
136.941580
 20
56.492282
 30
0.0
 10
136.970860
 20
56.501455
 30
0.0
 10
136.999435
 20
56.513096
 30
0.0
 10
137.026599
 20
56.526149
 30
0.0
 10
137.053058
 20
56.542024
 30
0.0
 10
137.078105
 20
56.559310
 30
0.0
 10
137.078105
 20
56.559310
 30
0.0
 10
137.133844
 20
56.609405
 30
0.0
 10
137.178999
 20
56.666907
 30
0.0
 10
137.212513
 20
56.730760
 30
0.0
 10
137.234738
 20
56.798494
 30
0.0
 10
137.245321
 20
56.868696
 30
0.0
 10
137.243558
 20
56.939957
 30
0.0
 10
137.229799
 20
57.010513
 30
0.0
 10
137.202988
 20
57.078599
 30
0.0
 10
137.163830
 20
57.142805
 30
0.0
 10
137.163830
 20
57.142805
 30
0.0
 10
136.976505
 20
57.369288
 30
0.0
 10
136.769071
 20
57.573899
 30
0.0
 10
136.543294
 20
57.755580
 30
0.0
 10
136.301641
 20
57.913271
 30
0.0
 10
136.045524
 20
58.045916
 30
0.0
 10
135.777060
 20
58.152807
 30
0.0
 10
135.498366
 20
58.232182
 30
0.0
 10
135.211205
 20
58.284041
 30
0.0
 10
134.917341
 20
58.306619
 30
0.0
 10
134.917341
 20
58.306619
 30
0.0
 10
134.886649
 20
58.306266
 30
0.0
 10
134.855605
 20
58.303444
 30
0.0
 10
134.825619
 20
58.298505
 30
0.0
 10
134.795633
 20
58.291449
 30
0.0
 10
134.766352
 20
58.281924
 30
0.0
 10
134.737777
 20
58.270282
 30
0.0
 10
134.709908
 20
58.256524
 30
0.0
 10
134.682744
 20
58.241002
 30
0.0
 10
134.656638
 20
58.223010
 30
0.0
  0
LWPOLYLINE
  5
152
100
AcDbEntity
  8
Ebene_1
 62
1
100
AcDbPolyline
 90
61
 70
0
 10
163.829596
 20
100.620902
 30
0.0
 10
163.829596
 20
100.620902
 30
0.0
 10
163.761510
 20
100.590563
 30
0.0
 10
163.701538
 20
100.549994
 30
0.0
 10
163.650033
 20
100.500252
 30
0.0
 10
163.607699
 20
100.442749
 30
0.0
 10
163.575949
 20
100.379249
 30
0.0
 10
163.555135
 20
100.311163
 30
0.0
 10
163.545963
 20
100.239902
 30
0.0
 10
163.549491
 20
100.167230
 30
0.0
 10
163.566777
 20
100.094205
 30
0.0
 10
163.566777
 20
100.094205
 30
0.0
 10
163.672610
 20
99.820096
 30
0.0
 10
163.804902
 20
99.560099
 30
0.0
 10
163.961888
 20
99.316682
 30
0.0
 10
164.141805
 20
99.090552
 30
0.0
 10
164.343241
 20
98.884177
 30
0.0
 10
164.564785
 20
98.698616
 30
0.0
 10
164.804321
 20
98.535280
 30
0.0
 10
165.061144
 20
98.396638
 30
0.0
 10
165.333135
 20
98.283044
 30
0.0
 10
165.333135
 20
98.283044
 30
0.0
 10
165.362416
 20
98.273871
 30
0.0
 10
165.392755
 20
98.266816
 30
0.0
 10
165.423446
 20
98.261877
 30
0.0
 10
165.454138
 20
98.259055
 30
0.0
 10
165.484830
 20
98.259055
 30
0.0
 10
165.515521
 20
98.260819
 30
0.0
 10
165.545860
 20
98.264699
 30
0.0
 10
165.575846
 20
98.271402
 30
0.0
 10
165.604774
 20
98.279869
 30
0.0
 10
165.604774
 20
98.279869
 30
0.0
 10
165.673919
 20
98.309855
 30
0.0
 10
165.734596
 20
98.350424
 30
0.0
 10
165.786808
 20
98.400166
 30
0.0
 10
165.829141
 20
98.457669
 30
0.0
 10
165.861244
 20
98.521169
 30
0.0
 10
165.882058
 20
98.589607
 30
0.0
 10
165.890877
 20
98.660869
 30
0.0
 10
165.886996
 20
98.733894
 30
0.0
 10
165.869710
 20
98.806919
 30
0.0
 10
165.869710
 20
98.806919
 30
0.0
 10
165.763524
 20
99.080674
 30
0.0
 10
165.630880
 20
99.340319
 30
0.0
 10
165.473541
 20
99.583735
 30
0.0
 10
165.293624
 20
99.809513
 30
0.0
 10
165.092188
 20
100.015888
 30
0.0
 10
164.870996
 20
100.201802
 30
0.0
 10
164.631460
 20
100.365138
 30
0.0
 10
164.374991
 20
100.504485
 30
0.0
 10
164.103705
 20
100.618080
 30
0.0
 10
164.103705
 20
100.618080
 30
0.0
 10
164.074071
 20
100.627252
 30
0.0
 10
164.044085
 20
100.634660
 30
0.0
 10
164.013394
 20
100.639246
 30
0.0
 10
163.983055
 20
100.641716
 30
0.0
 10
163.952363
 20
100.642421
 30
0.0
 10
163.921319
 20
100.640305
 30
0.0
 10
163.890627
 20
100.636071
 30
0.0
 10
163.859935
 20
100.629721
 30
0.0
 10
163.829596
 20
100.620902
 30
0.0
  0
LWPOLYLINE
  5
153
100
AcDbEntity
  8
Ebene_1
 62
1
100
AcDbPolyline
 90
61
 70
0
 10
176.775835
 20
121.796388
 30
0.0
 10
176.775835
 20
121.796388
 30
0.0
 10
176.756080
 20
121.724421
 30
0.0
 10
176.749377
 20
121.652102
 30
0.0
 10
176.755374
 20
121.580841
 30
0.0
 10
176.773366
 20
121.511696
 30
0.0
 10
176.802294
 20
121.446785
 30
0.0
 10
176.841805
 20
121.387519
 30
0.0
 10
176.891194
 20
121.335660
 30
0.0
 10
176.950108
 20
121.292269
 30
0.0
 10
177.017135
 20
121.259460
 30
0.0
 10
177.017135
 20
121.259460
 30
0.0
 10
177.296888
 20
121.168091
 30
0.0
 10
177.581580
 20
121.106355
 30
0.0
 10
177.869799
 20
121.073899
 30
0.0
 10
178.158371
 20
121.070371
 30
0.0
 10
178.445885
 20
121.095771
 30
0.0
 10
178.729519
 20
121.150099
 30
0.0
 10
179.007508
 20
121.232649
 30
0.0
 10
179.277383
 20
121.343421
 30
0.0
 10
179.537380
 20
121.482416
 30
0.0
 10
179.537380
 20
121.482416
 30
0.0
 10
179.563133
 20
121.499702
 30
0.0
 10
179.587827
 20
121.518399
 30
0.0
 10
179.610758
 20
121.538860
 30
0.0
 10
179.632277
 20
121.561085
 30
0.0
 10
179.652033
 20
121.584721
 30
0.0
 10
179.670024
 20
121.609769
 30
0.0
 10
179.685899
 20
121.635874
 30
0.0
 10
179.700010
 20
121.663038
 30
0.0
 10
179.711652
 20
121.691260
 30
0.0
 10
179.711652
 20
121.691260
 30
0.0
 10
179.732113
 20
121.763580
 30
0.0
 10
179.738816
 20
121.836252
 30
0.0
 10
179.733171
 20
121.907866
 30
0.0
 10
179.715533
 20
121.977010
 30
0.0
 10
179.686605
 20
122.042274
 30
0.0
 10
179.647094
 20
122.101541
 30
0.0
 10
179.597352
 20
122.153399
 30
0.0
 10
179.538438
 20
122.196791
 30
0.0
 10
179.471058
 20
122.229599
 30
0.0
 10
179.471058
 20
122.229599
 30
0.0
 10
179.191305
 20
122.320263
 30
0.0
 10
178.906613
 20
122.381646
 30
0.0
 10
178.618746
 20
122.414102
 30
0.0
 10
178.330174
 20
122.417277
 30
0.0
 10
178.042660
 20
122.391877
 30
0.0
 10
177.759027
 20
122.337902
 30
0.0
 10
177.480685
 20
122.255705
 30
0.0
 10
177.210810
 20
122.144932
 30
0.0
 10
176.950813
 20
122.006644
 30
0.0
 10
176.950813
 20
122.006644
 30
0.0
 10
176.925060
 20
121.989710
 30
0.0
 10
176.900719
 20
121.971013
 30
0.0
 10
176.877788
 20
121.950552
 30
0.0
 10
176.856269
 20
121.928327
 30
0.0
 10
176.836513
 20
121.904691
 30
0.0
 10
176.818521
 20
121.879644
 30
0.0
 10
176.802294
 20
121.853185
 30
0.0
 10
176.788183
 20
121.825316
 30
0.0
 10
176.775835
 20
121.796388
 30
0.0
  0
LWPOLYLINE
  5
154
100
AcDbEntity
  8
Ebene_1
 62
1
100
AcDbPolyline
 90
61
 70
0
 10
167.749663
 20
152.324366
 30
0.0
 10
167.749663
 20
152.324366
 30
0.0
 10
167.749310
 20
152.249930
 30
0.0
 10
167.761658
 20
152.178316
 30
0.0
 10
167.786352
 20
152.110935
 30
0.0
 10
167.821630
 20
152.049199
 30
0.0
 10
167.866785
 20
151.994166
 30
0.0
 10
167.920408
 20
151.947599
 30
0.0
 10
167.981791
 20
151.910205
 30
0.0
 10
168.049877
 20
151.883746
 30
0.0
 10
168.123255
 20
151.869635
 30
0.0
 10
168.123255
 20
151.869635
 30
0.0
 10
168.417119
 20
151.854819
 30
0.0
 10
168.708160
 20
151.869988
 30
0.0
 10
168.994616
 20
151.914438
 30
0.0
 10
169.274016
 20
151.986757
 30
0.0
 10
169.544596
 20
152.086594
 30
0.0
 10
169.804241
 20
152.213241
 30
0.0
 10
170.050833
 20
152.365994
 30
0.0
 10
170.282255
 20
152.543794
 30
0.0
 10
170.496391
 20
152.746288
 30
0.0
 10
170.496391
 20
152.746288
 30
0.0
 10
170.517205
 20
152.769571
 30
0.0
 10
170.535902
 20
152.794266
 30
0.0
 10
170.552835
 20
152.820019
 30
0.0
 10
170.567652
 20
152.847182
 30
0.0
 10
170.580352
 20
152.875052
 30
0.0
 10
170.591288
 20
152.903627
 30
0.0
 10
170.599755
 20
152.933260
 30
0.0
 10
170.606105
 20
152.962894
 30
0.0
 10
170.609985
 20
152.993232
 30
0.0
 10
170.609985
 20
152.993232
 30
0.0
 10
170.610691
 20
153.068374
 30
0.0
 10
170.598344
 20
153.140694
 30
0.0
 10
170.574002
 20
153.208074
 30
0.0
 10
170.538724
 20
153.270516
 30
0.0
 10
170.493921
 20
153.325549
 30
0.0
 10
170.439946
 20
153.372116
 30
0.0
 10
170.378563
 20
153.409510
 30
0.0
 10
170.310477
 20
153.435616
 30
0.0
 10
170.236394
 20
153.449727
 30
0.0
 10
170.236394
 20
153.449727
 30
0.0
 10
169.942883
 20
153.463838
 30
0.0
 10
169.652194
 20
153.448316
 30
0.0
 10
169.365738
 20
153.403866
 30
0.0
 10
169.086338
 20
153.331546
 30
0.0
 10
168.815758
 20
153.231357
 30
0.0
 10
168.556113
 20
153.105063
 30
0.0
 10
168.309169
 20
152.952663
 30
0.0
 10
168.077746
 20
152.775216
 30
0.0
 10
167.863258
 20
152.573427
 30
0.0
 10
167.863258
 20
152.573427
 30
0.0
 10
167.842796
 20
152.550144
 30
0.0
 10
167.824099
 20
152.525449
 30
0.0
 10
167.807166
 20
152.499696
 30
0.0
 10
167.792702
 20
152.472885
 30
0.0
 10
167.779649
 20
152.445016
 30
0.0
 10
167.769066
 20
152.416088
 30
0.0
 10
167.760246
 20
152.386102
 30
0.0
 10
167.753896
 20
152.355763
 30
0.0
 10
167.749663
 20
152.324366
 30
0.0
  0
LWPOLYLINE
  5
155
100
AcDbEntity
  8
Ebene_1
 62
1
100
AcDbPolyline
 90
61
 70
0
 10
142.150344
 20
167.268385
 30
0.0
 10
142.150344
 20
167.268385
 30
0.0
 10
142.224780
 20
167.266269
 30
0.0
 10
142.296746
 20
167.277205
 30
0.0
 10
142.364833
 20
167.299782
 30
0.0
 10
142.427274
 20
167.333649
 30
0.0
 10
142.483366
 20
167.377394
 30
0.0
 10
142.531344
 20
167.429957
 30
0.0
 10
142.570149
 20
167.490282
 30
0.0
 10
142.598371
 20
167.557663
 30
0.0
 10
142.614246
 20
167.631041
 30
0.0
 10
142.614246
 20
167.631041
 30
0.0
 10
142.636119
 20
167.924199
 30
0.0
 10
142.628358
 20
168.215594
 30
0.0
 10
142.591316
 20
168.502755
 30
0.0
 10
142.526052
 20
168.784271
 30
0.0
 10
142.432566
 20
169.057321
 30
0.0
 10
142.312621
 20
169.319788
 30
0.0
 10
142.166219
 20
169.570260
 30
0.0
 10
141.994063
 20
169.805916
 30
0.0
 10
141.797213
 20
170.024991
 30
0.0
 10
141.797213
 20
170.024991
 30
0.0
 10
141.774635
 20
170.046157
 30
0.0
 10
141.750294
 20
170.065560
 30
0.0
 10
141.724894
 20
170.083199
 30
0.0
 10
141.698083
 20
170.098721
 30
0.0
 10
141.670213
 20
170.112480
 30
0.0
 10
141.641991
 20
170.123769
 30
0.0
 10
141.612710
 20
170.132941
 30
0.0
 10
141.583077
 20
170.139996
 30
0.0
 10
141.553091
 20
170.144582
 30
0.0
 10
141.553091
 20
170.144582
 30
0.0
 10
141.477949
 20
170.147405
 30
0.0
 10
141.405277
 20
170.136821
 30
0.0
 10
141.337191
 20
170.114244
 30
0.0
 10
141.274044
 20
170.080377
 30
0.0
 10
141.217952
 20
170.036985
 30
0.0
 10
141.169974
 20
169.984421
 30
0.0
 10
141.131169
 20
169.923744
 30
0.0
 10
141.103299
 20
169.856010
 30
0.0
 10
141.087424
 20
169.782632
 30
0.0
 10
141.087424
 20
169.782632
 30
0.0
 10
141.065905
 20
169.489474
 30
0.0
 10
141.074019
 20
169.198432
 30
0.0
 10
141.111413
 20
168.910919
 30
0.0
 10
141.177030
 20
168.630107
 30
0.0
 10
141.270163
 20
168.357057
 30
0.0
 10
141.390108
 20
168.094238
 30
0.0
 10
141.536510
 20
167.843766
 30
0.0
 10
141.707960
 20
167.607757
 30
0.0
 10
141.904458
 20
167.388330
 30
0.0
 10
141.904458
 20
167.388330
 30
0.0
 10
141.927035
 20
167.367163
 30
0.0
 10
141.951024
 20
167.348113
 30
0.0
 10
141.976424
 20
167.330474
 30
0.0
 10
142.002883
 20
167.315305
 30
0.0
 10
142.030752
 20
167.301546
 30
0.0
 10
142.059327
 20
167.290257
 30
0.0
 10
142.088960
 20
167.280732
 30
0.0
 10
142.119299
 20
167.273324
 30
0.0
 10
142.150344
 20
167.268385
 30
0.0
  0
LWPOLYLINE
  5
156
100
AcDbEntity
  8
Ebene_1
 62
5
100
AcDbPolyline
 90
5
 70
0
 10
-100.819354
 20
-4.857184
 30
0.0
 10
299.181258
 20
-4.857184
 30
0.0
 10
299.181258
 20
295.142921
 30
0.0
 10
-100.819354
 20
295.142921
 30
0.0
 10
-100.819354
 20
-4.857184
 30
0.0
  0
ENDSEC
  0
SECTION
  2
OBJECTS
  0
DICTIONARY
  5
C
330
0
100
AcDbDictionary
  3
ACAD_GROUP
350
D
  3
ACAD_MLINESTYLE
350
17
  0
DICTIONARY
  5
D
330
C
100
AcDbDictionary
  0
DICTIONARY
  5
1A
330
C
100
AcDbDictionary
  0
DICTIONARY
  5
17
330
C
100
AcDbDictionary
  3
STANDARD
350
18
  0
DICTIONARY
  5
19
330
C
100
AcDbDictionary
  0
ENDSEC
  0
EOF
