  0
SECTION
  2
HEADER
  9
$ACADVER
  1
AC1014
  9
$HANDSEED
  5
FFFF
  9
$MEASUREMENT
 70
     1
  0
ENDSEC
  0
SECTION
  2
TABLES
  0
TABLE
  2
VPORT
  5
8
330
0
100
AcDbSymbolTable
 70
     4
  0
VPORT
  5
2E
330
8
100
AcDbSymbolTableRecord
100
AcDbViewportTableRecord
  2
*ACTIVE
 70
     0
 10
0.0
 20
0.0
 11
1.0
 21
1.0
 12
210.0
 22
148.5
 13
0.0
 23
0.0
 14
10.0
 24
10.0
 15
10.0
 25
10.0
 16
0.0
 26
0.0
 36
1.0
 17
0.0
 27
0.0
 37
0.0
 40
341.0
 41
1.24
 42
50.0
 43
0.0
 44
0.0
 50
0.0
 51
0.0
 71
     0
 72
   100
 73
     1
 74
     3
 75
     0
 76
     0
 77
     0
 78
     0
  0
ENDTAB
  0
TABLE
  2
LTYPE
  5
5
330
0
100
AcDbSymbolTable
 70
     1
  0
LTYPE
  5
14
330
5
100
AcDbSymbolTableRecord
100
AcDbLinetypeTableRecord
  2
BYBLOCK
 70
     0
  3

 72
    65
 73
     0
 40
0.0
  0
LTYPE
  5
15
330
5
100
AcDbSymbolTableRecord
100
AcDbLinetypeTableRecord
  2
BYLAYER
 70
     0
  3

 72
    65
 73
     0
 40
0.0
  0
LTYPE
  5
16
330
5
100
AcDbSymbolTableRecord
100
AcDbLinetypeTableRecord
  2
CONTINUOUS
 70
     0
  3
Solid line
 72
    65
 73
     0
 40
0.0
  0
ENDTAB
  0
TABLE
  2
LAYER
  5
2
100
AcDbSymbolTable
 70
1
  0
LAYER
  5
50
100
AcDbSymbolTableRecord
100
AcDbLayerTableRecord
  2
0
 70
0
  6
CONTINUOUS
  0
ENDTAB
  0
TABLE
  2
STYLE
  5
3
330
0
100
AcDbSymbolTable
 70
     1
  0
STYLE
  5
11
330
3
100
AcDbSymbolTableRecord
100
AcDbTextStyleTableRecord
  2
STANDARD
 70
     0
 40
0.0
 41
1.0
 50
0.0
 71
     0
 42
2.5
  3
txt
  4

  0
ENDTAB
  0
TABLE
  2
VIEW
  5
6
330
0
100
AcDbSymbolTable
 70
     0
  0
ENDTAB
  0
TABLE
  2
UCS
  5
7
330
0
100
AcDbSymbolTable
 70
     0
  0
ENDTAB
  0
TABLE
  2
APPID
  5
9
330
0
100
AcDbSymbolTable
 70
     2
  0
APPID
  5
12
330
9
100
AcDbSymbolTableRecord
100
AcDbRegAppTableRecord
  2
ACAD
 70
     0
  0
ENDTAB
  0
TABLE
  2
DIMSTYLE
  5
A
330
0
100
AcDbSymbolTable
 70
     1
  0
DIMSTYLE
105
27
330
A
100
AcDbSymbolTableRecord
100
AcDbDimStyleTableRecord
  2
ISO-25
 70
     0
  3

  4

  5

  6

  7

 40
1.0
 41
2.5
 42
0.625
 43
3.75
 44
1.25
 45
0.0
 46
0.0
 47
0.0
 48
0.0
140
2.5
141
2.5
142
0.0
143
0.03937007874016
144
1.0
145
0.0
146
1.0
147
0.625
 71
     0
 72
     0
 73
     0
 74
     0
 75
     0
 76
     0
 77
     1
 78
     8
170
     0
171
     3
172
     1
173
     0
174
     0
175
     0
176
     0
177
     0
178
     0
270
     2
271
     2
272
     2
273
     2
274
     3
340
11
275
     0
280
     0
281
     0
282
     0
283
     0
284
     8
285
     0
286
     0
287
     3
288
     0
  0
ENDTAB
  0
TABLE
  2
BLOCK_RECORD
  5
1
330
0
100
AcDbSymbolTable
 70
     1
  0
BLOCK_RECORD
  5
1F
330
1
100
AcDbSymbolTableRecord
100
AcDbBlockTableRecord
  2
*MODEL_SPACE
  0
BLOCK_RECORD
  5
1B
330
1
100
AcDbSymbolTableRecord
100
AcDbBlockTableRecord
  2
*PAPER_SPACE
  0
ENDTAB
  0
ENDSEC
  0
SECTION
  2
BLOCKS
  0
BLOCK
  5
20
330
1F
100
AcDbEntity
  8
0
100
AcDbBlockBegin
  2
*MODEL_SPACE
 70
     0
 10
0.0
 20
0.0
 30
0.0
  3
*MODEL_SPACE
  1

  0
ENDBLK
  5
21
330
1F
100
AcDbEntity
  8
0
100
AcDbBlockEnd
  0
BLOCK
  5
1C
330
1B
100
AcDbEntity
 67
     1
  8
0
100
AcDbBlockBegin
  2
*PAPER_SPACE
  1

  0
ENDBLK
  5
1D
330
1B
100
AcDbEntity
 67
     1
  8
0
100
AcDbBlockEnd
  0
ENDSEC
  0
SECTION
  2
ENTITIES
  0
LWPOLYLINE
  5
100
100
AcDbEntity
  8
0
 62
1
100
AcDbPolyline
 90
2
 70
0
 10
125.990209
 20
-109.365909
 30
0.0
 10
122.403164
 20
-104.433793
 30
0.0
  0
LWPOLYLINE
  5
101
100
AcDbEntity
  8
0
 62
1
100
AcDbPolyline
 90
2
 70
0
 10
119.509258
 20
-100.454460
 30
0.0
 10
116.615351
 20
-96.475127
 30
0.0
  0
LWPOLYLINE
  5
102
100
AcDbEntity
  8
0
 62
1
100
AcDbPolyline
 90
2
 70
0
 10
113.721444
 20
-92.496076
 30
0.0
 10
110.827538
 20
-88.516742
 30
0.0
  0
LWPOLYLINE
  5
103
100
AcDbEntity
  8
0
 62
1
100
AcDbPolyline
 90
2
 70
0
 10
107.933631
 20
-84.537409
 30
0.0
 10
105.039724
 20
-80.558358
 30
0.0
  0
LWPOLYLINE
  5
104
100
AcDbEntity
  8
0
 62
1
100
AcDbPolyline
 90
2
 70
0
 10
102.145818
 20
-76.579024
 30
0.0
 10
99.251911
 20
-72.599691
 30
0.0
  0
LWPOLYLINE
  5
105
100
AcDbEntity
  8
0
 62
1
100
AcDbPolyline
 90
2
 70
0
 10
96.358004
 20
-68.620640
 30
0.0
 10
93.464098
 20
-64.641307
 30
0.0
  0
LWPOLYLINE
  5
106
100
AcDbEntity
  8
0
 62
1
100
AcDbPolyline
 90
2
 70
0
 10
90.570191
 20
-60.661973
 30
0.0
 10
86.983147
 20
-55.729858
 30
0.0
  0
LWPOLYLINE
  5
107
100
AcDbEntity
  8
0
 62
1
100
AcDbPolyline
 90
2
 70
0
 10
87.258031
 20
-55.773320
 30
0.0
 10
82.325633
 20
-59.360364
 30
0.0
  0
LWPOLYLINE
  5
108
100
AcDbEntity
  8
0
 62
1
100
AcDbPolyline
 90
2
 70
0
 10
78.346582
 20
-62.254271
 30
0.0
 10
74.367249
 20
-65.148178
 30
0.0
  0
LWPOLYLINE
  5
109
100
AcDbEntity
  8
0
 62
1
100
AcDbPolyline
 90
2
 70
0
 10
70.387916
 20
-68.042084
 30
0.0
 10
66.408864
 20
-70.935991
 30
0.0
  0
LWPOLYLINE
  5
10a
100
AcDbEntity
  8
0
 62
1
100
AcDbPolyline
 90
2
 70
0
 10
62.429531
 20
-73.829898
 30
0.0
 10
58.450198
 20
-76.723804
 30
0.0
  0
LWPOLYLINE
  5
10b
100
AcDbEntity
  8
0
 62
1
100
AcDbPolyline
 90
2
 70
0
 10
54.471147
 20
-79.617711
 30
0.0
 10
50.491813
 20
-82.511618
 30
0.0
  0
LWPOLYLINE
  5
10c
100
AcDbEntity
  8
0
 62
1
100
AcDbPolyline
 90
2
 70
0
 10
46.512480
 20
-85.405524
 30
0.0
 10
42.533429
 20
-88.299431
 30
0.0
  0
LWPOLYLINE
  5
10d
100
AcDbEntity
  8
0
 62
1
100
AcDbPolyline
 90
2
 70
0
 10
38.554096
 20
-91.193338
 30
0.0
 10
33.621980
 20
-94.780382
 30
0.0
  0
LWPOLYLINE
  5
10e
100
AcDbEntity
  8
0
 62
1
100
AcDbPolyline
 90
2
 70
0
 10
72.397338
 20
-148.098087
 30
0.0
 10
77.329736
 20
-144.511042
 30
0.0
  0
LWPOLYLINE
  5
10f
100
AcDbEntity
  8
0
 62
1
100
AcDbPolyline
 90
2
 70
0
 10
81.309069
 20
-141.617136
 30
0.0
 10
85.288120
 20
-138.723229
 30
0.0
  0
LWPOLYLINE
  5
110
100
AcDbEntity
  8
0
 62
1
100
AcDbPolyline
 90
2
 70
0
 10
89.267453
 20
-135.829322
 30
0.0
 10
93.246787
 20
-132.935416
 30
0.0
  0
LWPOLYLINE
  5
111
100
AcDbEntity
  8
0
 62
1
100
AcDbPolyline
 90
2
 70
0
 10
97.225838
 20
-130.041509
 30
0.0
 10
101.205171
 20
-127.147602
 30
0.0
  0
LWPOLYLINE
  5
112
100
AcDbEntity
  8
0
 62
1
100
AcDbPolyline
 90
2
 70
0
 10
105.184504
 20
-124.253696
 30
0.0
 10
109.163556
 20
-121.359789
 30
0.0
  0
LWPOLYLINE
  5
113
100
AcDbEntity
  8
0
 62
1
100
AcDbPolyline
 90
2
 70
0
 10
113.142889
 20
-118.465882
 30
0.0
 10
117.122222
 20
-115.571976
 30
0.0
  0
LWPOLYLINE
  5
114
100
AcDbEntity
  8
0
 62
1
100
AcDbPolyline
 90
2
 70
0
 10
121.101273
 20
-112.678069
 30
0.0
 10
126.033671
 20
-109.091024
 30
0.0
  0
LWPOLYLINE
  5
115
100
AcDbEntity
  8
0
 62
1
100
AcDbPolyline
 90
2
 70
0
 10
267.204896
 20
-80.085071
 30
0.0
 10
270.742833
 20
-78.059844
 30
0.0
  0
LWPOLYLINE
  5
116
100
AcDbEntity
  8
0
 62
1
100
AcDbPolyline
 90
2
 70
0
 10
275.013138
 20
-75.615518
 30
0.0
 10
279.283160
 20
-73.171191
 30
0.0
  0
LWPOLYLINE
  5
117
100
AcDbEntity
  8
0
 62
1
100
AcDbPolyline
 90
2
 70
0
 10
283.554311
 20
-70.727147
 30
0.0
 10
287.824333
 20
-68.282820
 30
0.0
  0
LWPOLYLINE
  5
118
100
AcDbEntity
  8
0
 62
1
100
AcDbPolyline
 90
2
 70
0
 10
292.094356
 20
-65.838493
 30
0.0
 10
296.364378
 20
-63.394167
 30
0.0
  0
LWPOLYLINE
  5
119
100
AcDbEntity
  8
0
 62
1
100
AcDbPolyline
 90
2
 70
0
 10
300.634400
 20
-60.949840
 30
0.0
 10
304.904422
 20
-58.505796
 30
0.0
  0
LWPOLYLINE
  5
11a
100
AcDbEntity
  8
0
 62
1
100
AcDbPolyline
 90
2
 70
0
 10
309.174444
 20
-56.061469
 30
0.0
 10
313.444467
 20
-53.617142
 30
0.0
  0
LWPOLYLINE
  5
11b
100
AcDbEntity
  8
0
 62
1
100
AcDbPolyline
 90
2
 70
0
 10
317.714489
 20
-51.172816
 30
0.0
 10
321.984511
 20
-48.728489
 30
0.0
  0
LWPOLYLINE
  5
11c
100
AcDbEntity
  8
0
 62
1
100
AcDbPolyline
 90
2
 70
0
 10
326.254533
 20
-46.284444
 30
0.0
 10
330.524556
 20
-43.840118
 30
0.0
  0
LWPOLYLINE
  5
11d
100
AcDbEntity
  8
0
 62
1
100
AcDbPolyline
 90
2
 70
0
 10
334.794578
 20
-41.395791
 30
0.0
 10
338.333644
 20
-39.370564
 30
0.0
  0
LWPOLYLINE
  5
11e
100
AcDbEntity
  8
0
 62
1
100
AcDbPolyline
 90
2
 70
0
 10
267.185422
 20
-79.937187
 30
0.0
 10
273.084713
 20
-81.483764
 30
0.0
  0
LWPOLYLINE
  5
11f
100
AcDbEntity
  8
0
 62
1
100
AcDbPolyline
 90
2
 70
0
 10
277.844109
 20
-82.731469
 30
0.0
 10
282.603222
 20
-83.979173
 30
0.0
  0
LWPOLYLINE
  5
120
100
AcDbEntity
  8
0
 62
1
100
AcDbPolyline
 90
2
 70
0
 10
287.364311
 20
-85.226878
 30
0.0
 10
292.122578
 20
-86.474582
 30
0.0
  0
LWPOLYLINE
  5
121
100
AcDbEntity
  8
0
 62
1
100
AcDbPolyline
 90
2
 70
0
 10
296.880844
 20
-87.722287
 30
0.0
 10
301.641933
 20
-88.969991
 30
0.0
  0
LWPOLYLINE
  5
122
100
AcDbEntity
  8
0
 62
1
100
AcDbPolyline
 90
2
 70
0
 10
306.400200
 20
-90.217696
 30
0.0
 10
311.161289
 20
-91.465400
 30
0.0
  0
LWPOLYLINE
  5
123
100
AcDbEntity
  8
0
 62
1
100
AcDbPolyline
 90
2
 70
0
 10
315.919556
 20
-92.712822
 30
0.0
 10
320.680644
 20
-93.960527
 30
0.0
  0
LWPOLYLINE
  5
124
100
AcDbEntity
  8
0
 62
1
100
AcDbPolyline
 90
2
 70
0
 10
325.438911
 20
-95.208231
 30
0.0
 10
331.337356
 20
-96.754809
 30
0.0
  0
LWPOLYLINE
  5
125
100
AcDbEntity
  8
0
 62
1
100
AcDbPolyline
 90
2
 70
0
 10
159.391773
 20
-1.675553
 30
0.0
 10
159.559696
 20
-5.566551
 30
0.0
  0
LWPOLYLINE
  5
126
100
AcDbEntity
  8
0
 62
1
100
AcDbPolyline
 90
2
 70
0
 10
159.771644
 20
-10.482298
 30
0.0
 10
159.983593
 20
-15.397762
 30
0.0
  0
LWPOLYLINE
  5
127
100
AcDbEntity
  8
0
 62
1
100
AcDbPolyline
 90
2
 70
0
 10
160.195260
 20
-20.313509
 30
0.0
 10
160.407209
 20
-25.229256
 30
0.0
  0
LWPOLYLINE
  5
128
100
AcDbEntity
  8
0
 62
1
100
AcDbPolyline
 90
2
 70
0
 10
160.619158
 20
-30.145002
 30
0.0
 10
160.831107
 20
-35.060749
 30
0.0
  0
LWPOLYLINE
  5
129
100
AcDbEntity
  8
0
 62
1
100
AcDbPolyline
 90
2
 70
0
 10
161.043056
 20
-39.976496
 30
0.0
 10
161.255004
 20
-44.892242
 30
0.0
  0
LWPOLYLINE
  5
12a
100
AcDbEntity
  8
0
 62
1
100
AcDbPolyline
 90
2
 70
0
 10
161.466953
 20
-49.807707
 30
0.0
 10
161.678902
 20
-54.723453
 30
0.0
  0
LWPOLYLINE
  5
12b
100
AcDbEntity
  8
0
 62
1
100
AcDbPolyline
 90
2
 70
0
 10
161.890851
 20
-59.639200
 30
0.0
 10
162.058491
 20
-63.530198
 30
0.0
  0
LWPOLYLINE
  5
12c
100
AcDbEntity
  8
0
 62
1
100
AcDbPolyline
 90
2
 70
0
 10
161.884642
 20
-63.440169
 30
0.0
 10
165.994927
 20
-60.786151
 30
0.0
  0
LWPOLYLINE
  5
12d
100
AcDbEntity
  8
0
 62
1
100
AcDbPolyline
 90
2
 70
0
 10
170.128353
 20
-58.116893
 30
0.0
 10
174.261780
 20
-55.447918
 30
0.0
  0
LWPOLYLINE
  5
12e
100
AcDbEntity
  8
0
 62
1
100
AcDbPolyline
 90
2
 70
0
 10
178.394924
 20
-52.778660
 30
0.0
 10
182.528351
 20
-50.109402
 30
0.0
  0
LWPOLYLINE
  5
12f
100
AcDbEntity
  8
0
 62
1
100
AcDbPolyline
 90
2
 70
0
 10
186.661778
 20
-47.440427
 30
0.0
 10
190.795204
 20
-44.771169
 30
0.0
  0
LWPOLYLINE
  5
130
100
AcDbEntity
  8
0
 62
1
100
AcDbPolyline
 90
2
 70
0
 10
194.928349
 20
-42.102193
 30
0.0
 10
199.061776
 20
-39.432936
 30
0.0
  0
LWPOLYLINE
  5
131
100
AcDbEntity
  8
0
 62
1
100
AcDbPolyline
 90
2
 70
0
 10
203.195202
 20
-36.763678
 30
0.0
 10
207.305487
 20
-34.109660
 30
0.0
  0
LWPOLYLINE
  5
132
100
AcDbEntity
  8
0
 62
1
100
AcDbPolyline
 90
2
 70
0
 10
135.304671
 20
-21.881253
 30
0.0
 10
136.726789
 20
-24.085127
 30
0.0
  0
LWPOLYLINE
  5
133
100
AcDbEntity
  8
0
 62
1
100
AcDbPolyline
 90
2
 70
0
 10
139.394353
 20
-28.219682
 30
0.0
 10
142.061918
 20
-32.353956
 30
0.0
  0
LWPOLYLINE
  5
134
100
AcDbEntity
  8
0
 62
1
100
AcDbPolyline
 90
2
 70
0
 10
144.729482
 20
-36.488511
 30
0.0
 10
147.397047
 20
-40.622784
 30
0.0
  0
LWPOLYLINE
  5
135
100
AcDbEntity
  8
0
 62
1
100
AcDbPolyline
 90
2
 70
0
 10
150.064611
 20
-44.757340
 30
0.0
 10
152.732176
 20
-48.891613
 30
0.0
  0
LWPOLYLINE
  5
136
100
AcDbEntity
  8
0
 62
1
100
AcDbPolyline
 90
2
 70
0
 10
155.399740
 20
-53.025887
 30
0.0
 10
158.067304
 20
-57.160442
 30
0.0
  0
LWPOLYLINE
  5
137
100
AcDbEntity
  8
0
 62
1
100
AcDbPolyline
 90
2
 70
0
 10
160.734587
 20
-61.294716
 30
0.0
 10
162.156704
 20
-63.498871
 30
0.0
  0
LWPOLYLINE
  5
138
100
AcDbEntity
  8
0
 62
1
100
AcDbPolyline
 90
2
 70
0
 10
267.425593
 20
-79.796922
 30
0.0
 10
265.813540
 20
-85.946262
 30
0.0
  0
LWPOLYLINE
  5
139
100
AcDbEntity
  8
0
 62
1
100
AcDbPolyline
 90
2
 70
0
 10
264.565836
 20
-90.705658
 30
0.0
 10
263.318131
 20
-95.465053
 30
0.0
  0
LWPOLYLINE
  5
13a
100
AcDbEntity
  8
0
 62
1
100
AcDbPolyline
 90
2
 70
0
 10
262.070427
 20
-100.224449
 30
0.0
 10
260.822722
 20
-104.983844
 30
0.0
  0
LWPOLYLINE
  5
13b
100
AcDbEntity
  8
0
 62
1
100
AcDbPolyline
 90
2
 70
0
 10
259.575300
 20
-109.743240
 30
0.0
 10
257.963247
 20
-115.892580
 30
0.0
  0
LWPOLYLINE
  5
13c
100
AcDbEntity
  8
0
 62
1
100
AcDbPolyline
 90
2
 70
0
 10
221.141149
 20
-81.686118
 30
0.0
 10
223.375502
 20
-83.747751
 30
0.0
  0
LWPOLYLINE
  5
13d
100
AcDbEntity
  8
0
 62
1
100
AcDbPolyline
 90
2
 70
0
 10
226.991898
 20
-87.083900
 30
0.0
 10
230.608293
 20
-90.420331
 30
0.0
  0
LWPOLYLINE
  5
13e
100
AcDbEntity
  8
0
 62
1
100
AcDbPolyline
 90
2
 70
0
 10
234.224689
 20
-93.756480
 30
0.0
 10
237.841084
 20
-97.092911
 30
0.0
  0
LWPOLYLINE
  5
13f
100
AcDbEntity
  8
0
 62
1
100
AcDbPolyline
 90
2
 70
0
 10
241.457480
 20
-100.429060
 30
0.0
 10
245.073876
 20
-103.765491
 30
0.0
  0
LWPOLYLINE
  5
140
100
AcDbEntity
  8
0
 62
1
100
AcDbPolyline
 90
2
 70
0
 10
248.690271
 20
-107.101640
 30
0.0
 10
252.306667
 20
-110.438071
 30
0.0
  0
LWPOLYLINE
  5
141
100
AcDbEntity
  8
0
 62
1
100
AcDbPolyline
 90
2
 70
0
 10
255.923062
 20
-113.774220
 30
0.0
 10
258.157698
 20
-115.835853
 30
0.0
  0
LWPOLYLINE
  5
142
100
AcDbEntity
  8
0
 62
1
100
AcDbPolyline
 90
2
 70
0
 10
221.422807
 20
-81.678498
 30
0.0
 10
218.732382
 20
-84.452742
 30
0.0
  0
LWPOLYLINE
  5
143
100
AcDbEntity
  8
0
 62
1
100
AcDbPolyline
 90
2
 70
0
 10
215.306769
 20
-87.984753
 30
0.0
 10
211.881438
 20
-91.517047
 30
0.0
  0
LWPOLYLINE
  5
144
100
AcDbEntity
  8
0
 62
1
100
AcDbPolyline
 90
2
 70
0
 10
208.456107
 20
-95.049058
 30
0.0
 10
205.030776
 20
-98.581069
 30
0.0
  0
LWPOLYLINE
  5
145
100
AcDbEntity
  8
0
 62
1
100
AcDbPolyline
 90
2
 70
0
 10
201.605444
 20
-102.113362
 30
0.0
 10
198.180113
 20
-105.645373
 30
0.0
  0
LWPOLYLINE
  5
146
100
AcDbEntity
  8
0
 62
1
100
AcDbPolyline
 90
2
 70
0
 10
194.754782
 20
-109.177667
 30
0.0
 10
192.064358
 20
-111.951911
 30
0.0
  0
LWPOLYLINE
  5
147
100
AcDbEntity
  8
0
 62
1
100
AcDbPolyline
 90
2
 70
0
 10
192.004809
 20
-111.798947
 30
0.0
 10
198.092907
 20
-112.159062
 30
0.0
  0
LWPOLYLINE
  5
148
100
AcDbEntity
  8
0
 62
1
100
AcDbPolyline
 90
2
 70
0
 10
203.004420
 20
-112.449469
 30
0.0
 10
207.916216
 20
-112.739876
 30
0.0
  0
LWPOLYLINE
  5
149
100
AcDbEntity
  8
0
 62
1
100
AcDbPolyline
 90
2
 70
0
 10
212.828011
 20
-113.030282
 30
0.0
 10
217.739524
 20
-113.320689
 30
0.0
  0
LWPOLYLINE
  5
14a
100
AcDbEntity
  8
0
 62
1
100
AcDbPolyline
 90
2
 70
0
 10
222.651320
 20
-113.611378
 30
0.0
 10
227.563116
 20
-113.901784
 30
0.0
  0
LWPOLYLINE
  5
14b
100
AcDbEntity
  8
0
 62
1
100
AcDbPolyline
 90
2
 70
0
 10
232.474629
 20
-114.192191
 30
0.0
 10
237.386424
 20
-114.482598
 30
0.0
  0
LWPOLYLINE
  5
14c
100
AcDbEntity
  8
0
 62
1
100
AcDbPolyline
 90
2
 70
0
 10
242.297938
 20
-114.773004
 30
0.0
 10
247.209733
 20
-115.063411
 30
0.0
  0
LWPOLYLINE
  5
14d
100
AcDbEntity
  8
0
 62
1
100
AcDbPolyline
 90
2
 70
0
 10
252.121529
 20
-115.353818
 30
0.0
 10
258.209627
 20
-115.713933
 30
0.0
  0
LWPOLYLINE
  5
14e
100
AcDbEntity
  8
0
 62
1
100
AcDbPolyline
 90
2
 70
0
 10
72.363189
 20
-148.018782
 30
0.0
 10
76.988529
 20
-147.150949
 30
0.0
  0
LWPOLYLINE
  5
14f
100
AcDbEntity
  8
0
 62
1
100
AcDbPolyline
 90
2
 70
0
 10
81.824407
 20
-146.243604
 30
0.0
 10
86.660284
 20
-145.336260
 30
0.0
  0
LWPOLYLINE
  5
150
100
AcDbEntity
  8
0
 62
1
100
AcDbPolyline
 90
2
 70
0
 10
91.496162
 20
-144.428916
 30
0.0
 10
96.332040
 20
-143.521853
 30
0.0
  0
LWPOLYLINE
  5
151
100
AcDbEntity
  8
0
 62
1
100
AcDbPolyline
 90
2
 70
0
 10
101.167918
 20
-142.614509
 30
0.0
 10
106.003796
 20
-141.707164
 30
0.0
  0
LWPOLYLINE
  5
152
100
AcDbEntity
  8
0
 62
1
100
AcDbPolyline
 90
2
 70
0
 10
110.839673
 20
-140.799820
 30
0.0
 10
115.675551
 20
-139.892476
 30
0.0
  0
LWPOLYLINE
  5
153
100
AcDbEntity
  8
0
 62
1
100
AcDbPolyline
 90
2
 70
0
 10
120.511429
 20
-138.985131
 30
0.0
 10
125.347307
 20
-138.077787
 30
0.0
  0
LWPOLYLINE
  5
154
100
AcDbEntity
  8
0
 62
1
100
AcDbPolyline
 90
2
 70
0
 10
130.183184
 20
-137.170724
 30
0.0
 10
135.019062
 20
-136.263380
 30
0.0
  0
LWPOLYLINE
  5
155
100
AcDbEntity
  8
0
 62
1
100
AcDbPolyline
 90
2
 70
0
 10
139.854940
 20
-135.356036
 30
0.0
 10
144.480280
 20
-134.488202
 30
0.0
  0
LWPOLYLINE
  5
156
100
AcDbEntity
  8
0
 62
1
100
AcDbPolyline
 90
2
 70
0
 10
99.046453
 20
-167.448371
 30
0.0
 10
103.843949
 20
-163.957000
 30
0.0
  0
LWPOLYLINE
  5
157
100
AcDbEntity
  8
0
 62
1
100
AcDbPolyline
 90
2
 70
0
 10
107.822153
 20
-161.061682
 30
0.0
 10
111.800358
 20
-158.166647
 30
0.0
  0
LWPOLYLINE
  5
158
100
AcDbEntity
  8
0
 62
1
100
AcDbPolyline
 90
2
 70
0
 10
115.778844
 20
-155.271329
 30
0.0
 10
119.757049
 20
-152.376011
 30
0.0
  0
LWPOLYLINE
  5
159
100
AcDbEntity
  8
0
 62
1
100
AcDbPolyline
 90
2
 70
0
 10
123.735253
 20
-149.480976
 30
0.0
 10
127.713740
 20
-146.585658
 30
0.0
  0
LWPOLYLINE
  5
15a
100
AcDbEntity
  8
0
 62
1
100
AcDbPolyline
 90
2
 70
0
 10
131.691944
 20
-143.690622
 30
0.0
 10
135.670149
 20
-140.795304
 30
0.0
  0
LWPOLYLINE
  5
15b
100
AcDbEntity
  8
0
 62
1
100
AcDbPolyline
 90
2
 70
0
 10
139.648636
 20
-137.899987
 30
0.0
 10
144.446131
 20
-134.408616
 30
0.0
  0
LWPOLYLINE
  5
15c
100
AcDbEntity
  8
0
 62
1
100
AcDbPolyline
 90
2
 70
0
 10
135.367042
 20
-21.854724
 30
0.0
 10
136.187744
 20
-25.400282
 30
0.0
  0
LWPOLYLINE
  5
15d
100
AcDbEntity
  8
0
 62
1
100
AcDbPolyline
 90
2
 70
0
 10
137.297442
 20
-30.193827
 30
0.0
 10
138.407140
 20
-34.987371
 30
0.0
  0
LWPOLYLINE
  5
15e
100
AcDbEntity
  8
0
 62
1
100
AcDbPolyline
 90
2
 70
0
 10
139.516838
 20
-39.780633
 30
0.0
 10
140.626536
 20
-44.574178
 30
0.0
  0
LWPOLYLINE
  5
15f
100
AcDbEntity
  8
0
 62
1
100
AcDbPolyline
 90
2
 70
0
 10
141.736233
 20
-49.367722
 30
0.0
 10
142.845931
 20
-54.161267
 30
0.0
  0
LWPOLYLINE
  5
160
100
AcDbEntity
  8
0
 62
1
100
AcDbPolyline
 90
2
 70
0
 10
143.955629
 20
-58.954811
 30
0.0
 10
145.065327
 20
-63.748356
 30
0.0
  0
LWPOLYLINE
  5
161
100
AcDbEntity
  8
0
 62
1
100
AcDbPolyline
 90
2
 70
0
 10
146.175024
 20
-68.541900
 30
0.0
 10
147.284440
 20
-73.335162
 30
0.0
  0
LWPOLYLINE
  5
162
100
AcDbEntity
  8
0
 62
1
100
AcDbPolyline
 90
2
 70
0
 10
148.394138
 20
-78.128707
 30
0.0
 10
149.503836
 20
-82.922251
 30
0.0
  0
LWPOLYLINE
  5
163
100
AcDbEntity
  8
0
 62
1
100
AcDbPolyline
 90
2
 70
0
 10
150.613533
 20
-87.715796
 30
0.0
 10
151.434236
 20
-91.261353
 30
0.0
  0
LWPOLYLINE
  5
164
100
AcDbEntity
  8
0
 62
1
100
AcDbPolyline
 90
2
 70
0
 10
119.784989
 20
-46.895738
 30
0.0
 10
122.761304
 20
-51.055693
 30
0.0
  0
LWPOLYLINE
  5
165
100
AcDbEntity
  8
0
 62
1
100
AcDbPolyline
 90
2
 70
0
 10
125.624449
 20
-55.057322
 30
0.0
 10
128.487311
 20
-59.058951
 30
0.0
  0
LWPOLYLINE
  5
166
100
AcDbEntity
  8
0
 62
1
100
AcDbPolyline
 90
2
 70
0
 10
131.350456
 20
-63.060298
 30
0.0
 10
134.213318
 20
-67.061927
 30
0.0
  0
LWPOLYLINE
  5
167
100
AcDbEntity
  8
0
 62
1
100
AcDbPolyline
 90
2
 70
0
 10
137.076180
 20
-71.063556
 30
0.0
 10
139.939324
 20
-75.064902
 30
0.0
  0
LWPOLYLINE
  5
168
100
AcDbEntity
  8
0
 62
1
100
AcDbPolyline
 90
2
 70
0
 10
142.802187
 20
-79.066531
 30
0.0
 10
145.665331
 20
-83.068160
 30
0.0
  0
LWPOLYLINE
  5
169
100
AcDbEntity
  8
0
 62
1
100
AcDbPolyline
 90
2
 70
0
 10
148.528193
 20
-87.069789
 30
0.0
 10
151.504509
 20
-91.229462
 30
0.0
  0
LWPOLYLINE
  5
16a
100
AcDbEntity
  8
0
 62
1
100
AcDbPolyline
 90
2
 70
0
 10
3.444804
 20
-48.597538
 30
0.0
 10
8.573064
 20
-47.041929
 30
0.0
  0
LWPOLYLINE
  5
16b
100
AcDbEntity
  8
0
 62
1
100
AcDbPolyline
 90
2
 70
0
 10
13.281378
 20
-45.613602
 30
0.0
 10
17.989973
 20
-44.185276
 30
0.0
  0
LWPOLYLINE
  5
16c
100
AcDbEntity
  8
0
 62
1
100
AcDbPolyline
 90
2
 70
0
 10
22.698287
 20
-42.756949
 30
0.0
 10
27.406600
 20
-41.328904
 30
0.0
  0
LWPOLYLINE
  5
16d
100
AcDbEntity
  8
0
 62
1
100
AcDbPolyline
 90
2
 70
0
 10
32.114913
 20
-39.900578
 30
0.0
 10
36.823509
 20
-38.472251
 30
0.0
  0
LWPOLYLINE
  5
16e
100
AcDbEntity
  8
0
 62
1
100
AcDbPolyline
 90
2
 70
0
 10
41.531822
 20
-37.043924
 30
0.0
 10
46.240136
 20
-35.615598
 30
0.0
  0
LWPOLYLINE
  5
16f
100
AcDbEntity
  8
0
 62
1
100
AcDbPolyline
 90
2
 70
0
 10
50.948731
 20
-34.187271
 30
0.0
 10
55.657044
 20
-32.758944
 30
0.0
  0
LWPOLYLINE
  5
170
100
AcDbEntity
  8
0
 62
1
100
AcDbPolyline
 90
2
 70
0
 10
60.365358
 20
-31.330900
 30
0.0
 10
65.493618
 20
-29.775291
 30
0.0
  0
LWPOLYLINE
  5
171
100
AcDbEntity
  8
0
 62
1
100
AcDbPolyline
 90
2
 70
0
 10
3.625427
 20
-66.137649
 30
0.0
 10
6.988387
 20
-64.158142
 30
0.0
  0
LWPOLYLINE
  5
172
100
AcDbEntity
  8
0
 62
1
100
AcDbPolyline
 90
2
 70
0
 10
11.228776
 20
-61.662169
 30
0.0
 10
15.468882
 20
-59.166478
 30
0.0
  0
LWPOLYLINE
  5
173
100
AcDbEntity
  8
0
 62
1
100
AcDbPolyline
 90
2
 70
0
 10
19.709271
 20
-56.670504
 30
0.0
 10
23.949378
 20
-54.174813
 30
0.0
  0
LWPOLYLINE
  5
174
100
AcDbEntity
  8
0
 62
1
100
AcDbPolyline
 90
2
 70
0
 10
28.189767
 20
-51.678840
 30
0.0
 10
32.429873
 20
-49.182867
 30
0.0
  0
LWPOLYLINE
  5
175
100
AcDbEntity
  8
0
 62
1
100
AcDbPolyline
 90
2
 70
0
 10
36.670262
 20
-46.687176
 30
0.0
 10
40.910651
 20
-44.191202
 30
0.0
  0
LWPOLYLINE
  5
176
100
AcDbEntity
  8
0
 62
1
100
AcDbPolyline
 90
2
 70
0
 10
45.150758
 20
-41.695511
 30
0.0
 10
49.391147
 20
-39.199538
 30
0.0
  0
LWPOLYLINE
  5
177
100
AcDbEntity
  8
0
 62
1
100
AcDbPolyline
 90
2
 70
0
 10
53.631253
 20
-36.703564
 30
0.0
 10
57.871642
 20
-34.207873
 30
0.0
  0
LWPOLYLINE
  5
178
100
AcDbEntity
  8
0
 62
1
100
AcDbPolyline
 90
2
 70
0
 10
62.111749
 20
-31.711900
 30
0.0
 10
65.474991
 20
-29.732393
 30
0.0
  0
LWPOLYLINE
  5
179
100
AcDbEntity
  8
0
 62
1
100
AcDbPolyline
 90
2
 70
0
 10
192.010171
 20
-111.763104
 30
0.0
 10
198.722827
 20
-113.435553
 30
0.0
  0
LWPOLYLINE
  5
17a
100
AcDbEntity
  8
0
 62
1
100
AcDbPolyline
 90
2
 70
0
 10
203.497180
 20
-114.625402
 30
0.0
 10
208.271533
 20
-115.814969
 30
0.0
  0
LWPOLYLINE
  5
17b
100
AcDbEntity
  8
0
 62
1
100
AcDbPolyline
 90
2
 70
0
 10
213.045604
 20
-117.004536
 30
0.0
 10
217.819958
 20
-118.194384
 30
0.0
  0
LWPOLYLINE
  5
17c
100
AcDbEntity
  8
0
 62
1
100
AcDbPolyline
 90
2
 70
0
 10
222.594311
 20
-119.383951
 30
0.0
 10
227.368664
 20
-120.573518
 30
0.0
  0
LWPOLYLINE
  5
17d
100
AcDbEntity
  8
0
 62
1
100
AcDbPolyline
 90
2
 70
0
 10
232.142736
 20
-121.763367
 30
0.0
 10
236.917089
 20
-122.952933
 30
0.0
  0
LWPOLYLINE
  5
17e
100
AcDbEntity
  8
0
 62
1
100
AcDbPolyline
 90
2
 70
0
 10
241.691442
 20
-124.142500
 30
0.0
 10
246.465796
 20
-125.332349
 30
0.0
  0
LWPOLYLINE
  5
17f
100
AcDbEntity
  8
0
 62
1
100
AcDbPolyline
 90
2
 70
0
 10
251.239867
 20
-126.521916
 30
0.0
 10
256.014220
 20
-127.711482
 30
0.0
  0
LWPOLYLINE
  5
180
100
AcDbEntity
  8
0
 62
1
100
AcDbPolyline
 90
2
 70
0
 10
260.788573
 20
-128.901049
 30
0.0
 10
267.501229
 20
-130.573780
 30
0.0
  0
LWPOLYLINE
  5
181
100
AcDbEntity
  8
0
 62
1
100
AcDbPolyline
 90
2
 70
0
 10
198.482373
 20
-138.227082
 30
0.0
 10
201.210616
 20
-137.922000
 30
0.0
  0
LWPOLYLINE
  5
182
100
AcDbEntity
  8
0
 62
1
100
AcDbPolyline
 90
2
 70
0
 10
206.100398
 20
-137.374771
 30
0.0
 10
210.990180
 20
-136.827824
 30
0.0
  0
LWPOLYLINE
  5
183
100
AcDbEntity
  8
0
 62
1
100
AcDbPolyline
 90
2
 70
0
 10
215.879962
 20
-136.280596
 30
0.0
 10
220.769744
 20
-135.733649
 30
0.0
  0
LWPOLYLINE
  5
184
100
AcDbEntity
  8
0
 62
1
100
AcDbPolyline
 90
2
 70
0
 10
225.659527
 20
-135.186420
 30
0.0
 10
230.549309
 20
-134.639191
 30
0.0
  0
LWPOLYLINE
  5
185
100
AcDbEntity
  8
0
 62
1
100
AcDbPolyline
 90
2
 70
0
 10
235.439091
 20
-134.092244
 30
0.0
 10
240.328873
 20
-133.545016
 30
0.0
  0
LWPOLYLINE
  5
186
100
AcDbEntity
  8
0
 62
1
100
AcDbPolyline
 90
2
 70
0
 10
245.218656
 20
-132.998069
 30
0.0
 10
250.108156
 20
-132.450840
 30
0.0
  0
LWPOLYLINE
  5
187
100
AcDbEntity
  8
0
 62
1
100
AcDbPolyline
 90
2
 70
0
 10
254.997938
 20
-131.903893
 30
0.0
 10
259.887720
 20
-131.356664
 30
0.0
  0
LWPOLYLINE
  5
188
100
AcDbEntity
  8
0
 62
1
100
AcDbPolyline
 90
2
 70
0
 10
264.777502
 20
-130.809718
 30
0.0
 10
267.505744
 20
-130.504353
 30
0.0
  0
LWPOLYLINE
  5
189
100
AcDbEntity
  8
0
 62
1
100
AcDbPolyline
 90
2
 70
0
 10
192.163982
 20
-112.003840
 30
0.0
 10
192.694278
 20
-109.249916
 30
0.0
  0
LWPOLYLINE
  5
18a
100
AcDbEntity
  8
0
 62
1
100
AcDbPolyline
 90
2
 70
0
 10
193.624482
 20
-104.418553
 30
0.0
 10
194.554687
 20
-99.586909
 30
0.0
  0
LWPOLYLINE
  5
18b
100
AcDbEntity
  8
0
 62
1
100
AcDbPolyline
 90
2
 70
0
 10
195.484891
 20
-94.755547
 30
0.0
 10
196.415096
 20
-89.923902
 30
0.0
  0
LWPOLYLINE
  5
18c
100
AcDbEntity
  8
0
 62
1
100
AcDbPolyline
 90
2
 70
0
 10
197.345300
 20
-85.092258
 30
0.0
 10
198.275222
 20
-80.260896
 30
0.0
  0
LWPOLYLINE
  5
18d
100
AcDbEntity
  8
0
 62
1
100
AcDbPolyline
 90
2
 70
0
 10
199.205427
 20
-75.429251
 30
0.0
 10
200.135631
 20
-70.597607
 30
0.0
  0
LWPOLYLINE
  5
18e
100
AcDbEntity
  8
0
 62
1
100
AcDbPolyline
 90
2
 70
0
 10
201.065836
 20
-65.766244
 30
0.0
 10
201.996040
 20
-60.934600
 30
0.0
  0
LWPOLYLINE
  5
18f
100
AcDbEntity
  8
0
 62
1
100
AcDbPolyline
 90
2
 70
0
 10
202.926244
 20
-56.102956
 30
0.0
 10
203.856449
 20
-51.271593
 30
0.0
  0
LWPOLYLINE
  5
190
100
AcDbEntity
  8
0
 62
1
100
AcDbPolyline
 90
2
 70
0
 10
204.786653
 20
-46.439949
 30
0.0
 10
205.716858
 20
-41.608587
 30
0.0
  0
LWPOLYLINE
  5
191
100
AcDbEntity
  8
0
 62
1
100
AcDbPolyline
 90
2
 70
0
 10
206.647062
 20
-36.776942
 30
0.0
 10
207.177358
 20
-34.023018
 30
0.0
  0
LWPOLYLINE
  5
192
100
AcDbEntity
  8
0
 62
1
100
AcDbPolyline
 90
2
 70
0
 10
99.009200
 20
-167.345924
 30
0.0
 10
106.338511
 20
-166.847520
 30
0.0
  0
LWPOLYLINE
  5
193
100
AcDbEntity
  8
0
 62
1
100
AcDbPolyline
 90
2
 70
0
 10
111.247484
 20
-166.513651
 30
0.0
 10
116.156458
 20
-166.180064
 30
0.0
  0
LWPOLYLINE
  5
194
100
AcDbEntity
  8
0
 62
1
100
AcDbPolyline
 90
2
 70
0
 10
121.065431
 20
-165.846196
 30
0.0
 10
125.974404
 20
-165.512327
 30
0.0
  0
LWPOLYLINE
  5
195
100
AcDbEntity
  8
0
 62
1
100
AcDbPolyline
 90
2
 70
0
 10
130.883378
 20
-165.178740
 30
0.0
 10
135.792069
 20
-164.844871
 30
0.0
  0
LWPOLYLINE
  5
196
100
AcDbEntity
  8
0
 62
1
100
AcDbPolyline
 90
2
 70
0
 10
140.701042
 20
-164.511002
 30
0.0
 10
148.030636
 20
-164.012598
 30
0.0
  0
LWPOLYLINE
  5
197
100
AcDbEntity
  8
0
 62
1
100
AcDbPolyline
 90
2
 70
0
 10
119.880662
 20
-46.859896
 30
0.0
 10
120.297504
 20
-51.193982
 30
0.0
  0
LWPOLYLINE
  5
198
100
AcDbEntity
  8
0
 62
1
100
AcDbPolyline
 90
2
 70
0
 10
120.768251
 20
-56.091667
 30
0.0
 10
121.238998
 20
-60.989351
 30
0.0
  0
LWPOLYLINE
  5
199
100
AcDbEntity
  8
0
 62
1
100
AcDbPolyline
 90
2
 70
0
 10
121.710027
 20
-65.887036
 30
0.0
 10
122.180773
 20
-70.784720
 30
0.0
  0
LWPOLYLINE
  5
19a
100
AcDbEntity
  8
0
 62
1
100
AcDbPolyline
 90
2
 70
0
 10
122.651520
 20
-75.682404
 30
0.0
 10
123.122549
 20
-80.580089
 30
0.0
  0
LWPOLYLINE
  5
19b
100
AcDbEntity
  8
0
 62
1
100
AcDbPolyline
 90
2
 70
0
 10
123.593296
 20
-85.477773
 30
0.0
 10
124.064042
 20
-90.375458
 30
0.0
  0
LWPOLYLINE
  5
19c
100
AcDbEntity
  8
0
 62
1
100
AcDbPolyline
 90
2
 70
0
 10
124.535071
 20
-95.273142
 30
0.0
 10
125.005818
 20
-100.170827
 30
0.0
  0
LWPOLYLINE
  5
19d
100
AcDbEntity
  8
0
 62
1
100
AcDbPolyline
 90
2
 70
0
 10
125.476564
 20
-105.068511
 30
0.0
 10
125.893407
 20
-109.402598
 30
0.0
  0
LWPOLYLINE
  5
19e
100
AcDbEntity
  8
0
 62
1
100
AcDbPolyline
 90
2
 70
0
 10
3.599744
 20
-66.061731
 30
0.0
 10
8.815776
 20
-65.426167
 30
0.0
  0
LWPOLYLINE
  5
19f
100
AcDbEntity
  8
0
 62
1
100
AcDbPolyline
 90
2
 70
0
 10
13.699913
 20
-64.831242
 30
0.0
 10
18.584051
 20
-64.236036
 30
0.0
  0
LWPOLYLINE
  5
1a0
100
AcDbEntity
  8
0
 62
1
100
AcDbPolyline
 90
2
 70
0
 10
23.468189
 20
-63.641111
 30
0.0
 10
28.352327
 20
-63.045904
 30
0.0
  0
LWPOLYLINE
  5
1a1
100
AcDbEntity
  8
0
 62
1
100
AcDbPolyline
 90
2
 70
0
 10
33.236464
 20
-62.450980
 30
0.0
 10
38.120602
 20
-61.856056
 30
0.0
  0
LWPOLYLINE
  5
1a2
100
AcDbEntity
  8
0
 62
1
100
AcDbPolyline
 90
2
 70
0
 10
43.004740
 20
-61.260849
 30
0.0
 10
47.889160
 20
-60.665924
 30
0.0
  0
LWPOLYLINE
  5
1a3
100
AcDbEntity
  8
0
 62
1
100
AcDbPolyline
 90
2
 70
0
 10
52.773298
 20
-60.070718
 30
0.0
 10
57.657436
 20
-59.475793
 30
0.0
  0
LWPOLYLINE
  5
1a4
100
AcDbEntity
  8
0
 62
1
100
AcDbPolyline
 90
2
 70
0
 10
62.541573
 20
-58.880869
 30
0.0
 10
67.425711
 20
-58.285662
 30
0.0
  0
LWPOLYLINE
  5
1a5
100
AcDbEntity
  8
0
 62
1
100
AcDbPolyline
 90
2
 70
0
 10
72.309849
 20
-57.690738
 30
0.0
 10
77.193987
 20
-57.095531
 30
0.0
  0
LWPOLYLINE
  5
1a6
100
AcDbEntity
  8
0
 62
1
100
AcDbPolyline
 90
2
 70
0
 10
82.078124
 20
-56.500607
 30
0.0
 10
87.294156
 20
-55.865042
 30
0.0
  0
LWPOLYLINE
  5
1a7
100
AcDbEntity
  8
0
 62
1
100
AcDbPolyline
 90
2
 70
0
 10
198.507209
 20
-138.107702
 30
0.0
 10
202.852584
 20
-140.587871
 30
0.0
  0
LWPOLYLINE
  5
1a8
100
AcDbEntity
  8
0
 62
1
100
AcDbPolyline
 90
2
 70
0
 10
207.125711
 20
-143.026836
 30
0.0
 10
211.399120
 20
-145.465800
 30
0.0
  0
LWPOLYLINE
  5
1a9
100
AcDbEntity
  8
0
 62
1
100
AcDbPolyline
 90
2
 70
0
 10
215.672247
 20
-147.904764
 30
0.0
 10
219.945373
 20
-150.343729
 30
0.0
  0
LWPOLYLINE
  5
1aa
100
AcDbEntity
  8
0
 62
1
100
AcDbPolyline
 90
2
 70
0
 10
224.218782
 20
-152.782693
 30
0.0
 10
228.491909
 20
-155.221658
 30
0.0
  0
LWPOLYLINE
  5
1ab
100
AcDbEntity
  8
0
 62
1
100
AcDbPolyline
 90
2
 70
0
 10
232.765036
 20
-157.660622
 30
0.0
 10
237.038444
 20
-160.099587
 30
0.0
  0
LWPOLYLINE
  5
1ac
100
AcDbEntity
  8
0
 62
1
100
AcDbPolyline
 90
2
 70
0
 10
241.311571
 20
-162.538551
 30
0.0
 10
245.584980
 20
-164.977516
 30
0.0
  0
LWPOLYLINE
  5
1ad
100
AcDbEntity
  8
0
 62
1
100
AcDbPolyline
 90
2
 70
0
 10
249.858107
 20
-167.416480
 30
0.0
 10
254.203482
 20
-169.896649
 30
0.0
  0
LWPOLYLINE
  5
1ae
100
AcDbEntity
  8
0
 62
1
100
AcDbPolyline
 90
3
 70
0
 10
89.290878
 20
-94.233153
 30
0.0
 10
67.993542
 20
-104.907644
 30
0.0
 10
75.102438
 20
-107.268433
 30
0.0
  0
LWPOLYLINE
  5
1af
100
AcDbEntity
  8
0
 62
1
100
AcDbPolyline
 90
56
 70
1
 10
54.827876
 20
-18.526760
 30
0.0
 10
54.831544
 20
-18.562038
 30
0.0
 10
54.841422
 20
-18.595622
 30
0.0
 10
54.856662
 20
-18.626384
 30
0.0
 10
54.876982
 20
-18.654042
 30
0.0
 10
54.901253
 20
-18.678031
 30
0.0
 10
54.929476
 20
-18.697222
 30
0.0
 10
54.960520
 20
-18.711898
 30
0.0
 10
54.994387
 20
-18.720929
 30
0.0
 10
55.030229
 20
-18.723751
 30
0.0
 10
55.171340
 20
-18.715002
 30
0.0
 10
55.309347
 20
-18.692424
 30
0.0
 10
55.443684
 20
-18.656018
 30
0.0
 10
55.573224
 20
-18.606629
 30
0.0
 10
55.696838
 20
-18.544540
 30
0.0
 10
55.813960
 20
-18.470316
 30
0.0
 10
55.923462
 20
-18.384520
 30
0.0
 10
56.024498
 20
-18.287436
 30
0.0
 10
56.115938
 20
-18.179627
 30
0.0
 10
56.124404
 20
-18.167209
 30
0.0
 10
56.132024
 20
-18.154509
 30
0.0
 10
56.138798
 20
-18.141244
 30
0.0
 10
56.144442
 20
-18.127698
 30
0.0
 10
56.149240
 20
-18.113587
 30
0.0
 10
56.152627
 20
-18.099193
 30
0.0
 10
56.155167
 20
-18.084800
 30
0.0
 10
56.156578
 20
-18.070124
 30
0.0
 10
56.156860
 20
-18.055731
 30
0.0
 10
56.153191
 20
-18.019889
 30
0.0
 10
56.143596
 20
-17.986022
 30
0.0
 10
56.128356
 20
-17.954978
 30
0.0
 10
56.108318
 20
-17.927320
 30
0.0
 10
56.083764
 20
-17.903331
 30
0.0
 10
56.055824
 20
-17.883858
 30
0.0
 10
56.024498
 20
-17.869464
 30
0.0
 10
55.990349
 20
-17.860433
 30
0.0
 10
55.954507
 20
-17.857611
 30
0.0
 10
55.813678
 20
-17.866642
 30
0.0
 10
55.675671
 20
-17.889220
 30
0.0
 10
55.541616
 20
-17.925627
 30
0.0
 10
55.412076
 20
-17.975298
 30
0.0
 10
55.288180
 20
-18.037104
 30
0.0
 10
55.171058
 20
-18.111329
 30
0.0
 10
55.061556
 20
-18.197124
 30
0.0
 10
54.960520
 20
-18.294209
 30
0.0
 10
54.868798
 20
-18.401736
 30
0.0
 10
54.860331
 20
-18.413871
 30
0.0
 10
54.852711
 20
-18.426571
 30
0.0
 10
54.846220
 20
-18.439836
 30
0.0
 10
54.840576
 20
-18.453382
 30
0.0
 10
54.835778
 20
-18.467493
 30
0.0
 10
54.832109
 20
-18.481887
 30
0.0
 10
54.829569
 20
-18.496562
 30
0.0
 10
54.828158
 20
-18.511520
 30
0.0
 10
54.827876
 20
-18.526760
 30
0.0
 10
54.827876
 20
-18.526760
 30
0.0
  0
LWPOLYLINE
  5
1b0
100
AcDbEntity
  8
0
 62
1
100
AcDbPolyline
 90
56
 70
1
 10
30.738516
 20
-29.242738
 30
0.0
 10
30.771536
 20
-29.229191
 30
0.0
 10
30.800887
 20
-29.210282
 30
0.0
 10
30.826287
 20
-29.187140
 30
0.0
 10
30.847171
 20
-29.160047
 30
0.0
 10
30.863258
 20
-29.129849
 30
0.0
 10
30.873982
 20
-29.097393
 30
0.0
 10
30.879062
 20
-29.063527
 30
0.0
 10
30.878216
 20
-29.028531
 30
0.0
 10
30.870878
 20
-28.993253
 30
0.0
 10
30.823182
 20
-28.860327
 30
0.0
 10
30.762787
 20
-28.734173
 30
0.0
 10
30.690538
 20
-28.615358
 30
0.0
 10
30.606718
 20
-28.505009
 30
0.0
 10
30.512456
 20
-28.403409
 30
0.0
 10
30.408598
 20
-28.311687
 30
0.0
 10
30.295427
 20
-28.230689
 30
0.0
 10
30.173789
 20
-28.160980
 30
0.0
 10
30.044813
 20
-28.103407
 30
0.0
 10
30.030702
 20
-28.098609
 30
0.0
 10
30.016309
 20
-28.094658
 30
0.0
 10
30.001633
 20
-28.092118
 30
0.0
 10
29.986958
 20
-28.090424
 30
0.0
 10
29.972000
 20
-28.089860
 30
0.0
 10
29.957324
 20
-28.090424
 30
0.0
 10
29.942649
 20
-28.092118
 30
0.0
 10
29.928256
 20
-28.094940
 30
0.0
 10
29.914427
 20
-28.098609
 30
0.0
 10
29.880842
 20
-28.112156
 30
0.0
 10
29.851209
 20
-28.131064
 30
0.0
 10
29.825809
 20
-28.154207
 30
0.0
 10
29.804642
 20
-28.181300
 30
0.0
 10
29.788556
 20
-28.211498
 30
0.0
 10
29.777831
 20
-28.243953
 30
0.0
 10
29.772469
 20
-28.278102
 30
0.0
 10
29.773598
 20
-28.313098
 30
0.0
 10
29.780936
 20
-28.348376
 30
0.0
 10
29.828913
 20
-28.481020
 30
0.0
 10
29.889309
 20
-28.607173
 30
0.0
 10
29.961840
 20
-28.725707
 30
0.0
 10
30.045660
 20
-28.836338
 30
0.0
 10
30.139922
 20
-28.937656
 30
0.0
 10
30.243780
 20
-29.029378
 30
0.0
 10
30.356951
 20
-29.110658
 30
0.0
 10
30.478307
 20
-29.180367
 30
0.0
 10
30.607282
 20
-29.238222
 30
0.0
 10
30.621393
 20
-29.243020
 30
0.0
 10
30.635504
 20
-29.246971
 30
0.0
 10
30.650180
 20
-29.249511
 30
0.0
 10
30.664856
 20
-29.251204
 30
0.0
 10
30.679531
 20
-29.251769
 30
0.0
 10
30.694207
 20
-29.251204
 30
0.0
 10
30.709164
 20
-29.249511
 30
0.0
 10
30.723840
 20
-29.246689
 30
0.0
 10
30.738516
 20
-29.242738
 30
0.0
 10
30.738516
 20
-29.242738
 30
0.0
  0
LWPOLYLINE
  5
1b1
100
AcDbEntity
  8
0
 62
1
100
AcDbPolyline
 90
56
 70
1
 10
8.015676
 20
-57.336549
 30
0.0
 10
8.028093
 20
-57.302964
 30
0.0
 10
8.033738
 20
-57.268533
 30
0.0
 10
8.033738
 20
-57.234102
 30
0.0
 10
8.027811
 20
-57.200518
 30
0.0
 10
8.016240
 20
-57.168344
 30
0.0
 10
7.999589
 20
-57.138711
 30
0.0
 10
7.977858
 20
-57.111900
 30
0.0
 10
7.951611
 20
-57.089040
 30
0.0
 10
7.920567
 20
-57.070696
 30
0.0
 10
7.790180
 20
-57.016227
 30
0.0
 10
7.656124
 20
-56.975869
 30
0.0
 10
7.519811
 20
-56.949622
 30
0.0
 10
7.381804
 20
-56.936922
 30
0.0
 10
7.243233
 20
-56.938333
 30
0.0
 10
7.105227
 20
-56.953291
 30
0.0
 10
6.969196
 20
-56.982360
 30
0.0
 10
6.835704
 20
-57.025258
 30
0.0
 10
6.706164
 20
-57.081702
 30
0.0
 10
6.693182
 20
-57.089040
 30
0.0
 10
6.680764
 20
-57.097224
 30
0.0
 10
6.668911
 20
-57.106256
 30
0.0
 10
6.657904
 20
-57.115851
 30
0.0
 10
6.647462
 20
-57.126576
 30
0.0
 10
6.637867
 20
-57.137864
 30
0.0
 10
6.629400
 20
-57.149718
 30
0.0
 10
6.621498
 20
-57.162136
 30
0.0
 10
6.615007
 20
-57.175118
 30
0.0
 10
6.602589
 20
-57.208984
 30
0.0
 10
6.596380
 20
-57.243416
 30
0.0
 10
6.596380
 20
-57.278129
 30
0.0
 10
6.602307
 20
-57.311713
 30
0.0
 10
6.613596
 20
-57.343887
 30
0.0
 10
6.630247
 20
-57.373802
 30
0.0
 10
6.651978
 20
-57.400613
 30
0.0
 10
6.678507
 20
-57.423473
 30
0.0
 10
6.709833
 20
-57.441818
 30
0.0
 10
6.839938
 20
-57.496004
 30
0.0
 10
6.973993
 20
-57.536080
 30
0.0
 10
7.110589
 20
-57.562327
 30
0.0
 10
7.248596
 20
-57.575027
 30
0.0
 10
7.386884
 20
-57.573616
 30
0.0
 10
7.524891
 20
-57.558658
 30
0.0
 10
7.660922
 20
-57.529589
 30
0.0
 10
7.794413
 20
-57.486973
 30
0.0
 10
7.923953
 20
-57.430529
 30
0.0
 10
7.936936
 20
-57.423473
 30
0.0
 10
7.949353
 20
-57.415571
 30
0.0
 10
7.961207
 20
-57.406540
 30
0.0
 10
7.972213
 20
-57.396662
 30
0.0
 10
7.982656
 20
-57.386220
 30
0.0
 10
7.992251
 20
-57.374931
 30
0.0
 10
8.001000
 20
-57.362796
 30
0.0
 10
8.008620
 20
-57.350096
 30
0.0
 10
8.015676
 20
-57.336549
 30
0.0
 10
8.015676
 20
-57.336549
 30
0.0
  0
LWPOLYLINE
  5
1b2
100
AcDbEntity
  8
0
 62
1
100
AcDbPolyline
 90
56
 70
1
 10
21.821140
 20
-77.300384
 30
0.0
 10
21.805618
 20
-77.268211
 30
0.0
 10
21.785016
 20
-77.239989
 30
0.0
 10
21.760180
 20
-77.216282
 30
0.0
 10
21.731958
 20
-77.197091
 30
0.0
 10
21.700913
 20
-77.182698
 30
0.0
 10
21.667893
 20
-77.173949
 30
0.0
 10
21.633462
 20
-77.170844
 30
0.0
 10
21.598749
 20
-77.173949
 30
0.0
 10
21.564036
 20
-77.183262
 30
0.0
 10
21.434213
 20
-77.238860
 30
0.0
 10
21.312011
 20
-77.306876
 30
0.0
 10
21.197711
 20
-77.386180
 30
0.0
 10
21.092442
 20
-77.476491
 30
0.0
 10
20.996769
 20
-77.576680
 30
0.0
 10
20.911538
 20
-77.685900
 30
0.0
 10
20.837596
 20
-77.803869
 30
0.0
 10
20.775224
 20
-77.929176
 30
0.0
 10
20.725553
 20
-78.061538
 30
0.0
 10
20.721602
 20
-78.075931
 30
0.0
 10
20.718780
 20
-78.090607
 30
0.0
 10
20.716804
 20
-78.105282
 30
0.0
 10
20.716240
 20
-78.120240
 30
0.0
 10
20.716522
 20
-78.134916
 30
0.0
 10
20.717933
 20
-78.149591
 30
0.0
 10
20.720473
 20
-78.163984
 30
0.0
 10
20.723860
 20
-78.178378
 30
0.0
 10
20.728658
 20
-78.192207
 30
0.0
 10
20.744180
 20
-78.224662
 30
0.0
 10
20.764782
 20
-78.253167
 30
0.0
 10
20.789618
 20
-78.277156
 30
0.0
 10
20.817840
 20
-78.296629
 30
0.0
 10
20.848884
 20
-78.310740
 30
0.0
 10
20.881904
 20
-78.319771
 30
0.0
 10
20.916336
 20
-78.322876
 30
0.0
 10
20.951049
 20
-78.319771
 30
0.0
 10
20.986044
 20
-78.310176
 30
0.0
 10
21.115584
 20
-78.254296
 30
0.0
 10
21.237787
 20
-78.186280
 30
0.0
 10
21.351804
 20
-78.106976
 30
0.0
 10
21.457073
 20
-78.016664
 30
0.0
 10
21.552747
 20
-77.916476
 30
0.0
 10
21.637978
 20
-77.807256
 30
0.0
 10
21.712202
 20
-77.689287
 30
0.0
 10
21.774573
 20
-77.563980
 30
0.0
 10
21.824527
 20
-77.431900
 30
0.0
 10
21.828478
 20
-77.417507
 30
0.0
 10
21.831300
 20
-77.403113
 30
0.0
 10
21.833276
 20
-77.388438
 30
0.0
 10
21.833840
 20
-77.373480
 30
0.0
 10
21.833558
 20
-77.358804
 30
0.0
 10
21.832147
 20
-77.344129
 30
0.0
 10
21.829324
 20
-77.329453
 30
0.0
 10
21.825938
 20
-77.314778
 30
0.0
 10
21.821140
 20
-77.300384
 30
0.0
 10
21.821140
 20
-77.300384
 30
0.0
  0
LWPOLYLINE
  5
1b3
100
AcDbEntity
  8
0
 62
1
100
AcDbPolyline
 90
56
 70
1
 10
56.698444
 20
-118.864380
 30
0.0
 10
56.688849
 20
-118.829949
 30
0.0
 10
56.673891
 20
-118.798622
 30
0.0
 10
56.653853
 20
-118.770682
 30
0.0
 10
56.629300
 20
-118.746693
 30
0.0
 10
56.601360
 20
-118.727220
 30
0.0
 10
56.570316
 20
-118.712544
 30
0.0
 10
56.537296
 20
-118.703231
 30
0.0
 10
56.502300
 20
-118.700127
 30
0.0
 10
56.466458
 20
-118.702949
 30
0.0
 10
56.329016
 20
-118.734558
 30
0.0
 10
56.196371
 20
-118.779431
 30
0.0
 10
56.069936
 20
-118.837287
 30
0.0
 10
55.950273
 20
-118.907278
 30
0.0
 10
55.838231
 20
-118.988558
 30
0.0
 10
55.734938
 20
-119.080844
 30
0.0
 10
55.640676
 20
-119.183573
 30
0.0
 10
55.557138
 20
-119.295898
 30
0.0
 10
55.484607
 20
-119.417253
 30
0.0
 10
55.478116
 20
-119.430800
 30
0.0
 10
55.472471
 20
-119.444629
 30
0.0
 10
55.468238
 20
-119.458740
 30
0.0
 10
55.464851
 20
-119.473133
 30
0.0
 10
55.462593
 20
-119.487809
 30
0.0
 10
55.461182
 20
-119.502484
 30
0.0
 10
55.461182
 20
-119.517160
 30
0.0
 10
55.462029
 20
-119.531836
 30
0.0
 10
55.464287
 20
-119.546229
 30
0.0
 10
55.473882
 20
-119.580942
 30
0.0
 10
55.488840
 20
-119.612833
 30
0.0
 10
55.508878
 20
-119.640773
 30
0.0
 10
55.533149
 20
-119.665044
 30
0.0
 10
55.561371
 20
-119.684518
 30
0.0
 10
55.592133
 20
-119.699193
 30
0.0
 10
55.625436
 20
-119.708224
 30
0.0
 10
55.660431
 20
-119.711611
 30
0.0
 10
55.696273
 20
-119.708507
 30
0.0
 10
55.833716
 20
-119.676616
 30
0.0
 10
55.966078
 20
-119.631742
 30
0.0
 10
56.092513
 20
-119.573887
 30
0.0
 10
56.212176
 20
-119.503896
 30
0.0
 10
56.324218
 20
-119.422333
 30
0.0
 10
56.427793
 20
-119.330047
 30
0.0
 10
56.521773
 20
-119.227600
 30
0.0
 10
56.605593
 20
-119.115276
 30
0.0
 10
56.678407
 20
-118.994202
 30
0.0
 10
56.684898
 20
-118.980938
 30
0.0
 10
56.690260
 20
-118.967109
 30
0.0
 10
56.694776
 20
-118.952998
 30
0.0
 10
56.698162
 20
-118.938604
 30
0.0
 10
56.700420
 20
-118.923929
 30
0.0
 10
56.701549
 20
-118.909253
 30
0.0
 10
56.701549
 20
-118.894296
 30
0.0
 10
56.700702
 20
-118.879338
 30
0.0
 10
56.698444
 20
-118.864380
 30
0.0
 10
56.698444
 20
-118.864380
 30
0.0
  0
LWPOLYLINE
  5
1b4
100
AcDbEntity
  8
0
 62
1
100
AcDbPolyline
 90
56
 70
1
 10
88.478642
 20
-154.228518
 30
0.0
 10
88.459169
 20
-154.198602
 30
0.0
 10
88.434898
 20
-154.173484
 30
0.0
 10
88.407240
 20
-154.153164
 30
0.0
 10
88.376478
 20
-154.137924
 30
0.0
 10
88.344022
 20
-154.127764
 30
0.0
 10
88.310156
 20
-154.123531
 30
0.0
 10
88.275724
 20
-154.125224
 30
0.0
 10
88.241576
 20
-154.132844
 30
0.0
 10
88.208273
 20
-154.146673
 30
0.0
 10
88.087200
 20
-154.219204
 30
0.0
 10
87.975158
 20
-154.302742
 30
0.0
 10
87.872429
 20
-154.396722
 30
0.0
 10
87.780142
 20
-154.500298
 30
0.0
 10
87.698862
 20
-154.612340
 30
0.0
 10
87.629153
 20
-154.732002
 30
0.0
 10
87.571298
 20
-154.858720
 30
0.0
 10
87.526424
 20
-154.991364
 30
0.0
 10
87.494816
 20
-155.129371
 30
0.0
 10
87.492840
 20
-155.144047
 30
0.0
 10
87.491993
 20
-155.159004
 30
0.0
 10
87.492276
 20
-155.173680
 30
0.0
 10
87.493404
 20
-155.188638
 30
0.0
 10
87.495662
 20
-155.203031
 30
0.0
 10
87.499049
 20
-155.217424
 30
0.0
 10
87.503564
 20
-155.231536
 30
0.0
 10
87.508927
 20
-155.245082
 30
0.0
 10
87.515418
 20
-155.258064
 30
0.0
 10
87.535173
 20
-155.288262
 30
0.0
 10
87.559444
 20
-155.313944
 30
0.0
 10
87.587102
 20
-155.334264
 30
0.0
 10
87.617864
 20
-155.349787
 30
0.0
 10
87.650320
 20
-155.359664
 30
0.0
 10
87.684469
 20
-155.364180
 30
0.0
 10
87.718900
 20
-155.362487
 30
0.0
 10
87.753049
 20
-155.354867
 30
0.0
 10
87.786351
 20
-155.340756
 30
0.0
 10
87.907142
 20
-155.268224
 30
0.0
 10
88.019184
 20
-155.184404
 30
0.0
 10
88.121631
 20
-155.090424
 30
0.0
 10
88.213636
 20
-154.986849
 30
0.0
 10
88.295198
 20
-154.874807
 30
0.0
 10
88.364907
 20
-154.755144
 30
0.0
 10
88.422762
 20
-154.628427
 30
0.0
 10
88.467918
 20
-154.495782
 30
0.0
 10
88.499809
 20
-154.358058
 30
0.0
 10
88.501784
 20
-154.343382
 30
0.0
 10
88.502631
 20
-154.328707
 30
0.0
 10
88.502349
 20
-154.313749
 30
0.0
 10
88.501220
 20
-154.299073
 30
0.0
 10
88.498962
 20
-154.284680
 30
0.0
 10
88.495576
 20
-154.270287
 30
0.0
 10
88.491060
 20
-154.255893
 30
0.0
 10
88.485416
 20
-154.242064
 30
0.0
 10
88.478642
 20
-154.228518
 30
0.0
 10
88.478642
 20
-154.228518
 30
0.0
  0
LWPOLYLINE
  5
1b5
100
AcDbEntity
  8
0
 62
1
100
AcDbPolyline
 90
56
 70
1
 10
103.686751
 20
-180.950729
 30
0.0
 10
103.698887
 20
-180.917144
 30
0.0
 10
103.704531
 20
-180.882713
 30
0.0
 10
103.704249
 20
-180.848282
 30
0.0
 10
103.698322
 20
-180.814698
 30
0.0
 10
103.686469
 20
-180.782524
 30
0.0
 10
103.669818
 20
-180.752609
 30
0.0
 10
103.648087
 20
-180.726080
 30
0.0
 10
103.621558
 20
-180.703220
 30
0.0
 10
103.590513
 20
-180.685158
 30
0.0
 10
103.459844
 20
-180.631253
 30
0.0
 10
103.325789
 20
-180.591460
 30
0.0
 10
103.189193
 20
-180.565496
 30
0.0
 10
103.050904
 20
-180.553360
 30
0.0
 10
102.912616
 20
-180.555336
 30
0.0
 10
102.774891
 20
-180.570858
 30
0.0
 10
102.638860
 20
-180.600491
 30
0.0
 10
102.505651
 20
-180.643953
 30
0.0
 10
102.376111
 20
-180.700962
 30
0.0
 10
102.363129
 20
-180.708300
 30
0.0
 10
102.350711
 20
-180.716484
 30
0.0
 10
102.338858
 20
-180.725516
 30
0.0
 10
102.327851
 20
-180.735393
 30
0.0
 10
102.317691
 20
-180.745836
 30
0.0
 10
102.308096
 20
-180.757124
 30
0.0
 10
102.299347
 20
-180.769260
 30
0.0
 10
102.291727
 20
-180.781678
 30
0.0
 10
102.285236
 20
-180.794660
 30
0.0
 10
102.272818
 20
-180.828527
 30
0.0
 10
102.266891
 20
-180.863240
 30
0.0
 10
102.267173
 20
-180.897671
 30
0.0
 10
102.273100
 20
-180.931538
 30
0.0
 10
102.284671
 20
-180.963711
 30
0.0
 10
102.301322
 20
-180.993344
 30
0.0
 10
102.323336
 20
-181.020156
 30
0.0
 10
102.349864
 20
-181.043016
 30
0.0
 10
102.381191
 20
-181.061078
 30
0.0
 10
102.511578
 20
-181.114700
 30
0.0
 10
102.645633
 20
-181.154211
 30
0.0
 10
102.782229
 20
-181.179893
 30
0.0
 10
102.920518
 20
-181.192029
 30
0.0
 10
103.058807
 20
-181.190053
 30
0.0
 10
103.196531
 20
-181.174531
 30
0.0
 10
103.332562
 20
-181.145180
 30
0.0
 10
103.466053
 20
-181.102000
 30
0.0
 10
103.595311
 20
-181.044991
 30
0.0
 10
103.608293
 20
-181.037936
 30
0.0
 10
103.620711
 20
-181.029751
 30
0.0
 10
103.632282
 20
-181.020720
 30
0.0
 10
103.643289
 20
-181.010842
 30
0.0
 10
103.653731
 20
-181.000400
 30
0.0
 10
103.663327
 20
-180.989111
 30
0.0
 10
103.671793
 20
-180.976976
 30
0.0
 10
103.679696
 20
-180.963993
 30
0.0
 10
103.686751
 20
-180.950729
 30
0.0
 10
103.686751
 20
-180.950729
 30
0.0
  0
LWPOLYLINE
  5
1b6
100
AcDbEntity
  8
0
 62
1
100
AcDbPolyline
 90
56
 70
1
 10
121.476629
 20
-175.583709
 30
0.0
 10
121.441633
 20
-175.591047
 30
0.0
 10
121.409178
 20
-175.604029
 30
0.0
 10
121.380109
 20
-175.622373
 30
0.0
 10
121.354427
 20
-175.645233
 30
0.0
 10
121.333260
 20
-175.671762
 30
0.0
 10
121.316609
 20
-175.701678
 30
0.0
 10
121.305320
 20
-175.734133
 30
0.0
 10
121.299676
 20
-175.768847
 30
0.0
 10
121.300522
 20
-175.804689
 30
0.0
 10
121.322818
 20
-175.944107
 30
0.0
 10
121.358942
 20
-176.079291
 30
0.0
 10
121.408331
 20
-176.209396
 30
0.0
 10
121.470138
 20
-176.333291
 30
0.0
 10
121.544080
 20
-176.450413
 30
0.0
 10
121.629593
 20
-176.559633
 30
0.0
 10
121.725831
 20
-176.660104
 30
0.0
 10
121.832511
 20
-176.750980
 30
0.0
 10
121.948787
 20
-176.831413
 30
0.0
 10
121.961769
 20
-176.838751
 30
0.0
 10
121.975316
 20
-176.845242
 30
0.0
 10
121.989144
 20
-176.850322
 30
0.0
 10
122.003256
 20
-176.854838
 30
0.0
 10
122.017649
 20
-176.857942
 30
0.0
 10
122.032324
 20
-176.860200
 30
0.0
 10
122.047000
 20
-176.861329
 30
0.0
 10
122.061676
 20
-176.861329
 30
0.0
 10
122.076069
 20
-176.860200
 30
0.0
 10
122.111347
 20
-176.852862
 30
0.0
 10
122.144084
 20
-176.839880
 30
0.0
 10
122.173436
 20
-176.821818
 30
0.0
 10
122.199118
 20
-176.798958
 30
0.0
 10
122.220567
 20
-176.772429
 30
0.0
 10
122.237218
 20
-176.742513
 30
0.0
 10
122.248507
 20
-176.709776
 30
0.0
 10
122.253869
 20
-176.675062
 30
0.0
 10
122.253022
 20
-176.639220
 30
0.0
 10
122.230444
 20
-176.499802
 30
0.0
 10
122.194320
 20
-176.364900
 30
0.0
 10
122.144649
 20
-176.234796
 30
0.0
 10
122.082842
 20
-176.110900
 30
0.0
 10
122.008900
 20
-175.993778
 30
0.0
 10
121.923387
 20
-175.884558
 30
0.0
 10
121.827431
 20
-175.783804
 30
0.0
 10
121.721033
 20
-175.692929
 30
0.0
 10
121.604758
 20
-175.612496
 30
0.0
 10
121.591776
 20
-175.605158
 30
0.0
 10
121.578511
 20
-175.598667
 30
0.0
 10
121.564682
 20
-175.593304
 30
0.0
 10
121.550571
 20
-175.589071
 30
0.0
 10
121.536178
 20
-175.585967
 30
0.0
 10
121.521502
 20
-175.583709
 30
0.0
 10
121.506544
 20
-175.582580
 30
0.0
 10
121.491587
 20
-175.582580
 30
0.0
 10
121.476629
 20
-175.583709
 30
0.0
 10
121.476629
 20
-175.583709
 30
0.0
  0
LWPOLYLINE
  5
1b7
100
AcDbEntity
  8
0
 62
1
100
AcDbPolyline
 90
56
 70
1
 10
141.779978
 20
-149.702238
 30
0.0
 10
141.771511
 20
-149.736951
 30
0.0
 10
141.769253
 20
-149.771664
 30
0.0
 10
141.773204
 20
-149.805813
 30
0.0
 10
141.782800
 20
-149.838551
 30
0.0
 10
141.797758
 20
-149.869313
 30
0.0
 10
141.817796
 20
-149.897253
 30
0.0
 10
141.842349
 20
-149.921242
 30
0.0
 10
141.871136
 20
-149.941280
 30
0.0
 10
141.903873
 20
-149.955956
 30
0.0
 10
142.039340
 20
-149.995467
 30
0.0
 10
142.176782
 20
-150.020867
 30
0.0
 10
142.315636
 20
-150.032156
 30
0.0
 10
142.454207
 20
-150.029616
 30
0.0
 10
142.591649
 20
-150.012964
 30
0.0
 10
142.726833
 20
-149.982767
 30
0.0
 10
142.858913
 20
-149.939022
 30
0.0
 10
142.986760
 20
-149.881731
 30
0.0
 10
143.109527
 20
-149.811176
 30
0.0
 10
143.121662
 20
-149.802427
 30
0.0
 10
143.133233
 20
-149.793113
 30
0.0
 10
143.143958
 20
-149.782671
 30
0.0
 10
143.153836
 20
-149.771947
 30
0.0
 10
143.162867
 20
-149.760093
 30
0.0
 10
143.171333
 20
-149.747958
 30
0.0
 10
143.178389
 20
-149.735258
 30
0.0
 10
143.184880
 20
-149.721993
 30
0.0
 10
143.189960
 20
-149.708447
 30
0.0
 10
143.198709
 20
-149.673169
 30
0.0
 10
143.200967
 20
-149.638173
 30
0.0
 10
143.197016
 20
-149.604024
 30
0.0
 10
143.187420
 20
-149.571004
 30
0.0
 10
143.172744
 20
-149.540242
 30
0.0
 10
143.152707
 20
-149.512302
 30
0.0
 10
143.128153
 20
-149.488313
 30
0.0
 10
143.099367
 20
-149.468276
 30
0.0
 10
143.066347
 20
-149.453600
 30
0.0
 10
142.930880
 20
-149.414371
 30
0.0
 10
142.793438
 20
-149.389253
 30
0.0
 10
142.654867
 20
-149.377964
 30
0.0
 10
142.516296
 20
-149.380787
 30
0.0
 10
142.378571
 20
-149.397156
 30
0.0
 10
142.243387
 20
-149.427353
 30
0.0
 10
142.111307
 20
-149.471098
 30
0.0
 10
141.983178
 20
-149.528107
 30
0.0
 10
141.860693
 20
-149.598662
 30
0.0
 10
141.848558
 20
-149.607129
 30
0.0
 10
141.836987
 20
-149.616442
 30
0.0
 10
141.826262
 20
-149.626602
 30
0.0
 10
141.816384
 20
-149.637609
 30
0.0
 10
141.807353
 20
-149.649180
 30
0.0
 10
141.799169
 20
-149.661598
 30
0.0
 10
141.791831
 20
-149.674580
 30
0.0
 10
141.785340
 20
-149.688127
 30
0.0
 10
141.779978
 20
-149.702238
 30
0.0
 10
141.779978
 20
-149.702238
 30
0.0
  0
LWPOLYLINE
  5
1b8
100
AcDbEntity
  8
0
 62
1
100
AcDbPolyline
 90
56
 70
1
 10
131.550833
 20
-124.324816
 30
0.0
 10
131.560429
 20
-124.359247
 30
0.0
 10
131.575669
 20
-124.390573
 30
0.0
 10
131.595707
 20
-124.418513
 30
0.0
 10
131.620260
 20
-124.442502
 30
0.0
 10
131.648200
 20
-124.461976
 30
0.0
 10
131.678962
 20
-124.476651
 30
0.0
 10
131.712264
 20
-124.485682
 30
0.0
 10
131.746978
 20
-124.489069
 30
0.0
 10
131.782820
 20
-124.485964
 30
0.0
 10
131.920544
 20
-124.454638
 30
0.0
 10
132.052907
 20
-124.409764
 30
0.0
 10
132.179624
 20
-124.351909
 30
0.0
 10
132.299287
 20
-124.281918
 30
0.0
 10
132.411329
 20
-124.200638
 30
0.0
 10
132.514622
 20
-124.108069
 30
0.0
 10
132.608602
 20
-124.005622
 30
0.0
 10
132.692422
 20
-123.893298
 30
0.0
 10
132.764953
 20
-123.771942
 30
0.0
 10
132.771444
 20
-123.758396
 30
0.0
 10
132.776807
 20
-123.744567
 30
0.0
 10
132.781322
 20
-123.730456
 30
0.0
 10
132.784709
 20
-123.716062
 30
0.0
 10
132.786967
 20
-123.701387
 30
0.0
 10
132.788096
 20
-123.686711
 30
0.0
 10
132.788378
 20
-123.672036
 30
0.0
 10
132.787249
 20
-123.657360
 30
0.0
 10
132.785273
 20
-123.642967
 30
0.0
 10
132.775678
 20
-123.607971
 30
0.0
 10
132.760720
 20
-123.576362
 30
0.0
 10
132.740682
 20
-123.548140
 30
0.0
 10
132.716129
 20
-123.524151
 30
0.0
 10
132.688189
 20
-123.504678
 30
0.0
 10
132.657144
 20
-123.490002
 30
0.0
 10
132.624124
 20
-123.480689
 30
0.0
 10
132.589129
 20
-123.477584
 30
0.0
 10
132.553287
 20
-123.480689
 30
0.0
 10
132.415562
 20
-123.512298
 30
0.0
 10
132.283200
 20
-123.557453
 30
0.0
 10
132.156764
 20
-123.615309
 30
0.0
 10
132.037102
 20
-123.685300
 30
0.0
 10
131.925342
 20
-123.766862
 30
0.0
 10
131.821767
 20
-123.859149
 30
0.0
 10
131.727787
 20
-123.961596
 30
0.0
 10
131.643967
 20
-124.073638
 30
0.0
 10
131.571153
 20
-124.194993
 30
0.0
 10
131.564662
 20
-124.208258
 30
0.0
 10
131.559300
 20
-124.222087
 30
0.0
 10
131.554784
 20
-124.236198
 30
0.0
 10
131.551398
 20
-124.250591
 30
0.0
 10
131.549140
 20
-124.265267
 30
0.0
 10
131.548011
 20
-124.279942
 30
0.0
 10
131.548011
 20
-124.294900
 30
0.0
 10
131.548858
 20
-124.309858
 30
0.0
 10
131.550833
 20
-124.324816
 30
0.0
 10
131.550833
 20
-124.324816
 30
0.0
  0
LWPOLYLINE
  5
1b9
100
AcDbEntity
  8
0
 62
1
100
AcDbPolyline
 90
56
 70
1
 10
138.297073
 20
-99.516353
 30
0.0
 10
138.262642
 20
-99.525384
 30
0.0
 10
138.231033
 20
-99.540342
 30
0.0
 10
138.202811
 20
-99.560098
 30
0.0
 10
138.178822
 20
-99.584087
 30
0.0
 10
138.158784
 20
-99.612027
 30
0.0
 10
138.143827
 20
-99.642789
 30
0.0
 10
138.134513
 20
-99.675809
 30
0.0
 10
138.130844
 20
-99.710522
 30
0.0
 10
138.133384
 20
-99.746364
 30
0.0
 10
138.163300
 20
-99.884371
 30
0.0
 10
138.207044
 20
-100.017298
 30
0.0
 10
138.263207
 20
-100.144580
 30
0.0
 10
138.331787
 20
-100.265089
 30
0.0
 10
138.412220
 20
-100.377978
 30
0.0
 10
138.503378
 20
-100.482400
 30
0.0
 10
138.604978
 20
-100.577509
 30
0.0
 10
138.716456
 20
-100.662458
 30
0.0
 10
138.836964
 20
-100.736118
 30
0.0
 10
138.850229
 20
-100.742891
 30
0.0
 10
138.864058
 20
-100.748536
 30
0.0
 10
138.878169
 20
-100.753051
 30
0.0
 10
138.892562
 20
-100.756438
 30
0.0
 10
138.907238
 20
-100.758978
 30
0.0
 10
138.921913
 20
-100.760389
 30
0.0
 10
138.936589
 20
-100.760671
 30
0.0
 10
138.951264
 20
-100.759824
 30
0.0
 10
138.965658
 20
-100.757849
 30
0.0
 10
139.000653
 20
-100.748818
 30
0.0
 10
139.032544
 20
-100.733860
 30
0.0
 10
139.060767
 20
-100.714104
 30
0.0
 10
139.085038
 20
-100.690116
 30
0.0
 10
139.105076
 20
-100.662458
 30
0.0
 10
139.120033
 20
-100.631696
 30
0.0
 10
139.129629
 20
-100.598393
 30
0.0
 10
139.133016
 20
-100.563398
 30
0.0
 10
139.130476
 20
-100.527556
 30
0.0
 10
139.100278
 20
-100.389831
 30
0.0
 10
139.056533
 20
-100.256904
 30
0.0
 10
139.000089
 20
-100.129904
 30
0.0
 10
138.931509
 20
-100.009396
 30
0.0
 10
138.851076
 20
-99.896507
 30
0.0
 10
138.759918
 20
-99.792084
 30
0.0
 10
138.658318
 20
-99.696976
 30
0.0
 10
138.547122
 20
-99.611744
 30
0.0
 10
138.426896
 20
-99.537802
 30
0.0
 10
138.413631
 20
-99.531311
 30
0.0
 10
138.399802
 20
-99.525667
 30
0.0
 10
138.385691
 20
-99.521151
 30
0.0
 10
138.371298
 20
-99.517482
 30
0.0
 10
138.356904
 20
-99.515224
 30
0.0
 10
138.342229
 20
-99.513813
 30
0.0
 10
138.327271
 20
-99.513531
 30
0.0
 10
138.312313
 20
-99.514378
 30
0.0
 10
138.297073
 20
-99.516353
 30
0.0
 10
138.297073
 20
-99.516353
 30
0.0
  0
LWPOLYLINE
  5
1ba
100
AcDbEntity
  8
0
 62
1
100
AcDbPolyline
 90
56
 70
1
 10
156.097111
 20
-76.868584
 30
0.0
 10
156.073404
 20
-76.895396
 30
0.0
 10
156.055060
 20
-76.925029
 30
0.0
 10
156.042642
 20
-76.957202
 30
0.0
 10
156.035869
 20
-76.990787
 30
0.0
 10
156.034740
 20
-77.024653
 30
0.0
 10
156.039256
 20
-77.058520
 30
0.0
 10
156.049698
 20
-77.091540
 30
0.0
 10
156.065784
 20
-77.122584
 30
0.0
 10
156.087798
 20
-77.150807
 30
0.0
 10
156.189116
 20
-77.249302
 30
0.0
 10
156.298900
 20
-77.335944
 30
0.0
 10
156.416022
 20
-77.410733
 30
0.0
 10
156.539918
 20
-77.473387
 30
0.0
 10
156.669176
 20
-77.523058
 30
0.0
 10
156.802949
 20
-77.559464
 30
0.0
 10
156.940109
 20
-77.582607
 30
0.0
 10
157.080091
 20
-77.591638
 30
0.0
 10
157.221202
 20
-77.586558
 30
0.0
 10
157.236160
 20
-77.584582
 30
0.0
 10
157.250553
 20
-77.581760
 30
0.0
 10
157.264947
 20
-77.577809
 30
0.0
 10
157.279058
 20
-77.572729
 30
0.0
 10
157.292322
 20
-77.566802
 30
0.0
 10
157.305304
 20
-77.559747
 30
0.0
 10
157.317722
 20
-77.551844
 30
0.0
 10
157.329576
 20
-77.543096
 30
0.0
 10
157.340582
 20
-77.533500
 30
0.0
 10
157.364571
 20
-77.506407
 30
0.0
 10
157.382916
 20
-77.476491
 30
0.0
 10
157.395616
 20
-77.444600
 30
0.0
 10
157.402671
 20
-77.411016
 30
0.0
 10
157.403800
 20
-77.376867
 30
0.0
 10
157.399284
 20
-77.343000
 30
0.0
 10
157.388842
 20
-77.309980
 30
0.0
 10
157.372473
 20
-77.278936
 30
0.0
 10
157.350460
 20
-77.250431
 30
0.0
 10
157.249142
 20
-77.152500
 30
0.0
 10
157.139076
 20
-77.065858
 30
0.0
 10
157.021953
 20
-76.991069
 30
0.0
 10
156.898058
 20
-76.928698
 30
0.0
 10
156.768800
 20
-76.879027
 30
0.0
 10
156.635027
 20
-76.842620
 30
0.0
 10
156.497867
 20
-76.819478
 30
0.0
 10
156.358167
 20
-76.809882
 30
0.0
 10
156.216773
 20
-76.814962
 30
0.0
 10
156.202098
 20
-76.816656
 30
0.0
 10
156.187704
 20
-76.819760
 30
0.0
 10
156.173311
 20
-76.823711
 30
0.0
 10
156.159482
 20
-76.828509
 30
0.0
 10
156.146218
 20
-76.834718
 30
0.0
 10
156.132953
 20
-76.841773
 30
0.0
 10
156.120536
 20
-76.849676
 30
0.0
 10
156.108400
 20
-76.858707
 30
0.0
 10
156.097111
 20
-76.868584
 30
0.0
 10
156.097111
 20
-76.868584
 30
0.0
  0
LWPOLYLINE
  5
1bb
100
AcDbEntity
  8
0
 62
1
100
AcDbPolyline
 90
56
 70
1
 10
177.766980
 20
-87.275811
 30
0.0
 10
177.759924
 20
-87.240816
 30
0.0
 10
177.747224
 20
-87.208360
 30
0.0
 10
177.729162
 20
-87.179009
 30
0.0
 10
177.706584
 20
-87.153327
 30
0.0
 10
177.680056
 20
-87.131878
 30
0.0
 10
177.650140
 20
-87.115227
 30
0.0
 10
177.617684
 20
-87.103656
 30
0.0
 10
177.583253
 20
-87.097729
 30
0.0
 10
177.547411
 20
-87.098293
 30
0.0
 10
177.407711
 20
-87.119742
 30
0.0
 10
177.272244
 20
-87.155020
 30
0.0
 10
177.141858
 20
-87.203280
 30
0.0
 10
177.017398
 20
-87.264522
 30
0.0
 10
176.899993
 20
-87.337618
 30
0.0
 10
176.790209
 20
-87.422284
 30
0.0
 10
176.688891
 20
-87.517958
 30
0.0
 10
176.597451
 20
-87.623791
 30
0.0
 10
176.516171
 20
-87.739502
 30
0.0
 10
176.508833
 20
-87.752484
 30
0.0
 10
176.502342
 20
-87.766031
 30
0.0
 10
176.496980
 20
-87.779860
 30
0.0
 10
176.492464
 20
-87.793971
 30
0.0
 10
176.489078
 20
-87.808364
 30
0.0
 10
176.486820
 20
-87.823040
 30
0.0
 10
176.485691
 20
-87.837433
 30
0.0
 10
176.485691
 20
-87.852109
 30
0.0
 10
176.486538
 20
-87.866784
 30
0.0
 10
176.493593
 20
-87.902062
 30
0.0
 10
176.506293
 20
-87.934800
 30
0.0
 10
176.524356
 20
-87.964433
 30
0.0
 10
176.546933
 20
-87.990116
 30
0.0
 10
176.573462
 20
-88.011847
 30
0.0
 10
176.603096
 20
-88.028498
 30
0.0
 10
176.635833
 20
-88.040069
 30
0.0
 10
176.670264
 20
-88.045713
 30
0.0
 10
176.706389
 20
-88.045431
 30
0.0
 10
176.845807
 20
-88.023700
 30
0.0
 10
176.980991
 20
-87.988140
 30
0.0
 10
177.111378
 20
-87.939598
 30
0.0
 10
177.235838
 20
-87.878638
 30
0.0
 10
177.353242
 20
-87.805542
 30
0.0
 10
177.463309
 20
-87.720876
 30
0.0
 10
177.564344
 20
-87.625484
 30
0.0
 10
177.656349
 20
-87.519651
 30
0.0
 10
177.737629
 20
-87.403940
 30
0.0
 10
177.744967
 20
-87.390958
 30
0.0
 10
177.751458
 20
-87.377693
 30
0.0
 10
177.756820
 20
-87.363864
 30
0.0
 10
177.761053
 20
-87.350036
 30
0.0
 10
177.764440
 20
-87.335642
 30
0.0
 10
177.766698
 20
-87.320967
 30
0.0
 10
177.767827
 20
-87.306009
 30
0.0
 10
177.768109
 20
-87.291051
 30
0.0
 10
177.766980
 20
-87.275811
 30
0.0
 10
177.766980
 20
-87.275811
 30
0.0
  0
LWPOLYLINE
  5
1bc
100
AcDbEntity
  8
0
 62
1
100
AcDbPolyline
 90
56
 70
1
 10
196.141340
 20
-124.925667
 30
0.0
 10
196.145291
 20
-124.890107
 30
0.0
 10
196.143316
 20
-124.855393
 30
0.0
 10
196.135131
 20
-124.821809
 30
0.0
 10
196.121867
 20
-124.790482
 30
0.0
 10
196.103240
 20
-124.761696
 30
0.0
 10
196.080098
 20
-124.736578
 30
0.0
 10
196.053004
 20
-124.715411
 30
0.0
 10
196.021960
 20
-124.699324
 30
0.0
 10
195.987529
 20
-124.688600
 30
0.0
 10
195.848393
 20
-124.665740
 30
0.0
 10
195.708693
 20
-124.656991
 30
0.0
 10
195.569558
 20
-124.662636
 30
0.0
 10
195.432398
 20
-124.682109
 30
0.0
 10
195.298060
 20
-124.715129
 30
0.0
 10
195.167109
 20
-124.761413
 30
0.0
 10
195.041238
 20
-124.820680
 30
0.0
 10
194.921293
 20
-124.893211
 30
0.0
 10
194.808122
 20
-124.977878
 30
0.0
 10
194.797116
 20
-124.988038
 30
0.0
 10
194.786956
 20
-124.998762
 30
0.0
 10
194.777360
 20
-125.010051
 30
0.0
 10
194.768893
 20
-125.022187
 30
0.0
 10
194.761273
 20
-125.034887
 30
0.0
 10
194.754500
 20
-125.048151
 30
0.0
 10
194.748856
 20
-125.061698
 30
0.0
 10
194.744340
 20
-125.075527
 30
0.0
 10
194.740671
 20
-125.089638
 30
0.0
 10
194.736438
 20
-125.125480
 30
0.0
 10
194.738413
 20
-125.160476
 30
0.0
 10
194.746316
 20
-125.194060
 30
0.0
 10
194.759580
 20
-125.225669
 30
0.0
 10
194.778207
 20
-125.254456
 30
0.0
 10
194.801349
 20
-125.279573
 30
0.0
 10
194.828724
 20
-125.300740
 30
0.0
 10
194.859769
 20
-125.316827
 30
0.0
 10
194.894200
 20
-125.327551
 30
0.0
 10
195.033336
 20
-125.350129
 30
0.0
 10
195.173036
 20
-125.358596
 30
0.0
 10
195.311889
 20
-125.352951
 30
0.0
 10
195.449049
 20
-125.333478
 30
0.0
 10
195.583669
 20
-125.300458
 30
0.0
 10
195.714338
 20
-125.254173
 30
0.0
 10
195.840209
 20
-125.194907
 30
0.0
 10
195.960153
 20
-125.122940
 30
0.0
 10
196.073607
 20
-125.038273
 30
0.0
 10
196.084613
 20
-125.028113
 30
0.0
 10
196.094773
 20
-125.017671
 30
0.0
 10
196.104087
 20
-125.006100
 30
0.0
 10
196.112553
 20
-124.994247
 30
0.0
 10
196.120456
 20
-124.981547
 30
0.0
 10
196.126947
 20
-124.968282
 30
0.0
 10
196.132873
 20
-124.954453
 30
0.0
 10
196.137389
 20
-124.940342
 30
0.0
 10
196.141340
 20
-124.925667
 30
0.0
 10
196.141340
 20
-124.925667
 30
0.0
  0
LWPOLYLINE
  5
1bd
100
AcDbEntity
  8
0
 62
1
100
AcDbPolyline
 90
56
 70
1
 10
194.028342
 20
-154.108009
 30
0.0
 10
194.050920
 20
-154.080351
 30
0.0
 10
194.067853
 20
-154.049871
 30
0.0
 10
194.079142
 20
-154.017416
 30
0.0
 10
194.084504
 20
-153.983831
 30
0.0
 10
194.084504
 20
-153.949682
 30
0.0
 10
194.078578
 20
-153.915816
 30
0.0
 10
194.066724
 20
-153.883360
 30
0.0
 10
194.049509
 20
-153.853162
 30
0.0
 10
194.026367
 20
-153.825504
 30
0.0
 10
193.921098
 20
-153.731524
 30
0.0
 10
193.807927
 20
-153.649116
 30
0.0
 10
193.687700
 20
-153.579124
 30
0.0
 10
193.561547
 20
-153.521833
 30
0.0
 10
193.430313
 20
-153.477242
 30
0.0
 10
193.295411
 20
-153.446198
 30
0.0
 10
193.157122
 20
-153.428700
 30
0.0
 10
193.017140
 20
-153.425031
 30
0.0
 10
192.876311
 20
-153.435756
 30
0.0
 10
192.861636
 20
-153.438296
 30
0.0
 10
192.846960
 20
-153.441964
 30
0.0
 10
192.832849
 20
-153.446480
 30
0.0
 10
192.819302
 20
-153.452124
 30
0.0
 10
192.806038
 20
-153.458616
 30
0.0
 10
192.793338
 20
-153.465953
 30
0.0
 10
192.781202
 20
-153.474420
 30
0.0
 10
192.769913
 20
-153.483733
 30
0.0
 10
192.759189
 20
-153.493611
 30
0.0
 10
192.736329
 20
-153.521551
 30
0.0
 10
192.719113
 20
-153.552313
 30
0.0
 10
192.707824
 20
-153.584769
 30
0.0
 10
192.702180
 20
-153.618636
 30
0.0
 10
192.702180
 20
-153.652784
 30
0.0
 10
192.708107
 20
-153.686369
 30
0.0
 10
192.719960
 20
-153.718824
 30
0.0
 10
192.737458
 20
-153.749304
 30
0.0
 10
192.760600
 20
-153.776962
 30
0.0
 10
192.865869
 20
-153.870942
 30
0.0
 10
192.979040
 20
-153.952787
 30
0.0
 10
193.099267
 20
-154.022778
 30
0.0
 10
193.225420
 20
-154.080069
 30
0.0
 10
193.356653
 20
-154.124660
 30
0.0
 10
193.491838
 20
-154.155704
 30
0.0
 10
193.629844
 20
-154.173484
 30
0.0
 10
193.769827
 20
-154.177153
 30
0.0
 10
193.910656
 20
-154.166711
 30
0.0
 10
193.925331
 20
-154.164171
 30
0.0
 10
193.939724
 20
-154.160784
 30
0.0
 10
193.953836
 20
-154.156269
 30
0.0
 10
193.967382
 20
-154.150624
 30
0.0
 10
193.980647
 20
-154.144133
 30
0.0
 10
193.993347
 20
-154.136513
 30
0.0
 10
194.005764
 20
-154.128047
 30
0.0
 10
194.017336
 20
-154.118451
 30
0.0
 10
194.028342
 20
-154.108009
 30
0.0
 10
194.028342
 20
-154.108009
 30
0.0
  0
LWPOLYLINE
  5
1be
100
AcDbEntity
  8
0
 62
1
100
AcDbPolyline
 90
56
 70
1
 10
221.161187
 20
-168.897018
 30
0.0
 10
221.127884
 20
-168.884318
 30
0.0
 10
221.093453
 20
-168.877827
 30
0.0
 10
221.059304
 20
-168.877262
 30
0.0
 10
221.025438
 20
-168.882907
 30
0.0
 10
220.993264
 20
-168.893631
 30
0.0
 10
220.963067
 20
-168.910000
 30
0.0
 10
220.935973
 20
-168.931167
 30
0.0
 10
220.912549
 20
-168.957413
 30
0.0
 10
220.893922
 20
-168.987893
 30
0.0
 10
220.837478
 20
-169.117433
 30
0.0
 10
220.795144
 20
-169.250924
 30
0.0
 10
220.766640
 20
-169.386956
 30
0.0
 10
220.751964
 20
-169.524680
 30
0.0
 10
220.751118
 20
-169.663251
 30
0.0
 10
220.764100
 20
-169.801258
 30
0.0
 10
220.790911
 20
-169.937853
 30
0.0
 10
220.831833
 20
-170.071909
 30
0.0
 10
220.886302
 20
-170.202296
 30
0.0
 10
220.893358
 20
-170.215560
 30
0.0
 10
220.901260
 20
-170.227978
 30
0.0
 10
220.910009
 20
-170.240113
 30
0.0
 10
220.919887
 20
-170.251402
 30
0.0
 10
220.930047
 20
-170.261844
 30
0.0
 10
220.941336
 20
-170.271440
 30
0.0
 10
220.952907
 20
-170.280471
 30
0.0
 10
220.965324
 20
-170.288373
 30
0.0
 10
220.978307
 20
-170.295147
 30
0.0
 10
221.011891
 20
-170.308129
 30
0.0
 10
221.046322
 20
-170.314620
 30
0.0
 10
221.081036
 20
-170.315184
 30
0.0
 10
221.114620
 20
-170.309822
 30
0.0
 10
221.147076
 20
-170.299098
 30
0.0
 10
221.177273
 20
-170.282729
 30
0.0
 10
221.204367
 20
-170.261562
 30
0.0
 10
221.227791
 20
-170.235316
 30
0.0
 10
221.246418
 20
-170.204553
 30
0.0
 10
221.302580
 20
-170.075013
 30
0.0
 10
221.344631
 20
-169.941804
 30
0.0
 10
221.373136
 20
-169.805491
 30
0.0
 10
221.387811
 20
-169.667767
 30
0.0
 10
221.388658
 20
-169.529196
 30
0.0
 10
221.375676
 20
-169.391189
 30
0.0
 10
221.348864
 20
-169.254593
 30
0.0
 10
221.308224
 20
-169.120538
 30
0.0
 10
221.253756
 20
-168.990151
 30
0.0
 10
221.246982
 20
-168.976887
 30
0.0
 10
221.239080
 20
-168.964469
 30
0.0
 10
221.230331
 20
-168.952616
 30
0.0
 10
221.220736
 20
-168.941327
 30
0.0
 10
221.210293
 20
-168.930884
 30
0.0
 10
221.199287
 20
-168.921289
 30
0.0
 10
221.187151
 20
-168.912258
 30
0.0
 10
221.174451
 20
-168.904073
 30
0.0
 10
221.161187
 20
-168.897018
 30
0.0
 10
221.161187
 20
-168.897018
 30
0.0
  0
LWPOLYLINE
  5
1bf
100
AcDbEntity
  8
0
 62
1
100
AcDbPolyline
 90
56
 70
1
 10
260.035322
 20
-149.855484
 30
0.0
 10
260.012744
 20
-149.883142
 30
0.0
 10
259.995811
 20
-149.913622
 30
0.0
 10
259.984522
 20
-149.946360
 30
0.0
 10
259.979160
 20
-149.979944
 30
0.0
 10
259.979442
 20
-150.014093
 30
0.0
 10
259.985369
 20
-150.047678
 30
0.0
 10
259.996940
 20
-150.080133
 30
0.0
 10
260.014438
 20
-150.110613
 30
0.0
 10
260.037580
 20
-150.137989
 30
0.0
 10
260.142849
 20
-150.232251
 30
0.0
 10
260.256020
 20
-150.314378
 30
0.0
 10
260.376247
 20
-150.384369
 30
0.0
 10
260.502400
 20
-150.441660
 30
0.0
 10
260.633633
 20
-150.485969
 30
0.0
 10
260.768818
 20
-150.517013
 30
0.0
 10
260.906824
 20
-150.534229
 30
0.0
 10
261.047089
 20
-150.537898
 30
0.0
 10
261.187918
 20
-150.526891
 30
0.0
 10
261.202593
 20
-150.524351
 30
0.0
 10
261.216987
 20
-150.520964
 30
0.0
 10
261.231098
 20
-150.516167
 30
0.0
 10
261.244927
 20
-150.510804
 30
0.0
 10
261.258191
 20
-150.504031
 30
0.0
 10
261.270891
 20
-150.496693
 30
0.0
 10
261.283027
 20
-150.488227
 30
0.0
 10
261.294316
 20
-150.478913
 30
0.0
 10
261.304758
 20
-150.469036
 30
0.0
 10
261.327900
 20
-150.441096
 30
0.0
 10
261.344833
 20
-150.410333
 30
0.0
 10
261.356404
 20
-150.377878
 30
0.0
 10
261.362049
 20
-150.344011
 30
0.0
 10
261.361767
 20
-150.309862
 30
0.0
 10
261.355840
 20
-150.276278
 30
0.0
 10
261.343987
 20
-150.243822
 30
0.0
 10
261.326489
 20
-150.213342
 30
0.0
 10
261.303064
 20
-150.185684
 30
0.0
 10
261.197796
 20
-150.091987
 30
0.0
 10
261.084624
 20
-150.009860
 30
0.0
 10
260.964398
 20
-149.940151
 30
0.0
 10
260.838244
 20
-149.882860
 30
0.0
 10
260.707011
 20
-149.838551
 30
0.0
 10
260.571827
 20
-149.807507
 30
0.0
 10
260.433820
 20
-149.790009
 30
0.0
 10
260.293838
 20
-149.786340
 30
0.0
 10
260.152727
 20
-149.796782
 30
0.0
 10
260.138051
 20
-149.799322
 30
0.0
 10
260.123658
 20
-149.802991
 30
0.0
 10
260.109829
 20
-149.807507
 30
0.0
 10
260.096000
 20
-149.812869
 30
0.0
 10
260.082736
 20
-149.819642
 30
0.0
 10
260.070036
 20
-149.827262
 30
0.0
 10
260.057900
 20
-149.835729
 30
0.0
 10
260.046329
 20
-149.845042
 30
0.0
 10
260.035322
 20
-149.855484
 30
0.0
 10
260.035322
 20
-149.855484
 30
0.0
  0
LWPOLYLINE
  5
1c0
100
AcDbEntity
  8
0
 62
1
100
AcDbPolyline
 90
56
 70
1
 10
262.021320
 20
-123.412956
 30
0.0
 10
262.028658
 20
-123.447951
 30
0.0
 10
262.041640
 20
-123.480124
 30
0.0
 10
262.059702
 20
-123.509476
 30
0.0
 10
262.082280
 20
-123.535158
 30
0.0
 10
262.108809
 20
-123.556324
 30
0.0
 10
262.138724
 20
-123.572976
 30
0.0
 10
262.171180
 20
-123.584547
 30
0.0
 10
262.205893
 20
-123.590191
 30
0.0
 10
262.241736
 20
-123.589627
 30
0.0
 10
262.381153
 20
-123.567613
 30
0.0
 10
262.516338
 20
-123.531771
 30
0.0
 10
262.646724
 20
-123.482947
 30
0.0
 10
262.770902
 20
-123.421422
 30
0.0
 10
262.888307
 20
-123.347762
 30
0.0
 10
262.997809
 20
-123.262813
 30
0.0
 10
263.098562
 20
-123.166858
 30
0.0
 10
263.189720
 20
-123.060460
 30
0.0
 10
263.270436
 20
-122.944467
 30
0.0
 10
263.277773
 20
-122.931484
 30
0.0
 10
263.284264
 20
-122.917938
 30
0.0
 10
263.289627
 20
-122.904109
 30
0.0
 10
263.293860
 20
-122.889998
 30
0.0
 10
263.297247
 20
-122.875604
 30
0.0
 10
263.299504
 20
-122.860929
 30
0.0
 10
263.300633
 20
-122.846253
 30
0.0
 10
263.300633
 20
-122.831860
 30
0.0
 10
263.299504
 20
-122.817184
 30
0.0
 10
263.292449
 20
-122.781907
 30
0.0
 10
263.279467
 20
-122.749169
 30
0.0
 10
263.261404
 20
-122.719818
 30
0.0
 10
263.238827
 20
-122.694136
 30
0.0
 10
263.212298
 20
-122.672404
 30
0.0
 10
263.182382
 20
-122.655753
 30
0.0
 10
263.149644
 20
-122.644464
 30
0.0
 10
263.115213
 20
-122.638820
 30
0.0
 10
263.079089
 20
-122.639384
 30
0.0
 10
262.939671
 20
-122.661680
 30
0.0
 10
262.804769
 20
-122.697522
 30
0.0
 10
262.674664
 20
-122.746629
 30
0.0
 10
262.550487
 20
-122.808153
 30
0.0
 10
262.433082
 20
-122.881813
 30
0.0
 10
262.323580
 20
-122.966762
 30
0.0
 10
262.222544
 20
-123.062718
 30
0.0
 10
262.131104
 20
-123.168833
 30
0.0
 10
262.050389
 20
-123.284544
 30
0.0
 10
262.043051
 20
-123.297527
 30
0.0
 10
262.036560
 20
-123.311073
 30
0.0
 10
262.031198
 20
-123.324620
 30
0.0
 10
262.026964
 20
-123.338731
 30
0.0
 10
262.023578
 20
-123.353124
 30
0.0
 10
262.021602
 20
-123.367800
 30
0.0
 10
262.020473
 20
-123.382758
 30
0.0
 10
262.020191
 20
-123.397716
 30
0.0
 10
262.021320
 20
-123.412956
 30
0.0
 10
262.021320
 20
-123.412956
 30
0.0
  0
LWPOLYLINE
  5
1c1
100
AcDbEntity
  8
0
 62
1
100
AcDbPolyline
 90
56
 70
1
 10
290.813067
 20
-120.687818
 30
0.0
 10
290.782022
 20
-120.669756
 30
0.0
 10
290.748156
 20
-120.657902
 30
0.0
 10
290.714289
 20
-120.651693
 30
0.0
 10
290.680422
 20
-120.651411
 30
0.0
 10
290.646556
 20
-120.657056
 30
0.0
 10
290.615511
 20
-120.668062
 30
0.0
 10
290.584467
 20
-120.684431
 30
0.0
 10
290.556244
 20
-120.706444
 30
0.0
 10
290.533667
 20
-120.733538
 30
0.0
 10
290.457467
 20
-120.852071
 30
0.0
 10
290.392556
 20
-120.976531
 30
0.0
 10
290.341756
 20
-121.106071
 30
0.0
 10
290.305067
 20
-121.239562
 30
0.0
 10
290.282489
 20
-121.375876
 30
0.0
 10
290.271200
 20
-121.514164
 30
0.0
 10
290.274022
 20
-121.653300
 30
0.0
 10
290.293778
 20
-121.792436
 30
0.0
 10
290.324822
 20
-121.929878
 30
0.0
 10
290.330467
 20
-121.943989
 30
0.0
 10
290.336111
 20
-121.957818
 30
0.0
 10
290.341756
 20
-121.971082
 30
0.0
 10
290.350222
 20
-121.983782
 30
0.0
 10
290.358689
 20
-121.995918
 30
0.0
 10
290.367156
 20
-122.007207
 30
0.0
 10
290.378444
 20
-122.017931
 30
0.0
 10
290.389733
 20
-122.027809
 30
0.0
 10
290.401022
 20
-122.036558
 30
0.0
 10
290.432067
 20
-122.054902
 30
0.0
 10
290.465933
 20
-122.067320
 30
0.0
 10
290.499800
 20
-122.073529
 30
0.0
 10
290.533667
 20
-122.073811
 30
0.0
 10
290.567533
 20
-122.068449
 30
0.0
 10
290.598578
 20
-122.057442
 30
0.0
 10
290.629622
 20
-122.040791
 30
0.0
 10
290.657844
 20
-122.018778
 30
0.0
 10
290.680422
 20
-121.991402
 30
0.0
 10
290.756622
 20
-121.873151
 30
0.0
 10
290.821533
 20
-121.748409
 30
0.0
 10
290.869511
 20
-121.618869
 30
0.0
 10
290.909022
 20
-121.485378
 30
0.0
 10
290.931600
 20
-121.349064
 30
0.0
 10
290.942889
 20
-121.210776
 30
0.0
 10
290.937244
 20
-121.071640
 30
0.0
 10
290.920311
 20
-120.932787
 30
0.0
 10
290.889267
 20
-120.795062
 30
0.0
 10
290.883622
 20
-120.780951
 30
0.0
 10
290.877978
 20
-120.767404
 30
0.0
 10
290.869511
 20
-120.754140
 30
0.0
 10
290.863867
 20
-120.741440
 30
0.0
 10
290.855400
 20
-120.729304
 30
0.0
 10
290.846933
 20
-120.718016
 30
0.0
 10
290.835644
 20
-120.707291
 30
0.0
 10
290.824356
 20
-120.697131
 30
0.0
 10
290.813067
 20
-120.687818
 30
0.0
 10
290.813067
 20
-120.687818
 30
0.0
  0
LWPOLYLINE
  5
1c2
100
AcDbEntity
  8
0
 62
1
100
AcDbPolyline
 90
56
 70
1
 10
323.034378
 20
-110.689813
 30
0.0
 10
323.014622
 20
-110.719164
 30
0.0
 10
323.000511
 20
-110.750773
 30
0.0
 10
322.992044
 20
-110.783793
 30
0.0
 10
322.986400
 20
-110.817942
 30
0.0
 10
322.989222
 20
-110.851809
 30
0.0
 10
322.997689
 20
-110.885111
 30
0.0
 10
323.011800
 20
-110.916720
 30
0.0
 10
323.031556
 20
-110.945789
 30
0.0
 10
323.056956
 20
-110.971471
 30
0.0
 10
323.169844
 20
-111.058113
 30
0.0
 10
323.288378
 20
-111.132056
 30
0.0
 10
323.412556
 20
-111.193580
 30
0.0
 10
323.542378
 20
-111.241840
 30
0.0
 10
323.675022
 20
-111.277118
 30
0.0
 10
323.813311
 20
-111.298567
 30
0.0
 10
323.951600
 20
-111.306469
 30
0.0
 10
324.092711
 20
-111.299978
 30
0.0
 10
324.231000
 20
-111.279376
 30
0.0
 10
324.245111
 20
-111.275989
 30
0.0
 10
324.259222
 20
-111.271473
 30
0.0
 10
324.273333
 20
-111.265829
 30
0.0
 10
324.287444
 20
-111.259338
 30
0.0
 10
324.301556
 20
-111.251718
 30
0.0
 10
324.312844
 20
-111.243533
 30
0.0
 10
324.324133
 20
-111.234220
 30
0.0
 10
324.335422
 20
-111.224060
 30
0.0
 10
324.343889
 20
-111.213336
 30
0.0
 10
324.366467
 20
-111.183984
 30
0.0
 10
324.380578
 20
-111.152376
 30
0.0
 10
324.389044
 20
-111.119073
 30
0.0
 10
324.391867
 20
-111.084924
 30
0.0
 10
324.389044
 20
-111.050776
 30
0.0
 10
324.380578
 20
-111.017473
 30
0.0
 10
324.369289
 20
-110.986147
 30
0.0
 10
324.349533
 20
-110.956796
 30
0.0
 10
324.324133
 20
-110.931113
 30
0.0
 10
324.211244
 20
-110.844753
 30
0.0
 10
324.092711
 20
-110.770811
 30
0.0
 10
323.968533
 20
-110.709569
 30
0.0
 10
323.838711
 20
-110.661309
 30
0.0
 10
323.703244
 20
-110.626313
 30
0.0
 10
323.567778
 20
-110.604582
 30
0.0
 10
323.429489
 20
-110.596680
 30
0.0
 10
323.288378
 20
-110.602889
 30
0.0
 10
323.147267
 20
-110.623209
 30
0.0
 10
323.133156
 20
-110.626596
 30
0.0
 10
323.119044
 20
-110.631111
 30
0.0
 10
323.107756
 20
-110.636756
 30
0.0
 10
323.093644
 20
-110.643247
 30
0.0
 10
323.079533
 20
-110.650584
 30
0.0
 10
323.068244
 20
-110.659051
 30
0.0
 10
323.056956
 20
-110.668364
 30
0.0
 10
323.045667
 20
-110.678807
 30
0.0
 10
323.034378
 20
-110.689813
 30
0.0
 10
323.034378
 20
-110.689813
 30
0.0
  0
LWPOLYLINE
  5
1c3
100
AcDbEntity
  8
0
 62
1
100
AcDbPolyline
 90
56
 70
1
 10
330.397556
 20
-67.476793
 30
0.0
 10
330.380622
 20
-67.508684
 30
0.0
 10
330.369333
 20
-67.541987
 30
0.0
 10
330.366511
 20
-67.576136
 30
0.0
 10
330.366511
 20
-67.610284
 30
0.0
 10
330.374978
 20
-67.643587
 30
0.0
 10
330.386267
 20
-67.675196
 30
0.0
 10
330.406022
 20
-67.704547
 30
0.0
 10
330.428600
 20
-67.730793
 30
0.0
 10
330.456822
 20
-67.753089
 30
0.0
 10
330.578178
 20
-67.823927
 30
0.0
 10
330.705178
 20
-67.881500
 30
0.0
 10
330.837822
 20
-67.925527
 30
0.0
 10
330.973289
 20
-67.956007
 30
0.0
 10
331.111578
 20
-67.972940
 30
0.0
 10
331.249867
 20
-67.976044
 30
0.0
 10
331.388156
 20
-67.965038
 30
0.0
 10
331.526444
 20
-67.939920
 30
0.0
 10
331.661911
 20
-67.900691
 30
0.0
 10
331.676022
 20
-67.895329
 30
0.0
 10
331.690133
 20
-67.888838
 30
0.0
 10
331.701422
 20
-67.881500
 30
0.0
 10
331.715533
 20
-67.873316
 30
0.0
 10
331.726822
 20
-67.864284
 30
0.0
 10
331.735289
 20
-67.854124
 30
0.0
 10
331.746578
 20
-67.843682
 30
0.0
 10
331.755044
 20
-67.832393
 30
0.0
 10
331.763511
 20
-67.820258
 30
0.0
 10
331.780444
 20
-67.788367
 30
0.0
 10
331.791733
 20
-67.754782
 30
0.0
 10
331.797378
 20
-67.720633
 30
0.0
 10
331.794556
 20
-67.686484
 30
0.0
 10
331.788911
 20
-67.652900
 30
0.0
 10
331.774800
 20
-67.621291
 30
0.0
 10
331.757867
 20
-67.591658
 30
0.0
 10
331.732467
 20
-67.565693
 30
0.0
 10
331.704244
 20
-67.543398
 30
0.0
 10
331.582889
 20
-67.472842
 30
0.0
 10
331.455889
 20
-67.415551
 30
0.0
 10
331.323244
 20
-67.371524
 30
0.0
 10
331.187778
 20
-67.341044
 30
0.0
 10
331.052311
 20
-67.324111
 30
0.0
 10
330.914022
 20
-67.321007
 30
0.0
 10
330.772911
 20
-67.331731
 30
0.0
 10
330.637444
 20
-67.356567
 30
0.0
 10
330.499156
 20
-67.395513
 30
0.0
 10
330.485044
 20
-67.401158
 30
0.0
 10
330.473756
 20
-67.407367
 30
0.0
 10
330.459644
 20
-67.414704
 30
0.0
 10
330.448356
 20
-67.422889
 30
0.0
 10
330.437067
 20
-67.431920
 30
0.0
 10
330.425778
 20
-67.442080
 30
0.0
 10
330.414489
 20
-67.452804
 30
0.0
 10
330.406022
 20
-67.464376
 30
0.0
 10
330.397556
 20
-67.476793
 30
0.0
 10
330.397556
 20
-67.476793
 30
0.0
  0
LWPOLYLINE
  5
1c4
100
AcDbEntity
  8
0
 62
1
100
AcDbPolyline
 90
56
 70
1
 10
313.204578
 20
-43.526569
 30
0.0
 10
313.238444
 20
-43.539269
 30
0.0
 10
313.272311
 20
-43.545760
 30
0.0
 10
313.306178
 20
-43.546324
 30
0.0
 10
313.340044
 20
-43.540962
 30
0.0
 10
313.373911
 20
-43.530238
 30
0.0
 10
313.402133
 20
-43.514151
 30
0.0
 10
313.430356
 20
-43.492984
 30
0.0
 10
313.452933
 20
-43.466738
 30
0.0
 10
313.472689
 20
-43.436258
 30
0.0
 10
313.529133
 20
-43.307000
 30
0.0
 10
313.571467
 20
-43.173791
 30
0.0
 10
313.599689
 20
-43.037760
 30
0.0
 10
313.616622
 20
-42.900036
 30
0.0
 10
313.616622
 20
-42.761464
 30
0.0
 10
313.605333
 20
-42.623458
 30
0.0
 10
313.579933
 20
-42.486862
 30
0.0
 10
313.537600
 20
-42.352524
 30
0.0
 10
313.483978
 20
-42.222138
 30
0.0
 10
313.478333
 20
-42.208873
 30
0.0
 10
313.469867
 20
-42.196173
 30
0.0
 10
313.461400
 20
-42.184320
 30
0.0
 10
313.450111
 20
-42.173031
 30
0.0
 10
313.441644
 20
-42.162307
 30
0.0
 10
313.430356
 20
-42.152711
 30
0.0
 10
313.419067
 20
-42.143680
 30
0.0
 10
313.404956
 20
-42.135778
 30
0.0
 10
313.393667
 20
-42.129004
 30
0.0
 10
313.359800
 20
-42.115740
 30
0.0
 10
313.323111
 20
-42.108967
 30
0.0
 10
313.289244
 20
-42.108402
 30
0.0
 10
313.255378
 20
-42.113482
 30
0.0
 10
313.224333
 20
-42.124489
 30
0.0
 10
313.193289
 20
-42.140576
 30
0.0
 10
313.165067
 20
-42.161742
 30
0.0
 10
313.142489
 20
-42.187989
 30
0.0
 10
313.125556
 20
-42.218469
 30
0.0
 10
313.069111
 20
-42.347727
 30
0.0
 10
313.023956
 20
-42.480936
 30
0.0
 10
312.995733
 20
-42.616967
 30
0.0
 10
312.981622
 20
-42.754691
 30
0.0
 10
312.978800
 20
-42.893262
 30
0.0
 10
312.992911
 20
-43.031269
 30
0.0
 10
313.018311
 20
-43.168147
 30
0.0
 10
313.057822
 20
-43.302202
 30
0.0
 10
313.111444
 20
-43.432871
 30
0.0
 10
313.119911
 20
-43.446136
 30
0.0
 10
313.128378
 20
-43.458553
 30
0.0
 10
313.136844
 20
-43.470407
 30
0.0
 10
313.145311
 20
-43.481696
 30
0.0
 10
313.156600
 20
-43.492420
 30
0.0
 10
313.167889
 20
-43.502016
 30
0.0
 10
313.179178
 20
-43.511047
 30
0.0
 10
313.190467
 20
-43.519231
 30
0.0
 10
313.204578
 20
-43.526569
 30
0.0
 10
313.204578
 20
-43.526569
 30
0.0
  0
LWPOLYLINE
  5
1c5
100
AcDbEntity
  8
0
 62
1
100
AcDbPolyline
 90
56
 70
1
 10
281.723536
 20
-61.533476
 30
0.0
 10
281.749782
 20
-61.509487
 30
0.0
 10
281.771231
 20
-61.481829
 30
0.0
 10
281.787036
 20
-61.451349
 30
0.0
 10
281.797478
 20
-61.418893
 30
0.0
 10
281.802276
 20
-61.385027
 30
0.0
 10
281.801429
 20
-61.350878
 30
0.0
 10
281.794656
 20
-61.317011
 30
0.0
 10
281.781956
 20
-61.284556
 30
0.0
 10
281.763329
 20
-61.253793
 30
0.0
 10
281.673300
 20
-61.145138
 30
0.0
 10
281.573676
 20
-61.046924
 30
0.0
 10
281.465020
 20
-60.959718
 30
0.0
 10
281.348744
 20
-60.884364
 30
0.0
 10
281.225696
 20
-60.820864
 30
0.0
 10
281.096720
 20
-60.770064
 30
0.0
 10
280.962947
 20
-60.732247
 30
0.0
 10
280.824940
 20
-60.707976
 30
0.0
 10
280.683829
 20
-60.697533
 30
0.0
 10
280.668871
 20
-60.697816
 30
0.0
 10
280.654196
 20
-60.699227
 30
0.0
 10
280.639520
 20
-60.701767
 30
0.0
 10
280.625127
 20
-60.705153
 30
0.0
 10
280.611016
 20
-60.709669
 30
0.0
 10
280.597187
 20
-60.715031
 30
0.0
 10
280.584204
 20
-60.721522
 30
0.0
 10
280.571504
 20
-60.729142
 30
0.0
 10
280.559651
 20
-60.737609
 30
0.0
 10
280.532840
 20
-60.761598
 30
0.0
 10
280.511109
 20
-60.789256
 30
0.0
 10
280.495022
 20
-60.820018
 30
0.0
 10
280.484580
 20
-60.852473
 30
0.0
 10
280.479500
 20
-60.886340
 30
0.0
 10
280.480347
 20
-60.920489
 30
0.0
 10
280.487120
 20
-60.954356
 30
0.0
 10
280.500102
 20
-60.987093
 30
0.0
 10
280.519011
 20
-61.017573
 30
0.0
 10
280.609040
 20
-61.126229
 30
0.0
 10
280.708947
 20
-61.224160
 30
0.0
 10
280.817320
 20
-61.311084
 30
0.0
 10
280.933596
 20
-61.386720
 30
0.0
 10
281.056644
 20
-61.449938
 30
0.0
 10
281.185620
 20
-61.501020
 30
0.0
 10
281.319676
 20
-61.538838
 30
0.0
 10
281.457400
 20
-61.563391
 30
0.0
 10
281.598511
 20
-61.573833
 30
0.0
 10
281.613187
 20
-61.573551
 30
0.0
 10
281.628144
 20
-61.572422
 30
0.0
 10
281.642538
 20
-61.569882
 30
0.0
 10
281.656931
 20
-61.566496
 30
0.0
 10
281.671042
 20
-61.561980
 30
0.0
 10
281.684589
 20
-61.556336
 30
0.0
 10
281.698136
 20
-61.549844
 30
0.0
 10
281.711118
 20
-61.542224
 30
0.0
 10
281.723536
 20
-61.533476
 30
0.0
 10
281.723536
 20
-61.533476
 30
0.0
  0
LWPOLYLINE
  5
1c6
100
AcDbEntity
  8
0
 62
1
100
AcDbPolyline
 90
56
 70
1
 10
244.271518
 20
-81.607378
 30
0.0
 10
244.305384
 20
-81.618384
 30
0.0
 10
244.339816
 20
-81.623464
 30
0.0
 10
244.374247
 20
-81.622053
 30
0.0
 10
244.407831
 20
-81.615280
 30
0.0
 10
244.439440
 20
-81.602862
 30
0.0
 10
244.468791
 20
-81.585082
 30
0.0
 10
244.495038
 20
-81.562787
 30
0.0
 10
244.517051
 20
-81.535411
 30
0.0
 10
244.534267
 20
-81.504084
 30
0.0
 10
244.584784
 20
-81.372004
 30
0.0
 10
244.620909
 20
-81.237102
 30
0.0
 10
244.643204
 20
-81.099660
 30
0.0
 10
244.651671
 20
-80.961371
 30
0.0
 10
244.646027
 20
-80.823082
 30
0.0
 10
244.626836
 20
-80.685640
 30
0.0
 10
244.593533
 20
-80.550456
 30
0.0
 10
244.546684
 20
-80.418376
 30
0.0
 10
244.486007
 20
-80.290811
 30
0.0
 10
244.478669
 20
-80.277829
 30
0.0
 10
244.470202
 20
-80.265693
 30
0.0
 10
244.460607
 20
-80.254122
 30
0.0
 10
244.450447
 20
-80.243398
 30
0.0
 10
244.439722
 20
-80.233238
 30
0.0
 10
244.428151
 20
-80.224207
 30
0.0
 10
244.416016
 20
-80.215740
 30
0.0
 10
244.403316
 20
-80.208402
 30
0.0
 10
244.390051
 20
-80.202193
 30
0.0
 10
244.355902
 20
-80.190904
 30
0.0
 10
244.321189
 20
-80.185824
 30
0.0
 10
244.286758
 20
-80.186671
 30
0.0
 10
244.253173
 20
-80.193727
 30
0.0
 10
244.221282
 20
-80.206144
 30
0.0
 10
244.191931
 20
-80.223642
 30
0.0
 10
244.165684
 20
-80.246220
 30
0.0
 10
244.143671
 20
-80.273596
 30
0.0
 10
244.126456
 20
-80.305204
 30
0.0
 10
244.076502
 20
-80.437002
 30
0.0
 10
244.040378
 20
-80.572187
 30
0.0
 10
244.018082
 20
-80.709347
 30
0.0
 10
244.009898
 20
-80.847636
 30
0.0
 10
244.015260
 20
-80.986207
 30
0.0
 10
244.034733
 20
-81.123367
 30
0.0
 10
244.067471
 20
-81.258551
 30
0.0
 10
244.114320
 20
-81.390631
 30
0.0
 10
244.174716
 20
-81.518478
 30
0.0
 10
244.182053
 20
-81.531178
 30
0.0
 10
244.190520
 20
-81.543313
 30
0.0
 10
244.199833
 20
-81.554884
 30
0.0
 10
244.209993
 20
-81.565609
 30
0.0
 10
244.220718
 20
-81.575769
 30
0.0
 10
244.232571
 20
-81.584800
 30
0.0
 10
244.244707
 20
-81.593267
 30
0.0
 10
244.257689
 20
-81.600887
 30
0.0
 10
244.271518
 20
-81.607378
 30
0.0
 10
244.271518
 20
-81.607378
 30
0.0
  0
LWPOLYLINE
  5
1c7
100
AcDbEntity
  8
0
 62
1
100
AcDbPolyline
 90
56
 70
1
 10
213.516069
 20
-58.134109
 30
0.0
 10
213.513529
 20
-58.169669
 30
0.0
 10
213.517480
 20
-58.204382
 30
0.0
 10
213.527076
 20
-58.237402
 30
0.0
 10
213.542033
 20
-58.268164
 30
0.0
 10
213.561789
 20
-58.295822
 30
0.0
 10
213.586342
 20
-58.319811
 30
0.0
 10
213.614564
 20
-58.339567
 30
0.0
 10
213.646173
 20
-58.354524
 30
0.0
 10
213.680887
 20
-58.363556
 30
0.0
 10
213.821151
 20
-58.379642
 30
0.0
 10
213.961133
 20
-58.381618
 30
0.0
 10
214.099704
 20
-58.369200
 30
0.0
 10
214.235736
 20
-58.343236
 30
0.0
 10
214.368662
 20
-58.303724
 30
0.0
 10
214.496791
 20
-58.251231
 30
0.0
 10
214.619840
 20
-58.185756
 30
0.0
 10
214.736116
 20
-58.107862
 30
0.0
 10
214.845053
 20
-58.017551
 30
0.0
 10
214.855496
 20
-58.007109
 30
0.0
 10
214.865373
 20
-57.995820
 30
0.0
 10
214.874122
 20
-57.983967
 30
0.0
 10
214.882307
 20
-57.971549
 30
0.0
 10
214.889362
 20
-57.958567
 30
0.0
 10
214.895289
 20
-57.945020
 30
0.0
 10
214.900369
 20
-57.931191
 30
0.0
 10
214.904320
 20
-57.917080
 30
0.0
 10
214.907142
 20
-57.902687
 30
0.0
 10
214.909682
 20
-57.866844
 30
0.0
 10
214.906013
 20
-57.831849
 30
0.0
 10
214.896418
 20
-57.798547
 30
0.0
 10
214.881742
 20
-57.767784
 30
0.0
 10
214.861704
 20
-57.740127
 30
0.0
 10
214.837433
 20
-57.715856
 30
0.0
 10
214.809211
 20
-57.696100
 30
0.0
 10
214.777320
 20
-57.681424
 30
0.0
 10
214.742324
 20
-57.672393
 30
0.0
 10
214.602342
 20
-57.656589
 30
0.0
 10
214.462360
 20
-57.654896
 30
0.0
 10
214.323789
 20
-57.667313
 30
0.0
 10
214.187758
 20
-57.693278
 30
0.0
 10
214.055113
 20
-57.732789
 30
0.0
 10
213.926702
 20
-57.785282
 30
0.0
 10
213.803936
 20
-57.850476
 30
0.0
 10
213.687378
 20
-57.928369
 30
0.0
 10
213.578440
 20
-58.018398
 30
0.0
 10
213.567716
 20
-58.028840
 30
0.0
 10
213.558120
 20
-58.040129
 30
0.0
 10
213.549371
 20
-58.051700
 30
0.0
 10
213.541187
 20
-58.064400
 30
0.0
 10
213.534413
 20
-58.077382
 30
0.0
 10
213.528204
 20
-58.090647
 30
0.0
 10
213.523124
 20
-58.104758
 30
0.0
 10
213.519173
 20
-58.119151
 30
0.0
 10
213.516069
 20
-58.134109
 30
0.0
 10
213.516069
 20
-58.134109
 30
0.0
  0
LWPOLYLINE
  5
1c8
100
AcDbEntity
  8
0
 62
1
100
AcDbPolyline
 90
56
 70
1
 10
182.804647
 20
-18.575867
 30
0.0
 10
182.825531
 20
-18.604936
 30
0.0
 10
182.850367
 20
-18.629207
 30
0.0
 10
182.878871
 20
-18.648680
 30
0.0
 10
182.909916
 20
-18.663073
 30
0.0
 10
182.942653
 20
-18.671822
 30
0.0
 10
182.976802
 20
-18.674927
 30
0.0
 10
183.011233
 20
-18.672387
 30
0.0
 10
183.045100
 20
-18.663638
 30
0.0
 10
183.077838
 20
-18.648680
 30
0.0
 10
183.196371
 20
-18.572198
 30
0.0
 10
183.305873
 20
-18.484991
 30
0.0
 10
183.405216
 20
-18.387624
 30
0.0
 10
183.494116
 20
-18.281227
 30
0.0
 10
183.571727
 20
-18.166644
 30
0.0
 10
183.637767
 20
-18.044724
 30
0.0
 10
183.691107
 20
-17.916313
 30
0.0
 10
183.731747
 20
-17.781976
 30
0.0
 10
183.758840
 20
-17.643404
 30
0.0
 10
183.760251
 20
-17.628447
 30
0.0
 10
183.760816
 20
-17.613489
 30
0.0
 10
183.759969
 20
-17.598813
 30
0.0
 10
183.758276
 20
-17.584138
 30
0.0
 10
183.755453
 20
-17.569462
 30
0.0
 10
183.751784
 20
-17.555351
 30
0.0
 10
183.746704
 20
-17.541522
 30
0.0
 10
183.741060
 20
-17.527976
 30
0.0
 10
183.734004
 20
-17.515276
 30
0.0
 10
183.713402
 20
-17.485642
 30
0.0
 10
183.688284
 20
-17.461089
 30
0.0
 10
183.660062
 20
-17.441333
 30
0.0
 10
183.628736
 20
-17.426940
 30
0.0
 10
183.595998
 20
-17.417909
 30
0.0
 10
183.561849
 20
-17.414804
 30
0.0
 10
183.527418
 20
-17.417344
 30
0.0
 10
183.493551
 20
-17.426376
 30
0.0
 10
183.460813
 20
-17.441333
 30
0.0
 10
183.342280
 20
-17.517816
 30
0.0
 10
183.233060
 20
-17.605304
 30
0.0
 10
183.133718
 20
-17.702671
 30
0.0
 10
183.044818
 20
-17.809069
 30
0.0
 10
182.967207
 20
-17.923651
 30
0.0
 10
182.901449
 20
-18.045571
 30
0.0
 10
182.847544
 20
-18.173982
 30
0.0
 10
182.806904
 20
-18.308038
 30
0.0
 10
182.779529
 20
-18.446609
 30
0.0
 10
182.778118
 20
-18.461567
 30
0.0
 10
182.777553
 20
-18.476242
 30
0.0
 10
182.778400
 20
-18.491200
 30
0.0
 10
182.780093
 20
-18.505593
 30
0.0
 10
182.782916
 20
-18.520269
 30
0.0
 10
182.786867
 20
-18.534380
 30
0.0
 10
182.791664
 20
-18.548491
 30
0.0
 10
182.797591
 20
-18.562320
 30
0.0
 10
182.804647
 20
-18.575867
 30
0.0
 10
182.804647
 20
-18.575867
 30
0.0
  0
LWPOLYLINE
  5
1c9
100
AcDbEntity
  8
0
 62
1
100
AcDbPolyline
 90
56
 70
1
 10
147.790182
 20
-12.552116
 30
0.0
 10
147.824049
 20
-12.539980
 30
0.0
 10
147.854247
 20
-12.522764
 30
0.0
 10
147.880776
 20
-12.500751
 30
0.0
 10
147.902789
 20
-12.474787
 30
0.0
 10
147.920287
 20
-12.445436
 30
0.0
 10
147.932704
 20
-12.413544
 30
0.0
 10
147.939478
 20
-12.379678
 30
0.0
 10
147.940324
 20
-12.344682
 30
0.0
 10
147.934962
 20
-12.309404
 30
0.0
 10
147.893758
 20
-12.174220
 30
0.0
 10
147.839571
 20
-12.045244
 30
0.0
 10
147.772967
 20
-11.923042
 30
0.0
 10
147.694791
 20
-11.808460
 30
0.0
 10
147.605891
 20
-11.702627
 30
0.0
 10
147.506267
 20
-11.605824
 30
0.0
 10
147.397329
 20
-11.519464
 30
0.0
 10
147.279360
 20
-11.443829
 30
0.0
 10
147.153207
 20
-11.380047
 30
0.0
 10
147.139378
 20
-11.374402
 30
0.0
 10
147.125267
 20
-11.369887
 30
0.0
 10
147.110873
 20
-11.366500
 30
0.0
 10
147.096198
 20
-11.364242
 30
0.0
 10
147.081240
 20
-11.363113
 30
0.0
 10
147.066564
 20
-11.362831
 30
0.0
 10
147.051889
 20
-11.363678
 30
0.0
 10
147.037496
 20
-11.365653
 30
0.0
 10
147.023102
 20
-11.368758
 30
0.0
 10
146.989236
 20
-11.380893
 30
0.0
 10
146.958473
 20
-11.398109
 30
0.0
 10
146.931944
 20
-11.420122
 30
0.0
 10
146.909649
 20
-11.446087
 30
0.0
 10
146.892151
 20
-11.475438
 30
0.0
 10
146.879733
 20
-11.507329
 30
0.0
 10
146.872960
 20
-11.541196
 30
0.0
 10
146.872113
 20
-11.576191
 30
0.0
 10
146.877758
 20
-11.611751
 30
0.0
 10
146.918962
 20
-11.746653
 30
0.0
 10
146.973431
 20
-11.875629
 30
0.0
 10
147.040036
 20
-11.997549
 30
0.0
 10
147.118211
 20
-12.111849
 30
0.0
 10
147.207393
 20
-12.217964
 30
0.0
 10
147.306736
 20
-12.314767
 30
0.0
 10
147.415673
 20
-12.401409
 30
0.0
 10
147.533360
 20
-12.477044
 30
0.0
 10
147.659231
 20
-12.541109
 30
0.0
 10
147.673060
 20
-12.546753
 30
0.0
 10
147.687171
 20
-12.550987
 30
0.0
 10
147.701564
 20
-12.554373
 30
0.0
 10
147.716240
 20
-12.556631
 30
0.0
 10
147.730916
 20
-12.558042
 30
0.0
 10
147.745591
 20
-12.558042
 30
0.0
 10
147.760549
 20
-12.557196
 30
0.0
 10
147.775507
 20
-12.555220
 30
0.0
 10
147.790182
 20
-12.552116
 30
0.0
 10
147.790182
 20
-12.552116
 30
0.0
  0
LWPOLYLINE
  5
1ca
100
AcDbEntity
  8
0
 62
1
100
AcDbPolyline
 90
56
 70
1
 10
128.205371
 20
-34.994709
 30
0.0
 10
128.233593
 20
-34.972978
 30
0.0
 10
128.257018
 20
-34.947013
 30
0.0
 10
128.275080
 20
-34.917944
 30
0.0
 10
128.288062
 20
-34.886336
 30
0.0
 10
128.295682
 20
-34.853033
 30
0.0
 10
128.297658
 20
-34.818884
 30
0.0
 10
128.293424
 20
-34.784736
 30
0.0
 10
128.283547
 20
-34.751151
 30
0.0
 10
128.267178
 20
-34.719260
 30
0.0
 10
128.185898
 20
-34.603549
 30
0.0
 10
128.094458
 20
-34.497716
 30
0.0
 10
127.993140
 20
-34.402324
 30
0.0
 10
127.883356
 20
-34.317940
 30
0.0
 10
127.765669
 20
-34.244844
 30
0.0
 10
127.641209
 20
-34.184167
 30
0.0
 10
127.510540
 20
-34.135624
 30
0.0
 10
127.374791
 20
-34.100629
 30
0.0
 10
127.235091
 20
-34.079180
 30
0.0
 10
127.220416
 20
-34.078333
 30
0.0
 10
127.205458
 20
-34.078333
 30
0.0
 10
127.190500
 20
-34.079744
 30
0.0
 10
127.175824
 20
-34.082002
 30
0.0
 10
127.161431
 20
-34.085389
 30
0.0
 10
127.147602
 20
-34.089904
 30
0.0
 10
127.133773
 20
-34.095267
 30
0.0
 10
127.120791
 20
-34.101758
 30
0.0
 10
127.108091
 20
-34.109096
 30
0.0
 10
127.079587
 20
-34.131109
 30
0.0
 10
127.055880
 20
-34.156791
 30
0.0
 10
127.037253
 20
-34.186142
 30
0.0
 10
127.024271
 20
-34.217751
 30
0.0
 10
127.016651
 20
-34.251053
 30
0.0
 10
127.014676
 20
-34.285202
 30
0.0
 10
127.018909
 20
-34.319351
 30
0.0
 10
127.029069
 20
-34.352936
 30
0.0
 10
127.045438
 20
-34.385109
 30
0.0
 10
127.126718
 20
-34.500538
 30
0.0
 10
127.218440
 20
-34.606089
 30
0.0
 10
127.319758
 20
-34.701480
 30
0.0
 10
127.429542
 20
-34.785864
 30
0.0
 10
127.547229
 20
-34.858678
 30
0.0
 10
127.671689
 20
-34.919638
 30
0.0
 10
127.802358
 20
-34.968180
 30
0.0
 10
127.937824
 20
-35.003458
 30
0.0
 10
128.077524
 20
-35.025189
 30
0.0
 10
128.092200
 20
-35.026036
 30
0.0
 10
128.107158
 20
-35.026036
 30
0.0
 10
128.121833
 20
-35.024624
 30
0.0
 10
128.136227
 20
-35.022367
 30
0.0
 10
128.150620
 20
-35.018980
 30
0.0
 10
128.164731
 20
-35.014464
 30
0.0
 10
128.178560
 20
-35.009102
 30
0.0
 10
128.192107
 20
-35.002329
 30
0.0
 10
128.205371
 20
-34.994709
 30
0.0
 10
128.205371
 20
-34.994709
 30
0.0
  0
LWPOLYLINE
  5
1cb
100
AcDbEntity
  8
0
 62
1
100
AcDbPolyline
 90
56
 70
1
 10
104.533418
 20
-55.648296
 30
0.0
 10
104.568978
 20
-55.651400
 30
0.0
 10
104.603691
 20
-55.648578
 30
0.0
 10
104.636993
 20
-55.639829
 30
0.0
 10
104.668038
 20
-55.625718
 30
0.0
 10
104.696260
 20
-55.606527
 30
0.0
 10
104.721096
 20
-55.582820
 30
0.0
 10
104.741416
 20
-55.555162
 30
0.0
 10
104.756938
 20
-55.523836
 30
0.0
 10
104.767098
 20
-55.489122
 30
0.0
 10
104.786853
 20
-55.349422
 30
0.0
 10
104.792216
 20
-55.209722
 30
0.0
 10
104.783467
 20
-55.070869
 30
0.0
 10
104.761171
 20
-54.933991
 30
0.0
 10
104.725047
 20
-54.800218
 30
0.0
 10
104.675658
 20
-54.670678
 30
0.0
 10
104.613569
 20
-54.546218
 30
0.0
 10
104.538498
 20
-54.427967
 30
0.0
 10
104.451291
 20
-54.316771
 30
0.0
 10
104.440849
 20
-54.305764
 30
0.0
 10
104.430124
 20
-54.295887
 30
0.0
 10
104.418271
 20
-54.286573
 30
0.0
 10
104.406136
 20
-54.278389
 30
0.0
 10
104.393153
 20
-54.271051
 30
0.0
 10
104.379889
 20
-54.264560
 30
0.0
 10
104.366342
 20
-54.259198
 30
0.0
 10
104.352231
 20
-54.254964
 30
0.0
 10
104.338120
 20
-54.251578
 30
0.0
 10
104.301996
 20
-54.248191
 30
0.0
 10
104.267000
 20
-54.250731
 30
0.0
 10
104.233698
 20
-54.259480
 30
0.0
 10
104.202371
 20
-54.273591
 30
0.0
 10
104.174149
 20
-54.292782
 30
0.0
 10
104.149313
 20
-54.316489
 30
0.0
 10
104.128993
 20
-54.344147
 30
0.0
 10
104.113471
 20
-54.375756
 30
0.0
 10
104.103593
 20
-54.410469
 30
0.0
 10
104.084120
 20
-54.550169
 30
0.0
 10
104.078758
 20
-54.689869
 30
0.0
 10
104.087507
 20
-54.828440
 30
0.0
 10
104.110084
 20
-54.965318
 30
0.0
 10
104.146209
 20
-55.099091
 30
0.0
 10
104.195316
 20
-55.228631
 30
0.0
 10
104.257404
 20
-55.353091
 30
0.0
 10
104.332193
 20
-55.471624
 30
0.0
 10
104.419400
 20
-55.582820
 30
0.0
 10
104.429560
 20
-55.593827
 30
0.0
 10
104.440567
 20
-55.603704
 30
0.0
 10
104.452138
 20
-55.613018
 30
0.0
 10
104.464273
 20
-55.621202
 30
0.0
 10
104.476973
 20
-55.628540
 30
0.0
 10
104.490520
 20
-55.634749
 30
0.0
 10
104.504349
 20
-55.640393
 30
0.0
 10
104.518742
 20
-55.644627
 30
0.0
 10
104.533418
 20
-55.648296
 30
0.0
 10
104.533418
 20
-55.648296
 30
0.0
  0
LWPOLYLINE
  5
1cc
100
AcDbEntity
  8
0
 62
1
100
AcDbPolyline
 90
56
 70
1
 10
75.608462
 20
-43.243500
 30
0.0
 10
75.620316
 20
-43.277084
 30
0.0
 10
75.637531
 20
-43.307564
 30
0.0
 10
75.659544
 20
-43.334093
 30
0.0
 10
75.685509
 20
-43.356107
 30
0.0
 10
75.714578
 20
-43.373887
 30
0.0
 10
75.746469
 20
-43.386304
 30
0.0
 10
75.780336
 20
-43.393078
 30
0.0
 10
75.815331
 20
-43.394207
 30
0.0
 10
75.850609
 20
-43.388562
 30
0.0
 10
75.985793
 20
-43.347922
 30
0.0
 10
76.115051
 20
-43.294018
 30
0.0
 10
76.237536
 20
-43.227978
 30
0.0
 10
76.352118
 20
-43.150084
 30
0.0
 10
76.458233
 20
-43.061184
 30
0.0
 10
76.555318
 20
-42.962124
 30
0.0
 10
76.641960
 20
-42.853187
 30
0.0
 10
76.717878
 20
-42.735500
 30
0.0
 10
76.782224
 20
-42.609629
 30
0.0
 10
76.787869
 20
-42.595800
 30
0.0
 10
76.792102
 20
-42.581407
 30
0.0
 10
76.795771
 20
-42.567013
 30
0.0
 10
76.798029
 20
-42.552338
 30
0.0
 10
76.799440
 20
-42.537662
 30
0.0
 10
76.799440
 20
-42.522987
 30
0.0
 10
76.798593
 20
-42.508311
 30
0.0
 10
76.796618
 20
-42.493918
 30
0.0
 10
76.793513
 20
-42.479524
 30
0.0
 10
76.781942
 20
-42.445376
 30
0.0
 10
76.764444
 20
-42.414896
 30
0.0
 10
76.742713
 20
-42.388084
 30
0.0
 10
76.716749
 20
-42.365789
 30
0.0
 10
76.687398
 20
-42.348009
 30
0.0
 10
76.655789
 20
-42.335591
 30
0.0
 10
76.621922
 20
-42.328818
 30
0.0
 10
76.586644
 20
-42.327971
 30
0.0
 10
76.551084
 20
-42.333333
 30
0.0
 10
76.416182
 20
-42.374256
 30
0.0
 10
76.287207
 20
-42.428442
 30
0.0
 10
76.165004
 20
-42.494482
 30
0.0
 10
76.050140
 20
-42.572376
 30
0.0
 10
75.944024
 20
-42.661276
 30
0.0
 10
75.846940
 20
-42.760336
 30
0.0
 10
75.760016
 20
-42.868991
 30
0.0
 10
75.684098
 20
-42.986678
 30
0.0
 10
75.619751
 20
-43.112549
 30
0.0
 10
75.614107
 20
-43.126378
 30
0.0
 10
75.609591
 20
-43.140489
 30
0.0
 10
75.606204
 20
-43.154882
 30
0.0
 10
75.603947
 20
-43.169276
 30
0.0
 10
75.602536
 20
-43.183951
 30
0.0
 10
75.602253
 20
-43.198909
 30
0.0
 10
75.603382
 20
-43.213867
 30
0.0
 10
75.605358
 20
-43.228542
 30
0.0
 10
75.608462
 20
-43.243500
 30
0.0
 10
75.608462
 20
-43.243500
 30
0.0
  0
LWPOLYLINE
  5
1cd
100
AcDbEntity
  8
0
 62
5
100
AcDbPolyline
 90
6
 70
1
 10
327.394711
 20
-109.441827
 30
0.0
 10
328.168000
 20
-109.644744
 30
0.0
 10
326.951622
 20
-114.287864
 30
0.0
 10
326.178333
 20
-114.084947
 30
0.0
 10
327.394711
 20
-109.441827
 30
0.0
 10
327.394711
 20
-109.441827
 30
0.0
  0
LWPOLYLINE
  5
1ce
100
AcDbEntity
  8
0
 62
5
100
AcDbPolyline
 90
6
 70
1
 10
125.514947
 20
-177.647318
 30
0.0
 10
125.941949
 20
-178.323804
 30
0.0
 10
121.883593
 20
-180.886664
 30
0.0
 10
121.456309
 20
-180.210178
 30
0.0
 10
125.514947
 20
-177.647318
 30
0.0
 10
125.514947
 20
-177.647318
 30
0.0
  0
LWPOLYLINE
  5
1cf
100
AcDbEntity
  8
0
 62
5
100
AcDbPolyline
 90
6
 70
1
 10
145.376900
 20
-146.940129
 30
0.0
 10
146.171073
 20
-146.844738
 30
0.0
 10
146.744267
 20
-151.610342
 30
0.0
 10
145.949811
 20
-151.706016
 30
0.0
 10
145.376900
 20
-146.940129
 30
0.0
 10
145.376900
 20
-146.940129
 30
0.0
  0
LWPOLYLINE
  5
1d0
100
AcDbEntity
  8
0
 62
5
100
AcDbPolyline
 90
6
 70
1
 10
88.058131
 20
-158.743791
 30
0.0
 10
87.588231
 20
-159.391209
 30
0.0
 10
83.704007
 20
-156.570962
 30
0.0
 10
84.174189
 20
-155.923544
 30
0.0
 10
88.058131
 20
-158.743791
 30
0.0
 10
88.058131
 20
-158.743791
 30
0.0
  0
LWPOLYLINE
  5
1d1
100
AcDbEntity
  8
0
 62
5
100
AcDbPolyline
 90
6
 70
1
 10
99.816638
 20
-183.314622
 30
0.0
 10
99.016538
 20
-183.325347
 30
0.0
 10
98.953320
 20
-178.525593
 30
0.0
 10
99.753138
 20
-178.515151
 30
0.0
 10
99.816638
 20
-183.314622
 30
0.0
 10
99.816638
 20
-183.314622
 30
0.0
  0
LWPOLYLINE
  5
1d2
100
AcDbEntity
  8
0
 62
5
100
AcDbPolyline
 90
6
 70
1
 10
334.549044
 20
-65.655896
 30
0.0
 10
335.344911
 20
-65.753262
 30
0.0
 10
334.760711
 20
-70.517456
 30
0.0
 10
333.967667
 20
-70.420089
 30
0.0
 10
334.549044
 20
-65.655896
 30
0.0
 10
334.549044
 20
-65.655896
 30
0.0
  0
LWPOLYLINE
  5
1d3
100
AcDbEntity
  8
0
 62
5
100
AcDbPolyline
 90
6
 70
1
 10
101.285887
 20
-52.482609
 30
0.0
 10
101.077889
 20
-51.710167
 30
0.0
 10
105.712542
 20
-50.462180
 30
0.0
 10
105.920822
 20
-51.234622
 30
0.0
 10
101.285887
 20
-52.482609
 30
0.0
 10
101.285887
 20
-52.482609
 30
0.0
  0
LWPOLYLINE
  5
1d4
100
AcDbEntity
  8
0
 62
5
100
AcDbPolyline
 90
6
 70
1
 10
4.136249
 20
-59.685202
 30
0.0
 10
3.336431
 20
-59.692822
 30
0.0
 10
3.291840
 20
-54.893069
 30
0.0
 10
4.091940
 20
-54.885449
 30
0.0
 10
4.136249
 20
-59.685202
 30
0.0
 10
4.136249
 20
-59.685202
 30
0.0
  0
LWPOLYLINE
  5
1d5
100
AcDbEntity
  8
0
 62
5
100
AcDbPolyline
 90
6
 70
1
 10
57.278976
 20
-14.711116
 30
0.0
 10
57.994127
 20
-14.352693
 30
0.0
 10
60.144942
 20
-18.643882
 30
0.0
 10
59.429791
 20
-19.002304
 30
0.0
 10
57.278976
 20
-14.711116
 30
0.0
 10
57.278976
 20
-14.711116
 30
0.0
  0
LWPOLYLINE
  5
1d6
100
AcDbEntity
  8
0
 62
5
100
AcDbPolyline
 90
6
 70
1
 10
20.800060
 20
-81.719138
 30
0.0
 10
20.247751
 20
-82.297693
 30
0.0
 10
16.775853
 20
-78.983276
 30
0.0
 10
17.328162
 20
-78.404720
 30
0.0
 10
20.800060
 20
-81.719138
 30
0.0
 10
20.800060
 20
-81.719138
 30
0.0
  0
LWPOLYLINE
  5
1d7
100
AcDbEntity
  8
0
 62
5
100
AcDbPolyline
 90
6
 70
1
 10
133.345484
 20
-120.160062
 30
0.0
 10
133.992620
 20
-119.689316
 30
0.0
 10
136.815689
 20
-123.571282
 30
0.0
 10
136.168836
 20
-124.042029
 30
0.0
 10
133.345484
 20
-120.160062
 30
0.0
 10
133.345484
 20
-120.160062
 30
0.0
  0
LWPOLYLINE
  5
1d8
100
AcDbEntity
  8
0
 62
5
100
AcDbPolyline
 90
6
 70
1
 10
277.196409
 20
-61.802433
 30
0.0
 10
276.485209
 20
-61.436109
 30
0.0
 10
278.684002
 20
-57.169191
 30
0.0
 10
279.395202
 20
-57.535798
 30
0.0
 10
277.196409
 20
-61.802433
 30
0.0
 10
277.196409
 20
-61.802433
 30
0.0
  0
LWPOLYLINE
  5
1d9
100
AcDbEntity
  8
0
 62
5
100
AcDbPolyline
 90
6
 70
1
 10
310.929867
 20
-39.603116
 30
0.0
 10
310.938333
 20
-38.803016
 30
0.0
 10
315.738933
 20
-38.849864
 30
0.0
 10
315.730467
 20
-39.649964
 30
0.0
 10
310.929867
 20
-39.603116
 30
0.0
 10
310.929867
 20
-39.603116
 30
0.0
  0
LWPOLYLINE
  5
1da
100
AcDbEntity
  8
0
 62
5
100
AcDbPolyline
 90
6
 70
1
 10
26.389471
 20
-27.957780
 30
0.0
 10
25.845064
 20
-27.371322
 30
0.0
 10
29.362682
 20
-24.105447
 30
0.0
 10
29.907089
 20
-24.691622
 30
0.0
 10
26.389471
 20
-27.957780
 30
0.0
 10
26.389471
 20
-27.957780
 30
0.0
  0
LWPOLYLINE
  5
1db
100
AcDbEntity
  8
0
 62
5
100
AcDbPolyline
 90
6
 70
1
 10
54.903793
 20
-123.029133
 30
0.0
 10
54.256940
 20
-123.499598
 30
0.0
 10
51.433871
 20
-119.617631
 30
0.0
 10
52.080724
 20
-119.147167
 30
0.0
 10
54.903793
 20
-123.029133
 30
0.0
 10
54.903793
 20
-123.029133
 30
0.0
  0
LWPOLYLINE
  5
1dc
100
AcDbEntity
  8
0
 62
5
100
AcDbPolyline
 90
212
 70
1
 10
74.662171
 20
-41.019589
 30
0.0
 10
65.305376
 20
-29.832300
 30
0.0
 10
60.862633
 20
-20.968547
 30
0.0
 10
63.008369
 20
-19.893280
 30
0.0
 10
58.706738
 20
-11.310902
 30
0.0
 10
56.561284
 20
-12.386169
 30
0.0
 10
52.118824
 20
-3.522698
 30
0.0
 10
31.393553
 20
-22.765456
 30
0.0
 10
29.760616
 20
-21.006647
 30
0.0
 10
22.725380
 20
-27.538680
 30
0.0
 10
24.358318
 20
-29.297489
 30
0.0
 10
3.633329
 20
-48.540529
 30
0.0
 10
3.669736
 20
-52.489382
 30
0.0
 10
1.270000
 20
-52.511396
 30
0.0
 10
1.358618
 20
-62.111184
 30
0.0
 10
3.758636
 20
-62.088889
 30
0.0
 10
3.795042
 20
-66.037742
 30
0.0
 10
15.316200
 20
-77.036789
 30
0.0
 10
13.658991
 20
-78.772738
 30
0.0
 10
20.602787
 20
-85.401573
 30
0.0
 10
22.259996
 20
-83.665624
 30
0.0
 10
33.781153
 20
-94.664671
 30
0.0
 10
50.345622
 20
-117.441416
 30
0.0
 10
48.404780
 20
-118.853091
 30
0.0
 10
54.050918
 20
-126.617024
 30
0.0
 10
55.992042
 20
-125.205349
 30
0.0
 10
72.556511
 20
-147.982376
 30
0.0
 10
81.997127
 20
-154.837271
 30
0.0
 10
80.586862
 20
-156.779242
 30
0.0
 10
88.355029
 20
-162.419736
 30
0.0
 10
89.765293
 20
-160.477764
 30
0.0
 10
99.205627
 20
-167.332378
 30
0.0
 10
99.321620
 20
-176.120496
 30
0.0
 10
96.921884
 20
-176.152387
 30
0.0
 10
97.048602
 20
-185.751329
 30
0.0
 10
99.448338
 20
-185.719720
 30
0.0
 10
99.564331
 20
-194.507838
 30
0.0
 10
119.640773
 20
-181.829851
 30
0.0
 10
120.922062
 20
-183.859029
 30
0.0
 10
129.039056
 20
-178.733309
 30
0.0
 10
127.757767
 20
-176.704131
 30
0.0
 10
147.834209
 20
-164.026144
 30
0.0
 10
146.633636
 20
-154.040840
 30
0.0
 10
149.016438
 20
-153.754384
 30
0.0
 10
147.870333
 20
-144.223176
 30
0.0
 10
145.487531
 20
-144.509631
 30
0.0
 10
144.286958
 20
-134.524609
 30
0.0
 10
137.903938
 20
-125.747498
 30
0.0
 10
139.844780
 20
-124.336104
 30
0.0
 10
134.198360
 20
-116.572171
 30
0.0
 10
132.257518
 20
-117.983564
 30
0.0
 10
125.874498
 20
-109.206736
 30
0.0
 10
136.675989
 20
-101.528598
 30
0.0
 10
137.139680
 20
-102.180813
 30
0.0
 10
136.846169
 20
-102.389376
 30
0.0
 10
138.360009
 20
-103.276118
 30
0.0
 10
141.685433
 20
-100.912507
 30
0.0
 10
141.345356
 20
-99.191233
 30
0.0
 10
141.051844
 20
-99.399796
 30
0.0
 10
140.588436
 20
-98.747580
 30
0.0
 10
151.389927
 20
-91.069442
 30
0.0
 10
155.858916
 20
-79.441604
 30
0.0
 10
156.605676
 20
-79.728624
 30
0.0
 10
156.476700
 20
-80.064751
 30
0.0
 10
158.228453
 20
-79.966820
 30
0.0
 10
159.692058
 20
-76.158231
 30
0.0
 10
158.457053
 20
-74.912220
 30
0.0
 10
158.327796
 20
-75.248347
 30
0.0
 10
157.581036
 20
-74.961327
 30
0.0
 10
162.050024
 20
-63.333489
 30
0.0
 10
175.858029
 20
-85.533936
 30
0.0
 10
175.178720
 20
-85.956704
 30
0.0
 10
174.988784
 20
-85.650776
 30
0.0
 10
174.010320
 20
-87.107324
 30
0.0
 10
176.165087
 20
-90.571884
 30
0.0
 10
177.904140
 20
-90.338204
 30
0.0
 10
177.713922
 20
-90.032558
 30
0.0
 10
178.393231
 20
-89.610071
 30
0.0
 10
192.201236
 20
-111.810518
 30
0.0
 10
194.867671
 20
-122.677202
 30
0.0
 10
194.090713
 20
-122.867702
 30
0.0
 10
194.004918
 20
-122.518029
 30
0.0
 10
192.622593
 20
-123.598658
 30
0.0
 10
193.594849
 20
-127.561058
 30
0.0
 10
195.320356
 20
-127.879122
 30
0.0
 10
195.234560
 20
-127.529449
 30
0.0
 10
196.011518
 20
-127.338667
 30
0.0
 10
198.677953
 20
-138.205351
 30
0.0
 10
194.162962
 20
-151.527369
 30
0.0
 10
193.405196
 20
-151.270829
 30
0.0
 10
193.520907
 20
-150.929904
 30
0.0
 10
191.774233
 20
-151.098109
 30
0.0
 10
190.464722
 20
-154.962296
 30
0.0
 10
191.748833
 20
-156.157789
 30
0.0
 10
191.864544
 20
-155.816582
 30
0.0
 10
192.622029
 20
-156.073404
 30
0.0
 10
188.107038
 20
-169.395704
 30
0.0
 10
218.669729
 20
-169.582818
 30
0.0
 10
218.664931
 20
-170.382636
 30
0.0
 10
218.304816
 20
-170.380378
 30
0.0
 10
219.015169
 20
-171.984811
 30
0.0
 10
223.094973
 20
-172.009929
 30
0.0
 10
223.824800
 20
-170.414244
 30
0.0
 10
223.464684
 20
-170.411987
 30
0.0
 10
223.469764
 20
-169.612169
 30
0.0
 10
254.032456
 20
-169.799000
 30
0.0
 10
259.902678
 20
-152.436124
 30
0.0
 10
260.660444
 20
-152.692382
 30
0.0
 10
260.545298
 20
-153.033589
 30
0.0
 10
262.291407
 20
-152.863973
 30
0.0
 10
263.598378
 20
-148.998658
 30
0.0
 10
262.313138
 20
-147.804293
 30
0.0
 10
262.197991
 20
-148.145218
 30
0.0
 10
261.439942
 20
-147.888960
 30
0.0
 10
267.310164
 20
-130.526367
 30
0.0
 10
263.936762
 20
-125.147493
 30
0.0
 10
264.614378
 20
-124.722467
 30
0.0
 10
264.805724
 20
-125.027549
 30
0.0
 10
265.778827
 20
-123.567331
 30
0.0
 10
263.610796
 20
-120.110956
 30
0.0
 10
261.872871
 20
-120.351127
 30
0.0
 10
262.064218
 20
-120.655927
 30
0.0
 10
261.386320
 20
-121.080953
 30
0.0
 10
258.012918
 20
-115.702362
 30
0.0
 10
288.242022
 20
-120.952824
 30
0.0
 10
288.103733
 20
-121.741071
 30
0.0
 10
287.750956
 20
-121.679547
 30
0.0
 10
288.185578
 20
-123.379089
 30
0.0
 10
292.204422
 20
-124.077307
 30
0.0
 10
293.189378
 20
-122.624144
 30
0.0
 10
292.833778
 20
-122.562620
 30
0.0
 10
292.972067
 20
-121.774373
 30
0.0
 10
323.198067
 20
-127.024836
 30
0.0
 10
325.955378
 20
-116.508107
 30
0.0
 10
328.278067
 20
-117.116578
 30
0.0
 10
330.713644
 20
-107.830338
 30
0.0
 10
328.390956
 20
-107.221867
 30
0.0
 10
331.148267
 20
-96.704856
 30
0.0
 10
334.072089
 20
-72.851151
 30
0.0
 10
336.454044
 20
-73.142969
 30
0.0
 10
337.622444
 20
-63.614300
 30
0.0
 10
335.240489
 20
-63.322482
 30
0.0
 10
338.161489
 20
-39.468496
 30
0.0
 10
318.135000
 20
-39.273198
 30
0.0
 10
318.157578
 20
-36.873462
 30
0.0
 10
308.556378
 20
-36.779764
 30
0.0
 10
308.533800
 20
-39.179782
 30
0.0
 10
288.504489
 20
-38.984484
 30
0.0
 10
280.138858
 20
-55.219036
 30
0.0
 10
278.005540
 20
-54.119780
 30
0.0
 10
273.607953
 20
-62.653333
 30
0.0
 10
275.741553
 20
-63.752589
 30
0.0
 10
267.375640
 20
-79.987140
 30
0.0
 10
246.728827
 20
-80.808124
 30
0.0
 10
246.696936
 20
-80.008589
 30
0.0
 10
247.056769
 20
-79.994478
 30
0.0
 10
246.273884
 20
-78.424193
 30
0.0
 10
242.196902
 20
-78.586471
 30
0.0
 10
241.541018
 20
-80.213764
 30
0.0
 10
241.900851
 20
-80.199371
 30
0.0
 10
241.932742
 20
-80.998907
 30
0.0
 10
221.285647
 20
-81.819609
 30
0.0
 10
214.896418
 20
-60.318509
 30
0.0
 10
215.663498
 20
-60.090756
 30
0.0
 10
215.765944
 20
-60.435913
 30
0.0
 10
217.094647
 20
-59.289809
 30
0.0
 10
215.932456
 20
-55.378773
 30
0.0
 10
214.193684
 20
-55.144529
 30
0.0
 10
214.296131
 20
-55.489687
 30
0.0
 10
213.529333
 20
-55.717440
 30
0.0
 10
207.140104
 20
-34.216340
 30
0.0
 10
185.257158
 20
-19.390360
 30
0.0
 10
185.705891
 20
-18.728267
 30
0.0
 10
186.003918
 20
-18.930056
 30
0.0
 10
186.305331
 20
-17.201727
 30
0.0
 10
182.927413
 20
-14.913187
 30
0.0
 10
181.433893
 20
-15.833796
 30
0.0
 10
181.731920
 20
-16.035867
 30
0.0
 10
181.283187
 20
-16.698242
 30
0.0
 10
159.400240
 20
-1.872262
 30
0.0
 10
149.242780
 20
-10.414564
 30
0.0
 10
148.727724
 20
-9.802424
 30
0.0
 10
149.003173
 20
-9.570720
 30
0.0
 10
147.422447
 20
-8.809567
 30
0.0
 10
144.299940
 20
-11.435644
 30
0.0
 10
144.778589
 20
-13.123616
 30
0.0
 10
145.054038
 20
-12.891911
 30
0.0
 10
145.569093
 20
-13.504051
 30
0.0
 10
135.411351
 20
-22.046636
 30
0.0
 10
128.920522
 20
-32.511718
 30
0.0
 10
128.240649
 20
-32.090078
 30
0.0
 10
128.430302
 20
-31.784149
 30
0.0
 10
126.691249
 20
-31.552727
 30
0.0
 10
124.540716
 20
-35.019827
 30
0.0
 10
125.520873
 20
-36.474964
 30
0.0
 10
125.710527
 20
-36.169036
 30
0.0
 10
126.390400
 20
-36.590676
 30
0.0
 10
119.899571
 20
-47.055758
 30
0.0
 10
108.134009
 20
-50.224267
 30
0.0
 10
107.510016
 20
-47.906940
 30
0.0
 10
98.240427
 20
-50.403196
 30
0.0
 10
98.864420
 20
-52.720522
 30
0.0
 10
87.098858
 20
-55.889031
 30
0.0
 10
77.741780
 20
-44.701460
 30
0.0
 10
78.355613
 20
-44.188380
 30
0.0
 10
78.586471
 20
-44.464393
 30
0.0
 10
79.351858
 20
-42.885642
 30
0.0
 10
76.734247
 20
-39.756080
 30
0.0
 10
75.044864
 20
-40.230213
 30
0.0
 10
75.276004
 20
-40.506509
 30
0.0
 10
74.662171
 20
-41.019589
 30
0.0
 10
74.662171
 20
-41.019589
 30
0.0
  0
ENDSEC
  0
SECTION
  2
OBJECTS
  0
DICTIONARY
  5
C
330
0
100
AcDbDictionary
  3
ACAD_GROUP
350
D
  3
ACAD_MLINESTYLE
350
17
  0
DICTIONARY
  5
D
330
C
100
AcDbDictionary
  0
DICTIONARY
  5
1A
330
C
100
AcDbDictionary
  0
DICTIONARY
  5
17
330
C
100
AcDbDictionary
  3
STANDARD
350
18
  0
DICTIONARY
  5
19
330
C
100
AcDbDictionary
  0
ENDSEC
  0
EOF
