  0
SECTION
  2
HEADER
  9
$ACADVER
  1
AC1014
  9
$ACADMAINTVER
 70
     9
  9
$DWGCODEPAGE
  3
UNDEFINED
  9
$INSBASE
 10
0.0
 20
0.0
 30
0.0
  9
$EXTMIN
 10
1.000000000000000E+20
 20
1.000000000000000E+20
 30
1.000000000000000E+20
  9
$EXTMAX
 10
-1.000000000000000E+20
 20
-1.000000000000000E+20
 30
-1.000000000000000E+20
  9
$LIMMIN
 10
0.0
 20
0.0
  9
$LIMMAX
 10
12.0
 20
9.0
  9
$ORTHOMODE
 70
     0
  9
$REGENMODE
 70
     1
  9
$FILLMODE
 70
     1
  9
$QTEXTMODE
 70
     0
  9
$MIRRTEXT
 70
     1
  9
$DRAGMODE
 70
     2
  9
$LTSCALE
 40
1.0
  9
$OSMODE
 70
    37
  9
$ATTMODE
 70
     1
  9
$TEXTSIZE
 40
0.2
  9
$TRACEWID
 40
0.05
  9
$TEXTSTYLE
  7
STANDARD
  9
$CLAYER
  8
0
  9
$CELTYPE
  6
BYLAYER
  9
$CECOLOR
 62
   256
  9
$CELTSCALE
 40
1.0
  9
$DELOBJ
 70
     1
  9
$DISPSILH
 70
     0
  9
$DIMSCALE
 40
1.0
  9
$DIMASZ
 40
0.18
  9
$DIMEXO
 40
0.0625
  9
$DIMDLI
 40
0.38
  9
$DIMRND
 40
0.0
  9
$DIMDLE
 40
0.0
  9
$DIMEXE
 40
0.18
  9
$DIMTP
 40
0.0
  9
$DIMTM
 40
0.0
  9
$DIMTXT
 40
0.18
  9
$DIMCEN
 40
0.09
  9
$DIMTSZ
 40
0.0
  9
$DIMTOL
 70
     0
  9
$DIMLIM
 70
     0
  9
$DIMTIH
 70
     1
  9
$DIMTOH
 70
     1
  9
$DIMSE1
 70
     0
  9
$DIMSE2
 70
     0
  9
$DIMTAD
 70
     0
  9
$DIMZIN
 70
     0
  9
$DIMBLK
  1

  9
$DIMASO
 70
     1
  9
$DIMSHO
 70
     1
  9
$DIMPOST
  1

  9
$DIMAPOST
  1

  9
$DIMALT
 70
     0
  9
$DIMALTD
 70
     2
  9
$DIMALTF
 40
25.4
  9
$DIMLFAC
 40
1.0
  9
$DIMTOFL
 70
     0
  9
$DIMTVP
 40
0.0
  9
$DIMTIX
 70
     0
  9
$DIMSOXD
 70
     0
  9
$DIMSAH
 70
     0
  9
$DIMBLK1
  1

  9
$DIMBLK2
  1

  9
$DIMSTYLE
  2
STANDARD
  9
$DIMCLRD
 70
     0
  9
$DIMCLRE
 70
     0
  9
$DIMCLRT
 70
     0
  9
$DIMTFAC
 40
1.0
  9
$DIMGAP
 40
0.09
  9
$DIMJUST
 70
     0
  9
$DIMSD1
 70
     0
  9
$DIMSD2
 70
     0
  9
$DIMTOLJ
 70
     1
  9
$DIMTZIN
 70
     0
  9
$DIMALTZ
 70
     0
  9
$DIMALTTZ
 70
     0
  9
$DIMFIT
 70
     3
  9
$DIMUPT
 70
     0
  9
$DIMUNIT
 70
     2
  9
$DIMDEC
 70
     4
  9
$DIMTDEC
 70
     4
  9
$DIMALTU
 70
     2
  9
$DIMALTTD
 70
     2
  9
$DIMTXSTY
  7
STANDARD
  9
$DIMAUNIT
 70
     0
  9
$LUNITS
 70
     2
  9
$LUPREC
 70
     4
  9
$SKETCHINC
 40
0.1
  9
$FILLETRAD
 40
0.5
  9
$AUNITS
 70
     0
  9
$AUPREC
 70
     0
  9
$MENU
  1
.
  9
$ELEVATION
 40
0.0
  9
$PELEVATION
 40
0.0
  9
$THICKNESS
 40
0.0
  9
$LIMCHECK
 70
     0
  9
$CHAMFERA
 40
0.5
  9
$CHAMFERB
 40
0.5
  9
$CHAMFERC
 40
1.0
  9
$CHAMFERD
 40
0.0
  9
$SKPOLY
 70
     0
  9
$TDCREATE
 40
2457458.562800915
  9
$TDUPDATE
 40
2457458.562800915
  9
$TDINDWG
 40
0.0000000116
  9
$TDUSRTIMER
 40
0.0000000116
  9
$USRTIMER
 70
     1
  9
$ANGBASE
 50
0.0
  9
$ANGDIR
 70
     0
  9
$PDMODE
 70
     0
  9
$PDSIZE
 40
0.0
  9
$PLINEWID
 40
0.0
  9
$COORDS
 70
     1
  9
$SPLFRAME
 70
     0
  9
$SPLINETYPE
 70
     6
  9
$SPLINESEGS
 70
     8
  9
$ATTDIA
 70
     0
  9
$ATTREQ
 70
     1
  9
$HANDLING
 70
     1
  9
$HANDSEED
  5
B2
  9
$SURFTAB1
 70
     6
  9
$SURFTAB2
 70
     6
  9
$SURFTYPE
 70
     6
  9
$SURFU
 70
     6
  9
$SURFV
 70
     6
  9
$UCSNAME
  2

  9
$UCSORG
 10
0.0
 20
0.0
 30
0.0
  9
$UCSXDIR
 10
1.0
 20
0.0
 30
0.0
  9
$UCSYDIR
 10
0.0
 20
1.0
 30
0.0
  9
$PUCSNAME
  2

  9
$PUCSORG
 10
0.0
 20
0.0
 30
0.0
  9
$PUCSXDIR
 10
1.0
 20
0.0
 30
0.0
  9
$PUCSYDIR
 10
0.0
 20
1.0
 30
0.0
  9
$USERI1
 70
     0
  9
$USERI2
 70
     0
  9
$USERI3
 70
     0
  9
$USERI4
 70
     0
  9
$USERI5
 70
     0
  9
$USERR1
 40
0.0
  9
$USERR2
 40
0.0
  9
$USERR3
 40
0.0
  9
$USERR4
 40
0.0
  9
$USERR5
 40
0.0
  9
$WORLDVIEW
 70
     1
  9
$SHADEDGE
 70
     3
  9
$SHADEDIF
 70
    70
  9
$TILEMODE
 70
     1
  9
$MAXACTVP
 70
    64
  9
$PINSBASE
 10
0.0
 20
0.0
 30
0.0
  9
$PLIMCHECK
 70
     0
  9
$PEXTMIN
 10
1.000000000000000E+20
 20
1.000000000000000E+20
 30
1.000000000000000E+20
  9
$PEXTMAX
 10
-1.000000000000000E+20
 20
-1.000000000000000E+20
 30
-1.000000000000000E+20
  9
$PLIMMIN
 10
0.0
 20
0.0
  9
$PLIMMAX
 10
12.0
 20
9.0
  9
$UNITMODE
 70
     0
  9
$VISRETAIN
 70
     1
  9
$PLINEGEN
 70
     0
  9
$PSLTSCALE
 70
     1
  9
$TREEDEPTH
 70
  3020
  9
$PICKSTYLE
 70
     1
  9
$CMLSTYLE
  2
STANDARD
  9
$CMLJUST
 70
     0
  9
$CMLSCALE
 40
1.0
  9
$PROXYGRAPHICS
 70
     1
  9
$MEASUREMENT
 70
     0
  0
ENDSEC
  0
SECTION
  2
CLASSES
  0
CLASS
  1
ACDBDICTIONARYWDFLT
  2
AcDbDictionaryWithDefault
  3
ObjectDBX Classes
 90
        0
280
     0
281
     0
  0
CLASS
  1
VISUALSTYLE
  2
AcDbVisualStyle
  3
ObjectDBX Classes
 90
     4095
280
     0
281
     0
  0
CLASS
  1
MATERIAL
  2
AcDbMaterial
  3
ObjectDBX Classes
 90
     1153
280
     0
281
     0
  0
CLASS
  1
SUN
  2
AcDbSun
  3
SCENEOE
 90
     1024
280
     0
281
     0
  0
CLASS
  1
DICTIONARYVAR
  2
AcDbDictionaryVar
  3
ObjectDBX Classes
 90
        0
280
     0
281
     0
  0
CLASS
  1
XRECORD
  2
AcDbXrecord
  3
AutoCAD 2000
 90
        0
280
     0
281
     0
  0
CLASS
  1
LWPOLYLINE
  2
AcDbPolyline
  3
AutoCAD 2000
 90
        0
280
     0
281
     1
  0
CLASS
  1
HATCH
  2
AcDbHatch
  3
AutoCAD 2000
 90
        0
280
     0
281
     1
  0
CLASS
  1
ACDBPLACEHOLDER
  2
AcDbPlaceHolder
  3
ObjectDBX Classes
 90
        0
280
     0
281
     0
  0
CLASS
  1
LAYOUT
  2
AcDbLayout
  3
ObjectDBX Classes
 90
        0
280
     0
281
     0
  0
ENDSEC
  0
SECTION
  2
TABLES
  0
TABLE
  2
VPORT
  5
8
330
0
100
AcDbSymbolTable
 70
     1
  0
VPORT
  5
29
330
8
100
AcDbSymbolTableRecord
100
AcDbViewportTableRecord
  2
*ACTIVE
 70
     0
 10
0.0
 20
0.0
 11
1.0
 21
1.0
 12
0.0
 22
0.0
 13
0.0
 23
0.0
 14
0.5
 24
0.5
 15
0.5
 25
0.5
 16
0.0
 26
0.0
 36
1.0
 17
105.0007777515277
 27
-148.5000416295416
 37
0.0
 40
297.0000832590831
 41
0.7070757462376333
 42
50.0
 43
0.0
 44
0.0
 50
0.0
 51
0.0
 71
     0
 72
   100
 73
     1
 74
     3
 75
     0
 76
     0
 77
     0
 78
     0
  0
ENDTAB
  0
TABLE
  2
LTYPE
  5
5
330
0
100
AcDbSymbolTable
 70
     1
  0
LTYPE
  5
14
330
5
100
AcDbSymbolTableRecord
100
AcDbLinetypeTableRecord
  2
BYBLOCK
 70
     0
  3

 72
    65
 73
     0
 40
0.0
  0
LTYPE
  5
15
330
5
100
AcDbSymbolTableRecord
100
AcDbLinetypeTableRecord
  2
BYLAYER
 70
     0
  3

 72
    65
 73
     0
 40
0.0
  0
LTYPE
  5
16
330
5
100
AcDbSymbolTableRecord
100
AcDbLinetypeTableRecord
  2
CONTINUOUS
 70
     0
  3
Solid line
 72
    65
 73
     0
 40
0.0
  0
ENDTAB
  0
TABLE
  2
LAYER
  5
2
330
0
100
AcDbSymbolTable
 70
     3
  0
LAYER
  5
10
330
2
100
AcDbSymbolTableRecord
100
AcDbLayerTableRecord
  2
0
 70
     0
 62
     7
  6
CONTINUOUS
  0
LAYER
  5
40
330
2
100
AcDbSymbolTableRecord
100
AcDbLayerTableRecord
  2
EBENE_1
 70
     0
 62
     7
  6
CONTINUOUS
  0
LAYER
  5
68
330
2
100
AcDbSymbolTableRecord
100
AcDbLayerTableRecord
  2
EBENE_2
 70
     0
 62
     7
  6
CONTINUOUS
  0
ENDTAB
  0
TABLE
  2
STYLE
  5
3
330
0
100
AcDbSymbolTable
 70
     1
  0
STYLE
  5
11
330
3
100
AcDbSymbolTableRecord
100
AcDbTextStyleTableRecord
  2
STANDARD
 70
     0
 40
0.0
 41
1.0
 50
0.0
 71
     0
 42
0.2
  3
txt
  4

  0
ENDTAB
  0
TABLE
  2
VIEW
  5
6
330
0
100
AcDbSymbolTable
 70
     0
  0
ENDTAB
  0
TABLE
  2
UCS
  5
7
330
0
100
AcDbSymbolTable
 70
     0
  0
ENDTAB
  0
TABLE
  2
APPID
  5
9
330
0
100
AcDbSymbolTable
 70
     1
  0
APPID
  5
12
330
9
100
AcDbSymbolTableRecord
100
AcDbRegAppTableRecord
  2
ACAD
 70
     0
  0
ENDTAB
  0
TABLE
  2
DIMSTYLE
  5
A
330
0
100
AcDbSymbolTable
 70
     1
  0
DIMSTYLE
105
27
330
A
100
AcDbSymbolTableRecord
100
AcDbDimStyleTableRecord
  2
STANDARD
 70
     0
  3

  4

  5

  6

  7

 40
1.0
 41
0.18
 42
0.0625
 43
0.38
 44
0.18
 45
0.0
 46
0.0
 47
0.0
 48
0.0
140
0.18
141
0.09
142
0.0
143
25.4
144
1.0
145
0.0
146
1.0
147
0.09
 71
     0
 72
     0
 73
     1
 74
     1
 75
     0
 76
     0
 77
     0
 78
     0
170
     0
171
     2
172
     0
173
     0
174
     0
175
     0
176
     0
177
     0
178
     0
270
     2
271
     4
272
     4
273
     2
274
     2
340
11
275
     0
280
     0
281
     0
282
     0
283
     1
284
     0
285
     0
286
     0
287
     3
288
     0
  0
ENDTAB
  0
TABLE
  2
BLOCK_RECORD
  5
1
330
0
100
AcDbSymbolTable
 70
     3
  0
BLOCK_RECORD
  5
1F
330
1
100
AcDbSymbolTableRecord
100
AcDbBlockTableRecord
  2
*MODEL_SPACE
  0
BLOCK_RECORD
  5
1B
330
1
100
AcDbSymbolTableRecord
100
AcDbBlockTableRecord
  2
*PAPER_SPACE
  0
BLOCK_RECORD
  5
48
330
1
100
AcDbSymbolTableRecord
100
AcDbBlockTableRecord
  2
BLOCK_2
  0
BLOCK_RECORD
  5
70
330
1
100
AcDbSymbolTableRecord
100
AcDbBlockTableRecord
  2
BLOCK_3
  0
ENDTAB
  0
ENDSEC
  0
SECTION
  2
BLOCKS
  0
BLOCK
  5
20
330
1F
100
AcDbEntity
  8
0
100
AcDbBlockBegin
  2
*MODEL_SPACE
 70
     0
 10
0.0
 20
0.0
 30
0.0
  3
*MODEL_SPACE
  1

  0
ENDBLK
  5
21
330
1F
100
AcDbEntity
  8
0
100
AcDbBlockEnd
  0
BLOCK
  5
1C
330
1B
100
AcDbEntity
 67
     1
  8
0
100
AcDbBlockBegin
  2
*PAPER_SPACE
 70
     0
 10
0.0
 20
0.0
 30
0.0
  3
*PAPER_SPACE
  1

  0
ENDBLK
  5
1D
330
1B
100
AcDbEntity
 67
     1
  8
0
100
AcDbBlockEnd
  0
BLOCK
  5
4A
330
48
100
AcDbEntity
  8
0
100
AcDbBlockBegin
  2
BLOCK_2
 70
     0
 10
0.0
 20
0.0
 30
0.0
  3
BLOCK_2
  1

  0
SPLINE
  5
4C
330
48
100
AcDbEntity
  8
EBENE_1
 62
     7
100
AcDbSpline
210
0.0
220
0.0
230
1.0
 70
    11
 71
     3
 72
    35
 73
    31
 74
     0
 42
0.0000000001
 43
0.0000000001
 12
1.0
 22
0.0
 32
0.0
 13
1.0
 23
0.0
 33
0.0
 40
0.0
 40
0.0
 40
0.0
 40
0.0
 40
1.0
 40
1.0
 40
1.0
 40
2.0
 40
2.0
 40
2.0
 40
3.0
 40
3.0
 40
3.0
 40
4.0
 40
4.0
 40
4.0
 40
5.0
 40
5.0
 40
5.0
 40
6.0
 40
6.0
 40
6.0
 40
7.0
 40
7.0
 40
7.0
 40
8.0
 40
8.0
 40
8.0
 40
9.0
 40
9.0
 40
9.0
 40
10.0
 40
10.0
 40
10.0
 40
10.0
 10
90.60310984571674
 20
-169.6342845863536
 30
0.0
 10
90.76382355010364
 20
-169.5960440264673
 30
0.0
 10
91.02186120194885
 20
-169.570894829425
 30
0.0
 10
91.27576473921177
 20
-169.570894829425
 30
0.0
 10
91.64387319181071
 20
-169.570894829425
 30
0.0
 10
91.8808957611959
 20
-169.6342845863536
 30
0.0
 10
92.05435631887823
 20
-169.778289577637
 30
0.0
 10
92.20232316996972
 20
-169.8881881236165
 30
0.0
 10
92.29551300284572
 20
-170.0573423119423
 30
0.0
 10
92.29551300284572
 20
-170.281618028032
 30
0.0
 10
92.29551300284572
 20
-170.5610152718858
 30
0.0
 10
92.10930559186797
 20
-170.8021719558533
 30
0.0
 10
91.81319963491075
 20
-170.9079363872504
 30
0.0
 10
91.81319963491075
 20
-170.9079363872504
 30
0.0
 10
91.81319963491075
 20
-170.9203387309973
 30
0.0
 10
91.81319963491075
 20
-170.9203387309973
 30
0.0
 10
92.08398414005138
 20
-170.9840729974745
 30
0.0
 10
92.40127743424289
 20
-171.2083487135642
 30
0.0
 10
92.40127743424289
 20
-171.6314064391529
 30
0.0
 10
92.40127743424289
 20
-171.8766972377027
 30
0.0
 10
92.30395348678458
 20
-172.067211018037
 30
0.0
 10
92.15581438091884
 20
-172.2026032706073
 30
0.0
 10
91.96116648600223
 20
-172.3845043122285
 30
0.0
 10
91.63973907722841
 20
-172.4689091516171
 30
0.0
 10
91.17430667717116
 20
-172.4689091516171
 30
0.0
 10
90.92040313990825
 20
-172.4689091516171
 30
0.0
 10
90.72575524499163
 20
-172.4520281837394
 30
0.0
 10
90.60310984571674
 20
-172.4351472158617
 30
0.0
 10
90.60310984571674
 20
-172.4351472158617
 30
0.0
 10
90.60310984571674
 20
-169.6342845863536
 30
0.0
 10
90.60310984571674
 20
-169.6342845863536
 30
0.0
  0
SPLINE
  5
4D
330
48
100
AcDbEntity
  8
EBENE_1
 62
     7
100
AcDbSpline
210
0.0
220
0.0
230
1.0
 70
    11
 71
     3
 72
    20
 73
    16
 74
     0
 42
0.0000000001
 43
0.0000000001
 12
1.0
 22
0.0
 32
0.0
 13
1.0
 23
0.0
 33
0.0
 40
0.0
 40
0.0
 40
0.0
 40
0.0
 40
1.0
 40
1.0
 40
1.0
 40
2.0
 40
2.0
 40
2.0
 40
3.0
 40
3.0
 40
3.0
 40
4.0
 40
4.0
 40
4.0
 40
5.0
 40
5.0
 40
5.0
 40
5.0
 10
90.97121829831569
 20
-170.8021719558533
 30
0.0
 10
90.97121829831569
 20
-170.8021719558533
 30
0.0
 10
91.30539256038492
 20
-170.8021719558533
 30
0.0
 10
91.30539256038492
 20
-170.8021719558533
 30
0.0
 10
91.69038198086159
 20
-170.8021719558533
 30
0.0
 10
91.91896406630792
 20
-170.5947772076412
 30
0.0
 10
91.91896406630792
 20
-170.3198585879183
 30
0.0
 10
91.91896406630792
 20
-169.9898184404313
 30
0.0
 10
91.66936689840156
 20
-169.854426187861
 30
0.0
 10
91.29695207644606
 20
-169.854426187861
 30
0.0
 10
91.12779788812028
 20
-169.854426187861
 30
0.0
 10
91.03047394066198
 20
-169.866828531608
 30
0.0
 10
90.97121829831569
 20
-169.8795753849034
 30
0.0
 10
90.97121829831569
 20
-169.8795753849034
 30
0.0
 10
90.97121829831569
 20
-170.8021719558533
 30
0.0
 10
90.97121829831569
 20
-170.8021719558533
 30
0.0
  0
SPLINE
  5
4E
330
48
100
AcDbEntity
  8
EBENE_1
 62
     7
100
AcDbSpline
210
0.0
220
0.0
230
1.0
 70
    11
 71
     3
 72
    20
 73
    16
 74
     0
 42
0.0000000001
 43
0.0000000001
 12
1.0
 22
0.0
 32
0.0
 13
1.0
 23
0.0
 33
0.0
 40
0.0
 40
0.0
 40
0.0
 40
0.0
 40
1.0
 40
1.0
 40
1.0
 40
2.0
 40
2.0
 40
2.0
 40
3.0
 40
3.0
 40
3.0
 40
4.0
 40
4.0
 40
4.0
 40
5.0
 40
5.0
 40
5.0
 40
5.0
 10
90.97121829831569
 20
-172.1643627107211
 30
0.0
 10
91.0473549085397
 20
-172.1771095640165
 30
0.0
 10
91.14881297058031
 20
-172.1812436785988
 30
0.0
 10
91.28007110856834
 20
-172.1812436785988
 30
0.0
 10
91.66075415968844
 20
-172.1812436785988
 30
0.0
 10
92.01198164440966
 20
-172.0417173114461
 30
0.0
 10
92.01198164440966
 20
-171.6269278150221
 30
0.0
 10
92.01198164440966
 20
-171.2421106493197
 30
0.0
 10
91.67780738234043
 20
-171.0770905755762
 30
0.0
 10
91.27576473921177
 20
-171.0770905755762
 30
0.0
 10
91.27576473921177
 20
-171.0770905755762
 30
0.0
 10
90.97121829831569
 20
-171.0770905755762
 30
0.0
 10
90.97121829831569
 20
-171.0770905755762
 30
0.0
 10
90.97121829831569
 20
-171.0770905755762
 30
0.0
 10
90.97121829831569
 20
-172.1643627107211
 30
0.0
 10
90.97121829831569
 20
-172.1643627107211
 30
0.0
  0
POLYLINE
  5
4F
330
48
100
AcDbEntity
  8
EBENE_1
 62
     7
100
AcDb2dPolyline
 66
     1
 10
0.0
 20
0.0
 30
0.0
  0
VERTEX
  5
50
330
4F
100
AcDbEntity
  8
EBENE_1
 62
     7
100
AcDbVertex
100
AcDb2dVertex
 10
92.89323706953657
 20
-169.591909911885
 30
0.0
  0
VERTEX
  5
51
330
4F
100
AcDbEntity
  8
EBENE_1
 62
     7
100
AcDbVertex
100
AcDb2dVertex
 10
93.26565189149207
 20
-169.591909911885
 30
0.0
  0
VERTEX
  5
52
330
4F
100
AcDbEntity
  8
EBENE_1
 62
     7
100
AcDbVertex
100
AcDb2dVertex
 10
93.26565189149207
 20
-172.1347348895479
 30
0.0
  0
VERTEX
  5
53
330
4F
100
AcDbEntity
  8
EBENE_1
 62
     7
100
AcDbVertex
100
AcDb2dVertex
 10
94.48418216462494
 20
-172.1347348895479
 30
0.0
  0
VERTEX
  5
54
330
4F
100
AcDbEntity
  8
EBENE_1
 62
     7
100
AcDbVertex
100
AcDb2dVertex
 10
94.48418216462494
 20
-172.4437599545748
 30
0.0
  0
VERTEX
  5
55
330
4F
100
AcDbEntity
  8
EBENE_1
 62
     7
100
AcDbVertex
100
AcDb2dVertex
 10
92.89323706953657
 20
-172.4437599545748
 30
0.0
  0
VERTEX
  5
56
330
4F
100
AcDbEntity
  8
EBENE_1
 62
     7
100
AcDbVertex
100
AcDb2dVertex
 10
92.89323706953657
 20
-169.591909911885
 30
0.0
  0
SEQEND
  5
57
330
4F
100
AcDbEntity
  8
EBENE_1
 62
     7
  0
SPLINE
  5
58
330
48
100
AcDbEntity
  8
EBENE_1
 62
     7
100
AcDbSpline
210
0.0
220
0.0
230
1.0
 70
    11
 71
     3
 72
    35
 73
    31
 74
     0
 42
0.0000000001
 43
0.0000000001
 12
1.0
 22
0.0
 32
0.0
 13
1.0
 23
0.0
 33
0.0
 40
0.0
 40
0.0
 40
0.0
 40
0.0
 40
1.0
 40
1.0
 40
1.0
 40
2.0
 40
2.0
 40
2.0
 40
3.0
 40
3.0
 40
3.0
 40
4.0
 40
4.0
 40
4.0
 40
5.0
 40
5.0
 40
5.0
 40
6.0
 40
6.0
 40
6.0
 40
7.0
 40
7.0
 40
7.0
 40
8.0
 40
8.0
 40
8.0
 40
9.0
 40
9.0
 40
9.0
 40
10.0
 40
10.0
 40
10.0
 40
10.0
 10
95.11118954294041
 20
-169.591909911885
 30
0.0
 10
95.11118954294041
 20
-169.591909911885
 30
0.0
 10
95.11118954294041
 20
-171.2844853237883
 30
0.0
 10
95.11118954294041
 20
-171.2844853237883
 30
0.0
 10
95.11118954294041
 20
-171.9190719121713
 30
0.0
 10
95.39454864660222
 20
-172.1898564173119
 30
0.0
 10
95.77540395249659
 20
-172.1898564173119
 30
0.0
 10
96.19432756350297
 20
-172.1898564173119
 30
0.0
 10
96.4692461832259
 20
-171.9104591734582
 30
0.0
 10
96.4692461832259
 20
-171.2844853237883
 30
0.0
 10
96.4692461832259
 20
-171.2844853237883
 30
0.0
 10
96.4692461832259
 20
-169.591909911885
 30
0.0
 10
96.4692461832259
 20
-169.591909911885
 30
0.0
 10
96.4692461832259
 20
-169.591909911885
 30
0.0
 10
96.84166100518141
 20
-169.591909911885
 30
0.0
 10
96.84166100518141
 20
-169.591909911885
 30
0.0
 10
96.84166100518141
 20
-169.591909911885
 30
0.0
 10
96.84166100518141
 20
-171.2589916171974
 30
0.0
 10
96.84166100518141
 20
-171.2589916171974
 30
0.0
 10
96.84166100518141
 20
-172.1347348895479
 30
0.0
 10
96.38036271970645
 20
-172.4902687436257
 30
0.0
 10
95.76265709920116
 20
-172.4902687436257
 30
0.0
 10
95.17888566922558
 20
-172.4902687436257
 30
0.0
 10
94.7387747209849
 20
-172.1602285961388
 30
0.0
 10
94.7387747209849
 20
-171.2717384704928
 30
0.0
 10
94.7387747209849
 20
-171.2717384704928
 30
0.0
 10
94.7387747209849
 20
-169.591909911885
 30
0.0
 10
94.7387747209849
 20
-169.591909911885
 30
0.0
 10
94.7387747209849
 20
-169.591909911885
 30
0.0
 10
95.11118954294041
 20
-169.591909911885
 30
0.0
 10
95.11118954294041
 20
-169.591909911885
 30
0.0
  0
POLYLINE
  5
59
330
48
100
AcDbEntity
  8
EBENE_1
 62
     7
100
AcDb2dPolyline
 66
     1
 10
0.0
 20
0.0
 30
0.0
  0
VERTEX
  5
5A
330
59
100
AcDbEntity
  8
EBENE_1
 62
     7
100
AcDbVertex
100
AcDb2dVertex
 10
98.95436581151087
 20
-171.1067183967494
 30
0.0
  0
VERTEX
  5
5B
330
59
100
AcDbEntity
  8
EBENE_1
 62
     7
100
AcDbVertex
100
AcDb2dVertex
 10
97.85004045371403
 20
-171.1067183967494
 30
0.0
  0
VERTEX
  5
5C
330
59
100
AcDbEntity
  8
EBENE_1
 62
     7
100
AcDbVertex
100
AcDb2dVertex
 10
97.85004045371403
 20
-172.1347348895479
 30
0.0
  0
VERTEX
  5
5D
330
59
100
AcDbEntity
  8
EBENE_1
 62
     7
100
AcDbVertex
100
AcDb2dVertex
 10
99.08545169472463
 20
-172.1347348895479
 30
0.0
  0
VERTEX
  5
5E
330
59
100
AcDbEntity
  8
EBENE_1
 62
     7
100
AcDbVertex
100
AcDb2dVertex
 10
99.08545169472463
 20
-172.4437599545748
 30
0.0
  0
VERTEX
  5
5F
330
59
100
AcDbEntity
  8
EBENE_1
 62
     7
100
AcDbVertex
100
AcDb2dVertex
 10
97.47762563175853
 20
-172.4437599545748
 30
0.0
  0
VERTEX
  5
60
330
59
100
AcDbEntity
  8
EBENE_1
 62
     7
100
AcDbVertex
100
AcDb2dVertex
 10
97.47762563175853
 20
-169.591909911885
 30
0.0
  0
VERTEX
  5
61
330
59
100
AcDbEntity
  8
EBENE_1
 62
     7
100
AcDbVertex
100
AcDb2dVertex
 10
99.02188968302177
 20
-169.591909911885
 30
0.0
  0
VERTEX
  5
62
330
59
100
AcDbEntity
  8
EBENE_1
 62
     7
100
AcDbVertex
100
AcDb2dVertex
 10
99.02188968302177
 20
-169.9009349769119
 30
0.0
  0
VERTEX
  5
63
330
59
100
AcDbEntity
  8
EBENE_1
 62
     7
100
AcDbVertex
100
AcDb2dVertex
 10
97.85004045371403
 20
-169.9009349769119
 30
0.0
  0
VERTEX
  5
64
330
59
100
AcDbEntity
  8
EBENE_1
 62
     7
100
AcDbVertex
100
AcDb2dVertex
 10
97.85004045371403
 20
-170.8021719558533
 30
0.0
  0
VERTEX
  5
65
330
59
100
AcDbEntity
  8
EBENE_1
 62
     7
100
AcDbVertex
100
AcDb2dVertex
 10
98.95436581151087
 20
-170.8021719558533
 30
0.0
  0
VERTEX
  5
66
330
59
100
AcDbEntity
  8
EBENE_1
 62
     7
100
AcDbVertex
100
AcDb2dVertex
 10
98.95436581151087
 20
-171.1067183967494
 30
0.0
  0
SEQEND
  5
67
330
59
100
AcDbEntity
  8
EBENE_1
 62
     7
  0
ENDBLK
  5
4B
330
48
100
AcDbEntity
  8
0
100
AcDbBlockEnd
  0
BLOCK
  5
72
330
70
100
AcDbEntity
  8
0
100
AcDbBlockBegin
  2
BLOCK_3
 70
     0
 10
0.0
 20
0.0
 30
0.0
  3
BLOCK_3
  1

  0
SPLINE
  5
74
330
70
100
AcDbEntity
  8
EBENE_2
 62
     7
100
AcDbSpline
210
0.0
220
0.0
230
1.0
 70
    11
 71
     3
 72
    47
 73
    43
 74
     0
 42
0.0000000001
 43
0.0000000001
 12
1.0
 22
0.0
 32
0.0
 13
1.0
 23
0.0
 33
0.0
 40
0.0
 40
0.0
 40
0.0
 40
0.0
 40
1.0
 40
1.0
 40
1.0
 40
2.0
 40
2.0
 40
2.0
 40
3.0
 40
3.0
 40
3.0
 40
4.0
 40
4.0
 40
4.0
 40
5.0
 40
5.0
 40
5.0
 40
6.0
 40
6.0
 40
6.0
 40
7.0
 40
7.0
 40
7.0
 40
8.0
 40
8.0
 40
8.0
 40
9.0
 40
9.0
 40
9.0
 40
10.0
 40
10.0
 40
10.0
 40
11.0
 40
11.0
 40
11.0
 40
12.0
 40
12.0
 40
12.0
 40
13.0
 40
13.0
 40
13.0
 40
14.0
 40
14.0
 40
14.0
 40
14.0
 10
91.77513132979874
 20
-120.6048914236977
 30
0.0
 10
91.96116648600223
 20
-120.570957233168
 30
0.0
 10
92.23195099114287
 20
-120.5456357813514
 30
0.0
 10
92.48172041382348
 20
-120.5456357813514
 30
0.0
 10
92.87515031823901
 20
-120.5456357813514
 30
0.0
 10
93.13318797008422
 20
-120.6217723915754
 30
0.0
 10
93.30664852776655
 20
-120.7783519813801
 30
0.0
 10
93.44634714969344
 20
-120.9053037500115
 30
0.0
 10
93.53092424385632
 20
-121.0999516449281
 30
0.0
 10
93.53092424385632
 20
-121.3242273610179
 30
0.0
 10
93.53092424385632
 20
-121.6964699281991
 30
0.0
 10
93.29407392924539
 20
-121.9460670961055
 30
0.0
 10
92.9977957175139
 20
-122.0476974129204
 30
0.0
 10
92.9977957175139
 20
-122.0476974129204
 30
0.0
 10
92.9977957175139
 20
-122.0602720114415
 30
0.0
 10
92.9977957175139
 20
-122.0602720114415
 30
0.0
 10
93.2136309496648
 20
-122.1365808764398
 30
0.0
 10
93.34471683287856
 20
-122.3396692552953
 30
0.0
 10
93.41241295916372
 20
-122.6357752122525
 30
0.0
 10
93.50560279203972
 20
-123.0335114860246
 30
0.0
 10
93.57329891832488
 20
-123.3084301057475
 30
0.0
 10
93.63255456067118
 20
-123.4185009065013
 30
0.0
 10
93.63255456067118
 20
-123.4185009065013
 30
0.0
 10
93.25169925477681
 20
-123.4185009065013
 30
0.0
 10
93.25169925477681
 20
-123.4185009065013
 30
0.0
 10
93.20519046572595
 20
-123.3339238123384
 30
0.0
 10
93.14162845402308
 20
-123.0927671283709
 30
0.0
 10
93.06549184379907
 20
-122.7372332742931
 30
0.0
 10
92.98091474963618
 20
-122.3438033698776
 30
0.0
 10
92.82433515983158
 20
-122.1956642640118
 30
0.0
 10
92.49016089776234
 20
-122.1830896654907
 30
0.0
 10
92.49016089776234
 20
-122.1830896654907
 30
0.0
 10
92.14323978239769
 20
-122.1830896654907
 30
0.0
 10
92.14323978239769
 20
-122.1830896654907
 30
0.0
 10
92.14323978239769
 20
-122.1830896654907
 30
0.0
 10
92.14323978239769
 20
-123.4185009065013
 30
0.0
 10
92.14323978239769
 20
-123.4185009065013
 30
0.0
 10
92.14323978239769
 20
-123.4185009065013
 30
0.0
 10
91.77513132979874
 20
-123.4185009065013
 30
0.0
 10
91.77513132979874
 20
-123.4185009065013
 30
0.0
 10
91.77513132979874
 20
-123.4185009065013
 30
0.0
 10
91.77513132979874
 20
-120.6048914236977
 30
0.0
 10
91.77513132979874
 20
-120.6048914236977
 30
0.0
  0
SPLINE
  5
75
330
70
100
AcDbEntity
  8
EBENE_2
 62
     7
100
AcDbSpline
210
0.0
220
0.0
230
1.0
 70
    11
 71
     3
 72
    20
 73
    16
 74
     0
 42
0.0000000001
 43
0.0000000001
 12
1.0
 22
0.0
 32
0.0
 13
1.0
 23
0.0
 33
0.0
 40
0.0
 40
0.0
 40
0.0
 40
0.0
 40
1.0
 40
1.0
 40
1.0
 40
2.0
 40
2.0
 40
2.0
 40
3.0
 40
3.0
 40
3.0
 40
4.0
 40
4.0
 40
4.0
 40
5.0
 40
5.0
 40
5.0
 40
5.0
 10
92.14323978239769
 20
-121.9038646764112
 30
0.0
 10
92.14323978239769
 20
-121.9038646764112
 30
0.0
 10
92.51978871893549
 20
-121.9038646764112
 30
0.0
 10
92.51978871893549
 20
-121.9038646764112
 30
0.0
 10
92.91321862335101
 20
-121.9038646764112
 30
0.0
 10
93.16281579125737
 20
-121.6880294442603
 30
0.0
 10
93.16281579125737
 20
-121.3622956661299
 30
0.0
 10
93.16281579125737
 20
-120.994187213531
 30
0.0
 10
92.89633765547329
 20
-120.8333012543698
 30
0.0
 10
92.50704186564006
 20
-120.8333012543698
 30
0.0
 10
92.32927493860117
 20
-120.8333012543698
 30
0.0
 10
92.20662953932627
 20
-120.8460481076652
 30
0.0
 10
92.14323978239769
 20
-120.8629290755429
 30
0.0
 10
92.14323978239769
 20
-120.8629290755429
 30
0.0
 10
92.14323978239769
 20
-121.9038646764112
 30
0.0
 10
92.14323978239769
 20
-121.9038646764112
 30
0.0
  0
POLYLINE
  5
76
330
70
100
AcDbEntity
  8
EBENE_2
 62
     7
100
AcDb2dPolyline
 66
     1
 10
0.0
 20
0.0
 30
0.0
  0
VERTEX
  5
77
330
76
100
AcDbEntity
  8
EBENE_2
 62
     7
100
AcDbVertex
100
AcDb2dVertex
 10
95.52511776549318
 20
-122.0814593486758
 30
0.0
  0
VERTEX
  5
78
330
76
100
AcDbEntity
  8
EBENE_2
 62
     7
100
AcDbVertex
100
AcDb2dVertex
 10
94.42079240769635
 20
-122.0814593486758
 30
0.0
  0
VERTEX
  5
79
330
76
100
AcDbEntity
  8
EBENE_2
 62
     7
100
AcDbVertex
100
AcDb2dVertex
 10
94.42079240769635
 20
-123.1096480962486
 30
0.0
  0
VERTEX
  5
7A
330
76
100
AcDbEntity
  8
EBENE_2
 62
     7
100
AcDbVertex
100
AcDb2dVertex
 10
95.65620364870693
 20
-123.1096480962486
 30
0.0
  0
VERTEX
  5
7B
330
76
100
AcDbEntity
  8
EBENE_2
 62
     7
100
AcDbVertex
100
AcDb2dVertex
 10
95.65620364870693
 20
-123.4185009065013
 30
0.0
  0
VERTEX
  5
7C
330
76
100
AcDbEntity
  8
EBENE_2
 62
     7
100
AcDbVertex
100
AcDb2dVertex
 10
94.04837758574084
 20
-123.4185009065013
 30
0.0
  0
VERTEX
  5
7D
330
76
100
AcDbEntity
  8
EBENE_2
 62
     7
100
AcDbVertex
100
AcDb2dVertex
 10
94.04837758574084
 20
-120.5668231185857
 30
0.0
  0
VERTEX
  5
7E
330
76
100
AcDbEntity
  8
EBENE_2
 62
     7
100
AcDbVertex
100
AcDb2dVertex
 10
95.59264163700408
 20
-120.5668231185857
 30
0.0
  0
VERTEX
  5
7F
330
76
100
AcDbEntity
  8
EBENE_2
 62
     7
100
AcDbVertex
100
AcDb2dVertex
 10
95.59264163700408
 20
-120.8756759288384
 30
0.0
  0
VERTEX
  5
80
330
76
100
AcDbEntity
  8
EBENE_2
 62
     7
100
AcDbVertex
100
AcDb2dVertex
 10
94.42079240769635
 20
-120.8756759288384
 30
0.0
  0
VERTEX
  5
81
330
76
100
AcDbEntity
  8
EBENE_2
 62
     7
100
AcDbVertex
100
AcDb2dVertex
 10
94.42079240769635
 20
-121.7769129077797
 30
0.0
  0
VERTEX
  5
82
330
76
100
AcDbEntity
  8
EBENE_2
 62
     7
100
AcDbVertex
100
AcDb2dVertex
 10
95.52511776549318
 20
-121.7769129077797
 30
0.0
  0
VERTEX
  5
83
330
76
100
AcDbEntity
  8
EBENE_2
 62
     7
100
AcDbVertex
100
AcDb2dVertex
 10
95.52511776549318
 20
-122.0814593486758
 30
0.0
  0
SEQEND
  5
84
330
76
100
AcDbEntity
  8
EBENE_2
 62
     7
  0
SPLINE
  5
85
330
70
100
AcDbEntity
  8
EBENE_2
 62
     7
100
AcDbSpline
210
0.0
220
0.0
230
1.0
 70
    11
 71
     3
 72
    26
 73
    22
 74
     0
 42
0.0000000001
 43
0.0000000001
 12
1.0
 22
0.0
 32
0.0
 13
1.0
 23
0.0
 33
0.0
 40
0.0
 40
0.0
 40
0.0
 40
0.0
 40
1.0
 40
1.0
 40
1.0
 40
2.0
 40
2.0
 40
2.0
 40
3.0
 40
3.0
 40
3.0
 40
4.0
 40
4.0
 40
4.0
 40
5.0
 40
5.0
 40
5.0
 40
6.0
 40
6.0
 40
6.0
 40
7.0
 40
7.0
 40
7.0
 40
7.0
 10
96.13541643070519
 20
-120.6091977930543
 30
0.0
 10
96.35969214679496
 20
-120.570957233168
 30
0.0
 10
96.62617028257903
 20
-120.5456357813514
 30
0.0
 10
96.91814212495396
 20
-120.5456357813514
 30
0.0
 10
97.4469642819398
 20
-120.5456357813514
 30
0.0
 10
97.82351321847761
 20
-120.6725875499829
 30
0.0
 10
98.07311038638396
 20
-120.900997380655
 30
0.0
 10
98.33132029300344
 20
-121.1337135806836
 30
0.0
 10
98.47928714409491
 20
-121.4637537281705
 30
0.0
 10
98.47928714409491
 20
-121.9248797588712
 30
0.0
 10
98.47928714409491
 20
-122.3903121589285
 30
0.0
 10
98.33132029300344
 20
-122.7711674648228
 30
0.0
 10
98.06897627180166
 20
-123.0335114860246
 30
0.0
 10
97.79819176666102
 20
-123.2999896218087
 30
0.0
 10
97.35808081842036
 20
-123.4438223583179
 30
0.0
 10
96.80393720961793
 20
-123.4438223583179
 30
0.0
 10
96.53728681905959
 20
-123.4438223583179
 30
0.0
 10
96.32162384168295
 20
-123.4312477597967
 30
0.0
 10
96.13541643070519
 20
-123.4100604225624
 30
0.0
 10
96.13541643070519
 20
-123.4100604225624
 30
0.0
 10
96.13541643070519
 20
-120.6091977930543
 30
0.0
 10
96.13541643070519
 20
-120.6091977930543
 30
0.0
  0
SPLINE
  5
86
330
70
100
AcDbEntity
  8
EBENE_2
 62
     7
100
AcDbSpline
210
0.0
220
0.0
230
1.0
 70
    11
 71
     3
 72
    20
 73
    16
 74
     0
 42
0.0000000001
 43
0.0000000001
 12
1.0
 22
0.0
 32
0.0
 13
1.0
 23
0.0
 33
0.0
 40
0.0
 40
0.0
 40
0.0
 40
0.0
 40
1.0
 40
1.0
 40
1.0
 40
2.0
 40
2.0
 40
2.0
 40
3.0
 40
3.0
 40
3.0
 40
4.0
 40
4.0
 40
4.0
 40
5.0
 40
5.0
 40
5.0
 40
5.0
 10
96.50352488330414
 20
-123.1308354334829
 30
0.0
 10
96.59654246140587
 20
-123.1434100320041
 30
0.0
 10
96.7319347139762
 20
-123.1477164013606
 30
0.0
 10
96.87576745048538
 20
-123.1477164013606
 30
0.0
 10
97.66693362867301
 20
-123.1477164013606
 30
0.0
 10
98.09016360903595
 20
-122.70760545312
 30
0.0
 10
98.09016360903595
 20
-121.9376266121666
 30
0.0
 10
98.09429772361825
 20
-121.2649717186716
 30
0.0
 10
97.71361467249814
 20
-120.8376076237264
 30
0.0
 10
96.93502309283168
 20
-120.8376076237264
 30
0.0
 10
96.74468156727163
 20
-120.8376076237264
 30
0.0
 10
96.60084883076244
 20
-120.8544885916041
 30
0.0
 10
96.50352488330414
 20
-120.8756759288384
 30
0.0
 10
96.50352488330414
 20
-120.8756759288384
 30
0.0
 10
96.50352488330414
 20
-123.1308354334829
 30
0.0
 10
96.50352488330414
 20
-123.1308354334829
 30
0.0
  0
ENDBLK
  5
73
330
70
100
AcDbEntity
  8
0
100
AcDbBlockEnd
  0
ENDSEC
  0
SECTION
  2
ENTITIES
  0
POLYLINE
  5
41
330
1F
100
AcDbEntity
  8
EBENE_1
 62
     7
100
AcDb2dPolyline
 66
     1
 10
0.0
 20
0.0
 30
0.0
  0
VERTEX
  5
42
330
41
100
AcDbEntity
  8
EBENE_1
 62
     7
100
AcDbVertex
100
AcDb2dVertex
 10
120.629697269638
 20
-190.2890573953866
 30
0.0
  0
VERTEX
  5
43
330
41
100
AcDbEntity
  8
EBENE_1
 62
     7
100
AcDbVertex
100
AcDb2dVertex
 10
81.71503519460182
 20
-190.2890573953866
 30
0.0
  0
VERTEX
  5
44
330
41
100
AcDbEntity
  8
EBENE_1
 62
     7
100
AcDbVertex
100
AcDb2dVertex
 10
81.71503519460182
 20
-151.3743953203498
 30
0.0
  0
VERTEX
  5
45
330
41
100
AcDbEntity
  8
EBENE_1
 62
     7
100
AcDbVertex
100
AcDb2dVertex
 10
120.629697269638
 20
-151.3743953203498
 30
0.0
  0
VERTEX
  5
46
330
41
100
AcDbEntity
  8
EBENE_1
 62
     7
100
AcDbVertex
100
AcDb2dVertex
 10
120.629697269638
 20
-190.2890573953866
 30
0.0
  0
SEQEND
  5
47
330
41
100
AcDbEntity
  8
EBENE_1
 62
     7
  0
INSERT
  5
49
330
1F
100
AcDbEntity
  8
EBENE_1
100
AcDbBlockReference
  2
BLOCK_2
 10
0.0
 20
0.0
 30
0.0
  0
POLYLINE
  5
69
330
1F
100
AcDbEntity
  8
EBENE_2
 62
     7
100
AcDb2dPolyline
 66
     1
 10
0.0
 20
0.0
 30
0.0
  0
VERTEX
  5
6A
330
69
100
AcDbEntity
  8
EBENE_2
 62
     7
100
AcDbVertex
100
AcDb2dVertex
 10
120.629697269638
 20
-137.1905489129066
 30
0.0
  0
VERTEX
  5
6B
330
69
100
AcDbEntity
  8
EBENE_2
 62
     7
100
AcDbVertex
100
AcDb2dVertex
 10
81.71503519460182
 20
-137.1905489129066
 30
0.0
  0
VERTEX
  5
6C
330
69
100
AcDbEntity
  8
EBENE_2
 62
     7
100
AcDbVertex
100
AcDb2dVertex
 10
81.71503519460182
 20
-98.27588683787012
 30
0.0
  0
VERTEX
  5
6D
330
69
100
AcDbEntity
  8
EBENE_2
 62
     7
100
AcDbVertex
100
AcDb2dVertex
 10
120.629697269638
 20
-98.27588683787012
 30
0.0
  0
VERTEX
  5
6E
330
69
100
AcDbEntity
  8
EBENE_2
 62
     7
100
AcDbVertex
100
AcDb2dVertex
 10
120.629697269638
 20
-137.1905489129066
 30
0.0
  0
SEQEND
  5
6F
330
69
100
AcDbEntity
  8
EBENE_2
 62
     7
  0
INSERT
  5
71
330
1F
100
AcDbEntity
  8
EBENE_2
100
AcDbBlockReference
  2
BLOCK_3
 10
0.0
 20
0.0
 30
0.0
  0
ENDSEC
  0
SECTION
  2
OBJECTS
  0
DICTIONARY
  5
C
330
0
100
AcDbDictionary
  3
ACAD_GROUP
350
D
  3
ACAD_LAYOUT
350
1A
  3
ACAD_MATERIAL
350
3B
  3
ACAD_MLEADERSTYLE
350
A9
  3
ACAD_MLINESTYLE
350
17
  3
ACAD_PLOTSETTINGS
350
19
  3
ACAD_VISUALSTYLE
350
2A
  3
ACDBHEADERROUNDTRIPXREC
350
87
  3
ACDBVARIABLEDICTIONARY
350
A7
  0
DICTIONARY
  5
D
102
{ACAD_REACTORS
330
C
102
}
330
C
100
AcDbDictionary
  0
DICTIONARY
  5
1A
102
{ACAD_REACTORS
330
C
102
}
330
C
100
AcDbDictionary
  0
DICTIONARY
  5
3B
102
{ACAD_REACTORS
330
C
102
}
330
C
100
AcDbDictionary
  3
BYBLOCK
350
3D
  3
BYLAYER
350
3C
  3
GLOBAL
350
3E
  0
DICTIONARY
  5
A9
102
{ACAD_REACTORS
330
C
102
}
330
C
100
AcDbDictionary
  0
DICTIONARY
  5
17
102
{ACAD_REACTORS
330
C
102
}
330
C
100
AcDbDictionary
  3
STANDARD
350
18
  0
DICTIONARY
  5
19
102
{ACAD_REACTORS
330
C
102
}
330
C
100
AcDbDictionary
  0
DICTIONARY
  5
2A
102
{ACAD_REACTORS
330
C
102
}
330
C
100
AcDbDictionary
  3
2DWIREFRAME
350
2F
  3
3DWIREFRAME
350
30
  3
3D_HIDDEN
350
31
  3
BASIC
350
32
  3
BRIGHTEN
350
36
  3
COLORCHANGE
350
3A
  3
CONCEPTUAL
350
34
  3
DIM
350
35
  3
FACEPATTERN
350
39
  3
FLAT
350
2B
  3
FLATWITHEDGES
350
2C
  3
GOURAUD
350
2D
  3
GOURAUDWITHEDGES
350
2E
  3
LINEPATTERN
350
38
  3
REALISTIC
350
33
  3
THICKEN
350
37
  0
DICTIONARY
  5
87
102
{ACAD_REACTORS
330
C
102
}
330
C
100
AcDbDictionary
  3
CEPSNTYPE
350
90
  3
DIMSTYLEDATA
350
A6
  3
FINGERPRINTGUID
350
91
  3
HYPERLINKBASE
350
8A
  3
INSUNITS
350
8F
  3
LAYOUTDICT
350
8C
  3
LWETCUNION
350
8E
  3
PLOTSETDICT
350
8D
  3
PSVPSCALE
350
93
  3
PUCSBASE
350
96
  3
PUCSORGBACK
350
9C
  3
PUCSORGBOTTOM
350
98
  3
PUCSORGFRONT
350
9B
  3
PUCSORGLEFT
350
99
  3
PUCSORGRIGHT
350
9A
  3
PUCSORGTOP
350
97
  3
PUCSORTHOREF
350
94
  3
PUCSORTHOVIEW
350
95
  3
STYLESHEET
350
8B
  3
TSTACKALIGN
350
88
  3
TSTACKSIZE
350
89
  3
UCSBASE
350
9F
  3
UCSORGBACK
350
A5
  3
UCSORGBOTTOM
350
A1
  3
UCSORGFRONT
350
A4
  3
UCSORGLEFT
350
A2
  3
UCSORGRIGHT
350
A3
  3
UCSORGTOP
350
A0
  3
UCSORTHOREF
350
9D
  3
UCSORTHOVIEW
350
9E
  3
VERSIONGUID
350
92
  0
DICTIONARY
  5
A7
102
{ACAD_REACTORS
330
C
102
}
330
C
100
AcDbDictionary
  3
DIMASSOC
350
AA
  3
HIDETEXT
350
AB
  0
MATERIAL
  5
3D
102
{ACAD_REACTORS
330
3B
102
}
102
{ACAD_XDICTIONARY
360
AE
102
}
330
3B
100
AcDbMaterial
  1
ByBlock
  0
MATERIAL
  5
3C
102
{ACAD_REACTORS
330
3B
102
}
102
{ACAD_XDICTIONARY
360
AC
102
}
330
3B
100
AcDbMaterial
  1
ByLayer
  0
MATERIAL
  5
3E
102
{ACAD_REACTORS
330
3B
102
}
102
{ACAD_XDICTIONARY
360
B0
102
}
330
3B
100
AcDbMaterial
  1
Global
  0
MLINESTYLE
  5
18
102
{ACAD_REACTORS
330
17
102
}
330
17
100
AcDbMlineStyle
  2
Standard
 70
     0
  3

 62
   256
 51
90.0
 52
90.0
 71
     2
 49
0.5
 62
   256
  6
BYLAYER
 49
-0.5
 62
   256
  6
BYLAYER
  0
ACAD_PROXY_OBJECT
  5
2F
102
{ACAD_REACTORS
330
2A
102
}
330
2A
100
AcDbProxyObject
 90
      499
 91
      501
 93
      436
310
42CC9915DA5C99599C985B595049028333333333333E3BF0000000000000FB0107901411070040501600405405064090741402480A0340
1001
ACAD
1000
AcDbSavedByObjectVersion
1070
     0
  0
ACAD_PROXY_OBJECT
  5
30
102
{ACAD_REACTORS
330
2A
102
}
330
2A
100
AcDbProxyObject
 90
      499
 91
      501
 93
      436
310
42CCD915DA5C99599C985B595059028333333333333E3BF0000000000000FB0107901411070040501600405405064090741402480A0340
1001
ACAD
1000
AcDbSavedByObjectVersion
1070
     0
  0
ACAD_PROXY_OBJECT
  5
31
102
{ACAD_REACTORS
330
2A
102
}
330
2A
100
AcDbProxyObject
 90
      499
 91
      501
 93
      500
310
424CD108121A5919195B90640502408333333333333E3BF0000000000000FB01079024090700405020000000000001110200405405064090740C02480A0340
1001
ACAD
1000
AcDbSavedByObjectVersion
1070
     0
  0
ACAD_PROXY_OBJECT
  5
32
102
{ACAD_REACTORS
330
2A
102
}
330
2A
100
AcDbProxyObject
 90
      499
 91
      501
 93
      388
310
4150985CDA58D07406404333333333333E3BF0000000000000FB0107A41107004050150841D405064090741402480A0350
1001
ACAD
1000
AcDbSavedByObjectVersion
1070
     0
  0
ACAD_PROXY_OBJECT
  5
36
102
{ACAD_REACTORS
330
2A
102
}
330
2A
100
AcDbProxyObject
 90
      499
 91
      501
 93
      428
310
42109C9A59DA1D195B90C409028333333333333E3BF0000000000000FB010790141107004050150841D405064090741402480A029950
1001
ACAD
1000
AcDbSavedByObjectVersion
1070
     0
  0
ACAD_PROXY_OBJECT
  5
3A
102
{ACAD_REACTORS
330
2A
102
}
330
2A
100
AcDbProxyObject
 90
      499
 91
      501
 93
      452
310
42D0DBDB1BDC90DA185B99D95104090240C333333333333E3BF0000000000000FB0108901411070040501508421405064090741402480A0350
1001
ACAD
1000
AcDbSavedByObjectVersion
1070
     0
  0
ACAD_PROXY_OBJECT
  5
34
102
{ACAD_REACTORS
330
2A
102
}
330
2A
100
AcDbProxyObject
 90
      499
 91
      501
 93
      500
310
4290DBDB98D95C1D1D585B10940D028333333333333E3BF0000000000000FB0107902409070040501000000000000111010841D405064090740C02480A0340
1001
ACAD
1000
AcDbSavedByObjectVersion
1070
     0
  0
ACAD_PROXY_OBJECT
  5
35
102
{ACAD_REACTORS
330
2A
102
}
330
2A
100
AcDbProxyObject
 90
      499
 91
      501
 93
      412
310
40D11A5B50B409028333333333333E3BF0000000000000FB010790141107004050150841D405064090741402480A02677FFFFFD0
1001
ACAD
1000
AcDbSavedByObjectVersion
1070
     0
  0
ACAD_PROXY_OBJECT
  5
39
102
{ACAD_REACTORS
330
2A
102
}
330
2A
100
AcDbProxyObject
 90
      499
 91
      501
 93
      444
310
42D19858D95C185D1D195C9B90F409028333333333333E3BF0000000000000FB010790141107004050150841D405064090741402480A0350
1001
ACAD
1000
AcDbSavedByObjectVersion
1070
     0
  0
ACAD_PROXY_OBJECT
  5
2B
102
{ACAD_REACTORS
330
2A
102
}
330
2A
100
AcDbProxyObject
 90
      499
 91
      501
 93
      388
310
41119B185D240901404333333333333E3BF0000000000000F9010740A41107004050150841D405064090741402480A1B50
1001
ACAD
1000
AcDbSavedByObjectVersion
1070
     0
  0
ACAD_PROXY_OBJECT
  5
2C
102
{ACAD_REACTORS
330
2A
102
}
330
2A
100
AcDbProxyObject
 90
      499
 91
      501
 93
      476
310
43519B185D15DA5D1A115919D95CD0140901404333333333333E3BF0000000000000F9010740901411070040501600405405064090741402480A1B50
1001
ACAD
1000
AcDbSavedByObjectVersion
1070
     0
  0
ACAD_PROXY_OBJECT
  5
2D
102
{ACAD_REACTORS
330
2A
102
}
330
2A
100
AcDbProxyObject
 90
      499
 91
      501
 93
      412
310
41D1DBDD5C985D5910240902404333333333333E3BF0000000000000F9010740A411070040501641D405064090741402480A1B50
1001
ACAD
1000
AcDbSavedByObjectVersion
1070
     0
  0
ACAD_PROXY_OBJECT
  5
2E
102
{ACAD_REACTORS
330
2A
102
}
330
2A
100
AcDbProxyObject
 90
      499
 91
      501
 93
      500
310
4411DBDD5C985D5915DA5D1A115919D95CD0340902404333333333333E3BF0000000000000F9010740901411070040501600405405064090741402480A1B50
1001
ACAD
1000
AcDbSavedByObjectVersion
1070
     0
  0
ACAD_PROXY_OBJECT
  5
38
102
{ACAD_REACTORS
330
2A
102
}
330
2A
100
AcDbProxyObject
 90
      499
 91
      501
 93
      444
310
42D31A5B995C185D1D195C9B90E409028333333333333E3BF0000000000000FB010790141107004050750841D405064090741402483A0350
1001
ACAD
1000
AcDbSavedByObjectVersion
1070
     0
  0
ACAD_PROXY_OBJECT
  5
33
102
{ACAD_REACTORS
330
2A
102
}
330
2A
100
AcDbProxyObject
 90
      499
 91
      501
 93
      420
310
425499585B1A5CDD1A58D08409028333333333333E3BF0000000000000FB01079019070040501508421405064090741402480A1B40
1001
ACAD
1000
AcDbSavedByObjectVersion
1070
     0
  0
ACAD_PROXY_OBJECT
  5
37
102
{ACAD_REACTORS
330
2A
102
}
330
2A
100
AcDbProxyObject
 90
      499
 91
      501
 93
      412
310
41D51A1A58DAD95B90D409028333333333333E3BF0000000000000FB010790141107004050150C41D405064090741402480A0350
1001
ACAD
1000
AcDbSavedByObjectVersion
1070
     0
  0
XRECORD
  5
90
102
{ACAD_REACTORS
330
87
102
}
330
87
100
AcDbXrecord
 90
        0
  0
XRECORD
  5
A6
102
{ACAD_REACTORS
330
87
102
}
330
87
100
AcDbXrecord
1000
DSTYLE
1002
{
1070
   340
340
11
1002
}
  0
XRECORD
  5
91
102
{ACAD_REACTORS
330
87
102
}
330
87
100
AcDbXrecord
  1
{F04EC56E-6DD0-504E-449B-F155E1C246F6}
  0
XRECORD
  5
8A
102
{ACAD_REACTORS
330
87
102
}
330
87
100
AcDbXrecord
  1

  0
XRECORD
  5
8F
102
{ACAD_REACTORS
330
87
102
}
330
87
100
AcDbXrecord
 90
        1
  0
XRECORD
  5
8C
102
{ACAD_REACTORS
330
87
102
}
330
87
100
AcDbXrecord
340
1A
  0
XRECORD
  5
8E
102
{ACAD_REACTORS
330
87
102
}
330
87
100
AcDbXrecord
 90
    10269
  0
XRECORD
  5
8D
102
{ACAD_REACTORS
330
87
102
}
330
87
100
AcDbXrecord
340
19
  0
XRECORD
  5
93
102
{ACAD_REACTORS
330
87
102
}
330
87
100
AcDbXrecord
 40
0.0
  0
XRECORD
  5
96
102
{ACAD_REACTORS
330
87
102
}
330
87
100
AcDbXrecord
340
0
  0
XRECORD
  5
9C
102
{ACAD_REACTORS
330
87
102
}
330
87
100
AcDbXrecord
 10
0.0
 20
0.0
 30
0.0
  0
XRECORD
  5
98
102
{ACAD_REACTORS
330
87
102
}
330
87
100
AcDbXrecord
 10
0.0
 20
0.0
 30
0.0
  0
XRECORD
  5
9B
102
{ACAD_REACTORS
330
87
102
}
330
87
100
AcDbXrecord
 10
0.0
 20
0.0
 30
0.0
  0
XRECORD
  5
99
102
{ACAD_REACTORS
330
87
102
}
330
87
100
AcDbXrecord
 10
0.0
 20
0.0
 30
0.0
  0
XRECORD
  5
9A
102
{ACAD_REACTORS
330
87
102
}
330
87
100
AcDbXrecord
 10
0.0
 20
0.0
 30
0.0
  0
XRECORD
  5
97
102
{ACAD_REACTORS
330
87
102
}
330
87
100
AcDbXrecord
 10
0.0
 20
0.0
 30
0.0
  0
XRECORD
  5
94
102
{ACAD_REACTORS
330
87
102
}
330
87
100
AcDbXrecord
340
0
  0
XRECORD
  5
95
102
{ACAD_REACTORS
330
87
102
}
330
87
100
AcDbXrecord
 70
     0
  0
XRECORD
  5
8B
102
{ACAD_REACTORS
330
87
102
}
330
87
100
AcDbXrecord
  1

  0
XRECORD
  5
88
102
{ACAD_REACTORS
330
87
102
}
330
87
100
AcDbXrecord
 90
        1
  0
XRECORD
  5
89
102
{ACAD_REACTORS
330
87
102
}
330
87
100
AcDbXrecord
 90
       70
  0
XRECORD
  5
9F
102
{ACAD_REACTORS
330
87
102
}
330
87
100
AcDbXrecord
340
0
  0
XRECORD
  5
A5
102
{ACAD_REACTORS
330
87
102
}
330
87
100
AcDbXrecord
 10
0.0
 20
0.0
 30
0.0
  0
XRECORD
  5
A1
102
{ACAD_REACTORS
330
87
102
}
330
87
100
AcDbXrecord
 10
0.0
 20
0.0
 30
0.0
  0
XRECORD
  5
A4
102
{ACAD_REACTORS
330
87
102
}
330
87
100
AcDbXrecord
 10
0.0
 20
0.0
 30
0.0
  0
XRECORD
  5
A2
102
{ACAD_REACTORS
330
87
102
}
330
87
100
AcDbXrecord
 10
0.0
 20
0.0
 30
0.0
  0
XRECORD
  5
A3
102
{ACAD_REACTORS
330
87
102
}
330
87
100
AcDbXrecord
 10
0.0
 20
0.0
 30
0.0
  0
XRECORD
  5
A0
102
{ACAD_REACTORS
330
87
102
}
330
87
100
AcDbXrecord
 10
0.0
 20
0.0
 30
0.0
  0
XRECORD
  5
9D
102
{ACAD_REACTORS
330
87
102
}
330
87
100
AcDbXrecord
340
0
  0
XRECORD
  5
9E
102
{ACAD_REACTORS
330
87
102
}
330
87
100
AcDbXrecord
 70
     0
  0
XRECORD
  5
92
102
{ACAD_REACTORS
330
87
102
}
330
87
100
AcDbXrecord
  1
{FAEB1C32-E019-11D5-929B-00C0DF256EC4}
  0
DICTIONARYVAR
  5
AA
102
{ACAD_REACTORS
330
A7
102
}
330
A7
100
DictionaryVariables
280
     0
  1
2
  0
DICTIONARYVAR
  5
AB
102
{ACAD_REACTORS
330
A7
102
}
330
A7
100
DictionaryVariables
280
     0
  1
1
  0
DICTIONARY
  5
AE
330
3D
100
AcDbDictionary
280
     1
  3
ACAD_XREC_ROUNDTRIP
360
AF
  0
DICTIONARY
  5
AC
330
3C
100
AcDbDictionary
280
     1
  3
ACAD_XREC_ROUNDTRIP
360
AD
  0
DICTIONARY
  5
B0
330
3E
100
AcDbDictionary
280
     1
  3
ACAD_XREC_ROUNDTRIP
360
B1
  0
XRECORD
  5
AF
102
{ACAD_REACTORS
330
AE
102
}
330
AE
100
AcDbXrecord
102
MATERIAL
148
0.0
149
0.0
149
0.0
 93
        0
 94
      127
282
     0
 72
     1
 77
     1
171
     1
175
     1
179
     1
273
     0
  0
XRECORD
  5
AD
102
{ACAD_REACTORS
330
AC
102
}
330
AC
100
AcDbXrecord
102
MATERIAL
148
0.0
149
0.0
149
0.0
 93
        0
 94
      127
282
     0
 72
     1
 77
     1
171
     1
175
     1
179
     1
273
     0
  0
XRECORD
  5
B1
102
{ACAD_REACTORS
330
B0
102
}
330
B0
100
AcDbXrecord
102
MATERIAL
148
0.0
149
0.0
149
0.0
 93
        0
 94
      127
282
     0
 72
     1
 77
     1
171
     1
175
     1
179
     1
273
     0
  0
ENDSEC
  0
EOF
