# Blender v2.76 (sub 0) OBJ File: ''
# www.blender.org
mtllib subdivide.mtl
o Cube_Cube.001
v -1.000000 0.000000 0.000000
v 0.000000 0.000000 -1.000000
v 1.000000 0.000000 0.000000
v 0.000000 0.000000 1.000000
v 0.000000 -1.000000 0.000000
v 0.000000 1.000000 0.000000
v -1.000000 0.000000 1.000000
v -1.000000 1.000000 0.000000
v -1.000000 0.000000 -1.000000
v -1.000000 -1.000000 0.000000
v 0.000000 1.000000 -1.000000
v 1.000000 0.000000 -1.000000
v 0.000000 -1.000000 -1.000000
v 1.000000 1.000000 0.000000
v 1.000000 0.000000 1.000000
v 1.000000 -1.000000 0.000000
v 0.000000 1.000000 1.000000
v 0.000000 -1.000000 1.000000
v -1.000000 -1.000000 1.000000
v -1.000000 1.000000 1.000000
v -1.000000 -1.000000 -1.000000
v -1.000000 1.000000 -1.000000
v 1.000000 -1.000000 1.000000
v 1.000000 1.000000 1.000000
v 1.000000 -1.000000 -1.000000
v 1.000000 1.000000 -1.000000
vn -1.000000 0.000000 0.000000
vn 0.000000 0.000000 -1.000000
vn 1.000000 0.000000 0.000000
vn 0.000000 0.000000 1.000000
vn 0.000000 -1.000000 0.000000
vn 0.000000 1.000000 0.000000
usemtl None
s off
f 1//1 7//1 20//1 8//1
f 1//1 8//1 22//1 9//1
f 1//1 9//1 21//1 10//1
f 1//1 10//1 19//1 7//1
f 2//2 9//2 22//2 11//2
f 2//2 11//2 26//2 12//2
f 2//2 12//2 25//2 13//2
f 2//2 13//2 21//2 9//2
f 3//3 12//3 26//3 14//3
f 3//3 14//3 24//3 15//3
f 3//3 15//3 23//3 16//3
f 3//3 16//3 25//3 12//3
f 4//4 15//4 24//4 17//4
f 4//4 17//4 20//4 7//4
f 4//4 7//4 19//4 18//4
f 4//4 18//4 23//4 15//4
f 5//5 18//5 19//5 10//5
f 5//5 10//5 21//5 13//5
f 5//5 13//5 25//5 16//5
f 5//5 16//5 23//5 18//5
f 6//6 17//6 24//6 14//6
f 6//6 14//6 26//6 11//6
f 6//6 11//6 22//6 8//6
f 6//6 8//6 20//6 17//6
