0
SECTION
2
HEADER
9
$ACADVER
1
AC1009
0
ENDSEC
0
SECTION
2
TABLES
0
TABLE
2
VPORT
70
1
0
VPORT
2
ACTIVE
70
0
10
0.0
20
0.0
11
0.0
21
0.0
12
0.0
22
0.0
13
0.0
23
0.0
14
0.0
24
0.0
15
0.0
25
0.0
16
0.0
26
0.0
36
0.0
17
0.0
27
0.0
37
0.0
40
0.0
41
0.0
42
0.0
43
0.0
44
0.0
50
0.0
51
0.0
71
0
72
1000
73
1
74
3
75
0
76
0
77
0
78
0
0
ENDTAB
0
ENDSEC
0
SECTION
2
ENTITIES
0
LINE
8
boundary
62
5
39
2
10
17.801973
20
217.789754
11
16.807564
21
127.795253
0
LINE
8
boundary
62
5
39
2
10
16.807564
20
127.795253
11
1.808480
21
127.960987
0
LINE
8
boundary
62
5
39
2
10
1.808480
20
127.960987
11
1.587500
21
107.962208
0
LINE
8
boundary
62
5
39
2
10
1.587500
20
107.962208
11
16.586584
21
107.796474
0
LINE
8
boundary
62
5
39
2
10
16.586584
20
107.796474
11
15.592176
21
17.801973
0
LINE
8
boundary
62
5
39
2
10
15.592176
20
17.801973
11
105.586677
21
16.807564
0
LINE
8
boundary
62
5
39
2
10
105.586677
20
16.807564
11
105.420942
21
1.808480
0
LINE
8
boundary
62
5
39
2
10
105.420942
20
1.808480
11
125.419721
21
1.587500
0
LINE
8
boundary
62
5
39
2
10
125.419721
20
1.587500
11
125.585456
21
16.586584
0
LINE
8
boundary
62
5
39
2
10
125.585456
20
16.586584
11
215.579957
21
15.592176
0
LINE
8
boundary
62
5
39
2
10
215.579957
20
15.592176
11
216.574365
21
105.586677
0
LINE
8
boundary
62
5
39
2
10
216.574365
20
105.586677
11
231.573450
21
105.420942
0
LINE
8
boundary
62
5
39
2
10
231.573450
20
105.420942
11
231.794429
21
125.419721
0
LINE
8
boundary
62
5
39
2
10
231.794429
20
125.419721
11
216.795345
21
125.585456
0
LINE
8
boundary
62
5
39
2
10
216.795345
20
125.585456
11
217.789754
21
215.579957
0
LINE
8
boundary
62
5
39
2
10
217.789754
20
215.579957
11
127.795253
21
216.574365
0
LINE
8
boundary
62
5
39
2
10
127.795253
20
216.574365
11
127.960987
21
231.573450
0
LINE
8
boundary
62
5
39
2
10
127.960987
20
231.573450
11
107.962208
21
231.794429
0
LINE
8
boundary
62
5
39
2
10
107.962208
20
231.794429
11
107.796474
21
216.795345
0
LINE
8
boundary
62
5
39
2
10
107.796474
20
216.795345
11
17.801973
21
217.789754
0
LINE
8
annotation
62
1
39
211
10
79.834164
20
102.978352
11
90.994424
21
91.568703
0
LINE
8
annotation
62
1
39
211
10
90.994424
20
91.568703
11
90.994424
21
91.568703
0
LINE
8
annotation
62
1
39
211
10
90.994424
20
91.568703
11
93.181595
21
89.700992
0
LINE
8
annotation
62
1
39
211
10
93.181595
20
89.700992
11
95.598911
21
88.291549
0
LINE
8
annotation
62
1
39
211
10
95.598911
20
88.291549
11
98.182240
21
87.341267
0
LINE
8
annotation
62
1
39
211
10
98.182240
20
87.341267
11
100.867454
21
86.851038
0
LINE
8
annotation
62
1
39
211
10
100.867454
20
86.851038
11
103.590421
21
86.821755
0
LINE
8
annotation
62
1
39
211
10
103.590421
20
86.821755
11
106.287011
21
87.254309
0
LINE
8
annotation
62
1
39
211
10
106.287011
20
87.254309
11
108.893095
21
88.149593
0
LINE
8
annotation
62
1
39
211
10
108.893095
20
88.149593
11
111.344541
21
89.508500
0
LINE
8
annotation
62
1
39
211
10
111.344541
20
89.508500
11
113.577220
21
91.331920
0
LINE
8
annotation
62
1
39
211
10
113.577220
20
91.331920
11
119.261101
21
96.891564
0
LINE
8
annotation
62
1
39
211
10
119.261101
20
96.891564
11
119.261101
21
96.891564
0
LINE
8
annotation
62
1
39
211
10
119.261101
20
96.891564
11
121.132521
21
99.082328
0
LINE
8
annotation
62
1
39
211
10
121.132521
20
99.082328
11
122.542858
21
101.500276
0
LINE
8
annotation
62
1
39
211
10
122.542858
20
101.500276
11
123.491988
21
104.081822
0
LINE
8
annotation
62
1
39
211
10
123.491988
20
104.081822
11
123.979785
21
106.763376
0
LINE
8
annotation
62
1
39
211
10
123.979785
20
106.763376
11
124.006123
21
109.481352
0
LINE
8
annotation
62
1
39
211
10
124.006123
20
109.481352
11
123.570877
21
112.172162
0
LINE
8
annotation
62
1
39
211
10
123.570877
20
112.172162
11
122.673922
21
114.772217
0
LINE
8
annotation
62
1
39
211
10
122.673922
20
114.772217
11
121.315131
21
117.217930
0
LINE
8
annotation
62
1
39
211
10
121.315131
20
117.217930
11
119.494380
21
119.445713
0
LINE
8
annotation
62
1
39
211
10
119.494380
20
119.445713
11
108.334121
21
130.855363
0
LINE
8
annotation
62
1
39
211
10
108.334121
20
130.855363
11
131.214640
21
153.235764
0
LINE
8
annotation
62
1
39
211
10
131.214640
20
153.235764
11
153.535158
21
130.416466
0
LINE
8
annotation
62
1
39
211
10
19.711653
20
119.094254
11
19.682210
21
116.429673
0
LINE
8
annotation
62
1
39
211
10
19.682210
20
116.429673
11
15.745655
21
118.935631
0
LINE
8
annotation
62
1
39
211
10
15.745655
20
118.935631
11
15.745655
21
118.935631
0
LINE
8
annotation
62
1
39
211
10
15.745655
20
118.935631
11
15.742045
21
118.938615
0
LINE
8
annotation
62
1
39
211
10
15.742045
20
118.938615
11
15.738403
21
118.941478
0
LINE
8
annotation
62
1
39
211
10
15.738403
20
118.941478
11
15.734698
21
118.944239
0
LINE
8
annotation
62
1
39
211
10
15.734698
20
118.944239
11
15.730899
21
118.946919
0
LINE
8
annotation
62
1
39
211
10
15.730899
20
118.946919
11
15.726976
21
118.949534
0
LINE
8
annotation
62
1
39
211
10
15.726976
20
118.949534
11
15.722897
21
118.952105
0
LINE
8
annotation
62
1
39
211
10
15.722897
20
118.952105
11
15.718632
21
118.954650
0
LINE
8
annotation
62
1
39
211
10
15.718632
20
118.954650
11
15.714150
21
118.957188
0
LINE
8
annotation
62
1
39
211
10
15.714150
20
118.957188
11
15.709421
21
118.959738
0
LINE
8
annotation
62
1
39
211
10
15.709421
20
118.959738
11
15.709421
21
118.959738
0
LINE
8
annotation
62
1
39
211
10
15.709421
20
118.959738
11
15.492267
21
119.063812
0
LINE
8
annotation
62
1
39
211
10
15.492267
20
119.063812
11
15.266660
21
119.125701
0
LINE
8
annotation
62
1
39
211
10
15.266660
20
119.125701
11
15.037728
21
119.146805
0
LINE
8
annotation
62
1
39
211
10
15.037728
20
119.146805
11
14.810601
21
119.128522
0
LINE
8
annotation
62
1
39
211
10
14.810601
20
119.128522
11
14.590405
21
119.072251
0
LINE
8
annotation
62
1
39
211
10
14.590405
20
119.072251
11
14.382272
21
118.979392
0
LINE
8
annotation
62
1
39
211
10
14.382272
20
118.979392
11
14.191328
21
118.851342
0
LINE
8
annotation
62
1
39
211
10
14.191328
20
118.851342
11
14.022703
21
118.689502
0
LINE
8
annotation
62
1
39
211
10
14.022703
20
118.689502
11
13.881526
21
118.495270
0
LINE
8
annotation
62
1
39
211
10
13.881526
20
118.495270
11
13.881526
21
118.495270
0
LINE
8
annotation
62
1
39
211
10
13.881526
20
118.495270
11
13.778890
21
118.277494
0
LINE
8
annotation
62
1
39
211
10
13.778890
20
118.277494
11
13.717912
21
118.051530
0
LINE
8
annotation
62
1
39
211
10
13.717912
20
118.051530
11
13.697331
21
117.822459
0
LINE
8
annotation
62
1
39
211
10
13.697331
20
117.822459
11
13.715889
21
117.595362
0
LINE
8
annotation
62
1
39
211
10
13.715889
20
117.595362
11
13.772324
21
117.375320
0
LINE
8
annotation
62
1
39
211
10
13.772324
20
117.375320
11
13.865376
21
117.167413
0
LINE
8
annotation
62
1
39
211
10
13.865376
20
117.167413
11
13.993786
21
116.976723
0
LINE
8
annotation
62
1
39
211
10
13.993786
20
116.976723
11
14.156293
21
116.808329
0
LINE
8
annotation
62
1
39
211
10
14.156293
20
116.808329
11
14.351637
21
116.667313
0
LINE
8
annotation
62
1
39
211
10
14.351637
20
116.667313
11
14.685316
21
116.488650
0
LINE
8
annotation
62
1
39
211
10
116.952254
20
19.681973
11
115.619964
21
19.696695
0
LINE
8
annotation
62
1
39
211
10
115.619964
20
19.696695
11
115.619964
21
19.696695
0
LINE
8
annotation
62
1
39
211
10
115.619964
20
19.696695
11
115.380111
21
19.677847
0
LINE
8
annotation
62
1
39
211
10
115.380111
20
19.677847
11
115.153956
21
19.618388
0
LINE
8
annotation
62
1
39
211
10
115.153956
20
19.618388
11
114.945292
21
19.522080
0
LINE
8
annotation
62
1
39
211
10
114.945292
20
19.522080
11
114.757911
21
19.392682
0
LINE
8
annotation
62
1
39
211
10
114.757911
20
19.392682
11
114.595605
21
19.233957
0
LINE
8
annotation
62
1
39
211
10
114.595605
20
19.233957
11
114.462166
21
19.049665
0
LINE
8
annotation
62
1
39
211
10
114.462166
20
19.049665
11
114.361387
21
18.843569
0
LINE
8
annotation
62
1
39
211
10
114.361387
20
18.843569
11
114.297058
21
18.619429
0
LINE
8
annotation
62
1
39
211
10
114.297058
20
18.619429
11
114.272973
21
18.381007
0
LINE
8
annotation
62
1
39
211
10
114.272973
20
18.381007
11
114.265602
21
17.713921
0
LINE
8
annotation
62
1
39
211
10
114.265602
20
17.713921
11
114.265602
21
17.713921
0
LINE
8
annotation
62
1
39
211
10
114.265602
20
17.713921
11
114.284414
21
17.475124
0
LINE
8
annotation
62
1
39
211
10
114.284414
20
17.475124
11
114.343775
21
17.249670
0
LINE
8
annotation
62
1
39
211
10
114.343775
20
17.249670
11
114.439976
21
17.041412
0
LINE
8
annotation
62
1
39
211
10
114.439976
20
17.041412
11
114.569310
21
16.854205
0
LINE
8
annotation
62
1
39
211
10
114.569310
20
16.854205
11
114.728069
21
16.691901
0
LINE
8
annotation
62
1
39
211
10
114.728069
20
16.691901
11
114.912544
21
16.558354
0
LINE
8
annotation
62
1
39
211
10
114.912544
20
16.558354
11
115.119028
21
16.457418
0
LINE
8
annotation
62
1
39
211
10
115.119028
20
16.457418
11
115.343814
21
16.392946
0
LINE
8
annotation
62
1
39
211
10
115.343814
20
16.392946
11
115.583192
21
16.368790
0
LINE
8
annotation
62
1
39
211
10
115.583192
20
16.368790
11
116.250277
21
16.361419
0
LINE
8
annotation
62
1
39
211
10
116.250277
20
16.361419
11
115.583192
21
16.368790
0
LINE
8
annotation
62
1
39
211
10
115.583192
20
16.368790
11
115.583192
21
16.368790
0
LINE
8
annotation
62
1
39
211
10
115.583192
20
16.368790
11
115.343338
21
16.349925
0
LINE
8
annotation
62
1
39
211
10
115.343338
20
16.349925
11
115.117183
21
16.290400
0
LINE
8
annotation
62
1
39
211
10
115.117183
20
16.290400
11
114.908518
21
16.193952
0
LINE
8
annotation
62
1
39
211
10
114.908518
20
16.193952
11
114.721134
21
16.064323
0
LINE
8
annotation
62
1
39
211
10
114.721134
20
16.064323
11
114.558824
21
15.905253
0
LINE
8
annotation
62
1
39
211
10
114.558824
20
15.905253
11
114.425380
21
15.720479
0
LINE
8
annotation
62
1
39
211
10
114.425380
20
15.720479
11
114.324593
21
15.513743
0
LINE
8
annotation
62
1
39
211
10
114.324593
20
15.513743
11
114.260256
21
15.288783
0
LINE
8
annotation
62
1
39
211
10
114.260256
20
15.288783
11
114.236159
21
15.049340
0
LINE
8
annotation
62
1
39
211
10
114.236159
20
15.049340
11
114.236159
21
15.049340
0
LINE
8
annotation
62
1
39
211
10
114.236159
20
15.049340
11
114.254971
21
14.810543
0
LINE
8
annotation
62
1
39
211
10
114.254971
20
14.810543
11
114.314332
21
14.585089
0
LINE
8
annotation
62
1
39
211
10
114.314332
20
14.585089
11
114.410533
21
14.376832
0
LINE
8
annotation
62
1
39
211
10
114.410533
20
14.376832
11
114.539867
21
14.189624
0
LINE
8
annotation
62
1
39
211
10
114.539867
20
14.189624
11
114.698626
21
14.027320
0
LINE
8
annotation
62
1
39
211
10
114.698626
20
14.027320
11
114.883101
21
13.893774
0
LINE
8
annotation
62
1
39
211
10
114.883101
20
13.893774
11
115.089586
21
13.792837
0
LINE
8
annotation
62
1
39
211
10
115.089586
20
13.792837
11
115.314371
21
13.728365
0
LINE
8
annotation
62
1
39
211
10
115.314371
20
13.728365
11
115.553749
21
13.704210
0
LINE
8
annotation
62
1
39
211
10
115.553749
20
13.704210
11
116.886039
21
13.689488
0
LINE
8
annotation
62
1
39
211
10
213.768192
20
115.981793
11
213.768192
21
115.981793
0
LINE
8
annotation
62
1
39
211
10
213.768192
20
115.981793
11
213.714525
21
115.842930
0
LINE
8
annotation
62
1
39
211
10
213.714525
20
115.842930
11
213.687048
21
115.700210
0
LINE
8
annotation
62
1
39
211
10
213.687048
20
115.700210
11
213.684740
21
115.556877
0
LINE
8
annotation
62
1
39
211
10
213.684740
20
115.556877
11
213.706581
21
115.416177
0
LINE
8
annotation
62
1
39
211
10
213.706581
20
115.416177
11
213.751551
21
115.281352
0
LINE
8
annotation
62
1
39
211
10
213.751551
20
115.281352
11
213.818629
21
115.155650
0
LINE
8
annotation
62
1
39
211
10
213.818629
20
115.155650
11
213.906795
21
115.042312
0
LINE
8
annotation
62
1
39
211
10
213.906795
20
115.042312
11
214.015030
21
114.944586
0
LINE
8
annotation
62
1
39
211
10
214.015030
20
114.944586
11
214.142312
21
114.865714
0
LINE
8
annotation
62
1
39
211
10
214.142312
20
114.865714
11
214.142312
21
114.865714
0
LINE
8
annotation
62
1
39
211
10
214.142312
20
114.865714
11
214.680703
21
114.628638
0
LINE
8
annotation
62
1
39
211
10
214.680703
20
114.628638
11
215.235389
21
114.449163
0
LINE
8
annotation
62
1
39
211
10
215.235389
20
114.449163
11
215.801933
21
114.327339
0
LINE
8
annotation
62
1
39
211
10
215.801933
20
114.327339
11
216.375897
21
114.263215
0
LINE
8
annotation
62
1
39
211
10
216.375897
20
114.263215
11
216.952844
21
114.256840
0
LINE
8
annotation
62
1
39
211
10
216.952844
20
114.256840
11
217.528335
21
114.308263
0
LINE
8
annotation
62
1
39
211
10
217.528335
20
114.308263
11
218.097934
21
114.417533
0
LINE
8
annotation
62
1
39
211
10
218.097934
20
114.417533
11
218.657203
21
114.584699
0
LINE
8
annotation
62
1
39
211
10
218.657203
20
114.584699
11
219.201705
21
114.809810
0
LINE
8
annotation
62
1
39
211
10
219.201705
20
114.809810
11
219.201705
21
114.809810
0
LINE
8
annotation
62
1
39
211
10
219.201705
20
114.809810
11
219.256724
21
114.838594
0
LINE
8
annotation
62
1
39
211
10
219.256724
20
114.838594
11
219.309383
21
114.871335
0
LINE
8
annotation
62
1
39
211
10
219.309383
20
114.871335
11
219.359423
21
114.907784
0
LINE
8
annotation
62
1
39
211
10
219.359423
20
114.907784
11
219.406583
21
114.947694
0
LINE
8
annotation
62
1
39
211
10
219.406583
20
114.947694
11
219.450605
21
114.990816
0
LINE
8
annotation
62
1
39
211
10
219.450605
20
114.990816
11
219.491228
21
115.036902
0
LINE
8
annotation
62
1
39
211
10
219.491228
20
115.036902
11
219.528192
21
115.085704
0
LINE
8
annotation
62
1
39
211
10
219.528192
20
115.085704
11
219.561238
21
115.136975
0
LINE
8
annotation
62
1
39
211
10
219.561238
20
115.136975
11
219.590106
21
115.190465
0
LINE
8
annotation
62
1
39
211
10
219.590106
20
115.190465
11
219.590106
21
115.190465
0
LINE
8
annotation
62
1
39
211
10
219.590106
20
115.190465
11
219.644915
21
115.330423
0
LINE
8
annotation
62
1
39
211
10
219.644915
20
115.330423
11
219.673286
21
115.473971
0
LINE
8
annotation
62
1
39
211
10
219.673286
20
115.473971
11
219.676248
21
115.617902
0
LINE
8
annotation
62
1
39
211
10
219.676248
20
115.617902
11
219.654826
21
115.759009
0
LINE
8
annotation
62
1
39
211
10
219.654826
20
115.759009
11
219.610047
21
115.894083
0
LINE
8
annotation
62
1
39
211
10
219.610047
20
115.894083
11
219.542939
21
116.019918
0
LINE
8
annotation
62
1
39
211
10
219.542939
20
116.019918
11
219.454528
21
116.133306
0
LINE
8
annotation
62
1
39
211
10
219.454528
20
116.133306
11
219.345840
21
116.231039
0
LINE
8
annotation
62
1
39
211
10
219.345840
20
116.231039
11
219.217904
21
116.309910
0
LINE
8
annotation
62
1
39
211
10
219.217904
20
116.309910
11
219.217904
21
116.309910
0
LINE
8
annotation
62
1
39
211
10
219.217904
20
116.309910
11
218.679612
21
116.545871
0
LINE
8
annotation
62
1
39
211
10
218.679612
20
116.545871
11
218.125001
21
116.724508
0
LINE
8
annotation
62
1
39
211
10
218.125001
20
116.724508
11
217.558506
21
116.845774
0
LINE
8
annotation
62
1
39
211
10
217.558506
20
116.845774
11
216.984567
21
116.909619
0
LINE
8
annotation
62
1
39
211
10
216.984567
20
116.909619
11
216.407621
21
116.915994
0
LINE
8
annotation
62
1
39
211
10
216.407621
20
116.915994
11
215.832104
21
116.864850
0
LINE
8
annotation
62
1
39
211
10
215.832104
20
116.864850
11
215.262455
21
116.756138
0
LINE
8
annotation
62
1
39
211
10
215.262455
20
116.756138
11
214.703112
21
116.589810
0
LINE
8
annotation
62
1
39
211
10
214.703112
20
116.589810
11
214.158511
21
116.365815
0
LINE
8
annotation
62
1
39
211
10
214.158511
20
116.365815
11
214.158511
21
116.365815
0
LINE
8
annotation
62
1
39
211
10
214.158511
20
116.365815
11
214.103603
21
116.337136
0
LINE
8
annotation
62
1
39
211
10
214.103603
20
116.337136
11
214.051207
21
116.304638
0
LINE
8
annotation
62
1
39
211
10
214.051207
20
116.304638
11
214.001483
21
116.268459
0
LINE
8
annotation
62
1
39
211
10
214.001483
20
116.268459
11
213.954592
21
116.228737
0
LINE
8
annotation
62
1
39
211
10
213.954592
20
116.228737
11
213.910691
21
116.185610
0
LINE
8
annotation
62
1
39
211
10
213.910691
20
116.185610
11
213.869941
21
116.139214
0
LINE
8
annotation
62
1
39
211
10
213.869941
20
116.139214
11
213.832502
21
116.089687
0
LINE
8
annotation
62
1
39
211
10
213.832502
20
116.089687
11
213.798532
21
116.037168
0
LINE
8
annotation
62
1
39
211
10
213.798532
20
116.037168
11
213.768192
21
115.981793
0
LINE
8
annotation
62
1
39
211
10
118.429049
20
213.677676
11
118.495343
21
219.677309
0
LINE
8
annotation
62
1
39
211
10
118.495343
20
219.677309
11
117.146806
21
218.357876
0
LINE
8
boundary
62
5
39
2
10
16.587500
20
249.969429
11
106.587495
21
249.969429
0
LINE
8
boundary
62
5
39
2
10
106.587495
20
249.969429
11
106.587495
21
234.969429
0
LINE
8
boundary
62
5
39
2
10
106.587495
20
234.969429
11
126.587495
21
234.969429
0
LINE
8
boundary
62
5
39
2
10
126.587495
20
234.969429
11
126.587495
21
249.969429
0
LINE
8
boundary
62
5
39
2
10
126.587495
20
249.969429
11
216.587489
21
249.969429
0
LINE
8
boundary
62
5
39
2
10
216.587489
20
249.969429
11
216.587489
21
339.969424
0
LINE
8
boundary
62
5
39
2
10
216.587489
20
339.969424
11
231.587489
21
339.969424
0
LINE
8
boundary
62
5
39
2
10
231.587489
20
339.969424
11
231.587489
21
359.969424
0
LINE
8
boundary
62
5
39
2
10
231.587489
20
359.969424
11
216.587489
21
359.969424
0
LINE
8
boundary
62
5
39
2
10
216.587489
20
359.969424
11
216.587489
21
449.969419
0
LINE
8
boundary
62
5
39
2
10
216.587489
20
449.969419
11
126.587495
21
449.969419
0
LINE
8
boundary
62
5
39
2
10
126.587495
20
449.969419
11
126.587495
21
464.969419
0
LINE
8
boundary
62
5
39
2
10
126.587495
20
464.969419
11
106.587495
21
464.969419
0
LINE
8
boundary
62
5
39
2
10
106.587495
20
464.969419
11
106.587495
21
449.969419
0
LINE
8
boundary
62
5
39
2
10
106.587495
20
449.969419
11
16.587500
21
449.969419
0
LINE
8
boundary
62
5
39
2
10
16.587500
20
449.969419
11
16.587500
21
359.969424
0
LINE
8
boundary
62
5
39
2
10
16.587500
20
359.969424
11
1.587500
21
359.969424
0
LINE
8
boundary
62
5
39
2
10
1.587500
20
359.969424
11
1.587500
21
339.969424
0
LINE
8
boundary
62
5
39
2
10
1.587500
20
339.969424
11
16.587500
21
339.969424
0
LINE
8
boundary
62
5
39
2
10
16.587500
20
339.969424
11
16.587500
21
249.969429
0
LINE
8
annotation
62
1
39
211
10
124.592440
20
385.906037
11
124.592440
21
385.906037
0
LINE
8
annotation
62
1
39
211
10
124.592440
20
385.906037
11
120.020212
21
384.191728
0
LINE
8
annotation
62
1
39
211
10
120.020212
20
384.191728
11
115.824594
21
381.881900
0
LINE
8
annotation
62
1
39
211
10
115.824594
20
381.881900
11
112.048655
21
379.034425
0
LINE
8
annotation
62
1
39
211
10
112.048655
20
379.034425
11
108.735464
21
375.707174
0
LINE
8
annotation
62
1
39
211
10
108.735464
20
375.707174
11
105.928091
21
371.958019
0
LINE
8
annotation
62
1
39
211
10
105.928091
20
371.958019
11
103.669605
21
367.844831
0
LINE
8
annotation
62
1
39
211
10
103.669605
20
367.844831
11
102.003077
21
363.425480
0
LINE
8
annotation
62
1
39
211
10
102.003077
20
363.425480
11
100.971576
21
358.757840
0
LINE
8
annotation
62
1
39
211
10
100.971576
20
358.757840
11
100.618171
21
353.899780
0
LINE
8
annotation
62
1
39
211
10
100.618171
20
353.899780
11
100.618171
21
330.011150
0
LINE
8
annotation
62
1
39
211
10
100.618171
20
330.011150
11
100.618171
21
330.011150
0
LINE
8
annotation
62
1
39
211
10
100.618171
20
330.011150
11
100.875853
21
327.140031
0
LINE
8
annotation
62
1
39
211
10
100.875853
20
327.140031
11
101.618579
21
324.437334
0
LINE
8
annotation
62
1
39
211
10
101.618579
20
324.437334
11
102.800867
21
321.948278
0
LINE
8
annotation
62
1
39
211
10
102.800867
20
321.948278
11
104.377237
21
319.718085
0
LINE
8
annotation
62
1
39
211
10
104.377237
20
319.718085
11
106.302208
21
317.791976
0
LINE
8
annotation
62
1
39
211
10
106.302208
20
317.791976
11
108.530299
21
316.215173
0
LINE
8
annotation
62
1
39
211
10
108.530299
20
316.215173
11
111.016028
21
315.032897
0
LINE
8
annotation
62
1
39
211
10
111.016028
20
315.032897
11
113.713916
21
314.290370
0
LINE
8
annotation
62
1
39
211
10
113.713916
20
314.290370
11
116.578480
21
314.032811
0
LINE
8
annotation
62
1
39
211
10
116.578480
20
314.032811
11
116.578480
21
314.032811
0
LINE
8
annotation
62
1
39
211
10
116.578480
20
314.032811
11
119.448980
21
314.290370
0
LINE
8
annotation
62
1
39
211
10
119.448980
20
314.290370
11
122.150021
21
315.032897
0
LINE
8
annotation
62
1
39
211
10
122.150021
20
315.032897
11
124.636678
21
316.215173
0
LINE
8
annotation
62
1
39
211
10
124.636678
20
316.215173
11
126.864026
21
317.791976
0
LINE
8
annotation
62
1
39
211
10
126.864026
20
317.791976
11
128.787143
21
319.718085
0
LINE
8
annotation
62
1
39
211
10
128.787143
20
319.718085
11
130.361101
21
321.948278
0
LINE
8
annotation
62
1
39
211
10
130.361101
20
321.948278
11
131.540978
21
324.437334
0
LINE
8
annotation
62
1
39
211
10
131.540978
20
324.437334
11
132.281849
21
327.140031
0
LINE
8
annotation
62
1
39
211
10
132.281849
20
327.140031
11
132.538790
21
330.011150
0
LINE
8
annotation
62
1
39
211
10
132.538790
20
330.011150
11
132.538790
21
337.962007
0
LINE
8
annotation
62
1
39
211
10
132.538790
20
337.962007
11
132.538790
21
337.962007
0
LINE
8
annotation
62
1
39
211
10
132.538790
20
337.962007
11
132.281849
21
340.831734
0
LINE
8
annotation
62
1
39
211
10
132.281849
20
340.831734
11
131.540978
21
343.530703
0
LINE
8
annotation
62
1
39
211
10
131.540978
20
343.530703
11
130.361101
21
346.014362
0
LINE
8
annotation
62
1
39
211
10
130.361101
20
346.014362
11
128.787143
21
348.238155
0
LINE
8
annotation
62
1
39
211
10
128.787143
20
348.238155
11
126.864026
21
350.157531
0
LINE
8
annotation
62
1
39
211
10
126.864026
20
350.157531
11
124.636678
21
351.727935
0
LINE
8
annotation
62
1
39
211
10
124.636678
20
351.727935
11
122.150021
21
352.904813
0
LINE
8
annotation
62
1
39
211
10
122.150021
20
352.904813
11
119.448980
21
353.643613
0
LINE
8
annotation
62
1
39
211
10
119.448980
20
353.643613
11
116.578480
21
353.899780
0
LINE
8
annotation
62
1
39
211
10
116.578480
20
353.899780
11
100.618171
21
353.899780
0
LINE
8
annotation
62
1
39
211
10
98.619188
20
305.048658
11
134.555801
21
305.048658
0
LINE
8
annotation
62
1
39
211
10
115.255875
20
252.969478
11
117.920619
21
252.969478
0
LINE
8
annotation
62
1
39
211
10
117.920619
20
252.969478
11
115.458309
21
249.005475
0
LINE
8
annotation
62
1
39
211
10
115.458309
20
249.005475
11
115.458309
21
249.005475
0
LINE
8
annotation
62
1
39
211
10
115.458309
20
249.005475
11
115.455365
21
249.001832
0
LINE
8
annotation
62
1
39
211
10
115.455365
20
249.001832
11
115.452542
21
248.998159
0
LINE
8
annotation
62
1
39
211
10
115.452542
20
248.998159
11
115.449822
21
248.994424
0
LINE
8
annotation
62
1
39
211
10
115.449822
20
248.994424
11
115.447185
21
248.990595
0
LINE
8
annotation
62
1
39
211
10
115.447185
20
248.990595
11
115.444613
21
248.986643
0
LINE
8
annotation
62
1
39
211
10
115.444613
20
248.986643
11
115.442087
21
248.982536
0
LINE
8
annotation
62
1
39
211
10
115.442087
20
248.982536
11
115.439590
21
248.978243
0
LINE
8
annotation
62
1
39
211
10
115.439590
20
248.978243
11
115.437101
21
248.973734
0
LINE
8
annotation
62
1
39
211
10
115.437101
20
248.973734
11
115.434604
21
248.968977
0
LINE
8
annotation
62
1
39
211
10
115.434604
20
248.968977
11
115.434604
21
248.968977
0
LINE
8
annotation
62
1
39
211
10
115.434604
20
248.968977
11
115.332935
21
248.750686
0
LINE
8
annotation
62
1
39
211
10
115.332935
20
248.750686
11
115.273543
21
248.524409
0
LINE
8
annotation
62
1
39
211
10
115.273543
20
248.524409
11
115.254970
21
248.295258
0
LINE
8
annotation
62
1
39
211
10
115.254970
20
248.295258
11
115.275761
21
248.068346
0
LINE
8
annotation
62
1
39
211
10
115.275761
20
248.068346
11
115.334461
21
247.848786
0
LINE
8
annotation
62
1
39
211
10
115.334461
20
247.848786
11
115.429615
21
247.641691
0
LINE
8
annotation
62
1
39
211
10
115.429615
20
247.641691
11
115.559766
21
247.452174
0
LINE
8
annotation
62
1
39
211
10
115.559766
20
247.452174
11
115.723459
21
247.285348
0
LINE
8
annotation
62
1
39
211
10
115.723459
20
247.285348
11
115.919239
21
247.146325
0
LINE
8
annotation
62
1
39
211
10
115.919239
20
247.146325
11
115.919239
21
247.146325
0
LINE
8
annotation
62
1
39
211
10
115.919239
20
247.146325
11
116.138137
21
247.046102
0
LINE
8
annotation
62
1
39
211
10
116.138137
20
247.046102
11
116.364760
21
246.987624
0
LINE
8
annotation
62
1
39
211
10
116.364760
20
246.987624
11
116.594045
21
246.969576
0
LINE
8
annotation
62
1
39
211
10
116.594045
20
246.969576
11
116.820922
21
246.990641
0
LINE
8
annotation
62
1
39
211
10
116.820922
20
246.990641
11
117.040328
21
247.049504
0
LINE
8
annotation
62
1
39
211
10
117.040328
20
247.049504
11
117.247193
21
247.144848
0
LINE
8
annotation
62
1
39
211
10
117.247193
20
247.144848
11
117.436454
21
247.275357
0
LINE
8
annotation
62
1
39
211
10
117.436454
20
247.275357
11
117.603042
21
247.439714
0
LINE
8
annotation
62
1
39
211
10
117.603042
20
247.439714
11
117.741891
21
247.636605
0
LINE
8
annotation
62
1
39
211
10
117.741891
20
247.636605
11
117.916856
21
247.972238
0
LINE
8
annotation
62
1
39
211
10
213.587489
20
349.303050
11
219.587489
21
349.303050
0
LINE
8
annotation
62
1
39
211
10
219.587489
20
349.303050
11
218.253236
21
350.636927
0
LINE
8
annotation
62
1
39
211
10
116.224018
20
447.048561
11
116.224018
21
447.048561
0
LINE
8
annotation
62
1
39
211
10
116.224018
20
447.048561
11
116.363465
21
446.996432
0
LINE
8
annotation
62
1
39
211
10
116.363465
20
446.996432
11
116.506481
21
446.970533
0
LINE
8
annotation
62
1
39
211
10
116.506481
20
446.970533
11
116.649830
21
446.969809
0
LINE
8
annotation
62
1
39
211
10
116.649830
20
446.969809
11
116.790281
21
446.993203
0
LINE
8
annotation
62
1
39
211
10
116.790281
20
446.993203
11
116.924600
21
447.039660
0
LINE
8
annotation
62
1
39
211
10
116.924600
20
447.039660
11
117.049554
21
447.108123
0
LINE
8
annotation
62
1
39
211
10
117.049554
20
447.108123
11
117.161910
21
447.197537
0
LINE
8
annotation
62
1
39
211
10
117.161910
20
447.197537
11
117.258435
21
447.306844
0
LINE
8
annotation
62
1
39
211
10
117.258435
20
447.306844
11
117.335896
21
447.434990
0
LINE
8
annotation
62
1
39
211
10
117.335896
20
447.434990
11
117.335896
21
447.434990
0
LINE
8
annotation
62
1
39
211
10
117.335896
20
447.434990
11
117.567009
21
447.975968
0
LINE
8
annotation
62
1
39
211
10
117.567009
20
447.975968
11
117.740344
21
448.532603
0
LINE
8
annotation
62
1
39
211
10
117.740344
20
448.532603
11
117.855901
21
449.100458
0
LINE
8
annotation
62
1
39
211
10
117.855901
20
449.100458
11
117.913679
21
449.675096
0
LINE
8
annotation
62
1
39
211
10
117.913679
20
449.675096
11
117.913679
21
450.252078
0
LINE
8
annotation
62
1
39
211
10
117.913679
20
450.252078
11
117.855901
21
450.826966
0
LINE
8
annotation
62
1
39
211
10
117.855901
20
450.826966
11
117.740344
21
451.395323
0
LINE
8
annotation
62
1
39
211
10
117.740344
20
451.395323
11
117.567009
21
451.952711
0
LINE
8
annotation
62
1
39
211
10
117.567009
20
451.952711
11
117.335896
21
452.494692
0
LINE
8
annotation
62
1
39
211
10
117.335896
20
452.494692
11
117.335896
21
452.494692
0
LINE
8
annotation
62
1
39
211
10
117.335896
20
452.494692
11
117.306505
21
452.549389
0
LINE
8
annotation
62
1
39
211
10
117.306505
20
452.549389
11
117.273184
21
452.601683
0
LINE
8
annotation
62
1
39
211
10
117.273184
20
452.601683
11
117.236184
21
452.651318
0
LINE
8
annotation
62
1
39
211
10
117.236184
20
452.651318
11
117.195756
21
452.698034
0
LINE
8
annotation
62
1
39
211
10
117.195756
20
452.698034
11
117.152150
21
452.741577
0
LINE
8
annotation
62
1
39
211
10
117.152150
20
452.741577
11
117.105618
21
452.781688
0
LINE
8
annotation
62
1
39
211
10
117.105618
20
452.781688
11
117.056411
21
452.818111
0
LINE
8
annotation
62
1
39
211
10
117.056411
20
452.818111
11
117.004778
21
452.850588
0
LINE
8
annotation
62
1
39
211
10
117.004778
20
452.850588
11
116.950971
21
452.878863
0
LINE
8
annotation
62
1
39
211
10
116.950971
20
452.878863
11
116.950971
21
452.878863
0
LINE
8
annotation
62
1
39
211
10
116.950971
20
452.878863
11
116.810417
21
452.932122
0
LINE
8
annotation
62
1
39
211
10
116.810417
20
452.932122
11
116.666564
21
452.958906
0
LINE
8
annotation
62
1
39
211
10
116.666564
20
452.958906
11
116.522609
21
452.960277
0
LINE
8
annotation
62
1
39
211
10
116.522609
20
452.960277
11
116.381748
21
452.937297
0
LINE
8
annotation
62
1
39
211
10
116.381748
20
452.937297
11
116.247176
21
452.891029
0
LINE
8
annotation
62
1
39
211
10
116.247176
20
452.891029
11
116.122091
21
452.822534
0
LINE
8
annotation
62
1
39
211
10
116.122091
20
452.822534
11
116.009687
21
452.732876
0
LINE
8
annotation
62
1
39
211
10
116.009687
20
452.732876
11
115.913160
21
452.623115
0
LINE
8
annotation
62
1
39
211
10
115.913160
20
452.623115
11
115.835707
21
452.494315
0
LINE
8
annotation
62
1
39
211
10
115.835707
20
452.494315
11
115.835707
21
452.494315
0
LINE
8
annotation
62
1
39
211
10
115.835707
20
452.494315
11
115.605709
21
451.953449
0
LINE
8
annotation
62
1
39
211
10
115.605709
20
451.953449
11
115.433210
21
451.396898
0
LINE
8
annotation
62
1
39
211
10
115.433210
20
451.396898
11
115.318211
21
450.829098
0
LINE
8
annotation
62
1
39
211
10
115.318211
20
450.829098
11
115.260711
21
450.254488
0
LINE
8
annotation
62
1
39
211
10
115.260711
20
450.254488
11
115.260711
21
449.677507
0
LINE
8
annotation
62
1
39
211
10
115.260711
20
449.677507
11
115.318211
21
449.102591
0
LINE
8
annotation
62
1
39
211
10
115.318211
20
449.102591
11
115.433210
21
448.534178
0
LINE
8
annotation
62
1
39
211
10
115.433210
20
448.534178
11
115.605709
21
447.976706
0
LINE
8
annotation
62
1
39
211
10
115.605709
20
447.976706
11
115.835707
21
447.434614
0
LINE
8
annotation
62
1
39
211
10
115.835707
20
447.434614
11
115.835707
21
447.434614
0
LINE
8
annotation
62
1
39
211
10
115.835707
20
447.434614
11
115.864991
21
447.380025
0
LINE
8
annotation
62
1
39
211
10
115.864991
20
447.380025
11
115.898066
21
447.327992
0
LINE
8
annotation
62
1
39
211
10
115.898066
20
447.327992
11
115.934792
21
447.278671
0
LINE
8
annotation
62
1
39
211
10
115.934792
20
447.278671
11
115.975029
21
447.232221
0
LINE
8
annotation
62
1
39
211
10
115.975029
20
447.232221
11
116.018640
21
447.188800
0
LINE
8
annotation
62
1
39
211
10
116.018640
20
447.188800
11
116.065483
21
447.148565
0
LINE
8
annotation
62
1
39
211
10
116.065483
20
447.148565
11
116.115420
21
447.111675
0
LINE
8
annotation
62
1
39
211
10
116.115420
20
447.111675
11
116.168311
21
447.078288
0
LINE
8
annotation
62
1
39
211
10
116.168311
20
447.078288
11
116.224018
21
447.048561
0
LINE
8
annotation
62
1
39
211
10
19.587312
20
348.636300
11
19.587312
21
349.968672
0
LINE
8
annotation
62
1
39
211
10
19.587312
20
349.968672
11
19.587312
21
349.968672
0
LINE
8
annotation
62
1
39
211
10
19.587312
20
349.968672
11
19.565815
21
350.208302
0
LINE
8
annotation
62
1
39
211
10
19.565815
20
350.208302
11
19.503861
21
350.433786
0
LINE
8
annotation
62
1
39
211
10
19.503861
20
350.433786
11
19.405253
21
350.641373
0
LINE
8
annotation
62
1
39
211
10
19.405253
20
350.641373
11
19.273793
21
350.827312
0
LINE
8
annotation
62
1
39
211
10
19.273793
20
350.827312
11
19.113284
21
350.987855
0
LINE
8
annotation
62
1
39
211
10
19.113284
20
350.987855
11
18.927530
21
351.119249
0
LINE
8
annotation
62
1
39
211
10
18.927530
20
351.119249
11
18.720332
21
351.217746
0
LINE
8
annotation
62
1
39
211
10
18.720332
20
351.217746
11
18.495495
21
351.279594
0
LINE
8
annotation
62
1
39
211
10
18.495495
20
351.279594
11
18.256821
21
351.301043
0
LINE
8
annotation
62
1
39
211
10
18.256821
20
351.301043
11
17.589695
21
351.301043
0
LINE
8
annotation
62
1
39
211
10
17.589695
20
351.301043
11
17.589695
21
351.301043
0
LINE
8
annotation
62
1
39
211
10
17.589695
20
351.301043
11
17.351120
21
351.279594
0
LINE
8
annotation
62
1
39
211
10
17.351120
20
351.279594
11
17.126336
21
351.217746
0
LINE
8
annotation
62
1
39
211
10
17.126336
20
351.217746
11
16.919154
21
351.119249
0
LINE
8
annotation
62
1
39
211
10
16.919154
20
351.119249
11
16.733387
21
350.987855
0
LINE
8
annotation
62
1
39
211
10
16.733387
20
350.987855
11
16.572847
21
350.827312
0
LINE
8
annotation
62
1
39
211
10
16.572847
20
350.827312
11
16.441347
21
350.641373
0
LINE
8
annotation
62
1
39
211
10
16.441347
20
350.641373
11
16.342698
21
350.433786
0
LINE
8
annotation
62
1
39
211
10
16.342698
20
350.433786
11
16.280713
21
350.208302
0
LINE
8
annotation
62
1
39
211
10
16.280713
20
350.208302
11
16.259205
21
349.968672
0
LINE
8
annotation
62
1
39
211
10
16.259205
20
349.968672
11
16.259205
21
349.301545
0
LINE
8
annotation
62
1
39
211
10
16.259205
20
349.301545
11
16.259205
21
349.968672
0
LINE
8
annotation
62
1
39
211
10
16.259205
20
349.968672
11
16.259205
21
349.968672
0
LINE
8
annotation
62
1
39
211
10
16.259205
20
349.968672
11
16.237691
21
350.208302
0
LINE
8
annotation
62
1
39
211
10
16.237691
20
350.208302
11
16.175669
21
350.433786
0
LINE
8
annotation
62
1
39
211
10
16.175669
20
350.433786
11
16.076923
21
350.641373
0
LINE
8
annotation
62
1
39
211
10
16.076923
20
350.641373
11
15.945231
21
350.827312
0
LINE
8
annotation
62
1
39
211
10
15.945231
20
350.827312
11
15.784377
21
350.987855
0
LINE
8
annotation
62
1
39
211
10
15.784377
20
350.987855
11
15.598140
21
351.119249
0
LINE
8
annotation
62
1
39
211
10
15.598140
20
351.119249
11
15.390303
21
351.217746
0
LINE
8
annotation
62
1
39
211
10
15.390303
20
351.217746
11
15.164646
21
351.279594
0
LINE
8
annotation
62
1
39
211
10
15.164646
20
351.279594
11
14.924951
21
351.301043
0
LINE
8
annotation
62
1
39
211
10
14.924951
20
351.301043
11
14.924951
21
351.301043
0
LINE
8
annotation
62
1
39
211
10
14.924951
20
351.301043
11
14.686377
21
351.279594
0
LINE
8
annotation
62
1
39
211
10
14.686377
20
351.279594
11
14.461592
21
351.217746
0
LINE
8
annotation
62
1
39
211
10
14.461592
20
351.217746
11
14.254411
21
351.119249
0
LINE
8
annotation
62
1
39
211
10
14.254411
20
351.119249
11
14.068644
21
350.987855
0
LINE
8
annotation
62
1
39
211
10
14.068644
20
350.987855
11
13.908104
21
350.827312
0
LINE
8
annotation
62
1
39
211
10
13.908104
20
350.827312
11
13.776604
21
350.641373
0
LINE
8
annotation
62
1
39
211
10
13.776604
20
350.641373
11
13.677955
21
350.433786
0
LINE
8
annotation
62
1
39
211
10
13.677955
20
350.433786
11
13.615970
21
350.208302
0
LINE
8
annotation
62
1
39
211
10
13.615970
20
350.208302
11
13.594461
21
349.968672
0
LINE
8
annotation
62
1
39
211
10
13.594461
20
349.968672
11
13.594461
21
348.636300
0
LINE
8
hole
62
5
39
2
10
12.081328
20
560.243751
11
12.302308
21
580.242530
0
LINE
8
hole
62
5
39
2
10
12.302308
20
580.242530
11
13.302247
21
580.231481
0
LINE
8
hole
62
5
39
2
10
13.302247
20
580.231481
11
13.081267
21
560.232702
0
LINE
8
hole
62
5
39
2
10
13.081267
20
560.232702
11
12.081328
21
560.243751
0
LINE
8
hole
62
5
39
2
10
7.081634
20
560.298996
11
7.302614
21
580.297775
0
LINE
8
hole
62
5
39
2
10
7.302614
20
580.297775
11
8.302552
21
580.286726
0
LINE
8
hole
62
5
39
2
10
8.302552
20
580.286726
11
8.081573
21
560.287947
0
LINE
8
hole
62
5
39
2
10
8.081573
20
560.287947
11
7.081634
21
560.298996
0
LINE
8
hole
62
5
39
2
10
93.742077
20
664.847862
11
113.740856
21
664.626883
0
LINE
8
hole
62
5
39
2
10
113.740856
20
664.626883
11
113.729807
21
663.626944
0
LINE
8
hole
62
5
39
2
10
113.729807
20
663.626944
11
93.731028
21
663.847924
0
LINE
8
hole
62
5
39
2
10
93.731028
20
663.847924
11
93.742077
21
664.847862
0
LINE
8
hole
62
5
39
2
10
111.685745
20
478.638247
11
91.686966
21
478.859227
0
LINE
8
hole
62
5
39
2
10
91.686966
20
478.859227
11
91.698015
21
479.859166
0
LINE
8
hole
62
5
39
2
10
91.698015
20
479.859166
11
111.696794
21
479.638186
0
LINE
8
hole
62
5
39
2
10
111.696794
20
479.638186
11
111.685745
21
478.638247
0
LINE
8
hole
62
5
39
2
10
111.630500
20
473.638552
11
91.631721
21
473.859532
0
LINE
8
hole
62
5
39
2
10
91.631721
20
473.859532
11
91.642770
21
474.859471
0
LINE
8
hole
62
5
39
2
10
91.642770
20
474.859471
11
111.641549
21
474.638491
0
LINE
8
hole
62
5
39
2
10
111.641549
20
474.638491
11
111.630500
21
473.638552
0
LINE
8
hole
62
5
39
2
10
93.686832
20
659.848168
11
113.685611
21
659.627188
0
LINE
8
hole
62
5
39
2
10
113.685611
20
659.627188
11
113.674562
21
658.627249
0
LINE
8
hole
62
5
39
2
10
113.674562
20
658.627249
11
93.675783
21
658.848228
0
LINE
8
hole
62
5
39
2
10
93.675783
20
658.848228
11
93.686832
21
659.848168
0
LINE
8
boundary
62
5
39
2
10
203.785078
20
668.132200
11
3.797296
21
670.341996
0
LINE
8
boundary
62
5
39
2
10
3.797296
20
670.341996
11
1.587500
21
470.354215
0
LINE
8
boundary
62
5
39
2
10
1.587500
20
470.354215
11
201.575281
21
468.144419
0
LINE
8
boundary
62
5
39
2
10
201.575281
20
468.144419
11
202.569689
21
558.138919
0
LINE
8
boundary
62
5
39
2
10
202.569689
20
558.138919
11
217.568774
21
557.973185
0
LINE
8
boundary
62
5
39
2
10
217.568774
20
557.973185
11
217.789753
21
577.971964
0
LINE
8
boundary
62
5
39
2
10
217.789753
20
577.971964
11
202.790669
21
578.137699
0
LINE
8
boundary
62
5
39
2
10
202.790669
20
578.137699
11
203.785078
21
668.132200
0
LINE
8
annotation
62
1
39
211
10
88.221732
20
532.892191
11
66.011986
21
555.598242
0
LINE
8
annotation
62
1
39
211
10
66.011986
20
555.598242
11
120.311452
21
567.655751
0
LINE
8
annotation
62
1
39
211
10
120.311452
20
567.655751
11
120.311452
21
567.655751
0
LINE
8
annotation
62
1
39
211
10
120.311452
20
567.655751
11
120.367022
21
567.661028
0
LINE
8
annotation
62
1
39
211
10
120.367022
20
567.661028
11
120.421850
21
567.667591
0
LINE
8
annotation
62
1
39
211
10
120.421850
20
567.667591
11
120.476354
21
567.675542
0
LINE
8
annotation
62
1
39
211
10
120.476354
20
567.675542
11
120.530953
21
567.684980
0
LINE
8
annotation
62
1
39
211
10
120.530953
20
567.684980
11
120.586065
21
567.696004
0
LINE
8
annotation
62
1
39
211
10
120.586065
20
567.696004
11
120.642109
21
567.708715
0
LINE
8
annotation
62
1
39
211
10
120.642109
20
567.708715
11
120.699504
21
567.723211
0
LINE
8
annotation
62
1
39
211
10
120.699504
20
567.723211
11
120.758669
21
567.739594
0
LINE
8
annotation
62
1
39
211
10
120.758669
20
567.739594
11
120.820023
21
567.757963
0
LINE
8
annotation
62
1
39
211
10
120.820023
20
567.757963
11
120.820023
21
567.757963
0
LINE
8
annotation
62
1
39
211
10
120.820023
20
567.757963
11
123.527426
21
568.711033
0
LINE
8
annotation
62
1
39
211
10
123.527426
20
568.711033
11
125.950533
21
570.090895
0
LINE
8
annotation
62
1
39
211
10
125.950533
20
570.090895
11
128.057908
21
571.842533
0
LINE
8
annotation
62
1
39
211
10
128.057908
20
571.842533
11
129.818116
21
573.910929
0
LINE
8
annotation
62
1
39
211
10
129.818116
20
573.910929
11
131.199721
21
576.241067
0
LINE
8
annotation
62
1
39
211
10
131.199721
20
576.241067
11
132.171287
21
578.777929
0
LINE
8
annotation
62
1
39
211
10
132.171287
20
578.777929
11
132.701380
21
581.466499
0
LINE
8
annotation
62
1
39
211
10
132.701380
20
581.466499
11
132.758564
21
584.251759
0
LINE
8
annotation
62
1
39
211
10
132.758564
20
584.251759
11
132.311403
21
587.078692
0
LINE
8
annotation
62
1
39
211
10
132.311403
20
587.078692
11
132.311403
21
587.078692
0
LINE
8
annotation
62
1
39
211
10
132.311403
20
587.078692
11
131.340964
21
589.779226
0
LINE
8
annotation
62
1
39
211
10
131.340964
20
589.779226
11
129.950413
21
592.197661
0
LINE
8
annotation
62
1
39
211
10
129.950413
20
592.197661
11
128.193193
21
594.301796
0
LINE
8
annotation
62
1
39
211
10
128.193193
20
594.301796
11
126.122745
21
596.059429
0
LINE
8
annotation
62
1
39
211
10
126.122745
20
596.059429
11
123.792512
21
597.438359
0
LINE
8
annotation
62
1
39
211
10
123.792512
20
597.438359
11
121.255937
21
598.406386
0
LINE
8
annotation
62
1
39
211
10
121.255937
20
598.406386
11
118.566462
21
598.931308
0
LINE
8
annotation
62
1
39
211
10
118.566462
20
598.931308
11
115.777529
21
598.980923
0
LINE
8
annotation
62
1
39
211
10
115.777529
20
598.980923
11
112.942582
21
598.523031
0
LINE
8
annotation
62
1
39
211
10
112.942582
20
598.523031
11
108.624405
21
597.216510
0
LINE
8
annotation
62
1
39
211
10
5.706977
20
571.646496
11
5.677534
21
568.981915
0
LINE
8
annotation
62
1
39
211
10
5.677534
20
568.981915
11
1.740979
21
571.487874
0
LINE
8
annotation
62
1
39
211
10
1.740979
20
571.487874
11
1.740979
21
571.487874
0
LINE
8
annotation
62
1
39
211
10
1.740979
20
571.487874
11
1.737369
21
571.490857
0
LINE
8
annotation
62
1
39
211
10
1.737369
20
571.490857
11
1.733727
21
571.493720
0
LINE
8
annotation
62
1
39
211
10
1.733727
20
571.493720
11
1.730022
21
571.496482
0
LINE
8
annotation
62
1
39
211
10
1.730022
20
571.496482
11
1.726223
21
571.499161
0
LINE
8
annotation
62
1
39
211
10
1.726223
20
571.499161
11
1.722299
21
571.501777
0
LINE
8
annotation
62
1
39
211
10
1.722299
20
571.501777
11
1.718221
21
571.504347
0
LINE
8
annotation
62
1
39
211
10
1.718221
20
571.504347
11
1.713956
21
571.506892
0
LINE
8
annotation
62
1
39
211
10
1.713956
20
571.506892
11
1.709474
21
571.509430
0
LINE
8
annotation
62
1
39
211
10
1.709474
20
571.509430
11
1.704744
21
571.511980
0
LINE
8
annotation
62
1
39
211
10
1.704744
20
571.511980
11
1.704744
21
571.511980
0
LINE
8
annotation
62
1
39
211
10
1.704744
20
571.511980
11
1.487591
21
571.616054
0
LINE
8
annotation
62
1
39
211
10
1.487591
20
571.616054
11
1.261984
21
571.677944
0
LINE
8
annotation
62
1
39
211
10
1.261984
20
571.677944
11
1.033052
21
571.699047
0
LINE
8
annotation
62
1
39
211
10
1.033052
20
571.699047
11
0.805924
21
571.680764
0
LINE
8
annotation
62
1
39
211
10
0.805924
20
571.680764
11
0.585729
21
571.624494
0
LINE
8
annotation
62
1
39
211
10
0.585729
20
571.624494
11
0.377595
21
571.531634
0
LINE
8
annotation
62
1
39
211
10
0.377595
20
571.531634
11
0.186652
21
571.403585
0
LINE
8
annotation
62
1
39
211
10
0.186652
20
571.403585
11
0.018027
21
571.241745
0
LINE
8
annotation
62
1
39
211
10
0.018027
20
571.241745
11
-0.123150
21
571.047513
0
LINE
8
annotation
62
1
39
211
10
-0.123150
20
571.047513
11
-0.123150
21
571.047513
0
LINE
8
annotation
62
1
39
211
10
-0.123150
20
571.047513
11
-0.225786
21
570.829736
0
LINE
8
annotation
62
1
39
211
10
-0.225786
20
570.829736
11
-0.286765
21
570.603772
0
LINE
8
annotation
62
1
39
211
10
-0.286765
20
570.603772
11
-0.307345
21
570.374702
0
LINE
8
annotation
62
1
39
211
10
-0.307345
20
570.374702
11
-0.288787
21
570.147605
0
LINE
8
annotation
62
1
39
211
10
-0.288787
20
570.147605
11
-0.232353
21
569.927563
0
LINE
8
annotation
62
1
39
211
10
-0.232353
20
569.927563
11
-0.139300
21
569.719656
0
LINE
8
annotation
62
1
39
211
10
-0.139300
20
569.719656
11
-0.010890
21
569.528965
0
LINE
8
annotation
62
1
39
211
10
-0.010890
20
569.528965
11
0.151617
21
569.360572
0
LINE
8
annotation
62
1
39
211
10
0.151617
20
569.360572
11
0.346961
21
569.219555
0
LINE
8
annotation
62
1
39
211
10
0.346961
20
569.219555
11
0.680640
21
569.040892
0
LINE
8
annotation
62
1
39
211
10
99.934906
20
470.933735
11
103.266197
21
470.896925
0
LINE
8
annotation
62
1
39
211
10
103.266197
20
470.896925
11
101.884232
21
466.245787
0
LINE
8
annotation
62
1
39
211
10
100.948204
20
472.256497
11
100.918761
21
469.591916
0
LINE
8
annotation
62
1
39
211
10
199.763516
20
568.534036
11
199.763516
21
568.534036
0
LINE
8
annotation
62
1
39
211
10
199.763516
20
568.534036
11
199.709849
21
568.395173
0
LINE
8
annotation
62
1
39
211
10
199.709849
20
568.395173
11
199.682372
21
568.252453
0
LINE
8
annotation
62
1
39
211
10
199.682372
20
568.252453
11
199.680064
21
568.109120
0
LINE
8
annotation
62
1
39
211
10
199.680064
20
568.109120
11
199.701905
21
567.968419
0
LINE
8
annotation
62
1
39
211
10
199.701905
20
567.968419
11
199.746874
21
567.833595
0
LINE
8
annotation
62
1
39
211
10
199.746874
20
567.833595
11
199.813953
21
567.707892
0
LINE
8
annotation
62
1
39
211
10
199.813953
20
567.707892
11
199.902119
21
567.594555
0
LINE
8
annotation
62
1
39
211
10
199.902119
20
567.594555
11
200.010354
21
567.496828
0
LINE
8
annotation
62
1
39
211
10
200.010354
20
567.496828
11
200.137636
21
567.417957
0
LINE
8
annotation
62
1
39
211
10
200.137636
20
567.417957
11
200.137636
21
567.417957
0
LINE
8
annotation
62
1
39
211
10
200.137636
20
567.417957
11
200.676027
21
567.180880
0
LINE
8
annotation
62
1
39
211
10
200.676027
20
567.180880
11
201.230713
21
567.001406
0
LINE
8
annotation
62
1
39
211
10
201.230713
20
567.001406
11
201.797257
21
566.879582
0
LINE
8
annotation
62
1
39
211
10
201.797257
20
566.879582
11
202.371221
21
566.815458
0
LINE
8
annotation
62
1
39
211
10
202.371221
20
566.815458
11
202.948168
21
566.809083
0
LINE
8
annotation
62
1
39
211
10
202.948168
20
566.809083
11
203.523659
21
566.860506
0
LINE
8
annotation
62
1
39
211
10
203.523659
20
566.860506
11
204.093258
21
566.969775
0
LINE
8
annotation
62
1
39
211
10
204.093258
20
566.969775
11
204.652527
21
567.136941
0
LINE
8
annotation
62
1
39
211
10
204.652527
20
567.136941
11
205.197029
21
567.362052
0
LINE
8
annotation
62
1
39
211
10
205.197029
20
567.362052
11
205.197029
21
567.362052
0
LINE
8
annotation
62
1
39
211
10
205.197029
20
567.362052
11
205.252048
21
567.390837
0
LINE
8
annotation
62
1
39
211
10
205.252048
20
567.390837
11
205.304707
21
567.423578
0
LINE
8
annotation
62
1
39
211
10
205.304707
20
567.423578
11
205.354747
21
567.460027
0
LINE
8
annotation
62
1
39
211
10
205.354747
20
567.460027
11
205.401907
21
567.499937
0
LINE
8
annotation
62
1
39
211
10
205.401907
20
567.499937
11
205.445929
21
567.543058
0
LINE
8
annotation
62
1
39
211
10
205.445929
20
567.543058
11
205.486552
21
567.589144
0
LINE
8
annotation
62
1
39
211
10
205.486552
20
567.589144
11
205.523516
21
567.637947
0
LINE
8
annotation
62
1
39
211
10
205.523516
20
567.637947
11
205.556562
21
567.689217
0
LINE
8
annotation
62
1
39
211
10
205.556562
20
567.689217
11
205.585430
21
567.742708
0
LINE
8
annotation
62
1
39
211
10
205.585430
20
567.742708
11
205.585430
21
567.742708
0
LINE
8
annotation
62
1
39
211
10
205.585430
20
567.742708
11
205.640239
21
567.882666
0
LINE
8
annotation
62
1
39
211
10
205.640239
20
567.882666
11
205.668610
21
568.026214
0
LINE
8
annotation
62
1
39
211
10
205.668610
20
568.026214
11
205.671571
21
568.170145
0
LINE
8
annotation
62
1
39
211
10
205.671571
20
568.170145
11
205.650149
21
568.311251
0
LINE
8
annotation
62
1
39
211
10
205.650149
20
568.311251
11
205.605371
21
568.446326
0
LINE
8
annotation
62
1
39
211
10
205.605371
20
568.446326
11
205.538263
21
568.572161
0
LINE
8
annotation
62
1
39
211
10
205.538263
20
568.572161
11
205.449851
21
568.685549
0
LINE
8
annotation
62
1
39
211
10
205.449851
20
568.685549
11
205.341164
21
568.783282
0
LINE
8
annotation
62
1
39
211
10
205.341164
20
568.783282
11
205.213228
21
568.862153
0
LINE
8
annotation
62
1
39
211
10
205.213228
20
568.862153
11
205.213228
21
568.862153
0
LINE
8
annotation
62
1
39
211
10
205.213228
20
568.862153
11
204.674936
21
569.098113
0
LINE
8
annotation
62
1
39
211
10
204.674936
20
569.098113
11
204.120324
21
569.276751
0
LINE
8
annotation
62
1
39
211
10
204.120324
20
569.276751
11
203.553830
21
569.398017
0
LINE
8
annotation
62
1
39
211
10
203.553830
20
569.398017
11
202.979891
21
569.461862
0
LINE
8
annotation
62
1
39
211
10
202.979891
20
569.461862
11
202.402944
21
569.468237
0
LINE
8
annotation
62
1
39
211
10
202.402944
20
569.468237
11
201.827428
21
569.417093
0
LINE
8
annotation
62
1
39
211
10
201.827428
20
569.417093
11
201.257779
21
569.308381
0
LINE
8
annotation
62
1
39
211
10
201.257779
20
569.308381
11
200.698436
21
569.142052
0
LINE
8
annotation
62
1
39
211
10
200.698436
20
569.142052
11
200.153835
21
568.918057
0
LINE
8
annotation
62
1
39
211
10
200.153835
20
568.918057
11
200.153835
21
568.918057
0
LINE
8
annotation
62
1
39
211
10
200.153835
20
568.918057
11
200.098927
21
568.889378
0
LINE
8
annotation
62
1
39
211
10
200.098927
20
568.889378
11
200.046531
21
568.856881
0
LINE
8
annotation
62
1
39
211
10
200.046531
20
568.856881
11
199.996807
21
568.820702
0
LINE
8
annotation
62
1
39
211
10
199.996807
20
568.820702
11
199.949915
21
568.780980
0
LINE
8
annotation
62
1
39
211
10
199.949915
20
568.780980
11
199.906015
21
568.737852
0
LINE
8
annotation
62
1
39
211
10
199.906015
20
568.737852
11
199.865265
21
568.691457
0
LINE
8
annotation
62
1
39
211
10
199.865265
20
568.691457
11
199.827826
21
568.641930
0
LINE
8
annotation
62
1
39
211
10
199.827826
20
568.641930
11
199.793856
21
568.589411
0
LINE
8
annotation
62
1
39
211
10
199.793856
20
568.589411
11
199.763516
21
568.534036
0
LINE
8
annotation
62
1
39
211
10
102.424997
20
666.252011
11
103.757287
21
666.237289
0
LINE
8
annotation
62
1
39
211
10
103.757287
20
666.237289
11
103.757287
21
666.237289
0
LINE
8
annotation
62
1
39
211
10
103.757287
20
666.237289
11
103.996645
21
666.256147
0
LINE
8
annotation
62
1
39
211
10
103.996645
20
666.256147
11
104.222537
21
666.315641
0
LINE
8
annotation
62
1
39
211
10
104.222537
20
666.315641
11
104.431124
21
666.412039
0
LINE
8
annotation
62
1
39
211
10
104.431124
20
666.412039
11
104.618569
21
666.541608
0
LINE
8
annotation
62
1
39
211
10
104.618569
20
666.541608
11
104.781033
21
666.700615
0
LINE
8
annotation
62
1
39
211
10
104.781033
20
666.700615
11
104.914678
21
666.885327
0
LINE
8
annotation
62
1
39
211
10
104.914678
20
666.885327
11
105.015665
21
667.092011
0
LINE
8
annotation
62
1
39
211
10
105.015665
20
667.092011
11
105.080158
21
667.316934
0
LINE
8
annotation
62
1
39
211
10
105.080158
20
667.316934
11
105.104316
21
667.556363
0
LINE
8
annotation
62
1
39
211
10
105.104316
20
667.556363
11
105.111650
21
668.220063
0
LINE
8
annotation
62
1
39
211
10
105.111650
20
668.220063
11
105.111650
21
668.220063
0
LINE
8
annotation
62
1
39
211
10
105.111650
20
668.220063
11
105.092799
21
668.459852
0
LINE
8
annotation
62
1
39
211
10
105.092799
20
668.459852
11
105.033320
21
668.685833
0
LINE
8
annotation
62
1
39
211
10
105.033320
20
668.685833
11
104.936959
21
668.894247
0
LINE
8
annotation
62
1
39
211
10
104.936959
20
668.894247
11
104.807463
21
669.081333
0
LINE
8
annotation
62
1
39
211
10
104.807463
20
669.081333
11
104.648577
21
669.243328
0
LINE
8
annotation
62
1
39
211
10
104.648577
20
669.243328
11
104.464047
21
669.376473
0
LINE
8
annotation
62
1
39
211
10
104.464047
20
669.376473
11
104.257621
21
669.477006
0
LINE
8
annotation
62
1
39
211
10
104.257621
20
669.477006
11
104.033043
21
669.541167
0
LINE
8
annotation
62
1
39
211
10
104.033043
20
669.541167
11
103.794060
21
669.565194
0
LINE
8
annotation
62
1
39
211
10
103.794060
20
669.565194
11
102.461769
21
669.579915
0
LINE
8
annotation
62
1
39
211
10
102.461769
20
669.579915
11
102.491291
21
672.251644
0
LINE
8
annotation
62
1
39
211
10
102.491291
20
672.251644
11
105.155872
21
672.222202
0
LINE
8
hole
62
5
39
2
10
341.073437
20
193.291249
11
361.072217
21
193.070269
0
LINE
8
hole
62
5
39
2
10
361.072217
20
193.070269
11
361.061168
21
192.070331
0
LINE
8
hole
62
5
39
2
10
361.061168
20
192.070331
11
341.062389
21
192.291310
0
LINE
8
hole
62
5
39
2
10
341.062389
20
192.291310
11
341.073437
21
193.291249
0
LINE
8
hole
62
5
39
2
10
341.128683
20
198.290944
11
361.127462
21
198.069964
0
LINE
8
hole
62
5
39
2
10
361.127462
20
198.069964
11
361.116413
21
197.070025
0
LINE
8
hole
62
5
39
2
10
361.116413
20
197.070025
11
341.117634
21
197.291005
0
LINE
8
hole
62
5
39
2
10
341.117634
20
197.291005
11
341.128683
21
198.290944
0
LINE
8
hole
62
5
39
2
10
359.017106
20
7.081634
11
339.018327
21
7.302614
0
LINE
8
hole
62
5
39
2
10
339.018327
20
7.302614
11
339.029376
21
8.302552
0
LINE
8
hole
62
5
39
2
10
339.029376
20
8.302552
11
359.028154
21
8.081573
0
LINE
8
hole
62
5
39
2
10
359.028154
20
8.081573
11
359.017106
21
7.081634
0
LINE
8
hole
62
5
39
2
10
359.072351
20
12.081329
11
339.073572
21
12.302308
0
LINE
8
hole
62
5
39
2
10
339.073572
20
12.302308
11
339.084621
21
13.302247
0
LINE
8
hole
62
5
39
2
10
339.084621
20
13.302247
11
359.083400
21
13.081268
0
LINE
8
hole
62
5
39
2
10
359.083400
20
13.081268
11
359.072351
21
12.081329
0
LINE
8
boundary
62
5
39
2
10
451.171683
20
201.575281
11
251.183902
21
203.785078
0
LINE
8
boundary
62
5
39
2
10
251.183902
20
203.785078
11
250.189494
21
113.790577
0
LINE
8
boundary
62
5
39
2
10
250.189494
20
113.790577
11
235.190409
21
113.956312
0
LINE
8
boundary
62
5
39
2
10
235.190409
20
113.956312
11
234.969429
21
93.957532
0
LINE
8
boundary
62
5
39
2
10
234.969429
20
93.957532
11
249.968514
21
93.791798
0
LINE
8
boundary
62
5
39
2
10
249.968514
20
93.791798
11
248.974105
21
3.797297
0
LINE
8
boundary
62
5
39
2
10
248.974105
20
3.797297
11
448.961886
21
1.587500
0
LINE
8
boundary
62
5
39
2
10
448.961886
20
1.587500
11
449.956295
21
91.582001
0
LINE
8
boundary
62
5
39
2
10
449.956295
20
91.582001
11
464.955380
21
91.416266
0
LINE
8
boundary
62
5
39
2
10
464.955380
20
91.416266
11
465.176359
21
111.415045
0
LINE
8
boundary
62
5
39
2
10
465.176359
20
111.415045
11
450.177274
21
111.580780
0
LINE
8
boundary
62
5
39
2
10
450.177274
20
111.580780
11
451.171683
21
201.575281
0
LINE
8
annotation
62
1
39
211
10
349.753173
20
74.612436
11
321.986287
21
102.999808
0
LINE
8
annotation
62
1
39
211
10
321.986287
20
102.999808
11
372.835113
21
130.553390
0
LINE
8
annotation
62
1
39
211
10
330.064157
20
72.004177
11
352.770207
21
94.213923
0
LINE
8
annotation
62
1
39
211
10
253.093582
20
105.089578
11
253.064140
21
102.424997
0
LINE
8
annotation
62
1
39
211
10
253.064140
20
102.424997
11
249.127584
21
104.930955
0
LINE
8
annotation
62
1
39
211
10
249.127584
20
104.930955
11
249.127584
21
104.930955
0
LINE
8
annotation
62
1
39
211
10
249.127584
20
104.930955
11
249.123974
21
104.933939
0
LINE
8
annotation
62
1
39
211
10
249.123974
20
104.933939
11
249.120332
21
104.936802
0
LINE
8
annotation
62
1
39
211
10
249.120332
20
104.936802
11
249.116627
21
104.939564
0
LINE
8
annotation
62
1
39
211
10
249.116627
20
104.939564
11
249.112828
21
104.942243
0
LINE
8
annotation
62
1
39
211
10
249.112828
20
104.942243
11
249.108905
21
104.944858
0
LINE
8
annotation
62
1
39
211
10
249.108905
20
104.944858
11
249.104826
21
104.947429
0
LINE
8
annotation
62
1
39
211
10
249.104826
20
104.947429
11
249.100561
21
104.949974
0
LINE
8
annotation
62
1
39
211
10
249.100561
20
104.949974
11
249.096079
21
104.952512
0
LINE
8
annotation
62
1
39
211
10
249.096079
20
104.952512
11
249.091350
21
104.955062
0
LINE
8
annotation
62
1
39
211
10
249.091350
20
104.955062
11
249.091350
21
104.955062
0
LINE
8
annotation
62
1
39
211
10
249.091350
20
104.955062
11
248.874196
21
105.059136
0
LINE
8
annotation
62
1
39
211
10
248.874196
20
105.059136
11
248.648589
21
105.121025
0
LINE
8
annotation
62
1
39
211
10
248.648589
20
105.121025
11
248.419658
21
105.142129
0
LINE
8
annotation
62
1
39
211
10
248.419658
20
105.142129
11
248.192530
21
105.123846
0
LINE
8
annotation
62
1
39
211
10
248.192530
20
105.123846
11
247.972335
21
105.067575
0
LINE
8
annotation
62
1
39
211
10
247.972335
20
105.067575
11
247.764201
21
104.974716
0
LINE
8
annotation
62
1
39
211
10
247.764201
20
104.974716
11
247.573257
21
104.846667
0
LINE
8
annotation
62
1
39
211
10
247.573257
20
104.846667
11
247.404633
21
104.684826
0
LINE
8
annotation
62
1
39
211
10
247.404633
20
104.684826
11
247.263455
21
104.490594
0
LINE
8
annotation
62
1
39
211
10
247.263455
20
104.490594
11
247.263455
21
104.490594
0
LINE
8
annotation
62
1
39
211
10
247.263455
20
104.490594
11
247.160819
21
104.272818
0
LINE
8
annotation
62
1
39
211
10
247.160819
20
104.272818
11
247.099841
21
104.046854
0
LINE
8
annotation
62
1
39
211
10
247.099841
20
104.046854
11
247.079261
21
103.817783
0
LINE
8
annotation
62
1
39
211
10
247.079261
20
103.817783
11
247.097818
21
103.590686
0
LINE
8
annotation
62
1
39
211
10
247.097818
20
103.590686
11
247.154253
21
103.370644
0
LINE
8
annotation
62
1
39
211
10
247.154253
20
103.370644
11
247.247305
21
103.162738
0
LINE
8
annotation
62
1
39
211
10
247.247305
20
103.162738
11
247.375715
21
102.972047
0
LINE
8
annotation
62
1
39
211
10
247.375715
20
102.972047
11
247.538222
21
102.803653
0
LINE
8
annotation
62
1
39
211
10
247.538222
20
102.803653
11
247.733566
21
102.662637
0
LINE
8
annotation
62
1
39
211
10
247.733566
20
102.662637
11
248.067246
21
102.483974
0
LINE
8
annotation
62
1
39
211
10
350.334186
20
5.677486
11
349.001895
21
5.692207
0
LINE
8
annotation
62
1
39
211
10
349.001895
20
5.692207
11
349.001895
21
5.692207
0
LINE
8
annotation
62
1
39
211
10
349.001895
20
5.692207
11
348.762538
21
5.673349
0
LINE
8
annotation
62
1
39
211
10
348.762538
20
5.673349
11
348.536646
21
5.613855
0
LINE
8
annotation
62
1
39
211
10
348.536646
20
5.613855
11
348.328059
21
5.517457
0
LINE
8
annotation
62
1
39
211
10
348.328059
20
5.517457
11
348.140614
21
5.387888
0
LINE
8
annotation
62
1
39
211
10
348.140614
20
5.387888
11
347.978150
21
5.228882
0
LINE
8
annotation
62
1
39
211
10
347.978150
20
5.228882
11
347.844505
21
5.044170
0
LINE
8
annotation
62
1
39
211
10
347.844505
20
5.044170
11
347.743517
21
4.837486
0
LINE
8
annotation
62
1
39
211
10
347.743517
20
4.837486
11
347.679025
21
4.612562
0
LINE
8
annotation
62
1
39
211
10
347.679025
20
4.612562
11
347.654867
21
4.373133
0
LINE
8
annotation
62
1
39
211
10
347.654867
20
4.373133
11
347.647533
21
3.709433
0
LINE
8
annotation
62
1
39
211
10
347.647533
20
3.709433
11
347.647533
21
3.709433
0
LINE
8
annotation
62
1
39
211
10
347.647533
20
3.709433
11
347.666384
21
3.469645
0
LINE
8
annotation
62
1
39
211
10
347.666384
20
3.469645
11
347.725863
21
3.243663
0
LINE
8
annotation
62
1
39
211
10
347.725863
20
3.243663
11
347.822223
21
3.035249
0
LINE
8
annotation
62
1
39
211
10
347.822223
20
3.035249
11
347.951720
21
2.848164
0
LINE
8
annotation
62
1
39
211
10
347.951720
20
2.848164
11
348.110606
21
2.686168
0
LINE
8
annotation
62
1
39
211
10
348.110606
20
2.686168
11
348.295135
21
2.553023
0
LINE
8
annotation
62
1
39
211
10
348.295135
20
2.553023
11
348.501562
21
2.452490
0
LINE
8
annotation
62
1
39
211
10
348.501562
20
2.452490
11
348.726140
21
2.388330
0
LINE
8
annotation
62
1
39
211
10
348.726140
20
2.388330
11
348.965123
21
2.364303
0
LINE
8
annotation
62
1
39
211
10
348.965123
20
2.364303
11
350.297413
21
2.349581
0
LINE
8
annotation
62
1
39
211
10
350.297413
20
2.349581
11
350.267892
21
-0.322148
0
LINE
8
annotation
62
1
39
211
10
350.267892
20
-0.322148
11
347.603311
21
-0.292705
0
LINE
8
annotation
62
1
39
211
10
447.150121
20
101.977118
11
447.150121
21
101.977118
0
LINE
8
annotation
62
1
39
211
10
447.150121
20
101.977118
11
447.096454
21
101.838255
0
LINE
8
annotation
62
1
39
211
10
447.096454
20
101.838255
11
447.068977
21
101.695534
0
LINE
8
annotation
62
1
39
211
10
447.068977
20
101.695534
11
447.066669
21
101.552202
0
LINE
8
annotation
62
1
39
211
10
447.066669
20
101.552202
11
447.088510
21
101.411501
0
LINE
8
annotation
62
1
39
211
10
447.088510
20
101.411501
11
447.133480
21
101.276677
0
LINE
8
annotation
62
1
39
211
10
447.133480
20
101.276677
11
447.200558
21
101.150974
0
LINE
8
annotation
62
1
39
211
10
447.200558
20
101.150974
11
447.288725
21
101.037637
0
LINE
8
annotation
62
1
39
211
10
447.288725
20
101.037637
11
447.396959
21
100.939910
0
LINE
8
annotation
62
1
39
211
10
447.396959
20
100.939910
11
447.524242
21
100.861038
0
LINE
8
annotation
62
1
39
211
10
447.524242
20
100.861038
11
447.524242
21
100.861038
0
LINE
8
annotation
62
1
39
211
10
447.524242
20
100.861038
11
448.062633
21
100.623962
0
LINE
8
annotation
62
1
39
211
10
448.062633
20
100.623962
11
448.617319
21
100.444487
0
LINE
8
annotation
62
1
39
211
10
448.617319
20
100.444487
11
449.183863
21
100.322663
0
LINE
8
annotation
62
1
39
211
10
449.183863
20
100.322663
11
449.757827
21
100.258539
0
LINE
8
annotation
62
1
39
211
10
449.757827
20
100.258539
11
450.334773
21
100.252164
0
LINE
8
annotation
62
1
39
211
10
450.334773
20
100.252164
11
450.910265
21
100.303587
0
LINE
8
annotation
62
1
39
211
10
450.910265
20
100.303587
11
451.479864
21
100.412857
0
LINE
8
annotation
62
1
39
211
10
451.479864
20
100.412857
11
452.039133
21
100.580023
0
LINE
8
annotation
62
1
39
211
10
452.039133
20
100.580023
11
452.583634
21
100.805134
0
LINE
8
annotation
62
1
39
211
10
452.583634
20
100.805134
11
452.583634
21
100.805134
0
LINE
8
annotation
62
1
39
211
10
452.583634
20
100.805134
11
452.638653
21
100.833918
0
LINE
8
annotation
62
1
39
211
10
452.638653
20
100.833918
11
452.691312
21
100.866659
0
LINE
8
annotation
62
1
39
211
10
452.691312
20
100.866659
11
452.741352
21
100.903109
0
LINE
8
annotation
62
1
39
211
10
452.741352
20
100.903109
11
452.788513
21
100.943018
0
LINE
8
annotation
62
1
39
211
10
452.788513
20
100.943018
11
452.832535
21
100.986140
0
LINE
8
annotation
62
1
39
211
10
452.832535
20
100.986140
11
452.873157
21
101.032226
0
LINE
8
annotation
62
1
39
211
10
452.873157
20
101.032226
11
452.910122
21
101.081028
0
LINE
8
annotation
62
1
39
211
10
452.910122
20
101.081028
11
452.943168
21
101.132299
0
LINE
8
annotation
62
1
39
211
10
452.943168
20
101.132299
11
452.972035
21
101.185790
0
LINE
8
annotation
62
1
39
211
10
452.972035
20
101.185790
11
452.972035
21
101.185790
0
LINE
8
annotation
62
1
39
211
10
452.972035
20
101.185790
11
453.026844
21
101.325747
0
LINE
8
annotation
62
1
39
211
10
453.026844
20
101.325747
11
453.055216
21
101.469295
0
LINE
8
annotation
62
1
39
211
10
453.055216
20
101.469295
11
453.058177
21
101.613226
0
LINE
8
annotation
62
1
39
211
10
453.058177
20
101.613226
11
453.036755
21
101.754333
0
LINE
8
annotation
62
1
39
211
10
453.036755
20
101.754333
11
452.991976
21
101.889407
0
LINE
8
annotation
62
1
39
211
10
452.991976
20
101.889407
11
452.924868
21
102.015242
0
LINE
8
annotation
62
1
39
211
10
452.924868
20
102.015242
11
452.836457
21
102.128630
0
LINE
8
annotation
62
1
39
211
10
452.836457
20
102.128630
11
452.727770
21
102.226363
0
LINE
8
annotation
62
1
39
211
10
452.727770
20
102.226363
11
452.599834
21
102.305234
0
LINE
8
annotation
62
1
39
211
10
452.599834
20
102.305234
11
452.599834
21
102.305234
0
LINE
8
annotation
62
1
39
211
10
452.599834
20
102.305234
11
452.061542
21
102.541195
0
LINE
8
annotation
62
1
39
211
10
452.061542
20
102.541195
11
451.506930
21
102.719833
0
LINE
8
annotation
62
1
39
211
10
451.506930
20
102.719833
11
450.940436
21
102.841098
0
LINE
8
annotation
62
1
39
211
10
450.940436
20
102.841098
11
450.366496
21
102.904943
0
LINE
8
annotation
62
1
39
211
10
450.366496
20
102.904943
11
449.789550
21
102.911318
0
LINE
8
annotation
62
1
39
211
10
449.789550
20
102.911318
11
449.214034
21
102.860174
0
LINE
8
annotation
62
1
39
211
10
449.214034
20
102.860174
11
448.644385
21
102.751463
0
LINE
8
annotation
62
1
39
211
10
448.644385
20
102.751463
11
448.085041
21
102.585134
0
LINE
8
annotation
62
1
39
211
10
448.085041
20
102.585134
11
447.540441
21
102.361139
0
LINE
8
annotation
62
1
39
211
10
447.540441
20
102.361139
11
447.540441
21
102.361139
0
LINE
8
annotation
62
1
39
211
10
447.540441
20
102.361139
11
447.485532
21
102.332460
0
LINE
8
annotation
62
1
39
211
10
447.485532
20
102.332460
11
447.433136
21
102.299962
0
LINE
8
annotation
62
1
39
211
10
447.433136
20
102.299962
11
447.383413
21
102.263784
0
LINE
8
annotation
62
1
39
211
10
447.383413
20
102.263784
11
447.336521
21
102.224062
0
LINE
8
annotation
62
1
39
211
10
447.336521
20
102.224062
11
447.292621
21
102.180934
0
LINE
8
annotation
62
1
39
211
10
447.292621
20
102.180934
11
447.251871
21
102.134538
0
LINE
8
annotation
62
1
39
211
10
447.251871
20
102.134538
11
447.214431
21
102.085012
0
LINE
8
annotation
62
1
39
211
10
447.214431
20
102.085012
11
447.180462
21
102.032492
0
LINE
8
annotation
62
1
39
211
10
447.180462
20
102.032492
11
447.150121
21
101.977118
0
LINE
8
annotation
62
1
39
211
10
352.824276
20
200.995761
11
349.492986
21
201.032571
0
LINE
8
annotation
62
1
39
211
10
349.492986
20
201.032571
11
350.874951
21
205.683709
0
LINE
8
annotation
62
1
39
211
10
351.810979
20
199.673000
11
351.840422
21
202.337581
0
LINE
8
hole
62
5
39
2
10
478.845188
20
93.686832
11
479.066167
21
113.685611
0
LINE
8
hole
62
5
39
2
10
479.066167
20
113.685611
11
480.066106
21
113.674562
0
LINE
8
hole
62
5
39
2
10
480.066106
20
113.674562
11
479.845126
21
93.675783
0
LINE
8
hole
62
5
39
2
10
479.845126
20
93.675783
11
478.845188
21
93.686832
0
LINE
8
hole
62
5
39
2
10
473.845493
20
93.742077
11
474.066473
21
113.740856
0
LINE
8
hole
62
5
39
2
10
474.066473
20
113.740856
11
475.066411
21
113.729807
0
LINE
8
hole
62
5
39
2
10
475.066411
20
113.729807
11
474.845432
21
93.731028
0
LINE
8
hole
62
5
39
2
10
474.845432
20
93.731028
11
473.845493
21
93.742077
0
LINE
8
hole
62
5
39
2
10
560.505936
20
198.290943
11
580.504715
21
198.069964
0
LINE
8
hole
62
5
39
2
10
580.504715
20
198.069964
11
580.493667
21
197.070025
0
LINE
8
hole
62
5
39
2
10
580.493667
20
197.070025
11
560.494887
21
197.291005
0
LINE
8
hole
62
5
39
2
10
560.494887
20
197.291005
11
560.505936
21
198.290943
0
LINE
8
hole
62
5
39
2
10
578.449605
20
12.081328
11
558.450825
21
12.302308
0
LINE
8
hole
62
5
39
2
10
558.450825
20
12.302308
11
558.461874
21
13.302247
0
LINE
8
hole
62
5
39
2
10
558.461874
20
13.302247
11
578.460653
21
13.081267
0
LINE
8
hole
62
5
39
2
10
578.460653
20
13.081267
11
578.449605
21
12.081328
0
LINE
8
hole
62
5
39
2
10
578.394360
20
7.081634
11
558.395581
21
7.302613
0
LINE
8
hole
62
5
39
2
10
558.395581
20
7.302613
11
558.406629
21
8.302552
0
LINE
8
hole
62
5
39
2
10
558.406629
20
8.302552
11
578.405408
21
8.081573
0
LINE
8
hole
62
5
39
2
10
578.405408
20
8.081573
11
578.394360
21
7.081634
0
LINE
8
hole
62
5
39
2
10
560.450691
20
193.291249
11
580.449470
21
193.070269
0
LINE
8
hole
62
5
39
2
10
580.449470
20
193.070269
11
580.438422
21
192.070330
0
LINE
8
hole
62
5
39
2
10
580.438422
20
192.070330
11
560.439642
21
192.291310
0
LINE
8
hole
62
5
39
2
10
560.439642
20
192.291310
11
560.450691
21
193.291249
0
LINE
8
boundary
62
5
39
2
10
670.548937
20
201.575281
11
470.561156
21
203.785077
0
LINE
8
boundary
62
5
39
2
10
470.561156
20
203.785077
11
468.351359
21
3.797296
0
LINE
8
boundary
62
5
39
2
10
468.351359
20
3.797296
11
668.339140
21
1.587500
0
LINE
8
boundary
62
5
39
2
10
668.339140
20
1.587500
11
669.333549
21
91.582000
0
LINE
8
boundary
62
5
39
2
10
669.333549
20
91.582000
11
684.332633
21
91.416266
0
LINE
8
boundary
62
5
39
2
10
684.332633
20
91.416266
11
684.553612
21
111.415045
0
LINE
8
boundary
62
5
39
2
10
684.553612
20
111.415045
11
669.554528
21
111.580780
0
LINE
8
boundary
62
5
39
2
10
669.554528
20
111.580780
11
670.548937
21
201.575281
0
LINE
8
annotation
62
1
39
211
10
532.777864
20
89.043297
11
543.882737
21
77.690272
0
LINE
8
annotation
62
1
39
211
10
543.882737
20
77.690272
11
543.882737
21
77.690272
0
LINE
8
annotation
62
1
39
211
10
543.882737
20
77.690272
11
546.063144
21
75.827569
0
LINE
8
annotation
62
1
39
211
10
546.063144
20
75.827569
11
548.470380
21
74.422607
0
LINE
8
annotation
62
1
39
211
10
548.470380
20
74.422607
11
551.040782
21
73.475645
0
LINE
8
annotation
62
1
39
211
10
551.040782
20
73.475645
11
553.710689
21
72.986945
0
LINE
8
annotation
62
1
39
211
10
553.710689
20
72.986945
11
556.416437
21
72.956764
0
LINE
8
annotation
62
1
39
211
10
556.416437
20
72.956764
11
559.094365
21
73.385364
0
LINE
8
annotation
62
1
39
211
10
559.094365
20
73.385364
11
561.680810
21
74.273003
0
LINE
8
annotation
62
1
39
211
10
561.680810
20
74.273003
11
564.112111
21
75.619942
0
LINE
8
annotation
62
1
39
211
10
564.112111
20
75.619942
11
566.324604
21
77.426440
0
LINE
8
annotation
62
1
39
211
10
566.324604
20
77.426440
11
572.009132
21
82.986716
0
LINE
8
annotation
62
1
39
211
10
572.009132
20
82.986716
11
572.009132
21
82.986716
0
LINE
8
annotation
62
1
39
211
10
572.009132
20
82.986716
11
573.863233
21
85.157926
0
LINE
8
annotation
62
1
39
211
10
573.863233
20
85.157926
11
575.263118
21
87.558431
0
LINE
8
annotation
62
1
39
211
10
575.263118
20
87.558431
11
576.207560
21
90.124502
0
LINE
8
annotation
62
1
39
211
10
576.207560
20
90.124502
11
576.695334
21
92.792409
0
LINE
8
annotation
62
1
39
211
10
576.695334
20
92.792409
11
576.725212
21
95.498422
0
LINE
8
annotation
62
1
39
211
10
576.725212
20
95.498422
11
576.295970
21
98.178810
0
LINE
8
annotation
62
1
39
211
10
576.295970
20
98.178810
11
575.406380
21
100.769845
0
LINE
8
annotation
62
1
39
211
10
575.406380
20
100.769845
11
574.055217
21
103.207797
0
LINE
8
annotation
62
1
39
211
10
574.055217
20
103.207797
11
572.241253
21
105.428934
0
LINE
8
annotation
62
1
39
211
10
572.241253
20
105.428934
11
566.680977
21
111.113462
0
LINE
8
annotation
62
1
39
211
10
566.680977
20
111.113462
11
572.241253
21
105.428934
0
LINE
8
annotation
62
1
39
211
10
572.241253
20
105.428934
11
572.241253
21
105.428934
0
LINE
8
annotation
62
1
39
211
10
572.241253
20
105.428934
11
574.421810
21
103.566377
0
LINE
8
annotation
62
1
39
211
10
574.421810
20
103.566377
11
576.829618
21
102.161974
0
LINE
8
annotation
62
1
39
211
10
576.829618
20
102.161974
11
579.401199
21
101.216166
0
LINE
8
annotation
62
1
39
211
10
579.401199
20
101.216166
11
582.073075
21
100.729392
0
LINE
8
annotation
62
1
39
211
10
582.073075
20
100.729392
11
584.781771
21
100.702094
0
LINE
8
annotation
62
1
39
211
10
584.781771
20
100.702094
11
587.463806
21
101.134712
0
LINE
8
annotation
62
1
39
211
10
587.463806
20
101.134712
11
590.055705
21
102.027685
0
LINE
8
annotation
62
1
39
211
10
590.055705
20
102.027685
11
592.493990
21
103.381455
0
LINE
8
annotation
62
1
39
211
10
592.493990
20
103.381455
11
594.715182
21
105.196462
0
LINE
8
annotation
62
1
39
211
10
594.715182
20
105.196462
11
594.715182
21
105.196462
0
LINE
8
annotation
62
1
39
211
10
594.715182
20
105.196462
11
596.569283
21
107.367672
0
LINE
8
annotation
62
1
39
211
10
596.569283
20
107.367672
11
597.969168
21
109.768177
0
LINE
8
annotation
62
1
39
211
10
597.969168
20
109.768177
11
598.913610
21
112.334248
0
LINE
8
annotation
62
1
39
211
10
598.913610
20
112.334248
11
599.401384
21
115.002155
0
LINE
8
annotation
62
1
39
211
10
599.401384
20
115.002155
11
599.431262
21
117.708168
0
LINE
8
annotation
62
1
39
211
10
599.431262
20
117.708168
11
599.002020
21
120.388556
0
LINE
8
annotation
62
1
39
211
10
599.002020
20
120.388556
11
598.112430
21
122.979591
0
LINE
8
annotation
62
1
39
211
10
598.112430
20
122.979591
11
596.761267
21
125.417543
0
LINE
8
annotation
62
1
39
211
10
596.761267
20
125.417543
11
594.947304
21
127.638680
0
LINE
8
annotation
62
1
39
211
10
594.947304
20
127.638680
11
583.842431
21
138.991705
0
LINE
8
annotation
62
1
39
211
10
472.441156
20
102.424999
11
472.455878
21
103.757290
0
LINE
8
annotation
62
1
39
211
10
472.455878
20
103.757290
11
472.455878
21
103.757290
0
LINE
8
annotation
62
1
39
211
10
472.455878
20
103.757290
11
472.437030
21
103.997143
0
LINE
8
annotation
62
1
39
211
10
472.437030
20
103.997143
11
472.377571
21
104.223297
0
LINE
8
annotation
62
1
39
211
10
472.377571
20
104.223297
11
472.281263
21
104.431961
0
LINE
8
annotation
62
1
39
211
10
472.281263
20
104.431961
11
472.151865
21
104.619342
0
LINE
8
annotation
62
1
39
211
10
472.151865
20
104.619342
11
471.993140
21
104.781648
0
LINE
8
annotation
62
1
39
211
10
471.993140
20
104.781648
11
471.808848
21
104.915087
0
LINE
8
annotation
62
1
39
211
10
471.808848
20
104.915087
11
471.602752
21
105.015867
0
LINE
8
annotation
62
1
39
211
10
471.602752
20
105.015867
11
471.378612
21
105.080195
0
LINE
8
annotation
62
1
39
211
10
471.378612
20
105.080195
11
471.140190
21
105.104281
0
LINE
8
annotation
62
1
39
211
10
471.140190
20
105.104281
11
470.473104
21
105.111652
0
LINE
8
annotation
62
1
39
211
10
470.473104
20
105.111652
11
470.473104
21
105.111652
0
LINE
8
annotation
62
1
39
211
10
470.473104
20
105.111652
11
470.234307
21
105.092839
0
LINE
8
annotation
62
1
39
211
10
470.234307
20
105.092839
11
470.008853
21
105.033479
0
LINE
8
annotation
62
1
39
211
10
470.008853
20
105.033479
11
469.800596
21
104.937277
0
LINE
8
annotation
62
1
39
211
10
469.800596
20
104.937277
11
469.613388
21
104.807943
0
LINE
8
annotation
62
1
39
211
10
469.613388
20
104.807943
11
469.451084
21
104.649185
0
LINE
8
annotation
62
1
39
211
10
469.451084
20
104.649185
11
469.317538
21
104.464709
0
LINE
8
annotation
62
1
39
211
10
469.317538
20
104.464709
11
469.216601
21
104.258225
0
LINE
8
annotation
62
1
39
211
10
469.216601
20
104.258225
11
469.152129
21
104.033440
0
LINE
8
annotation
62
1
39
211
10
469.152129
20
104.033440
11
469.127974
21
103.794062
0
LINE
8
annotation
62
1
39
211
10
469.127974
20
103.794062
11
469.120602
21
103.126976
0
LINE
8
annotation
62
1
39
211
10
469.120602
20
103.126976
11
469.127974
21
103.794062
0
LINE
8
annotation
62
1
39
211
10
469.127974
20
103.794062
11
469.127974
21
103.794062
0
LINE
8
annotation
62
1
39
211
10
469.127974
20
103.794062
11
469.109109
21
104.033915
0
LINE
8
annotation
62
1
39
211
10
469.109109
20
104.033915
11
469.049583
21
104.260070
0
LINE
8
annotation
62
1
39
211
10
469.049583
20
104.260070
11
468.953135
21
104.468736
0
LINE
8
annotation
62
1
39
211
10
468.953135
20
104.468736
11
468.823507
21
104.656119
0
LINE
8
annotation
62
1
39
211
10
468.823507
20
104.656119
11
468.664436
21
104.818429
0
LINE
8
annotation
62
1
39
211
10
468.664436
20
104.818429
11
468.479662
21
104.951873
0
LINE
8
annotation
62
1
39
211
10
468.479662
20
104.951873
11
468.272926
21
105.052660
0
LINE
8
annotation
62
1
39
211
10
468.272926
20
105.052660
11
468.047966
21
105.116998
0
LINE
8
annotation
62
1
39
211
10
468.047966
20
105.116998
11
467.808523
21
105.141094
0
LINE
8
annotation
62
1
39
211
10
467.808523
20
105.141094
11
467.808523
21
105.141094
0
LINE
8
annotation
62
1
39
211
10
467.808523
20
105.141094
11
467.569726
21
105.122282
0
LINE
8
annotation
62
1
39
211
10
467.569726
20
105.122282
11
467.344272
21
105.062921
0
LINE
8
annotation
62
1
39
211
10
467.344272
20
105.062921
11
467.136015
21
104.966720
0
LINE
8
annotation
62
1
39
211
10
467.136015
20
104.966720
11
466.948807
21
104.837386
0
LINE
8
annotation
62
1
39
211
10
466.948807
20
104.837386
11
466.786504
21
104.678627
0
LINE
8
annotation
62
1
39
211
10
466.786504
20
104.678627
11
466.652957
21
104.494152
0
LINE
8
annotation
62
1
39
211
10
466.652957
20
104.494152
11
466.552020
21
104.287668
0
LINE
8
annotation
62
1
39
211
10
466.552020
20
104.287668
11
466.487548
21
104.062882
0
LINE
8
annotation
62
1
39
211
10
466.487548
20
104.062882
11
466.463393
21
103.823504
0
LINE
8
annotation
62
1
39
211
10
466.463393
20
103.823504
11
466.448671
21
102.491214
0
LINE
8
annotation
62
1
39
211
10
566.698766
20
4.376816
11
570.030056
21
4.340006
0
LINE
8
annotation
62
1
39
211
10
570.030056
20
4.340006
11
568.648091
21
-0.311131
0
LINE
8
annotation
62
1
39
211
10
567.712063
20
5.699578
11
567.682620
21
3.034997
0
LINE
8
annotation
62
1
39
211
10
666.436859
20
100.948204
11
672.436492
21
100.881910
0
LINE
8
annotation
62
1
39
211
10
672.436492
20
100.881910
11
671.117059
21
102.230447
0
LINE
8
annotation
62
1
39
211
10
569.188856
20
199.695092
11
570.521147
21
199.680370
0
LINE
8
annotation
62
1
39
211
10
570.521147
20
199.680370
11
570.521147
21
199.680370
0
LINE
8
annotation
62
1
39
211
10
570.521147
20
199.680370
11
570.760504
21
199.699228
0
LINE
8
annotation
62
1
39
211
10
570.760504
20
199.699228
11
570.986396
21
199.758722
0
LINE
8
annotation
62
1
39
211
10
570.986396
20
199.758722
11
571.194983
21
199.855120
0
LINE
8
annotation
62
1
39
211
10
571.194983
20
199.855120
11
571.382428
21
199.984689
0
LINE
8
annotation
62
1
39
211
10
571.382428
20
199.984689
11
571.544892
21
200.143696
0
LINE
8
annotation
62
1
39
211
10
571.544892
20
200.143696
11
571.678537
21
200.328408
0
LINE
8
annotation
62
1
39
211
10
571.678537
20
200.328408
11
571.779525
21
200.535092
0
LINE
8
annotation
62
1
39
211
10
571.779525
20
200.535092
11
571.844017
21
200.760015
0
LINE
8
annotation
62
1
39
211
10
571.844017
20
200.760015
11
571.868175
21
200.999445
0
LINE
8
annotation
62
1
39
211
10
571.868175
20
200.999445
11
571.875509
21
201.663144
0
LINE
8
annotation
62
1
39
211
10
571.875509
20
201.663144
11
571.875509
21
201.663144
0
LINE
8
annotation
62
1
39
211
10
571.875509
20
201.663144
11
571.856658
21
201.902933
0
LINE
8
annotation
62
1
39
211
10
571.856658
20
201.902933
11
571.797179
21
202.128915
0
LINE
8
annotation
62
1
39
211
10
571.797179
20
202.128915
11
571.700819
21
202.337329
0
LINE
8
annotation
62
1
39
211
10
571.700819
20
202.337329
11
571.571322
21
202.524414
0
LINE
8
annotation
62
1
39
211
10
571.571322
20
202.524414
11
571.412436
21
202.686409
0
LINE
8
annotation
62
1
39
211
10
571.412436
20
202.686409
11
571.227907
21
202.819554
0
LINE
8
annotation
62
1
39
211
10
571.227907
20
202.819554
11
571.021480
21
202.920087
0
LINE
8
annotation
62
1
39
211
10
571.021480
20
202.920087
11
570.796902
21
202.984248
0
LINE
8
annotation
62
1
39
211
10
570.796902
20
202.984248
11
570.557919
21
203.008275
0
LINE
8
annotation
62
1
39
211
10
570.557919
20
203.008275
11
569.225629
21
203.022996
0
LINE
8
annotation
62
1
39
211
10
569.225629
20
203.022996
11
569.255150
21
205.694726
0
LINE
8
annotation
62
1
39
211
10
569.255150
20
205.694726
11
571.919731
21
205.665283
0
LINE
8
hole
62
5
39
2
10
797.728607
20
11.087500
11
777.728607
21
11.087500
0
LINE
8
hole
62
5
39
2
10
777.728607
20
11.087500
11
777.728607
21
12.087500
0
LINE
8
hole
62
5
39
2
10
777.728607
20
12.087500
11
797.728607
21
12.087500
0
LINE
8
hole
62
5
39
2
10
797.728607
20
12.087500
11
797.728607
21
11.087500
0
LINE
8
hole
62
5
39
2
10
883.228602
20
111.587495
11
883.228602
21
91.587495
0
LINE
8
hole
62
5
39
2
10
883.228602
20
91.587495
11
882.228602
21
91.587495
0
LINE
8
hole
62
5
39
2
10
882.228602
20
91.587495
11
882.228602
21
111.587495
0
LINE
8
hole
62
5
39
2
10
882.228602
20
111.587495
11
883.228602
21
111.587495
0
LINE
8
hole
62
5
39
2
10
777.728607
20
192.087489
11
797.728607
21
192.087490
0
LINE
8
hole
62
5
39
2
10
797.728607
20
192.087490
11
797.728607
21
191.087489
0
LINE
8
hole
62
5
39
2
10
797.728607
20
191.087489
11
777.728607
21
191.087490
0
LINE
8
hole
62
5
39
2
10
777.728607
20
191.087490
11
777.728607
21
192.087489
0
LINE
8
hole
62
5
39
2
10
692.228612
20
91.587495
11
692.228612
21
111.587495
0
LINE
8
hole
62
5
39
2
10
692.228612
20
111.587495
11
693.228612
21
111.587495
0
LINE
8
hole
62
5
39
2
10
693.228612
20
111.587495
11
693.228612
21
91.587495
0
LINE
8
hole
62
5
39
2
10
693.228612
20
91.587495
11
692.228612
21
91.587495
0
LINE
8
hole
62
5
39
2
10
777.728607
20
197.087490
11
797.728607
21
197.087490
0
LINE
8
hole
62
5
39
2
10
797.728607
20
197.087490
11
797.728607
21
196.087490
0
LINE
8
hole
62
5
39
2
10
797.728607
20
196.087490
11
777.728607
21
196.087490
0
LINE
8
hole
62
5
39
2
10
777.728607
20
196.087490
11
777.728607
21
197.087490
0
LINE
8
hole
62
5
39
2
10
797.728607
20
6.087500
11
777.728607
21
6.087500
0
LINE
8
hole
62
5
39
2
10
777.728607
20
6.087500
11
777.728607
21
7.087500
0
LINE
8
hole
62
5
39
2
10
777.728607
20
7.087500
11
797.728607
21
7.087500
0
LINE
8
hole
62
5
39
2
10
797.728607
20
7.087500
11
797.728607
21
6.087500
0
LINE
8
hole
62
5
39
2
10
697.228612
20
91.587495
11
697.228612
21
111.587495
0
LINE
8
hole
62
5
39
2
10
697.228612
20
111.587495
11
698.228612
21
111.587495
0
LINE
8
hole
62
5
39
2
10
698.228612
20
111.587495
11
698.228612
21
91.587495
0
LINE
8
hole
62
5
39
2
10
698.228612
20
91.587495
11
697.228612
21
91.587495
0
LINE
8
hole
62
5
39
2
10
878.228602
20
111.587495
11
878.228602
21
91.587495
0
LINE
8
hole
62
5
39
2
10
878.228602
20
91.587495
11
877.228602
21
91.587495
0
LINE
8
hole
62
5
39
2
10
877.228602
20
91.587495
11
877.228602
21
111.587495
0
LINE
8
hole
62
5
39
2
10
877.228602
20
111.587495
11
878.228602
21
111.587495
0
LINE
8
boundary
62
5
39
2
10
687.728612
20
201.587489
11
687.728612
21
1.587500
0
LINE
8
boundary
62
5
39
2
10
687.728612
20
1.587500
11
887.728602
21
1.587500
0
LINE
8
boundary
62
5
39
2
10
887.728602
20
1.587500
11
887.728602
21
201.587490
0
LINE
8
boundary
62
5
39
2
10
887.728602
20
201.587490
11
687.728612
21
201.587489
0
LINE
8
annotation
62
1
39
211
10
795.671400
20
65.829228
11
795.671400
21
137.345761
0
LINE
8
annotation
62
1
39
211
10
795.671400
20
137.345761
11
779.772359
21
121.442235
0
LINE
8
annotation
62
1
39
211
10
789.061731
20
4.587500
11
787.729360
21
4.587500
0
LINE
8
annotation
62
1
39
211
10
787.729360
20
4.587500
11
787.729360
21
4.587500
0
LINE
8
annotation
62
1
39
211
10
787.729360
20
4.587500
11
787.490225
21
4.565999
0
LINE
8
annotation
62
1
39
211
10
787.490225
20
4.565999
11
787.265004
21
4.504013
0
LINE
8
annotation
62
1
39
211
10
787.265004
20
4.504013
11
787.057495
21
4.405316
0
LINE
8
annotation
62
1
39
211
10
787.057495
20
4.405316
11
786.871493
21
4.273684
0
LINE
8
annotation
62
1
39
211
10
786.871493
20
4.273684
11
786.710796
21
4.112892
0
LINE
8
annotation
62
1
39
211
10
786.710796
20
4.112892
11
786.579200
21
3.926714
0
LINE
8
annotation
62
1
39
211
10
786.579200
20
3.926714
11
786.480502
21
3.718927
0
LINE
8
annotation
62
1
39
211
10
786.480502
20
3.718927
11
786.418499
21
3.493305
0
LINE
8
annotation
62
1
39
211
10
786.418499
20
3.493305
11
786.396988
21
3.253623
0
LINE
8
annotation
62
1
39
211
10
786.396988
20
3.253623
11
786.396988
21
2.589883
0
LINE
8
annotation
62
1
39
211
10
786.396988
20
2.589883
11
786.396988
21
2.589883
0
LINE
8
annotation
62
1
39
211
10
786.396988
20
2.589883
11
786.418487
21
2.350317
0
LINE
8
annotation
62
1
39
211
10
786.418487
20
2.350317
11
786.480459
21
2.125007
0
LINE
8
annotation
62
1
39
211
10
786.480459
20
2.125007
11
786.579116
21
1.917670
0
LINE
8
annotation
62
1
39
211
10
786.579116
20
1.917670
11
786.710672
21
1.732027
0
LINE
8
annotation
62
1
39
211
10
786.710672
20
1.732027
11
786.871338
21
1.571797
0
LINE
8
annotation
62
1
39
211
10
786.871338
20
1.571797
11
787.057328
21
1.440699
0
LINE
8
annotation
62
1
39
211
10
787.057328
20
1.440699
11
787.264853
21
1.342453
0
LINE
8
annotation
62
1
39
211
10
787.264853
20
1.342453
11
787.490126
21
1.280778
0
LINE
8
annotation
62
1
39
211
10
787.490126
20
1.280778
11
787.729360
21
1.259393
0
LINE
8
annotation
62
1
39
211
10
787.729360
20
1.259393
11
789.061731
21
1.259393
0
LINE
8
annotation
62
1
39
211
10
789.061731
20
1.259393
11
789.061731
21
-1.412500
0
LINE
8
annotation
62
1
39
211
10
789.061731
20
-1.412500
11
786.396988
21
-1.412500
0
LINE
8
annotation
62
1
39
211
10
884.728602
20
100.921121
11
890.728602
21
100.921121
0
LINE
8
annotation
62
1
39
211
10
890.728602
20
100.921121
11
889.394349
21
102.254998
0
LINE
8
annotation
62
1
39
211
10
789.393601
20
199.921366
11
786.062108
21
199.921366
0
LINE
8
annotation
62
1
39
211
10
786.062108
20
199.921366
11
787.392598
21
204.587490
0
LINE
8
annotation
62
1
39
211
10
788.394981
20
198.587490
11
788.394981
21
201.252233
0
LINE
8
annotation
62
1
39
211
10
690.728424
20
100.254371
11
690.728424
21
101.586742
0
LINE
8
annotation
62
1
39
211
10
690.728424
20
101.586742
11
690.728424
21
101.586742
0
LINE
8
annotation
62
1
39
211
10
690.728424
20
101.586742
11
690.706928
21
101.826373
0
LINE
8
annotation
62
1
39
211
10
690.706928
20
101.826373
11
690.644974
21
102.051856
0
LINE
8
annotation
62
1
39
211
10
690.644974
20
102.051856
11
690.546365
21
102.259443
0
LINE
8
annotation
62
1
39
211
10
690.546365
20
102.259443
11
690.414905
21
102.445383
0
LINE
8
annotation
62
1
39
211
10
690.414905
20
102.445383
11
690.254396
21
102.605925
0
LINE
8
annotation
62
1
39
211
10
690.254396
20
102.605925
11
690.068642
21
102.737320
0
LINE
8
annotation
62
1
39
211
10
690.068642
20
102.737320
11
689.861445
21
102.835816
0
LINE
8
annotation
62
1
39
211
10
689.861445
20
102.835816
11
689.636608
21
102.897665
0
LINE
8
annotation
62
1
39
211
10
689.636608
20
102.897665
11
689.397934
21
102.919114
0
LINE
8
annotation
62
1
39
211
10
689.397934
20
102.919114
11
688.730807
21
102.919114
0
LINE
8
annotation
62
1
39
211
10
688.730807
20
102.919114
11
688.730807
21
102.919114
0
LINE
8
annotation
62
1
39
211
10
688.730807
20
102.919114
11
688.492232
21
102.897665
0
LINE
8
annotation
62
1
39
211
10
688.492232
20
102.897665
11
688.267448
21
102.835816
0
LINE
8
annotation
62
1
39
211
10
688.267448
20
102.835816
11
688.060266
21
102.737320
0
LINE
8
annotation
62
1
39
211
10
688.060266
20
102.737320
11
687.874499
21
102.605925
0
LINE
8
annotation
62
1
39
211
10
687.874499
20
102.605925
11
687.713960
21
102.445383
0
LINE
8
annotation
62
1
39
211
10
687.713960
20
102.445383
11
687.582459
21
102.259443
0
LINE
8
annotation
62
1
39
211
10
687.582459
20
102.259443
11
687.483811
21
102.051856
0
LINE
8
annotation
62
1
39
211
10
687.483811
20
102.051856
11
687.421826
21
101.826373
0
LINE
8
annotation
62
1
39
211
10
687.421826
20
101.826373
11
687.400317
21
101.586742
0
LINE
8
annotation
62
1
39
211
10
687.400317
20
101.586742
11
687.400317
21
100.919616
0
LINE
8
annotation
62
1
39
211
10
687.400317
20
100.919616
11
687.400317
21
101.586742
0
LINE
8
annotation
62
1
39
211
10
687.400317
20
101.586742
11
687.400317
21
101.586742
0
LINE
8
annotation
62
1
39
211
10
687.400317
20
101.586742
11
687.378803
21
101.826373
0
LINE
8
annotation
62
1
39
211
10
687.378803
20
101.826373
11
687.316782
21
102.051856
0
LINE
8
annotation
62
1
39
211
10
687.316782
20
102.051856
11
687.218035
21
102.259443
0
LINE
8
annotation
62
1
39
211
10
687.218035
20
102.259443
11
687.086344
21
102.445383
0
LINE
8
annotation
62
1
39
211
10
687.086344
20
102.445383
11
686.925489
21
102.605925
0
LINE
8
annotation
62
1
39
211
10
686.925489
20
102.605925
11
686.739252
21
102.737320
0
LINE
8
annotation
62
1
39
211
10
686.739252
20
102.737320
11
686.531415
21
102.835816
0
LINE
8
annotation
62
1
39
211
10
686.531415
20
102.835816
11
686.305758
21
102.897665
0
LINE
8
annotation
62
1
39
211
10
686.305758
20
102.897665
11
686.066064
21
102.919114
0
LINE
8
annotation
62
1
39
211
10
686.066064
20
102.919114
11
686.066064
21
102.919114
0
LINE
8
annotation
62
1
39
211
10
686.066064
20
102.919114
11
685.827489
21
102.897665
0
LINE
8
annotation
62
1
39
211
10
685.827489
20
102.897665
11
685.602705
21
102.835816
0
LINE
8
annotation
62
1
39
211
10
685.602705
20
102.835816
11
685.395523
21
102.737320
0
LINE
8
annotation
62
1
39
211
10
685.395523
20
102.737320
11
685.209756
21
102.605925
0
LINE
8
annotation
62
1
39
211
10
685.209756
20
102.605925
11
685.049216
21
102.445383
0
LINE
8
annotation
62
1
39
211
10
685.049216
20
102.445383
11
684.917716
21
102.259443
0
LINE
8
annotation
62
1
39
211
10
684.917716
20
102.259443
11
684.819067
21
102.051856
0
LINE
8
annotation
62
1
39
211
10
684.819067
20
102.051856
11
684.757082
21
101.826373
0
LINE
8
annotation
62
1
39
211
10
684.757082
20
101.826373
11
684.735573
21
101.586742
0
LINE
8
annotation
62
1
39
211
10
684.735573
20
101.586742
11
684.735573
21
100.254371
0
LINE
8
frame
62
5
39
2
10
0.000000
20
0.000000
11
1000.000000
21
0.000000
0
LINE
8
frame
62
5
39
2
10
1000.000000
20
0.000000
11
1000.000000
21
700.000000
0
LINE
8
frame
62
5
39
2
10
1000.000000
20
700.000000
11
0.000000
21
700.000000
0
LINE
8
frame
62
5
39
2
10
0.000000
20
700.000000
11
0.000000
21
0.000000
0
ENDSEC
0
EOF
