  0
SECTION
  2
ENTITIES
  0
POLYLINE
 70
     1
  0
VERTEX
 10
0
 20
0
  0
VERTEX
 10
2
 20
0
  0
VERTEX
 10
2
 20
-2
  0
VERTEX
 10
0
 20
-2
  0
SEQEND
  0
POLYLINE
 70
     1
  0
VERTEX
 10
0
 20
0
  0
VERTEX
 10
2
 20
0
  0
VERTEX
 10
2
 20
2
  0
VERTEX
 10
0
 20
2
  0
SEQEND
  0
POLYLINE
 70
     1
  0
VERTEX
 10
2
 20
-2
  0
VERTEX
 10
0
 20
-2
  0
VERTEX
 10
3.21629e-16
 20
-4
  0
VERTEX
 10
2
 20
-4
  0
SEQEND
  0
POLYLINE
 70
     1
  0
VERTEX
 10
0
 20
0
  0
VERTEX
 10
0
 20
-2
  0
VERTEX
 10
-2
 20
-2
  0
VERTEX
 10
-2
 20
0
  0
SEQEND
  0
POLYLINE
 70
     1
  0
VERTEX
 10
2
 20
-2
  0
VERTEX
 10
2
 20
0
  0
VERTEX
 10
4
 20
1.22461e-16
  0
VERTEX
 10
4
 20
-2
  0
SEQEND
  0
POLYLINE
 70
     1
  0
VERTEX
 10
0
 20
2
  0
VERTEX
 10
2
 20
2
  0
VERTEX
 10
2
 20
4
  0
VERTEX
 10
4.44089e-16
 20
4
  0
SEQEND
  0
POLYLINE
 70
     1
  0
VERTEX
 10
2
 20
0
  0
VERTEX
 10
2.21213
 20
0.212132
  0
VERTEX
 10
2.21213
 20
1.78787
  0
VERTEX
 10
2
 20
2
  0
SEQEND
  0
POLYLINE
 70
     0
  0
VERTEX
 10
2.1125
 20
0.85
  0
VERTEX
 10
2.1125
 20
0.91
  0
VERTEX
 10
2.0525
 20
0.91
  0
VERTEX
 10
2.0525
 20
0.85
  0
VERTEX
 10
2.1125
 20
0.85
  0
SEQEND
  0
POLYLINE
 70
     0
  0
VERTEX
 10
2.0525
 20
0.94
  0
VERTEX
 10
2.0525
 20
0.97
  0
VERTEX
 10
2.1125
 20
0.97
  0
VERTEX
 10
2.1125
 20
0.94
  0
VERTEX
 10
2.1125
 20
1
  0
VERTEX
 10
2.0925
 20
1
  0
SEQEND
  0
POLYLINE
 70
     1
  0
VERTEX
 10
0
 20
2
  0
VERTEX
 10
-0.212132
 20
1.78787
  0
VERTEX
 10
-0.212132
 20
0.212132
  0
VERTEX
 10
-4.16334e-16
 20
-2.77556e-17
  0
SEQEND
  0
POLYLINE
 70
     0
  0
VERTEX
 10
-0.1125
 20
1.15
  0
VERTEX
 10
-0.1125
 20
1.09
  0
VERTEX
 10
-0.0525
 20
1.09
  0
VERTEX
 10
-0.0525
 20
1.15
  0
VERTEX
 10
-0.1125
 20
1.15
  0
SEQEND
  0
POLYLINE
 70
     0
  0
VERTEX
 10
-0.0525
 20
1.06
  0
VERTEX
 10
-0.0525
 20
1
  0
VERTEX
 10
-0.0825
 20
1
  0
VERTEX
 10
-0.0825
 20
1.06
  0
VERTEX
 10
-0.1125
 20
1.06
  0
VERTEX
 10
-0.1125
 20
1
  0
SEQEND
  0
POLYLINE
 70
     1
  0
VERTEX
 10
2
 20
4
  0
VERTEX
 10
2.21213
 20
3.78787
  0
VERTEX
 10
2.21213
 20
2.21213
  0
VERTEX
 10
2
 20
2
  0
SEQEND
  0
POLYLINE
 70
     0
  0
VERTEX
 10
2.1125
 20
2.85
  0
VERTEX
 10
2.1125
 20
2.91
  0
VERTEX
 10
2.0525
 20
2.91
  0
VERTEX
 10
2.0525
 20
2.85
  0
VERTEX
 10
2.1125
 20
2.85
  0
SEQEND
  0
POLYLINE
 70
     0
  0
VERTEX
 10
2.0525
 20
2.94
  0
VERTEX
 10
2.0525
 20
3
  0
VERTEX
 10
2.0825
 20
3
  0
VERTEX
 10
2.0825
 20
2.97
  0
VERTEX
 10
2.0825
 20
3
  0
VERTEX
 10
2.1125
 20
3
  0
VERTEX
 10
2.1125
 20
2.94
  0
SEQEND
  0
POLYLINE
 70
     1
  0
VERTEX
 10
4.44089e-16
 20
4
  0
VERTEX
 10
0.212132
 20
4.21213
  0
VERTEX
 10
1.78787
 20
4.21213
  0
VERTEX
 10
2
 20
4
  0
SEQEND
  0
POLYLINE
 70
     0
  0
VERTEX
 10
1.15
 20
4.1125
  0
VERTEX
 10
1.09
 20
4.1125
  0
VERTEX
 10
1.09
 20
4.0525
  0
VERTEX
 10
1.15
 20
4.0525
  0
VERTEX
 10
1.15
 20
4.1125
  0
SEQEND
  0
POLYLINE
 70
     0
  0
VERTEX
 10
1.06
 20
4.0525
  0
VERTEX
 10
1.06
 20
4.0825
  0
VERTEX
 10
1
 20
4.0825
  0
VERTEX
 10
1
 20
4.0675
  0
VERTEX
 10
1
 20
4.1125
  0
SEQEND
  0
POLYLINE
 70
     1
  0
VERTEX
 10
0
 20
2
  0
VERTEX
 10
-0.212132
 20
2.21213
  0
VERTEX
 10
-0.212132
 20
3.78787
  0
VERTEX
 10
0
 20
4
  0
SEQEND
  0
POLYLINE
 70
     0
  0
VERTEX
 10
-0.1125
 20
3.15
  0
VERTEX
 10
-0.1125
 20
3.09
  0
VERTEX
 10
-0.0525
 20
3.09
  0
VERTEX
 10
-0.0525
 20
3.15
  0
VERTEX
 10
-0.1125
 20
3.15
  0
SEQEND
  0
POLYLINE
 70
     0
  0
VERTEX
 10
-0.0525
 20
3
  0
VERTEX
 10
-0.0525
 20
3.06
  0
VERTEX
 10
-0.0825
 20
3.06
  0
VERTEX
 10
-0.0825
 20
3
  0
VERTEX
 10
-0.1125
 20
3
  0
VERTEX
 10
-0.1125
 20
3.06
  0
SEQEND
  0
POLYLINE
 70
     1
  0
VERTEX
 10
2
 20
-2
  0
VERTEX
 10
2.21213
 20
-2.21213
  0
VERTEX
 10
2.21213
 20
-3.78787
  0
VERTEX
 10
2
 20
-4
  0
SEQEND
  0
POLYLINE
 70
     0
  0
VERTEX
 10
2.1125
 20
-3.15
  0
VERTEX
 10
2.1125
 20
-3.09
  0
VERTEX
 10
2.0525
 20
-3.09
  0
VERTEX
 10
2.0525
 20
-3.15
  0
VERTEX
 10
2.1125
 20
-3.15
  0
SEQEND
  0
POLYLINE
 70
     0
  0
VERTEX
 10
2.0525
 20
-3.04
  0
VERTEX
 10
2.0525
 20
-3.06
  0
VERTEX
 10
2.0925
 20
-3.06
  0
VERTEX
 10
2.0925
 20
-3
  0
VERTEX
 10
2.1125
 20
-3
  0
VERTEX
 10
2.1125
 20
-3.06
  0
VERTEX
 10
2.0925
 20
-3.06
  0
SEQEND
  0
POLYLINE
 70
     1
  0
VERTEX
 10
3.21629e-16
 20
-4
  0
VERTEX
 10
-0.212132
 20
-3.78787
  0
VERTEX
 10
-0.212132
 20
-2.21213
  0
VERTEX
 10
-2.498e-16
 20
-2
  0
SEQEND
  0
POLYLINE
 70
     0
  0
VERTEX
 10
-0.1125
 20
-2.85
  0
VERTEX
 10
-0.1125
 20
-2.91
  0
VERTEX
 10
-0.0525
 20
-2.91
  0
VERTEX
 10
-0.0525
 20
-2.85
  0
VERTEX
 10
-0.1125
 20
-2.85
  0
SEQEND
  0
POLYLINE
 70
     0
  0
VERTEX
 10
-0.0725
 20
-2.94
  0
VERTEX
 10
-0.0525
 20
-2.94
  0
VERTEX
 10
-0.0525
 20
-3
  0
VERTEX
 10
-0.0725
 20
-3
  0
VERTEX
 10
-0.096537
 20
-2.97313
  0
VERTEX
 10
-0.116537
 20
-2.97313
  0
SEQEND
  0
POLYLINE
 70
     1
  0
VERTEX
 10
2
 20
-4
  0
VERTEX
 10
1.78787
 20
-4.21213
  0
VERTEX
 10
0.212132
 20
-4.21213
  0
VERTEX
 10
4.16334e-16
 20
-4
  0
SEQEND
  0
POLYLINE
 70
     0
  0
VERTEX
 10
0.85
 20
-4.1125
  0
VERTEX
 10
0.91
 20
-4.1125
  0
VERTEX
 10
0.91
 20
-4.0525
  0
VERTEX
 10
0.85
 20
-4.0525
  0
VERTEX
 10
0.85
 20
-4.1125
  0
SEQEND
  0
POLYLINE
 70
     0
  0
VERTEX
 10
0.94
 20
-4.0525
  0
VERTEX
 10
0.94
 20
-4.0825
  0
VERTEX
 10
1
 20
-4.0825
  0
VERTEX
 10
1
 20
-4.0675
  0
VERTEX
 10
1
 20
-4.1125
  0
SEQEND
  0
POLYLINE
 70
     1
  0
VERTEX
 10
-2
 20
0
  0
VERTEX
 10
-2.21213
 20
-0.212132
  0
VERTEX
 10
-2.21213
 20
-1.78787
  0
VERTEX
 10
-2
 20
-2
  0
SEQEND
  0
POLYLINE
 70
     0
  0
VERTEX
 10
-2.1125
 20
-0.85
  0
VERTEX
 10
-2.1125
 20
-0.91
  0
VERTEX
 10
-2.0525
 20
-0.91
  0
VERTEX
 10
-2.0525
 20
-0.85
  0
VERTEX
 10
-2.1125
 20
-0.85
  0
SEQEND
  0
POLYLINE
 70
     0
  0
VERTEX
 10
-2.0525
 20
-1
  0
VERTEX
 10
-2.0525
 20
-0.94
  0
VERTEX
 10
-2.0825
 20
-0.94
  0
VERTEX
 10
-2.0825
 20
-1
  0
VERTEX
 10
-2.1125
 20
-1
  0
VERTEX
 10
-2.1125
 20
-0.94
  0
SEQEND
  0
POLYLINE
 70
     1
  0
VERTEX
 10
0
 20
0
  0
VERTEX
 10
-0.212132
 20
0.212132
  0
VERTEX
 10
-1.78787
 20
0.212132
  0
VERTEX
 10
-2
 20
4.16334e-16
  0
SEQEND
  0
POLYLINE
 70
     0
  0
VERTEX
 10
-0.85
 20
0.1125
  0
VERTEX
 10
-0.91
 20
0.1125
  0
VERTEX
 10
-0.91
 20
0.0525
  0
VERTEX
 10
-0.85
 20
0.0525
  0
VERTEX
 10
-0.85
 20
0.1125
  0
SEQEND
  0
POLYLINE
 70
     0
  0
VERTEX
 10
-0.94
 20
0.0525
  0
VERTEX
 10
-1
 20
0.0525
  0
VERTEX
 10
-1
 20
0.0825
  0
VERTEX
 10
-0.94
 20
0.0825
  0
VERTEX
 10
-0.94
 20
0.1125
  0
VERTEX
 10
-1
 20
0.1125
  0
SEQEND
  0
POLYLINE
 70
     1
  0
VERTEX
 10
-2
 20
-2
  0
VERTEX
 10
-1.78787
 20
-2.21213
  0
VERTEX
 10
-0.212132
 20
-2.21213
  0
VERTEX
 10
2.77556e-17
 20
-2
  0
SEQEND
  0
POLYLINE
 70
     0
  0
VERTEX
 10
-1.15
 20
-2.1125
  0
VERTEX
 10
-1.09
 20
-2.1125
  0
VERTEX
 10
-1.09
 20
-2.0525
  0
VERTEX
 10
-1.15
 20
-2.0525
  0
VERTEX
 10
-1.15
 20
-2.1125
  0
SEQEND
  0
POLYLINE
 70
     0
  0
VERTEX
 10
-1.06
 20
-2.0725
  0
VERTEX
 10
-1.06
 20
-2.0525
  0
VERTEX
 10
-1
 20
-2.0525
  0
VERTEX
 10
-1
 20
-2.0725
  0
VERTEX
 10
-1.02687
 20
-2.09654
  0
VERTEX
 10
-1.02687
 20
-2.11654
  0
SEQEND
  0
POLYLINE
 70
     1
  0
VERTEX
 10
4
 20
-2
  0
VERTEX
 10
4.21213
 20
-1.78787
  0
VERTEX
 10
4.21213
 20
-0.212132
  0
VERTEX
 10
4
 20
2.498e-16
  0
SEQEND
  0
POLYLINE
 70
     0
  0
VERTEX
 10
4.1125
 20
-1.15
  0
VERTEX
 10
4.1125
 20
-1.09
  0
VERTEX
 10
4.0525
 20
-1.09
  0
VERTEX
 10
4.0525
 20
-1.15
  0
VERTEX
 10
4.1125
 20
-1.15
  0
SEQEND
  0
POLYLINE
 70
     0
  0
VERTEX
 10
4.0525
 20
-1.06
  0
VERTEX
 10
4.0525
 20
-1
  0
VERTEX
 10
4.0825
 20
-1
  0
VERTEX
 10
4.0825
 20
-1.03
  0
VERTEX
 10
4.0825
 20
-1
  0
VERTEX
 10
4.1125
 20
-1
  0
VERTEX
 10
4.1125
 20
-1.06
  0
SEQEND
  0
POLYLINE
 70
     1
  0
VERTEX
 10
2
 20
-2
  0
VERTEX
 10
2.21213
 20
-2.21213
  0
VERTEX
 10
3.78787
 20
-2.21213
  0
VERTEX
 10
4
 20
-2
  0
SEQEND
  0
POLYLINE
 70
     0
  0
VERTEX
 10
2.85
 20
-2.1125
  0
VERTEX
 10
2.91
 20
-2.1125
  0
VERTEX
 10
2.91
 20
-2.0525
  0
VERTEX
 10
2.85
 20
-2.0525
  0
VERTEX
 10
2.85
 20
-2.1125
  0
SEQEND
  0
POLYLINE
 70
     0
  0
VERTEX
 10
2.96
 20
-2.0525
  0
VERTEX
 10
2.94
 20
-2.0525
  0
VERTEX
 10
2.94
 20
-2.0925
  0
VERTEX
 10
3
 20
-2.0925
  0
VERTEX
 10
3
 20
-2.1125
  0
VERTEX
 10
2.94
 20
-2.1125
  0
VERTEX
 10
2.94
 20
-2.0925
  0
SEQEND
  0
POLYLINE
 70
     1
  0
VERTEX
 10
4
 20
1.22461e-16
  0
VERTEX
 10
3.78787
 20
0.212132
  0
VERTEX
 10
2.21213
 20
0.212132
  0
VERTEX
 10
2
 20
5.27356e-16
  0
SEQEND
  0
POLYLINE
 70
     0
  0
VERTEX
 10
3.15
 20
0.1125
  0
VERTEX
 10
3.09
 20
0.1125
  0
VERTEX
 10
3.09
 20
0.0525
  0
VERTEX
 10
3.15
 20
0.0525
  0
VERTEX
 10
3.15
 20
0.1125
  0
SEQEND
  0
POLYLINE
 70
     0
  0
VERTEX
 10
3.06
 20
0.0525
  0
VERTEX
 10
3.03
 20
0.0525
  0
VERTEX
 10
3.03
 20
0.1125
  0
VERTEX
 10
3.06
 20
0.1125
  0
VERTEX
 10
3
 20
0.1125
  0
VERTEX
 10
3
 20
0.0925
  0
SEQEND
   0
ENDSEQ
  0
EOF
