<?xml version="1.0" encoding="UTF-8" standalone="no"?>
<svg width="221px" height="57px" viewBox="0 0 221 57" version="1.1" xmlns="http://www.w3.org/2000/svg" xmlns:xlink="http://www.w3.org/1999/xlink">
    <!-- Generator: Sketch 3.6.1 (26313) - http://www.bohemiancoding.com/sketch -->
    <title>Untitled</title>
    <desc>Created with Sketch.</desc>
    <defs></defs>
    <g id="Page-1" stroke="none" stroke-width="1" fill="none" fill-rule="evenodd" stroke-linecap="round" stroke-linejoin="round">
        <g id="1-RenderLayer_LineSet" stroke="#000000">
            <g id="strokes">
                <path d="M215.348,21.126 L211.845,21.125 L211.845,21.733 L213.266,21.733 L213.265,25.559 L213.938,25.559 L213.939,21.734 L215.348,21.734 L215.348,21.126" id="Shape" stroke-width="0.5"></path>
                <path d="M216.67,21.126 L215.782,21.126 L215.782,25.559 L216.467,25.56 L216.467,22.352 L217.545,25.56 L218.197,25.56 L219.276,22.353 L219.275,25.561 L219.96,25.561 L219.961,21.127 L219.073,21.127 L217.871,24.675 L216.67,21.126" id="Shape" stroke-width="0.5"></path>
                <path d="M46.032,23.807 L44.892,23.73 L43.751,23.807 L42.626,24.03 L41.532,24.389 L40.486,24.874 L39.503,25.475 L38.6,26.182 L37.792,26.985 L37.095,27.874 L36.525,28.839 L36.099,29.869 L35.831,30.955 L35.738,32.087 L35.83,33.221 L36.096,34.313 L36.521,35.354 L37.088,36.331 L37.783,37.234 L38.588,38.052 L39.49,38.775 L40.472,39.39 L41.519,39.888 L42.615,40.257 L43.744,40.486 L44.892,40.565 L46.039,40.486 L47.168,40.257 L48.264,39.888 L49.311,39.39 L50.293,38.775 L51.195,38.052 L52.001,37.234 L52.695,36.331 L53.262,35.354 L53.687,34.313 L53.953,33.221 L54.045,32.087 L53.952,30.955 L53.685,29.869 L53.258,28.839 L52.688,27.874 L51.991,26.985 L51.183,26.182 L50.28,25.475 L49.297,24.874 L48.251,24.389 L47.158,24.03 L46.032,23.807" id="Shape"></path>
                <path d="M78.039,20.398 L72.542,18.968 L72.542,28.968 L72.542,38.968 L72.542,43.757 L78.044,43.757 L78.044,41.677 L78.514,42.136 L79.218,42.73 L80.189,43.363 L81.459,43.935 L83.061,44.351 L85.029,44.511 L85.807,44.49 L86.588,44.427 L87.36,44.321 L88.109,44.173 L88.822,43.981 L89.486,43.746 L91.023,42.922 L92.296,41.839 L93.314,40.543 L94.087,39.082 L94.622,37.504 L94.928,35.856 L95.001,34.204 L94.84,32.58 L94.456,31.029 L93.857,29.597 L93.054,28.329 L92.057,27.27 L90.985,26.47 L89.879,25.863 L88.757,25.428 L87.635,25.144 L86.53,24.988 L85.458,24.941 L83.238,25.073 L81.445,25.413 L80.058,25.878 L79.056,26.385 L78.418,26.85 L78.125,27.191 L78.039,27.191 L78.039,20.398" id="Shape"></path>
                <path d="M79.092,31.426 L79.655,30.704 L80.142,30.309 L80.719,29.979 L81.371,29.715 L82.079,29.518 L82.826,29.388 L83.597,29.326 L84.376,29.34 L85.146,29.441 L85.888,29.629 L86.585,29.905 L87.217,30.273 L87.766,30.732 L88.494,31.739 L88.977,33.011 L89.164,34.448 L89.007,35.95 L88.457,37.416 L87.463,38.744 L86.92,39.193 L86.29,39.547 L85.592,39.809 L84.846,39.982 L84.074,40.067 L83.294,40.067 L82.524,39.988 L81.783,39.834 L81.088,39.606 L80.457,39.306 L79.91,38.935 L79.465,38.496 L78.51,36.9 L78.132,35.311 L78.194,33.813 L78.559,32.49 L79.092,31.426" id="Shape"></path>
                <path d="M102.169,20.556 L96.936,20.556 L96.936,30.556 L96.936,40.556 L96.936,43.757 L102.169,43.757 L102.169,33.757 L102.169,23.757 L102.169,20.556" id="Shape"></path>
                <path d="M115.557,24.44 L114.036,24.426 L112.496,24.575 L110.96,24.908 L109.455,25.447 L108.005,26.213 L106.635,27.227 L105.725,28.169 L104.983,29.256 L104.404,30.459 L103.988,31.748 L103.731,33.094 L103.63,34.47 L103.696,35.819 L103.929,37.098 L104.317,38.292 L104.845,39.391 L105.499,40.38 L106.264,41.248 L107.393,42.186 L108.678,42.956 L110.087,43.557 L111.589,43.987 L113.152,44.246 L114.743,44.333 L116.28,44.263 L117.66,44.07 L118.886,43.78 L119.96,43.42 L120.887,43.014 L121.669,42.589 L122.154,42.281 L122.575,41.971 L122.956,41.638 L123.322,41.261 L123.696,40.82 L124.105,40.294 L119.45,37.652 L119.058,38.352 L118.501,38.977 L117.789,39.506 L116.931,39.921 L115.938,40.199 L114.821,40.323 L114.088,40.29 L113.417,40.15 L112.797,39.917 L112.219,39.606 L111.674,39.231 L111.153,38.806 L110.801,38.404 L110.546,37.925 L110.372,37.4 L110.264,36.861 L110.205,36.34 L110.18,35.867 L120.18,35.867 L125.818,35.867 L125.784,34.116 L125.642,32.538 L125.331,31.091 L124.789,29.729 L123.955,28.408 L122.769,27.084 L121.929,26.402 L120.909,25.801 L119.735,25.291 L118.433,24.887 L117.032,24.599 L115.557,24.44" id="Shape"></path>
                <path d="M114.079,28.282 L114.74,28.23 L115.395,28.243 L116.028,28.322 L116.603,28.458 L117.117,28.636 L117.567,28.842 L117.948,29.06 L118.258,29.276 L118.495,29.512 L118.771,29.882 L119.045,30.352 L119.277,30.887 L119.426,31.453 L119.454,32.017 L110.361,32.017 L110.464,31.423 L110.682,30.848 L110.968,30.32 L111.277,29.865 L111.561,29.508 L111.777,29.276 L112.261,28.897 L112.819,28.61 L113.432,28.407 L114.079,28.282" id="Shape"></path>
                <path d="M142.074,24.911 L139.91,24.712 L138.434,24.856 L136.998,25.254 L135.671,25.836 L134.525,26.533 L133.63,27.274 L133.057,27.988 L133.041,27.988 L133.026,27.988 L133.01,27.988 L132.995,27.988 L132.98,27.988 L132.964,27.988 L132.964,26.521 L127.334,26.521 L127.334,36.521 L127.334,43.757 L132.964,43.757 L132.964,35.738 L133.167,33.505 L133.782,31.789 L134.741,30.54 L135.974,29.71 L137.412,29.248 L138.986,29.105 L140.174,29.259 L141.075,29.693 L141.721,30.363 L142.139,31.228 L142.359,32.245 L142.41,33.37 L142.41,43.37 L142.41,43.757 L147.882,43.757 L147.882,33.757 L147.882,29.922 L147.595,28.566 L146.809,27.333 L145.585,26.276 L143.986,25.451 L142.074,24.911" id="Shape"></path>
                <path d="M172.223,43.757 L172.223,33.757 L172.223,23.757 L172.223,18.968 L166.726,20.398 L166.726,27.191 L166.64,27.191 L166.347,26.85 L165.709,26.385 L164.707,25.878 L163.32,25.413 L161.527,25.073 L159.307,24.941 L158.235,24.988 L157.13,25.144 L156.008,25.428 L154.885,25.863 L153.78,26.47 L152.708,27.27 L151.711,28.329 L150.908,29.597 L150.309,31.029 L149.925,32.58 L149.764,34.204 L149.837,35.856 L150.143,37.504 L150.678,39.082 L151.45,40.543 L152.469,41.839 L153.742,42.922 L155.279,43.746 L155.943,43.981 L156.656,44.173 L157.405,44.321 L158.177,44.427 L158.958,44.49 L159.736,44.511 L161.704,44.351 L163.306,43.935 L164.576,43.363 L165.547,42.73 L166.251,42.136 L166.721,41.677 L166.721,43.757 L172.223,43.757" id="Shape"></path>
                <path d="M162.686,29.518 L163.394,29.715 L164.046,29.979 L164.623,30.309 L165.11,30.704 L165.673,31.426 L166.206,32.49 L166.571,33.813 L166.633,35.311 L166.255,36.9 L165.3,38.496 L164.855,38.935 L164.308,39.306 L163.677,39.606 L162.982,39.834 L162.241,39.988 L161.471,40.067 L160.691,40.067 L159.919,39.982 L159.173,39.809 L158.475,39.547 L157.845,39.193 L157.302,38.744 L156.308,37.416 L155.757,35.95 L155.601,34.448 L155.788,33.011 L156.271,31.739 L156.998,30.732 L157.548,30.273 L158.18,29.905 L158.876,29.629 L159.619,29.441 L160.389,29.34 L161.168,29.326 L161.939,29.388 L162.686,29.518" id="Shape"></path>
                <path d="M185.815,24.44 L184.294,24.426 L182.753,24.575 L181.218,24.908 L179.713,25.447 L178.263,26.213 L176.892,27.227 L175.983,28.169 L175.24,29.256 L174.662,30.459 L174.245,31.748 L173.988,33.094 L173.888,34.47 L173.953,35.819 L174.187,37.098 L174.575,38.292 L175.103,39.391 L175.756,40.38 L176.521,41.248 L177.65,42.186 L178.935,42.956 L180.345,43.557 L181.847,43.987 L183.409,44.246 L185,44.333 L186.538,44.263 L187.918,44.07 L189.143,43.78 L190.217,43.42 L191.144,43.014 L191.927,42.589 L192.412,42.281 L192.833,41.971 L193.214,41.638 L193.579,41.261 L193.954,40.82 L194.362,40.294 L189.707,37.652 L189.316,38.352 L188.759,38.977 L188.046,39.506 L187.188,39.921 L186.196,40.199 L185.078,40.323 L184.346,40.29 L183.674,40.15 L183.054,39.917 L182.477,39.606 L181.932,39.231 L181.411,38.806 L181.059,38.404 L180.804,37.925 L180.63,37.4 L180.522,36.861 L180.463,36.34 L180.438,35.867 L190.438,35.867 L196.075,35.867 L196.042,34.116 L195.9,32.538 L195.588,31.091 L195.046,29.729 L194.213,28.408 L193.026,27.084 L192.187,26.402 L191.167,25.801 L189.992,25.291 L188.691,24.887 L187.289,24.599 L185.815,24.44" id="Shape"></path>
                <path d="M184.337,28.282 L184.998,28.23 L185.652,28.243 L186.285,28.322 L186.861,28.458 L187.375,28.636 L187.824,28.842 L188.206,29.06 L188.516,29.276 L188.753,29.512 L189.028,29.882 L189.302,30.352 L189.534,30.887 L189.684,31.453 L189.711,32.017 L180.618,32.017 L180.722,31.423 L180.94,30.848 L181.226,30.32 L181.534,29.865 L181.819,29.508 L182.034,29.276 L182.518,28.897 L183.077,28.61 L183.69,28.407 L184.337,28.282" id="Shape"></path>
                <path d="M210.335,24.532 L208.162,24.532 L207.268,24.668 L206.356,24.968 L205.449,25.436 L204.569,26.074 L203.738,26.885 L202.979,27.872 L202.886,27.872 L202.886,26.6 L197.573,26.6 L197.573,36.6 L197.573,43.757 L202.978,43.757 L202.978,35.636 L203.059,34.128 L203.318,32.854 L203.78,31.791 L204.47,30.917 L205.414,30.21 L206.637,29.648 L207.165,29.498 L207.73,29.408 L208.331,29.363 L208.966,29.349 L209.634,29.352 L210.335,29.356 L210.335,24.532" id="Shape"></path>
                <path d="M36.718,1.044 L36.089,0.954 L35.459,0.966 L34.828,1.09 L34.195,1.339 L33.561,1.723 L32.924,2.255 L32.621,2.592 L32.402,2.934 L32.263,3.28 L32.196,3.627 L32.195,3.973 L32.253,4.314 L32.363,4.65 L32.52,4.977 L32.717,5.292 L32.947,5.594 L33.204,5.881 L33.481,6.149 L41.26,12.432 L41.746,12.825 L31.746,12.83 L21.746,12.836 L16.835,12.838 L16.008,12.857 L15.203,12.925 L14.429,13.043 L13.695,13.212 L13.009,13.435 L12.381,13.712 L11.819,14.044 L11.332,14.434 L10.928,14.882 L10.616,15.391 L10.406,15.961 L10.305,16.594 L10.307,17.055 L10.371,17.474 L10.492,17.853 L10.664,18.193 L10.882,18.493 L11.139,18.755 L11.432,18.979 L11.753,19.167 L12.098,19.317 L12.46,19.432 L12.835,19.512 L13.217,19.557 L23.217,19.536 L27.325,19.528 L19.394,25.619 L11.464,31.71 L4.047,37.407 L3.409,37.932 L2.815,38.472 L2.273,39.027 L1.794,39.593 L1.385,40.171 L1.057,40.759 L0.818,41.355 L0.677,41.958 L0.643,42.567 L0.727,43.18 L0.936,43.796 L1.28,44.414 L1.716,44.96 L2.2,45.387 L2.721,45.704 L3.267,45.922 L3.828,46.052 L4.393,46.103 L4.949,46.084 L5.488,46.007 L5.996,45.882 L6.464,45.718 L6.88,45.525 L7.232,45.314 L8.433,44.375 L9.622,43.436 L10.802,42.496 L11.973,41.557 L13.137,40.618 L14.297,39.679 L15.453,38.74 L16.607,37.801 L17.762,36.861 L18.918,35.922 L20.077,34.983 L21.242,34.044 L21.439,37.022 L22.028,39.866 L22.986,42.553 L24.291,45.059 L25.92,47.359 L27.852,49.43 L30.063,51.248 L32.532,52.788 L35.236,54.028 L38.153,54.944 L41.26,55.511 L44.535,55.705 L47.813,55.509 L50.928,54.939 L53.856,54.017 L56.574,52.767 L59.058,51.212 L61.285,49.376 L63.231,47.282 L64.871,44.952 L66.184,42.412 L67.144,39.683 L67.729,36.79 L67.914,33.756 L67.806,31.602 L67.521,29.636 L67.07,27.837 L66.463,26.187 L65.712,24.665 L64.827,23.254 L63.82,21.933 L62.702,20.684 L61.483,19.487 L60.174,18.323 L58.786,17.173 L57.33,16.018 L55.67,14.722 L54.099,13.502 L52.604,12.346 L51.171,11.244 L49.789,10.186 L48.445,9.16 L47.126,8.155 L45.819,7.162 L44.513,6.168 L43.193,5.164 L41.849,4.137 L40.467,3.079 L39.845,2.619 L39.221,2.192 L38.597,1.81 L37.972,1.484 L37.346,1.225 L36.718,1.044" id="Shape"></path>
                <path d="M42.628,19.53 L44.493,19.411 L46.358,19.53 L48.168,19.877 L49.904,20.437 L51.544,21.193 L53.067,22.13 L54.454,23.232 L55.684,24.484 L56.737,25.869 L57.591,27.372 L58.227,28.978 L58.623,30.671 L58.76,32.435 L58.624,34.202 L58.23,35.905 L57.598,37.527 L56.748,39.05 L55.7,40.458 L54.473,41.733 L53.089,42.859 L51.566,43.818 L49.925,44.594 L48.186,45.169 L46.369,45.526 L44.493,45.649 L42.617,45.526 L40.8,45.169 L39.061,44.594 L37.42,43.818 L35.897,42.859 L34.513,41.733 L33.286,40.458 L32.238,39.05 L31.388,37.527 L30.756,35.905 L30.362,34.202 L30.226,32.435 L30.363,30.671 L30.759,28.978 L31.395,27.372 L32.249,25.869 L33.302,24.484 L34.532,23.232 L35.919,22.13 L37.442,21.193 L39.082,20.437 L40.818,19.877 L42.628,19.53" id="Shape"></path>
            </g>
        </g>
    </g>
</svg>